M48
; DRILL file {KiCad (5.1.2)-2} date 20/10/2019 14:34:12
; FORMAT={-:-/ absolute / metric / decimal}
; #@! TF.CreationDate,2019-10-20T14:34:12-03:00
; #@! TF.GenerationSoftware,Kicad,Pcbnew,(5.1.2)-2
FMAT,2
METRIC
T1C0.400
T2C0.762
T3C0.800
T4C0.950
T5C3.000
%
G90
G05
T1
X68.5Y-55.45
T2
X59.85Y-44.3
X59.85Y-46.8
X59.85Y-49.3
X59.85Y-51.8
X59.85Y-54.3
X59.85Y-56.8
X58.0Y-62.55
X60.5Y-62.55
X63.0Y-62.55
X65.5Y-62.55
X68.0Y-62.55
X80.75Y-42.45
X80.75Y-44.95
X80.75Y-47.45
X80.75Y-49.95
X80.75Y-52.45
X80.75Y-54.95
X80.75Y-57.45
X80.75Y-59.95
X48.45Y-47.05
X48.45Y-49.55
X48.45Y-52.05
X48.45Y-54.55
T3
X55.73Y-39.05
X63.35Y-39.05
X70.5Y-62.55
X40.2Y-43.0
X40.2Y-50.62
X66.9Y-39.05
X74.52Y-39.05
T4
X86.35Y-68.85
X87.407Y-66.584
X88.463Y-64.318
X89.52Y-62.053
X90.576Y-59.787
X91.633Y-57.521
X38.625Y-57.454
X39.48Y-59.803
X40.335Y-62.152
X41.19Y-64.502
X42.045Y-66.851
X42.9Y-69.2
X67.95Y-28.0
X70.45Y-28.0
X72.95Y-28.0
X56.8Y-28.0
X59.3Y-28.0
X61.8Y-28.0
X89.2Y-42.05
X89.2Y-44.55
X89.2Y-47.05
X89.2Y-49.55
T5
X44.55Y-75.35
X85.25Y-75.4
X85.3Y-34.6
X44.5Y-34.8
T0
M30
