G04 #@! TF.GenerationSoftware,KiCad,Pcbnew,(5.1.2)-2*
G04 #@! TF.CreationDate,2019-10-20T14:34:09-03:00*
G04 #@! TF.ProjectId,placa_sensores,706c6163-615f-4736-956e-736f7265732e,rev?*
G04 #@! TF.SameCoordinates,Original*
G04 #@! TF.FileFunction,Copper,L1,Top*
G04 #@! TF.FilePolarity,Positive*
%FSLAX46Y46*%
G04 Gerber Fmt 4.6, Leading zero omitted, Abs format (unit mm)*
G04 Created by KiCad (PCBNEW (5.1.2)-2) date 2019-10-20 14:34:09*
%MOMM*%
%LPD*%
G04 APERTURE LIST*
%ADD10C,2.000000*%
%ADD11C,3.000000*%
%ADD12C,1.700000*%
%ADD13C,1.700000*%
%ADD14C,0.100000*%
%ADD15O,1.950000X1.700000*%
%ADD16O,1.700000X1.950000*%
%ADD17C,0.800000*%
%ADD18C,0.500000*%
%ADD19C,0.600000*%
%ADD20C,0.254000*%
G04 APERTURE END LIST*
D10*
X70500000Y-62550000D03*
X68000000Y-62550000D03*
X65500000Y-62550000D03*
X63000000Y-62550000D03*
X60500000Y-62550000D03*
X58000000Y-62550000D03*
X80750000Y-59950000D03*
X80750000Y-57450000D03*
X80750000Y-54950000D03*
X80750000Y-52450000D03*
X80750000Y-49950000D03*
X80750000Y-47450000D03*
X80750000Y-44950000D03*
X80750000Y-42450000D03*
X59850000Y-56800000D03*
X59850000Y-54300000D03*
X59850000Y-51800000D03*
X59850000Y-49300000D03*
X59850000Y-46800000D03*
X59850000Y-44300000D03*
X48450000Y-47050000D03*
X48450000Y-49550000D03*
X48450000Y-52050000D03*
X48450000Y-54550000D03*
D11*
X44500000Y-34800000D03*
X85300000Y-34600000D03*
X85250000Y-75400000D03*
X44550000Y-75350000D03*
D12*
X91632728Y-57521153D03*
D13*
X91519440Y-57468326D02*
X91746016Y-57573980D01*
D12*
X90576183Y-59786922D03*
D13*
X90462895Y-59734095D02*
X90689471Y-59839749D01*
D12*
X89519637Y-62052692D03*
D13*
X89406349Y-61999865D02*
X89632925Y-62105519D01*
D12*
X88463091Y-64318461D03*
D13*
X88349803Y-64265634D02*
X88576379Y-64371288D01*
D12*
X87406546Y-66584231D03*
D13*
X87293258Y-66531404D02*
X87519834Y-66637058D01*
D14*
G36*
X85981831Y-67752326D02*
G01*
X86005920Y-67756981D01*
X86029435Y-67763975D01*
X86052153Y-67773240D01*
X87366299Y-68386037D01*
X87387998Y-68397484D01*
X87408471Y-68411003D01*
X87427521Y-68426463D01*
X87444963Y-68443717D01*
X87460631Y-68462596D01*
X87474372Y-68482921D01*
X87486055Y-68504494D01*
X87495567Y-68527109D01*
X87502817Y-68550547D01*
X87507734Y-68574583D01*
X87510272Y-68598985D01*
X87510406Y-68623519D01*
X87508135Y-68647947D01*
X87503479Y-68672036D01*
X87496486Y-68695551D01*
X87487221Y-68718269D01*
X86980079Y-69805838D01*
X86968632Y-69827537D01*
X86955113Y-69848010D01*
X86939653Y-69867060D01*
X86922400Y-69884502D01*
X86903520Y-69900170D01*
X86883195Y-69913911D01*
X86861622Y-69925594D01*
X86839007Y-69935106D01*
X86815569Y-69942356D01*
X86791533Y-69947273D01*
X86767131Y-69949811D01*
X86742597Y-69949945D01*
X86718169Y-69947674D01*
X86694080Y-69943019D01*
X86670565Y-69936025D01*
X86647847Y-69926760D01*
X85333701Y-69313963D01*
X85312002Y-69302516D01*
X85291529Y-69288997D01*
X85272479Y-69273537D01*
X85255037Y-69256283D01*
X85239369Y-69237404D01*
X85225628Y-69217079D01*
X85213945Y-69195506D01*
X85204433Y-69172891D01*
X85197183Y-69149453D01*
X85192266Y-69125417D01*
X85189728Y-69101015D01*
X85189594Y-69076481D01*
X85191865Y-69052053D01*
X85196521Y-69027964D01*
X85203514Y-69004449D01*
X85212779Y-68981731D01*
X85719921Y-67894162D01*
X85731368Y-67872463D01*
X85744887Y-67851990D01*
X85760347Y-67832940D01*
X85777600Y-67815498D01*
X85796480Y-67799830D01*
X85816805Y-67786089D01*
X85838378Y-67774406D01*
X85860993Y-67764894D01*
X85884431Y-67757644D01*
X85908467Y-67752727D01*
X85932869Y-67750189D01*
X85957403Y-67750055D01*
X85981831Y-67752326D01*
X85981831Y-67752326D01*
G37*
D12*
X86350000Y-68850000D03*
X38624748Y-57453842D03*
D13*
X38507286Y-57496595D02*
X38742210Y-57411089D01*
D12*
X39479799Y-59803074D03*
D13*
X39362337Y-59845827D02*
X39597261Y-59760321D01*
D12*
X40334849Y-62152305D03*
D13*
X40217387Y-62195058D02*
X40452311Y-62109552D01*
D12*
X41189899Y-64501537D03*
D13*
X41072437Y-64544290D02*
X41307361Y-64458784D01*
D12*
X42044950Y-66850768D03*
D13*
X41927488Y-66893521D02*
X42162412Y-66808015D01*
D14*
G36*
X43411398Y-68140729D02*
G01*
X43435486Y-68145384D01*
X43459002Y-68152378D01*
X43481720Y-68161643D01*
X43503419Y-68173090D01*
X43523892Y-68186609D01*
X43542942Y-68202069D01*
X43560384Y-68219322D01*
X43576052Y-68238202D01*
X43589793Y-68258527D01*
X43601476Y-68280100D01*
X43610988Y-68302715D01*
X44021412Y-69430346D01*
X44028662Y-69453784D01*
X44033579Y-69477820D01*
X44036117Y-69502222D01*
X44036251Y-69526756D01*
X44033980Y-69551184D01*
X44029325Y-69575272D01*
X44022331Y-69598788D01*
X44013066Y-69621506D01*
X44001619Y-69643205D01*
X43988100Y-69663678D01*
X43972640Y-69682728D01*
X43955387Y-69700170D01*
X43936507Y-69715838D01*
X43916182Y-69729579D01*
X43894609Y-69741262D01*
X43871994Y-69750774D01*
X42509440Y-70246703D01*
X42486002Y-70253953D01*
X42461966Y-70258870D01*
X42437564Y-70261408D01*
X42413030Y-70261542D01*
X42388602Y-70259271D01*
X42364514Y-70254616D01*
X42340998Y-70247622D01*
X42318280Y-70238357D01*
X42296581Y-70226910D01*
X42276108Y-70213391D01*
X42257058Y-70197931D01*
X42239616Y-70180678D01*
X42223948Y-70161798D01*
X42210207Y-70141473D01*
X42198524Y-70119900D01*
X42189012Y-70097285D01*
X41778588Y-68969654D01*
X41771338Y-68946216D01*
X41766421Y-68922180D01*
X41763883Y-68897778D01*
X41763749Y-68873244D01*
X41766020Y-68848816D01*
X41770675Y-68824728D01*
X41777669Y-68801212D01*
X41786934Y-68778494D01*
X41798381Y-68756795D01*
X41811900Y-68736322D01*
X41827360Y-68717272D01*
X41844613Y-68699830D01*
X41863493Y-68684162D01*
X41883818Y-68670421D01*
X41905391Y-68658738D01*
X41928006Y-68649226D01*
X43290560Y-68153297D01*
X43313998Y-68146047D01*
X43338034Y-68141130D01*
X43362436Y-68138592D01*
X43386970Y-68138458D01*
X43411398Y-68140729D01*
X43411398Y-68140729D01*
G37*
D12*
X42900000Y-69200000D03*
D15*
X89200000Y-49550000D03*
X89200000Y-47050000D03*
X89200000Y-44550000D03*
D14*
G36*
X89949504Y-41201204D02*
G01*
X89973773Y-41204804D01*
X89997571Y-41210765D01*
X90020671Y-41219030D01*
X90042849Y-41229520D01*
X90063893Y-41242133D01*
X90083598Y-41256747D01*
X90101777Y-41273223D01*
X90118253Y-41291402D01*
X90132867Y-41311107D01*
X90145480Y-41332151D01*
X90155970Y-41354329D01*
X90164235Y-41377429D01*
X90170196Y-41401227D01*
X90173796Y-41425496D01*
X90175000Y-41450000D01*
X90175000Y-42650000D01*
X90173796Y-42674504D01*
X90170196Y-42698773D01*
X90164235Y-42722571D01*
X90155970Y-42745671D01*
X90145480Y-42767849D01*
X90132867Y-42788893D01*
X90118253Y-42808598D01*
X90101777Y-42826777D01*
X90083598Y-42843253D01*
X90063893Y-42857867D01*
X90042849Y-42870480D01*
X90020671Y-42880970D01*
X89997571Y-42889235D01*
X89973773Y-42895196D01*
X89949504Y-42898796D01*
X89925000Y-42900000D01*
X88475000Y-42900000D01*
X88450496Y-42898796D01*
X88426227Y-42895196D01*
X88402429Y-42889235D01*
X88379329Y-42880970D01*
X88357151Y-42870480D01*
X88336107Y-42857867D01*
X88316402Y-42843253D01*
X88298223Y-42826777D01*
X88281747Y-42808598D01*
X88267133Y-42788893D01*
X88254520Y-42767849D01*
X88244030Y-42745671D01*
X88235765Y-42722571D01*
X88229804Y-42698773D01*
X88226204Y-42674504D01*
X88225000Y-42650000D01*
X88225000Y-41450000D01*
X88226204Y-41425496D01*
X88229804Y-41401227D01*
X88235765Y-41377429D01*
X88244030Y-41354329D01*
X88254520Y-41332151D01*
X88267133Y-41311107D01*
X88281747Y-41291402D01*
X88298223Y-41273223D01*
X88316402Y-41256747D01*
X88336107Y-41242133D01*
X88357151Y-41229520D01*
X88379329Y-41219030D01*
X88402429Y-41210765D01*
X88426227Y-41204804D01*
X88450496Y-41201204D01*
X88475000Y-41200000D01*
X89925000Y-41200000D01*
X89949504Y-41201204D01*
X89949504Y-41201204D01*
G37*
D12*
X89200000Y-42050000D03*
D16*
X61800000Y-28000000D03*
X59300000Y-28000000D03*
D14*
G36*
X57424504Y-27026204D02*
G01*
X57448773Y-27029804D01*
X57472571Y-27035765D01*
X57495671Y-27044030D01*
X57517849Y-27054520D01*
X57538893Y-27067133D01*
X57558598Y-27081747D01*
X57576777Y-27098223D01*
X57593253Y-27116402D01*
X57607867Y-27136107D01*
X57620480Y-27157151D01*
X57630970Y-27179329D01*
X57639235Y-27202429D01*
X57645196Y-27226227D01*
X57648796Y-27250496D01*
X57650000Y-27275000D01*
X57650000Y-28725000D01*
X57648796Y-28749504D01*
X57645196Y-28773773D01*
X57639235Y-28797571D01*
X57630970Y-28820671D01*
X57620480Y-28842849D01*
X57607867Y-28863893D01*
X57593253Y-28883598D01*
X57576777Y-28901777D01*
X57558598Y-28918253D01*
X57538893Y-28932867D01*
X57517849Y-28945480D01*
X57495671Y-28955970D01*
X57472571Y-28964235D01*
X57448773Y-28970196D01*
X57424504Y-28973796D01*
X57400000Y-28975000D01*
X56200000Y-28975000D01*
X56175496Y-28973796D01*
X56151227Y-28970196D01*
X56127429Y-28964235D01*
X56104329Y-28955970D01*
X56082151Y-28945480D01*
X56061107Y-28932867D01*
X56041402Y-28918253D01*
X56023223Y-28901777D01*
X56006747Y-28883598D01*
X55992133Y-28863893D01*
X55979520Y-28842849D01*
X55969030Y-28820671D01*
X55960765Y-28797571D01*
X55954804Y-28773773D01*
X55951204Y-28749504D01*
X55950000Y-28725000D01*
X55950000Y-27275000D01*
X55951204Y-27250496D01*
X55954804Y-27226227D01*
X55960765Y-27202429D01*
X55969030Y-27179329D01*
X55979520Y-27157151D01*
X55992133Y-27136107D01*
X56006747Y-27116402D01*
X56023223Y-27098223D01*
X56041402Y-27081747D01*
X56061107Y-27067133D01*
X56082151Y-27054520D01*
X56104329Y-27044030D01*
X56127429Y-27035765D01*
X56151227Y-27029804D01*
X56175496Y-27026204D01*
X56200000Y-27025000D01*
X57400000Y-27025000D01*
X57424504Y-27026204D01*
X57424504Y-27026204D01*
G37*
D12*
X56800000Y-28000000D03*
D16*
X67950000Y-28000000D03*
X70450000Y-28000000D03*
D14*
G36*
X73574504Y-27026204D02*
G01*
X73598773Y-27029804D01*
X73622571Y-27035765D01*
X73645671Y-27044030D01*
X73667849Y-27054520D01*
X73688893Y-27067133D01*
X73708598Y-27081747D01*
X73726777Y-27098223D01*
X73743253Y-27116402D01*
X73757867Y-27136107D01*
X73770480Y-27157151D01*
X73780970Y-27179329D01*
X73789235Y-27202429D01*
X73795196Y-27226227D01*
X73798796Y-27250496D01*
X73800000Y-27275000D01*
X73800000Y-28725000D01*
X73798796Y-28749504D01*
X73795196Y-28773773D01*
X73789235Y-28797571D01*
X73780970Y-28820671D01*
X73770480Y-28842849D01*
X73757867Y-28863893D01*
X73743253Y-28883598D01*
X73726777Y-28901777D01*
X73708598Y-28918253D01*
X73688893Y-28932867D01*
X73667849Y-28945480D01*
X73645671Y-28955970D01*
X73622571Y-28964235D01*
X73598773Y-28970196D01*
X73574504Y-28973796D01*
X73550000Y-28975000D01*
X72350000Y-28975000D01*
X72325496Y-28973796D01*
X72301227Y-28970196D01*
X72277429Y-28964235D01*
X72254329Y-28955970D01*
X72232151Y-28945480D01*
X72211107Y-28932867D01*
X72191402Y-28918253D01*
X72173223Y-28901777D01*
X72156747Y-28883598D01*
X72142133Y-28863893D01*
X72129520Y-28842849D01*
X72119030Y-28820671D01*
X72110765Y-28797571D01*
X72104804Y-28773773D01*
X72101204Y-28749504D01*
X72100000Y-28725000D01*
X72100000Y-27275000D01*
X72101204Y-27250496D01*
X72104804Y-27226227D01*
X72110765Y-27202429D01*
X72119030Y-27179329D01*
X72129520Y-27157151D01*
X72142133Y-27136107D01*
X72156747Y-27116402D01*
X72173223Y-27098223D01*
X72191402Y-27081747D01*
X72211107Y-27067133D01*
X72232151Y-27054520D01*
X72254329Y-27044030D01*
X72277429Y-27035765D01*
X72301227Y-27029804D01*
X72325496Y-27026204D01*
X72350000Y-27025000D01*
X73550000Y-27025000D01*
X73574504Y-27026204D01*
X73574504Y-27026204D01*
G37*
D12*
X72950000Y-28000000D03*
D17*
X68500000Y-55450000D03*
D18*
X79750001Y-55949999D02*
X80750000Y-54950000D01*
X74650001Y-61049999D02*
X79750001Y-55949999D01*
X47845719Y-61049999D02*
X74650001Y-61049999D01*
X42044950Y-66850768D02*
X47845719Y-61049999D01*
X79750001Y-53449999D02*
X80750000Y-52450000D01*
X74899999Y-58300001D02*
X79750001Y-53449999D01*
X47391435Y-58300001D02*
X74899999Y-58300001D01*
X41189899Y-64501537D02*
X47391435Y-58300001D01*
D19*
X67950000Y-28000000D02*
X61800000Y-28000000D01*
D18*
X52100000Y-54550000D02*
X59850000Y-46800000D01*
X48450000Y-54550000D02*
X52100000Y-54550000D01*
X59850000Y-46800000D02*
X68500000Y-55450000D01*
D19*
X70450000Y-27875000D02*
X70450000Y-28000000D01*
X68949990Y-26374990D02*
X70450000Y-27875000D01*
X60800010Y-26374990D02*
X68949990Y-26374990D01*
X59300000Y-27875000D02*
X60800010Y-26374990D01*
X59300000Y-28000000D02*
X59300000Y-27875000D01*
D18*
X57100000Y-47050000D02*
X59850000Y-44300000D01*
X48450000Y-47050000D02*
X57100000Y-47050000D01*
D19*
X72051628Y-27101628D02*
X72950000Y-28000000D01*
X70374980Y-25424980D02*
X72051628Y-27101628D01*
X58300020Y-25424980D02*
X70374980Y-25424980D01*
X56800000Y-26925000D02*
X58300020Y-25424980D01*
X56800000Y-28000000D02*
X56800000Y-26925000D01*
X89075000Y-47050000D02*
X89200000Y-47050000D01*
X87149990Y-48975010D02*
X89075000Y-47050000D01*
X87149990Y-62012681D02*
X87149990Y-48975010D01*
X88463091Y-63325782D02*
X87149990Y-62012681D01*
X88463091Y-64318461D02*
X88463091Y-63325782D01*
X86301744Y-66584231D02*
X84850000Y-65132487D01*
X84850000Y-65132487D02*
X84850000Y-46550000D01*
X84850000Y-46550000D02*
X80750000Y-42450000D01*
X87406546Y-66584231D02*
X86301744Y-66584231D01*
X80044178Y-68850000D02*
X75679304Y-64485126D01*
X75679304Y-64485126D02*
X62435126Y-64485126D01*
X62435126Y-64485126D02*
X60500000Y-62550000D01*
X86350000Y-68850000D02*
X80044178Y-68850000D01*
X89519637Y-62052692D02*
X88000000Y-60533055D01*
X89200000Y-51000000D02*
X89200000Y-49550000D01*
X88000000Y-52200000D02*
X89200000Y-51000000D01*
X88000000Y-60533055D02*
X88000000Y-52200000D01*
X89325000Y-44550000D02*
X89200000Y-44550000D01*
X91632728Y-57521153D02*
X92327442Y-56826439D01*
X92327442Y-56826439D02*
X92327442Y-47552442D01*
X92327442Y-47552442D02*
X89325000Y-44550000D01*
X91636237Y-59786922D02*
X94050000Y-57373159D01*
X90576183Y-59786922D02*
X91636237Y-59786922D01*
X94050000Y-46900000D02*
X89200000Y-42050000D01*
X94050000Y-57373159D02*
X94050000Y-46900000D01*
D20*
G36*
X72941812Y-25466593D02*
G01*
X74990790Y-26099094D01*
X76990662Y-26872988D01*
X78931665Y-27784493D01*
X80804355Y-28829176D01*
X82599629Y-30001956D01*
X84308713Y-31297109D01*
X85082002Y-31973000D01*
X85041263Y-31973000D01*
X84533732Y-32073954D01*
X84055649Y-32271983D01*
X83625385Y-32559476D01*
X83259476Y-32925385D01*
X82971983Y-33355649D01*
X82773954Y-33833732D01*
X82673000Y-34341263D01*
X82673000Y-34858737D01*
X82773954Y-35366268D01*
X82971983Y-35844351D01*
X83259476Y-36274615D01*
X83625385Y-36640524D01*
X84055649Y-36928017D01*
X84533732Y-37126046D01*
X85041263Y-37227000D01*
X85558737Y-37227000D01*
X86066268Y-37126046D01*
X86544351Y-36928017D01*
X86974615Y-36640524D01*
X87340524Y-36274615D01*
X87628017Y-35844351D01*
X87826046Y-35366268D01*
X87927000Y-34858737D01*
X87927000Y-34797252D01*
X88837936Y-35850910D01*
X90123816Y-37566968D01*
X91286859Y-39368549D01*
X92321392Y-41246864D01*
X93222393Y-43192792D01*
X93752132Y-44584049D01*
X91307453Y-42139371D01*
X91307453Y-41450000D01*
X91280890Y-41180297D01*
X91202220Y-40920958D01*
X91074468Y-40681950D01*
X90902542Y-40472458D01*
X90693050Y-40300532D01*
X90454042Y-40172780D01*
X90194703Y-40094110D01*
X89925000Y-40067547D01*
X88475000Y-40067547D01*
X88205297Y-40094110D01*
X87945958Y-40172780D01*
X87706950Y-40300532D01*
X87497458Y-40472458D01*
X87325532Y-40681950D01*
X87197780Y-40920958D01*
X87119110Y-41180297D01*
X87092547Y-41450000D01*
X87092547Y-42650000D01*
X87119110Y-42919703D01*
X87197780Y-43179042D01*
X87325532Y-43418050D01*
X87393849Y-43501295D01*
X87239653Y-43789774D01*
X87126606Y-44162440D01*
X87088435Y-44550000D01*
X87126606Y-44937560D01*
X87239653Y-45310226D01*
X87423232Y-45653676D01*
X87543316Y-45800000D01*
X87423232Y-45946324D01*
X87239653Y-46289774D01*
X87126606Y-46662440D01*
X87091878Y-47015040D01*
X86277000Y-47829918D01*
X86277000Y-46620090D01*
X86283903Y-46550000D01*
X86277000Y-46479910D01*
X86277000Y-46479902D01*
X86256352Y-46270259D01*
X86174755Y-46001269D01*
X86042248Y-45753366D01*
X86023781Y-45730864D01*
X85908608Y-45590525D01*
X85908605Y-45590522D01*
X85863923Y-45536077D01*
X85809478Y-45491395D01*
X82877000Y-42558918D01*
X82877000Y-42240509D01*
X82795261Y-41829577D01*
X82634923Y-41442488D01*
X82402149Y-41094116D01*
X82105884Y-40797851D01*
X81757512Y-40565077D01*
X81370423Y-40404739D01*
X80959491Y-40323000D01*
X80540509Y-40323000D01*
X80129577Y-40404739D01*
X79742488Y-40565077D01*
X79394116Y-40797851D01*
X79097851Y-41094116D01*
X78865077Y-41442488D01*
X78704739Y-41829577D01*
X78623000Y-42240509D01*
X78623000Y-42659491D01*
X78704739Y-43070423D01*
X78865077Y-43457512D01*
X79027102Y-43700000D01*
X78865077Y-43942488D01*
X78704739Y-44329577D01*
X78623000Y-44740509D01*
X78623000Y-45159491D01*
X78704739Y-45570423D01*
X78865077Y-45957512D01*
X79027102Y-46200000D01*
X78865077Y-46442488D01*
X78704739Y-46829577D01*
X78623000Y-47240509D01*
X78623000Y-47659491D01*
X78704739Y-48070423D01*
X78865077Y-48457512D01*
X79027102Y-48700000D01*
X78865077Y-48942488D01*
X78704739Y-49329577D01*
X78623000Y-49740509D01*
X78623000Y-50159491D01*
X78704739Y-50570423D01*
X78865077Y-50957512D01*
X79027102Y-51200000D01*
X78865077Y-51442488D01*
X78704739Y-51829577D01*
X78623000Y-52240509D01*
X78623000Y-52629627D01*
X74329628Y-56923001D01*
X61977000Y-56923001D01*
X61977000Y-56590509D01*
X61895261Y-56179577D01*
X61734923Y-55792488D01*
X61572898Y-55550000D01*
X61734923Y-55307512D01*
X61895261Y-54920423D01*
X61977000Y-54509491D01*
X61977000Y-54090509D01*
X61895261Y-53679577D01*
X61734923Y-53292488D01*
X61572898Y-53050000D01*
X61734923Y-52807512D01*
X61895261Y-52420423D01*
X61977000Y-52009491D01*
X61977000Y-51590509D01*
X61895261Y-51179577D01*
X61734923Y-50792488D01*
X61572898Y-50550000D01*
X61734923Y-50307512D01*
X61895261Y-49920423D01*
X61977000Y-49509491D01*
X61977000Y-49090509D01*
X61895261Y-48679577D01*
X61734923Y-48292488D01*
X61502149Y-47944116D01*
X61205884Y-47647851D01*
X61063680Y-47552833D01*
X61161653Y-47379354D01*
X61249477Y-47112331D01*
X61283519Y-46833306D01*
X61262473Y-46553001D01*
X61187145Y-46282186D01*
X61067253Y-46044779D01*
X61205884Y-45952149D01*
X61502149Y-45655884D01*
X61734923Y-45307512D01*
X61895261Y-44920423D01*
X61977000Y-44509491D01*
X61977000Y-44090509D01*
X61895261Y-43679577D01*
X61734923Y-43292488D01*
X61502149Y-42944116D01*
X61205884Y-42647851D01*
X60857512Y-42415077D01*
X60470423Y-42254739D01*
X60059491Y-42173000D01*
X59640509Y-42173000D01*
X59229577Y-42254739D01*
X58842488Y-42415077D01*
X58494116Y-42647851D01*
X58197851Y-42944116D01*
X57965077Y-43292488D01*
X57804739Y-43679577D01*
X57723000Y-44090509D01*
X57723000Y-44479628D01*
X56529629Y-45673000D01*
X50081033Y-45673000D01*
X49805884Y-45397851D01*
X49457512Y-45165077D01*
X49070423Y-45004739D01*
X48659491Y-44923000D01*
X48240509Y-44923000D01*
X47829577Y-45004739D01*
X47442488Y-45165077D01*
X47094116Y-45397851D01*
X46797851Y-45694116D01*
X46565077Y-46042488D01*
X46404739Y-46429577D01*
X46323000Y-46840509D01*
X46323000Y-47259491D01*
X46404739Y-47670423D01*
X46565077Y-48057512D01*
X46727102Y-48300000D01*
X46565077Y-48542488D01*
X46404739Y-48929577D01*
X46323000Y-49340509D01*
X46323000Y-49759491D01*
X46404739Y-50170423D01*
X46565077Y-50557512D01*
X46727102Y-50800000D01*
X46565077Y-51042488D01*
X46404739Y-51429577D01*
X46323000Y-51840509D01*
X46323000Y-52259491D01*
X46404739Y-52670423D01*
X46565077Y-53057512D01*
X46797851Y-53405884D01*
X47094116Y-53702149D01*
X47236320Y-53797167D01*
X47138347Y-53970646D01*
X47050523Y-54237669D01*
X47016481Y-54516694D01*
X47037527Y-54796999D01*
X47112855Y-55067814D01*
X47239568Y-55318728D01*
X47276576Y-55374113D01*
X47495437Y-55472036D01*
X48417473Y-54550000D01*
X48403331Y-54535858D01*
X48435858Y-54503331D01*
X48450000Y-54517473D01*
X48464142Y-54503331D01*
X48496669Y-54535858D01*
X48482527Y-54550000D01*
X49404563Y-55472036D01*
X49623424Y-55374113D01*
X49761653Y-55129354D01*
X49849477Y-54862331D01*
X49883519Y-54583306D01*
X49862473Y-54303001D01*
X49787145Y-54032186D01*
X49667253Y-53794779D01*
X49805884Y-53702149D01*
X50102149Y-53405884D01*
X50334923Y-53057512D01*
X50495261Y-52670423D01*
X50577000Y-52259491D01*
X50577000Y-51840509D01*
X50495261Y-51429577D01*
X50334923Y-51042488D01*
X50172898Y-50800000D01*
X50334923Y-50557512D01*
X50495261Y-50170423D01*
X50577000Y-49759491D01*
X50577000Y-49340509D01*
X50495261Y-48929577D01*
X50334923Y-48542488D01*
X50257757Y-48427000D01*
X57032360Y-48427000D01*
X57100000Y-48433662D01*
X57369939Y-48407075D01*
X57476484Y-48374755D01*
X57629505Y-48328337D01*
X57868721Y-48200473D01*
X58078397Y-48028397D01*
X58121521Y-47975850D01*
X58602347Y-47495024D01*
X58632747Y-47555221D01*
X58494116Y-47647851D01*
X58197851Y-47944116D01*
X57965077Y-48292488D01*
X57804739Y-48679577D01*
X57723000Y-49090509D01*
X57723000Y-49509491D01*
X57804739Y-49920423D01*
X57965077Y-50307512D01*
X58127102Y-50550000D01*
X57965077Y-50792488D01*
X57804739Y-51179577D01*
X57723000Y-51590509D01*
X57723000Y-52009491D01*
X57804739Y-52420423D01*
X57965077Y-52807512D01*
X58127102Y-53050000D01*
X57965077Y-53292488D01*
X57804739Y-53679577D01*
X57723000Y-54090509D01*
X57723000Y-54509491D01*
X57804739Y-54920423D01*
X57965077Y-55307512D01*
X58127102Y-55550000D01*
X57965077Y-55792488D01*
X57804739Y-56179577D01*
X57723000Y-56590509D01*
X57723000Y-56923001D01*
X47459071Y-56923001D01*
X47391434Y-56916339D01*
X47323797Y-56923001D01*
X47323795Y-56923001D01*
X47121496Y-56942926D01*
X46861930Y-57021664D01*
X46622714Y-57149528D01*
X46413038Y-57321604D01*
X46369920Y-57374144D01*
X42317413Y-61426651D01*
X42150646Y-61078971D01*
X41916956Y-60767445D01*
X41626981Y-60507496D01*
X41464097Y-60411070D01*
X41526895Y-60232494D01*
X41581935Y-59846969D01*
X41560704Y-59458114D01*
X41464019Y-59080872D01*
X41295596Y-58729740D01*
X41061906Y-58418214D01*
X40771931Y-58158265D01*
X40609046Y-58061839D01*
X40671844Y-57883262D01*
X40726884Y-57497737D01*
X40705653Y-57108882D01*
X40608968Y-56731640D01*
X40440545Y-56380508D01*
X40206855Y-56068982D01*
X39916880Y-55809033D01*
X39581764Y-55610648D01*
X39280095Y-55504563D01*
X47527964Y-55504563D01*
X47625887Y-55723424D01*
X47870646Y-55861653D01*
X48137669Y-55949477D01*
X48416694Y-55983519D01*
X48696999Y-55962473D01*
X48967814Y-55887145D01*
X49218728Y-55760432D01*
X49274113Y-55723424D01*
X49372036Y-55504563D01*
X48450000Y-54582527D01*
X47527964Y-55504563D01*
X39280095Y-55504563D01*
X39214383Y-55481455D01*
X38828858Y-55426415D01*
X38440003Y-55447645D01*
X38157291Y-55520103D01*
X37739849Y-55672041D01*
X37476705Y-55798260D01*
X37165178Y-56031949D01*
X36905229Y-56321925D01*
X36706845Y-56657041D01*
X36577652Y-57024422D01*
X36522612Y-57409947D01*
X36543842Y-57798802D01*
X36640528Y-58176044D01*
X36808951Y-58527176D01*
X37042640Y-58838703D01*
X37332616Y-59098652D01*
X37495501Y-59195078D01*
X37432703Y-59373654D01*
X37377663Y-59759179D01*
X37398893Y-60148034D01*
X37495579Y-60525276D01*
X37664002Y-60876408D01*
X37897691Y-61187935D01*
X38187667Y-61447884D01*
X38350551Y-61544309D01*
X38287753Y-61722885D01*
X38232713Y-62108410D01*
X38253943Y-62497265D01*
X38350629Y-62874507D01*
X38519052Y-63225639D01*
X38752741Y-63537166D01*
X39042717Y-63797115D01*
X39205601Y-63893540D01*
X39142803Y-64072117D01*
X39087763Y-64457642D01*
X39108993Y-64846497D01*
X39205679Y-65223739D01*
X39374102Y-65574871D01*
X39607791Y-65886398D01*
X39897767Y-66146347D01*
X40060652Y-66242773D01*
X39997854Y-66421348D01*
X39942814Y-66806873D01*
X39964044Y-67195728D01*
X40060730Y-67572970D01*
X40229153Y-67924102D01*
X40462842Y-68235629D01*
X40706402Y-68453968D01*
X40670676Y-68555559D01*
X40632374Y-68823847D01*
X40647148Y-69094452D01*
X40714430Y-69356976D01*
X41124854Y-70484607D01*
X41242059Y-70728960D01*
X41404684Y-70945752D01*
X41606477Y-71126652D01*
X41839685Y-71264708D01*
X42095345Y-71354615D01*
X42363633Y-71392917D01*
X42634238Y-71378143D01*
X42896762Y-71310861D01*
X44259316Y-70814932D01*
X44503669Y-70697727D01*
X44720461Y-70535102D01*
X44901361Y-70333309D01*
X45039417Y-70100101D01*
X45129324Y-69844441D01*
X45167626Y-69576153D01*
X45152852Y-69305548D01*
X45085570Y-69043024D01*
X44675146Y-67915393D01*
X44557941Y-67671040D01*
X44395316Y-67454248D01*
X44193523Y-67273348D01*
X44100854Y-67218489D01*
X44147086Y-66894663D01*
X44136801Y-66706288D01*
X48416091Y-62426999D01*
X55873000Y-62426999D01*
X55873000Y-62759491D01*
X55954739Y-63170423D01*
X56115077Y-63557512D01*
X56315947Y-63858136D01*
X54472788Y-63858136D01*
X54410062Y-63851958D01*
X54347336Y-63858136D01*
X54159726Y-63876614D01*
X53919011Y-63949634D01*
X53697166Y-64068212D01*
X53502718Y-64227792D01*
X53343138Y-64422240D01*
X53224560Y-64644085D01*
X53151540Y-64884800D01*
X53126884Y-65135136D01*
X53133063Y-65197872D01*
X53133062Y-83485215D01*
X52829468Y-83367732D01*
X50888460Y-82456225D01*
X49015763Y-81411539D01*
X47220496Y-80238762D01*
X45511419Y-78943616D01*
X44405511Y-77977000D01*
X44808737Y-77977000D01*
X45316268Y-77876046D01*
X45794351Y-77678017D01*
X46224615Y-77390524D01*
X46590524Y-77024615D01*
X46878017Y-76594351D01*
X47076046Y-76116268D01*
X47177000Y-75608737D01*
X47177000Y-75091263D01*
X47076046Y-74583732D01*
X46878017Y-74105649D01*
X46590524Y-73675385D01*
X46224615Y-73309476D01*
X45794351Y-73021983D01*
X45316268Y-72823954D01*
X44808737Y-72723000D01*
X44291263Y-72723000D01*
X43783732Y-72823954D01*
X43305649Y-73021983D01*
X42875385Y-73309476D01*
X42509476Y-73675385D01*
X42221983Y-74105649D01*
X42023954Y-74583732D01*
X41923000Y-75091263D01*
X41923000Y-75478023D01*
X40982194Y-74389817D01*
X39696308Y-72673750D01*
X38533265Y-70872169D01*
X37498732Y-68993854D01*
X36597733Y-67047931D01*
X35834680Y-65043919D01*
X35213270Y-62991537D01*
X34736546Y-60900827D01*
X34406821Y-58781941D01*
X34225706Y-56645226D01*
X34194083Y-54501075D01*
X34312103Y-52359960D01*
X34549402Y-50469604D01*
X38673000Y-50469604D01*
X38673000Y-50770396D01*
X38731681Y-51065410D01*
X38846790Y-51343306D01*
X39013901Y-51593406D01*
X39226594Y-51806099D01*
X39476694Y-51973210D01*
X39754590Y-52088319D01*
X40049604Y-52147000D01*
X40350396Y-52147000D01*
X40645410Y-52088319D01*
X40923306Y-51973210D01*
X41173406Y-51806099D01*
X41386099Y-51593406D01*
X41553210Y-51343306D01*
X41668319Y-51065410D01*
X41727000Y-50770396D01*
X41727000Y-50469604D01*
X41668319Y-50174590D01*
X41553210Y-49896694D01*
X41386099Y-49646594D01*
X41173406Y-49433901D01*
X40923306Y-49266790D01*
X40645410Y-49151681D01*
X40350396Y-49093000D01*
X40049604Y-49093000D01*
X39754590Y-49151681D01*
X39476694Y-49266790D01*
X39226594Y-49433901D01*
X39013901Y-49646594D01*
X38846790Y-49896694D01*
X38731681Y-50174590D01*
X38673000Y-50469604D01*
X34549402Y-50469604D01*
X34579196Y-50232264D01*
X34994054Y-48128409D01*
X35554667Y-46058590D01*
X36258289Y-44032941D01*
X36764369Y-42849604D01*
X38673000Y-42849604D01*
X38673000Y-43150396D01*
X38731681Y-43445410D01*
X38846790Y-43723306D01*
X39013901Y-43973406D01*
X39226594Y-44186099D01*
X39476694Y-44353210D01*
X39754590Y-44468319D01*
X40049604Y-44527000D01*
X40350396Y-44527000D01*
X40645410Y-44468319D01*
X40923306Y-44353210D01*
X41173406Y-44186099D01*
X41386099Y-43973406D01*
X41553210Y-43723306D01*
X41668319Y-43445410D01*
X41727000Y-43150396D01*
X41727000Y-42849604D01*
X41668319Y-42554590D01*
X41553210Y-42276694D01*
X41386099Y-42026594D01*
X41173406Y-41813901D01*
X40923306Y-41646790D01*
X40645410Y-41531681D01*
X40350396Y-41473000D01*
X40049604Y-41473000D01*
X39754590Y-41531681D01*
X39476694Y-41646790D01*
X39226594Y-41813901D01*
X39013901Y-42026594D01*
X38846790Y-42276694D01*
X38731681Y-42554590D01*
X38673000Y-42849604D01*
X36764369Y-42849604D01*
X37101504Y-42061303D01*
X38080198Y-40153286D01*
X38838109Y-38899604D01*
X54203000Y-38899604D01*
X54203000Y-39200396D01*
X54261681Y-39495410D01*
X54376790Y-39773306D01*
X54543901Y-40023406D01*
X54756594Y-40236099D01*
X55006694Y-40403210D01*
X55284590Y-40518319D01*
X55579604Y-40577000D01*
X55880396Y-40577000D01*
X56175410Y-40518319D01*
X56453306Y-40403210D01*
X56703406Y-40236099D01*
X56916099Y-40023406D01*
X57083210Y-39773306D01*
X57198319Y-39495410D01*
X57257000Y-39200396D01*
X57257000Y-38899604D01*
X61823000Y-38899604D01*
X61823000Y-39200396D01*
X61881681Y-39495410D01*
X61996790Y-39773306D01*
X62163901Y-40023406D01*
X62376594Y-40236099D01*
X62626694Y-40403210D01*
X62904590Y-40518319D01*
X63199604Y-40577000D01*
X63500396Y-40577000D01*
X63795410Y-40518319D01*
X64073306Y-40403210D01*
X64323406Y-40236099D01*
X64536099Y-40023406D01*
X64703210Y-39773306D01*
X64818319Y-39495410D01*
X64877000Y-39200396D01*
X64877000Y-38899604D01*
X65373000Y-38899604D01*
X65373000Y-39200396D01*
X65431681Y-39495410D01*
X65546790Y-39773306D01*
X65713901Y-40023406D01*
X65926594Y-40236099D01*
X66176694Y-40403210D01*
X66454590Y-40518319D01*
X66749604Y-40577000D01*
X67050396Y-40577000D01*
X67345410Y-40518319D01*
X67623306Y-40403210D01*
X67873406Y-40236099D01*
X68086099Y-40023406D01*
X68253210Y-39773306D01*
X68368319Y-39495410D01*
X68427000Y-39200396D01*
X68427000Y-38899604D01*
X72993000Y-38899604D01*
X72993000Y-39200396D01*
X73051681Y-39495410D01*
X73166790Y-39773306D01*
X73333901Y-40023406D01*
X73546594Y-40236099D01*
X73796694Y-40403210D01*
X74074590Y-40518319D01*
X74369604Y-40577000D01*
X74670396Y-40577000D01*
X74965410Y-40518319D01*
X75243306Y-40403210D01*
X75493406Y-40236099D01*
X75706099Y-40023406D01*
X75873210Y-39773306D01*
X75988319Y-39495410D01*
X76047000Y-39200396D01*
X76047000Y-38899604D01*
X75988319Y-38604590D01*
X75873210Y-38326694D01*
X75706099Y-38076594D01*
X75493406Y-37863901D01*
X75243306Y-37696790D01*
X74965410Y-37581681D01*
X74670396Y-37523000D01*
X74369604Y-37523000D01*
X74074590Y-37581681D01*
X73796694Y-37696790D01*
X73546594Y-37863901D01*
X73333901Y-38076594D01*
X73166790Y-38326694D01*
X73051681Y-38604590D01*
X72993000Y-38899604D01*
X68427000Y-38899604D01*
X68368319Y-38604590D01*
X68253210Y-38326694D01*
X68086099Y-38076594D01*
X67873406Y-37863901D01*
X67623306Y-37696790D01*
X67345410Y-37581681D01*
X67050396Y-37523000D01*
X66749604Y-37523000D01*
X66454590Y-37581681D01*
X66176694Y-37696790D01*
X65926594Y-37863901D01*
X65713901Y-38076594D01*
X65546790Y-38326694D01*
X65431681Y-38604590D01*
X65373000Y-38899604D01*
X64877000Y-38899604D01*
X64818319Y-38604590D01*
X64703210Y-38326694D01*
X64536099Y-38076594D01*
X64323406Y-37863901D01*
X64073306Y-37696790D01*
X63795410Y-37581681D01*
X63500396Y-37523000D01*
X63199604Y-37523000D01*
X62904590Y-37581681D01*
X62626694Y-37696790D01*
X62376594Y-37863901D01*
X62163901Y-38076594D01*
X61996790Y-38326694D01*
X61881681Y-38604590D01*
X61823000Y-38899604D01*
X57257000Y-38899604D01*
X57198319Y-38604590D01*
X57083210Y-38326694D01*
X56916099Y-38076594D01*
X56703406Y-37863901D01*
X56453306Y-37696790D01*
X56175410Y-37581681D01*
X55880396Y-37523000D01*
X55579604Y-37523000D01*
X55284590Y-37581681D01*
X55006694Y-37696790D01*
X54756594Y-37863901D01*
X54543901Y-38076594D01*
X54376790Y-38326694D01*
X54261681Y-38604590D01*
X54203000Y-38899604D01*
X38838109Y-38899604D01*
X39189598Y-38318197D01*
X40424314Y-36564956D01*
X41778321Y-34902114D01*
X41873000Y-34801132D01*
X41873000Y-35058737D01*
X41973954Y-35566268D01*
X42171983Y-36044351D01*
X42459476Y-36474615D01*
X42825385Y-36840524D01*
X43255649Y-37128017D01*
X43733732Y-37326046D01*
X44241263Y-37427000D01*
X44758737Y-37427000D01*
X45266268Y-37326046D01*
X45744351Y-37128017D01*
X46174615Y-36840524D01*
X46540524Y-36474615D01*
X46828017Y-36044351D01*
X47026046Y-35566268D01*
X47127000Y-35058737D01*
X47127000Y-34541263D01*
X47026046Y-34033732D01*
X46828017Y-33555649D01*
X46540524Y-33125385D01*
X46174615Y-32759476D01*
X45744351Y-32471983D01*
X45266268Y-32273954D01*
X44758737Y-32173000D01*
X44500885Y-32173000D01*
X44817272Y-31879561D01*
X46487416Y-30534571D01*
X48247314Y-29309360D01*
X50088390Y-28209898D01*
X52001671Y-27241544D01*
X53977833Y-26409015D01*
X55981899Y-25725019D01*
X55840523Y-25866395D01*
X55786078Y-25911077D01*
X55741395Y-25965523D01*
X55741392Y-25965526D01*
X55729495Y-25980023D01*
X55670958Y-25997780D01*
X55431950Y-26125532D01*
X55222458Y-26297458D01*
X55050532Y-26506950D01*
X54922780Y-26745958D01*
X54844110Y-27005297D01*
X54817547Y-27275000D01*
X54817547Y-28725000D01*
X54844110Y-28994703D01*
X54922780Y-29254042D01*
X55050532Y-29493050D01*
X55222458Y-29702542D01*
X55431950Y-29874468D01*
X55670958Y-30002220D01*
X55930297Y-30080890D01*
X56200000Y-30107453D01*
X57400000Y-30107453D01*
X57669703Y-30080890D01*
X57929042Y-30002220D01*
X58168050Y-29874468D01*
X58251295Y-29806150D01*
X58539775Y-29960347D01*
X58912441Y-30073394D01*
X59300000Y-30111565D01*
X59687560Y-30073394D01*
X60060226Y-29960347D01*
X60403676Y-29776768D01*
X60704714Y-29529714D01*
X60951768Y-29228676D01*
X61009623Y-29120437D01*
X61109661Y-29199565D01*
X61332563Y-29313596D01*
X61573428Y-29381950D01*
X61577549Y-29382476D01*
X61777000Y-29295024D01*
X61777000Y-28023000D01*
X61823000Y-28023000D01*
X61823000Y-29295024D01*
X62022451Y-29382476D01*
X62026572Y-29381950D01*
X62267437Y-29313596D01*
X62490339Y-29199565D01*
X62686712Y-29044239D01*
X62849009Y-28853587D01*
X62970993Y-28634936D01*
X63047976Y-28396688D01*
X63077000Y-28148000D01*
X63077000Y-28023000D01*
X66673000Y-28023000D01*
X66673000Y-28148000D01*
X66702024Y-28396688D01*
X66779007Y-28634936D01*
X66900991Y-28853587D01*
X67063288Y-29044239D01*
X67259661Y-29199565D01*
X67482563Y-29313596D01*
X67723428Y-29381950D01*
X67727549Y-29382476D01*
X67927000Y-29295024D01*
X67927000Y-28023000D01*
X66673000Y-28023000D01*
X63077000Y-28023000D01*
X61823000Y-28023000D01*
X61777000Y-28023000D01*
X61757000Y-28023000D01*
X61757000Y-27977000D01*
X61777000Y-27977000D01*
X61777000Y-27957000D01*
X61823000Y-27957000D01*
X61823000Y-27977000D01*
X63077000Y-27977000D01*
X63077000Y-27852000D01*
X63071163Y-27801990D01*
X66678837Y-27801990D01*
X66673000Y-27852000D01*
X66673000Y-27977000D01*
X67927000Y-27977000D01*
X67927000Y-27957000D01*
X67973000Y-27957000D01*
X67973000Y-27977000D01*
X67993000Y-27977000D01*
X67993000Y-28023000D01*
X67973000Y-28023000D01*
X67973000Y-29295024D01*
X68172451Y-29382476D01*
X68176572Y-29381950D01*
X68417437Y-29313596D01*
X68640339Y-29199565D01*
X68740377Y-29120437D01*
X68798232Y-29228676D01*
X69045286Y-29529714D01*
X69346324Y-29776768D01*
X69689774Y-29960347D01*
X70062440Y-30073394D01*
X70450000Y-30111565D01*
X70837559Y-30073394D01*
X71210225Y-29960347D01*
X71498705Y-29806151D01*
X71581950Y-29874468D01*
X71820958Y-30002220D01*
X72080297Y-30080890D01*
X72350000Y-30107453D01*
X73550000Y-30107453D01*
X73819703Y-30080890D01*
X74079042Y-30002220D01*
X74318050Y-29874468D01*
X74527542Y-29702542D01*
X74699468Y-29493050D01*
X74827220Y-29254042D01*
X74905890Y-28994703D01*
X74932453Y-28725000D01*
X74932453Y-27275000D01*
X74905890Y-27005297D01*
X74827220Y-26745958D01*
X74699468Y-26506950D01*
X74527542Y-26297458D01*
X74318050Y-26125532D01*
X74079042Y-25997780D01*
X73819703Y-25919110D01*
X73550000Y-25892547D01*
X72860629Y-25892547D01*
X72279995Y-25311913D01*
X72941812Y-25466593D01*
X72941812Y-25466593D01*
G37*
X72941812Y-25466593D02*
X74990790Y-26099094D01*
X76990662Y-26872988D01*
X78931665Y-27784493D01*
X80804355Y-28829176D01*
X82599629Y-30001956D01*
X84308713Y-31297109D01*
X85082002Y-31973000D01*
X85041263Y-31973000D01*
X84533732Y-32073954D01*
X84055649Y-32271983D01*
X83625385Y-32559476D01*
X83259476Y-32925385D01*
X82971983Y-33355649D01*
X82773954Y-33833732D01*
X82673000Y-34341263D01*
X82673000Y-34858737D01*
X82773954Y-35366268D01*
X82971983Y-35844351D01*
X83259476Y-36274615D01*
X83625385Y-36640524D01*
X84055649Y-36928017D01*
X84533732Y-37126046D01*
X85041263Y-37227000D01*
X85558737Y-37227000D01*
X86066268Y-37126046D01*
X86544351Y-36928017D01*
X86974615Y-36640524D01*
X87340524Y-36274615D01*
X87628017Y-35844351D01*
X87826046Y-35366268D01*
X87927000Y-34858737D01*
X87927000Y-34797252D01*
X88837936Y-35850910D01*
X90123816Y-37566968D01*
X91286859Y-39368549D01*
X92321392Y-41246864D01*
X93222393Y-43192792D01*
X93752132Y-44584049D01*
X91307453Y-42139371D01*
X91307453Y-41450000D01*
X91280890Y-41180297D01*
X91202220Y-40920958D01*
X91074468Y-40681950D01*
X90902542Y-40472458D01*
X90693050Y-40300532D01*
X90454042Y-40172780D01*
X90194703Y-40094110D01*
X89925000Y-40067547D01*
X88475000Y-40067547D01*
X88205297Y-40094110D01*
X87945958Y-40172780D01*
X87706950Y-40300532D01*
X87497458Y-40472458D01*
X87325532Y-40681950D01*
X87197780Y-40920958D01*
X87119110Y-41180297D01*
X87092547Y-41450000D01*
X87092547Y-42650000D01*
X87119110Y-42919703D01*
X87197780Y-43179042D01*
X87325532Y-43418050D01*
X87393849Y-43501295D01*
X87239653Y-43789774D01*
X87126606Y-44162440D01*
X87088435Y-44550000D01*
X87126606Y-44937560D01*
X87239653Y-45310226D01*
X87423232Y-45653676D01*
X87543316Y-45800000D01*
X87423232Y-45946324D01*
X87239653Y-46289774D01*
X87126606Y-46662440D01*
X87091878Y-47015040D01*
X86277000Y-47829918D01*
X86277000Y-46620090D01*
X86283903Y-46550000D01*
X86277000Y-46479910D01*
X86277000Y-46479902D01*
X86256352Y-46270259D01*
X86174755Y-46001269D01*
X86042248Y-45753366D01*
X86023781Y-45730864D01*
X85908608Y-45590525D01*
X85908605Y-45590522D01*
X85863923Y-45536077D01*
X85809478Y-45491395D01*
X82877000Y-42558918D01*
X82877000Y-42240509D01*
X82795261Y-41829577D01*
X82634923Y-41442488D01*
X82402149Y-41094116D01*
X82105884Y-40797851D01*
X81757512Y-40565077D01*
X81370423Y-40404739D01*
X80959491Y-40323000D01*
X80540509Y-40323000D01*
X80129577Y-40404739D01*
X79742488Y-40565077D01*
X79394116Y-40797851D01*
X79097851Y-41094116D01*
X78865077Y-41442488D01*
X78704739Y-41829577D01*
X78623000Y-42240509D01*
X78623000Y-42659491D01*
X78704739Y-43070423D01*
X78865077Y-43457512D01*
X79027102Y-43700000D01*
X78865077Y-43942488D01*
X78704739Y-44329577D01*
X78623000Y-44740509D01*
X78623000Y-45159491D01*
X78704739Y-45570423D01*
X78865077Y-45957512D01*
X79027102Y-46200000D01*
X78865077Y-46442488D01*
X78704739Y-46829577D01*
X78623000Y-47240509D01*
X78623000Y-47659491D01*
X78704739Y-48070423D01*
X78865077Y-48457512D01*
X79027102Y-48700000D01*
X78865077Y-48942488D01*
X78704739Y-49329577D01*
X78623000Y-49740509D01*
X78623000Y-50159491D01*
X78704739Y-50570423D01*
X78865077Y-50957512D01*
X79027102Y-51200000D01*
X78865077Y-51442488D01*
X78704739Y-51829577D01*
X78623000Y-52240509D01*
X78623000Y-52629627D01*
X74329628Y-56923001D01*
X61977000Y-56923001D01*
X61977000Y-56590509D01*
X61895261Y-56179577D01*
X61734923Y-55792488D01*
X61572898Y-55550000D01*
X61734923Y-55307512D01*
X61895261Y-54920423D01*
X61977000Y-54509491D01*
X61977000Y-54090509D01*
X61895261Y-53679577D01*
X61734923Y-53292488D01*
X61572898Y-53050000D01*
X61734923Y-52807512D01*
X61895261Y-52420423D01*
X61977000Y-52009491D01*
X61977000Y-51590509D01*
X61895261Y-51179577D01*
X61734923Y-50792488D01*
X61572898Y-50550000D01*
X61734923Y-50307512D01*
X61895261Y-49920423D01*
X61977000Y-49509491D01*
X61977000Y-49090509D01*
X61895261Y-48679577D01*
X61734923Y-48292488D01*
X61502149Y-47944116D01*
X61205884Y-47647851D01*
X61063680Y-47552833D01*
X61161653Y-47379354D01*
X61249477Y-47112331D01*
X61283519Y-46833306D01*
X61262473Y-46553001D01*
X61187145Y-46282186D01*
X61067253Y-46044779D01*
X61205884Y-45952149D01*
X61502149Y-45655884D01*
X61734923Y-45307512D01*
X61895261Y-44920423D01*
X61977000Y-44509491D01*
X61977000Y-44090509D01*
X61895261Y-43679577D01*
X61734923Y-43292488D01*
X61502149Y-42944116D01*
X61205884Y-42647851D01*
X60857512Y-42415077D01*
X60470423Y-42254739D01*
X60059491Y-42173000D01*
X59640509Y-42173000D01*
X59229577Y-42254739D01*
X58842488Y-42415077D01*
X58494116Y-42647851D01*
X58197851Y-42944116D01*
X57965077Y-43292488D01*
X57804739Y-43679577D01*
X57723000Y-44090509D01*
X57723000Y-44479628D01*
X56529629Y-45673000D01*
X50081033Y-45673000D01*
X49805884Y-45397851D01*
X49457512Y-45165077D01*
X49070423Y-45004739D01*
X48659491Y-44923000D01*
X48240509Y-44923000D01*
X47829577Y-45004739D01*
X47442488Y-45165077D01*
X47094116Y-45397851D01*
X46797851Y-45694116D01*
X46565077Y-46042488D01*
X46404739Y-46429577D01*
X46323000Y-46840509D01*
X46323000Y-47259491D01*
X46404739Y-47670423D01*
X46565077Y-48057512D01*
X46727102Y-48300000D01*
X46565077Y-48542488D01*
X46404739Y-48929577D01*
X46323000Y-49340509D01*
X46323000Y-49759491D01*
X46404739Y-50170423D01*
X46565077Y-50557512D01*
X46727102Y-50800000D01*
X46565077Y-51042488D01*
X46404739Y-51429577D01*
X46323000Y-51840509D01*
X46323000Y-52259491D01*
X46404739Y-52670423D01*
X46565077Y-53057512D01*
X46797851Y-53405884D01*
X47094116Y-53702149D01*
X47236320Y-53797167D01*
X47138347Y-53970646D01*
X47050523Y-54237669D01*
X47016481Y-54516694D01*
X47037527Y-54796999D01*
X47112855Y-55067814D01*
X47239568Y-55318728D01*
X47276576Y-55374113D01*
X47495437Y-55472036D01*
X48417473Y-54550000D01*
X48403331Y-54535858D01*
X48435858Y-54503331D01*
X48450000Y-54517473D01*
X48464142Y-54503331D01*
X48496669Y-54535858D01*
X48482527Y-54550000D01*
X49404563Y-55472036D01*
X49623424Y-55374113D01*
X49761653Y-55129354D01*
X49849477Y-54862331D01*
X49883519Y-54583306D01*
X49862473Y-54303001D01*
X49787145Y-54032186D01*
X49667253Y-53794779D01*
X49805884Y-53702149D01*
X50102149Y-53405884D01*
X50334923Y-53057512D01*
X50495261Y-52670423D01*
X50577000Y-52259491D01*
X50577000Y-51840509D01*
X50495261Y-51429577D01*
X50334923Y-51042488D01*
X50172898Y-50800000D01*
X50334923Y-50557512D01*
X50495261Y-50170423D01*
X50577000Y-49759491D01*
X50577000Y-49340509D01*
X50495261Y-48929577D01*
X50334923Y-48542488D01*
X50257757Y-48427000D01*
X57032360Y-48427000D01*
X57100000Y-48433662D01*
X57369939Y-48407075D01*
X57476484Y-48374755D01*
X57629505Y-48328337D01*
X57868721Y-48200473D01*
X58078397Y-48028397D01*
X58121521Y-47975850D01*
X58602347Y-47495024D01*
X58632747Y-47555221D01*
X58494116Y-47647851D01*
X58197851Y-47944116D01*
X57965077Y-48292488D01*
X57804739Y-48679577D01*
X57723000Y-49090509D01*
X57723000Y-49509491D01*
X57804739Y-49920423D01*
X57965077Y-50307512D01*
X58127102Y-50550000D01*
X57965077Y-50792488D01*
X57804739Y-51179577D01*
X57723000Y-51590509D01*
X57723000Y-52009491D01*
X57804739Y-52420423D01*
X57965077Y-52807512D01*
X58127102Y-53050000D01*
X57965077Y-53292488D01*
X57804739Y-53679577D01*
X57723000Y-54090509D01*
X57723000Y-54509491D01*
X57804739Y-54920423D01*
X57965077Y-55307512D01*
X58127102Y-55550000D01*
X57965077Y-55792488D01*
X57804739Y-56179577D01*
X57723000Y-56590509D01*
X57723000Y-56923001D01*
X47459071Y-56923001D01*
X47391434Y-56916339D01*
X47323797Y-56923001D01*
X47323795Y-56923001D01*
X47121496Y-56942926D01*
X46861930Y-57021664D01*
X46622714Y-57149528D01*
X46413038Y-57321604D01*
X46369920Y-57374144D01*
X42317413Y-61426651D01*
X42150646Y-61078971D01*
X41916956Y-60767445D01*
X41626981Y-60507496D01*
X41464097Y-60411070D01*
X41526895Y-60232494D01*
X41581935Y-59846969D01*
X41560704Y-59458114D01*
X41464019Y-59080872D01*
X41295596Y-58729740D01*
X41061906Y-58418214D01*
X40771931Y-58158265D01*
X40609046Y-58061839D01*
X40671844Y-57883262D01*
X40726884Y-57497737D01*
X40705653Y-57108882D01*
X40608968Y-56731640D01*
X40440545Y-56380508D01*
X40206855Y-56068982D01*
X39916880Y-55809033D01*
X39581764Y-55610648D01*
X39280095Y-55504563D01*
X47527964Y-55504563D01*
X47625887Y-55723424D01*
X47870646Y-55861653D01*
X48137669Y-55949477D01*
X48416694Y-55983519D01*
X48696999Y-55962473D01*
X48967814Y-55887145D01*
X49218728Y-55760432D01*
X49274113Y-55723424D01*
X49372036Y-55504563D01*
X48450000Y-54582527D01*
X47527964Y-55504563D01*
X39280095Y-55504563D01*
X39214383Y-55481455D01*
X38828858Y-55426415D01*
X38440003Y-55447645D01*
X38157291Y-55520103D01*
X37739849Y-55672041D01*
X37476705Y-55798260D01*
X37165178Y-56031949D01*
X36905229Y-56321925D01*
X36706845Y-56657041D01*
X36577652Y-57024422D01*
X36522612Y-57409947D01*
X36543842Y-57798802D01*
X36640528Y-58176044D01*
X36808951Y-58527176D01*
X37042640Y-58838703D01*
X37332616Y-59098652D01*
X37495501Y-59195078D01*
X37432703Y-59373654D01*
X37377663Y-59759179D01*
X37398893Y-60148034D01*
X37495579Y-60525276D01*
X37664002Y-60876408D01*
X37897691Y-61187935D01*
X38187667Y-61447884D01*
X38350551Y-61544309D01*
X38287753Y-61722885D01*
X38232713Y-62108410D01*
X38253943Y-62497265D01*
X38350629Y-62874507D01*
X38519052Y-63225639D01*
X38752741Y-63537166D01*
X39042717Y-63797115D01*
X39205601Y-63893540D01*
X39142803Y-64072117D01*
X39087763Y-64457642D01*
X39108993Y-64846497D01*
X39205679Y-65223739D01*
X39374102Y-65574871D01*
X39607791Y-65886398D01*
X39897767Y-66146347D01*
X40060652Y-66242773D01*
X39997854Y-66421348D01*
X39942814Y-66806873D01*
X39964044Y-67195728D01*
X40060730Y-67572970D01*
X40229153Y-67924102D01*
X40462842Y-68235629D01*
X40706402Y-68453968D01*
X40670676Y-68555559D01*
X40632374Y-68823847D01*
X40647148Y-69094452D01*
X40714430Y-69356976D01*
X41124854Y-70484607D01*
X41242059Y-70728960D01*
X41404684Y-70945752D01*
X41606477Y-71126652D01*
X41839685Y-71264708D01*
X42095345Y-71354615D01*
X42363633Y-71392917D01*
X42634238Y-71378143D01*
X42896762Y-71310861D01*
X44259316Y-70814932D01*
X44503669Y-70697727D01*
X44720461Y-70535102D01*
X44901361Y-70333309D01*
X45039417Y-70100101D01*
X45129324Y-69844441D01*
X45167626Y-69576153D01*
X45152852Y-69305548D01*
X45085570Y-69043024D01*
X44675146Y-67915393D01*
X44557941Y-67671040D01*
X44395316Y-67454248D01*
X44193523Y-67273348D01*
X44100854Y-67218489D01*
X44147086Y-66894663D01*
X44136801Y-66706288D01*
X48416091Y-62426999D01*
X55873000Y-62426999D01*
X55873000Y-62759491D01*
X55954739Y-63170423D01*
X56115077Y-63557512D01*
X56315947Y-63858136D01*
X54472788Y-63858136D01*
X54410062Y-63851958D01*
X54347336Y-63858136D01*
X54159726Y-63876614D01*
X53919011Y-63949634D01*
X53697166Y-64068212D01*
X53502718Y-64227792D01*
X53343138Y-64422240D01*
X53224560Y-64644085D01*
X53151540Y-64884800D01*
X53126884Y-65135136D01*
X53133063Y-65197872D01*
X53133062Y-83485215D01*
X52829468Y-83367732D01*
X50888460Y-82456225D01*
X49015763Y-81411539D01*
X47220496Y-80238762D01*
X45511419Y-78943616D01*
X44405511Y-77977000D01*
X44808737Y-77977000D01*
X45316268Y-77876046D01*
X45794351Y-77678017D01*
X46224615Y-77390524D01*
X46590524Y-77024615D01*
X46878017Y-76594351D01*
X47076046Y-76116268D01*
X47177000Y-75608737D01*
X47177000Y-75091263D01*
X47076046Y-74583732D01*
X46878017Y-74105649D01*
X46590524Y-73675385D01*
X46224615Y-73309476D01*
X45794351Y-73021983D01*
X45316268Y-72823954D01*
X44808737Y-72723000D01*
X44291263Y-72723000D01*
X43783732Y-72823954D01*
X43305649Y-73021983D01*
X42875385Y-73309476D01*
X42509476Y-73675385D01*
X42221983Y-74105649D01*
X42023954Y-74583732D01*
X41923000Y-75091263D01*
X41923000Y-75478023D01*
X40982194Y-74389817D01*
X39696308Y-72673750D01*
X38533265Y-70872169D01*
X37498732Y-68993854D01*
X36597733Y-67047931D01*
X35834680Y-65043919D01*
X35213270Y-62991537D01*
X34736546Y-60900827D01*
X34406821Y-58781941D01*
X34225706Y-56645226D01*
X34194083Y-54501075D01*
X34312103Y-52359960D01*
X34549402Y-50469604D01*
X38673000Y-50469604D01*
X38673000Y-50770396D01*
X38731681Y-51065410D01*
X38846790Y-51343306D01*
X39013901Y-51593406D01*
X39226594Y-51806099D01*
X39476694Y-51973210D01*
X39754590Y-52088319D01*
X40049604Y-52147000D01*
X40350396Y-52147000D01*
X40645410Y-52088319D01*
X40923306Y-51973210D01*
X41173406Y-51806099D01*
X41386099Y-51593406D01*
X41553210Y-51343306D01*
X41668319Y-51065410D01*
X41727000Y-50770396D01*
X41727000Y-50469604D01*
X41668319Y-50174590D01*
X41553210Y-49896694D01*
X41386099Y-49646594D01*
X41173406Y-49433901D01*
X40923306Y-49266790D01*
X40645410Y-49151681D01*
X40350396Y-49093000D01*
X40049604Y-49093000D01*
X39754590Y-49151681D01*
X39476694Y-49266790D01*
X39226594Y-49433901D01*
X39013901Y-49646594D01*
X38846790Y-49896694D01*
X38731681Y-50174590D01*
X38673000Y-50469604D01*
X34549402Y-50469604D01*
X34579196Y-50232264D01*
X34994054Y-48128409D01*
X35554667Y-46058590D01*
X36258289Y-44032941D01*
X36764369Y-42849604D01*
X38673000Y-42849604D01*
X38673000Y-43150396D01*
X38731681Y-43445410D01*
X38846790Y-43723306D01*
X39013901Y-43973406D01*
X39226594Y-44186099D01*
X39476694Y-44353210D01*
X39754590Y-44468319D01*
X40049604Y-44527000D01*
X40350396Y-44527000D01*
X40645410Y-44468319D01*
X40923306Y-44353210D01*
X41173406Y-44186099D01*
X41386099Y-43973406D01*
X41553210Y-43723306D01*
X41668319Y-43445410D01*
X41727000Y-43150396D01*
X41727000Y-42849604D01*
X41668319Y-42554590D01*
X41553210Y-42276694D01*
X41386099Y-42026594D01*
X41173406Y-41813901D01*
X40923306Y-41646790D01*
X40645410Y-41531681D01*
X40350396Y-41473000D01*
X40049604Y-41473000D01*
X39754590Y-41531681D01*
X39476694Y-41646790D01*
X39226594Y-41813901D01*
X39013901Y-42026594D01*
X38846790Y-42276694D01*
X38731681Y-42554590D01*
X38673000Y-42849604D01*
X36764369Y-42849604D01*
X37101504Y-42061303D01*
X38080198Y-40153286D01*
X38838109Y-38899604D01*
X54203000Y-38899604D01*
X54203000Y-39200396D01*
X54261681Y-39495410D01*
X54376790Y-39773306D01*
X54543901Y-40023406D01*
X54756594Y-40236099D01*
X55006694Y-40403210D01*
X55284590Y-40518319D01*
X55579604Y-40577000D01*
X55880396Y-40577000D01*
X56175410Y-40518319D01*
X56453306Y-40403210D01*
X56703406Y-40236099D01*
X56916099Y-40023406D01*
X57083210Y-39773306D01*
X57198319Y-39495410D01*
X57257000Y-39200396D01*
X57257000Y-38899604D01*
X61823000Y-38899604D01*
X61823000Y-39200396D01*
X61881681Y-39495410D01*
X61996790Y-39773306D01*
X62163901Y-40023406D01*
X62376594Y-40236099D01*
X62626694Y-40403210D01*
X62904590Y-40518319D01*
X63199604Y-40577000D01*
X63500396Y-40577000D01*
X63795410Y-40518319D01*
X64073306Y-40403210D01*
X64323406Y-40236099D01*
X64536099Y-40023406D01*
X64703210Y-39773306D01*
X64818319Y-39495410D01*
X64877000Y-39200396D01*
X64877000Y-38899604D01*
X65373000Y-38899604D01*
X65373000Y-39200396D01*
X65431681Y-39495410D01*
X65546790Y-39773306D01*
X65713901Y-40023406D01*
X65926594Y-40236099D01*
X66176694Y-40403210D01*
X66454590Y-40518319D01*
X66749604Y-40577000D01*
X67050396Y-40577000D01*
X67345410Y-40518319D01*
X67623306Y-40403210D01*
X67873406Y-40236099D01*
X68086099Y-40023406D01*
X68253210Y-39773306D01*
X68368319Y-39495410D01*
X68427000Y-39200396D01*
X68427000Y-38899604D01*
X72993000Y-38899604D01*
X72993000Y-39200396D01*
X73051681Y-39495410D01*
X73166790Y-39773306D01*
X73333901Y-40023406D01*
X73546594Y-40236099D01*
X73796694Y-40403210D01*
X74074590Y-40518319D01*
X74369604Y-40577000D01*
X74670396Y-40577000D01*
X74965410Y-40518319D01*
X75243306Y-40403210D01*
X75493406Y-40236099D01*
X75706099Y-40023406D01*
X75873210Y-39773306D01*
X75988319Y-39495410D01*
X76047000Y-39200396D01*
X76047000Y-38899604D01*
X75988319Y-38604590D01*
X75873210Y-38326694D01*
X75706099Y-38076594D01*
X75493406Y-37863901D01*
X75243306Y-37696790D01*
X74965410Y-37581681D01*
X74670396Y-37523000D01*
X74369604Y-37523000D01*
X74074590Y-37581681D01*
X73796694Y-37696790D01*
X73546594Y-37863901D01*
X73333901Y-38076594D01*
X73166790Y-38326694D01*
X73051681Y-38604590D01*
X72993000Y-38899604D01*
X68427000Y-38899604D01*
X68368319Y-38604590D01*
X68253210Y-38326694D01*
X68086099Y-38076594D01*
X67873406Y-37863901D01*
X67623306Y-37696790D01*
X67345410Y-37581681D01*
X67050396Y-37523000D01*
X66749604Y-37523000D01*
X66454590Y-37581681D01*
X66176694Y-37696790D01*
X65926594Y-37863901D01*
X65713901Y-38076594D01*
X65546790Y-38326694D01*
X65431681Y-38604590D01*
X65373000Y-38899604D01*
X64877000Y-38899604D01*
X64818319Y-38604590D01*
X64703210Y-38326694D01*
X64536099Y-38076594D01*
X64323406Y-37863901D01*
X64073306Y-37696790D01*
X63795410Y-37581681D01*
X63500396Y-37523000D01*
X63199604Y-37523000D01*
X62904590Y-37581681D01*
X62626694Y-37696790D01*
X62376594Y-37863901D01*
X62163901Y-38076594D01*
X61996790Y-38326694D01*
X61881681Y-38604590D01*
X61823000Y-38899604D01*
X57257000Y-38899604D01*
X57198319Y-38604590D01*
X57083210Y-38326694D01*
X56916099Y-38076594D01*
X56703406Y-37863901D01*
X56453306Y-37696790D01*
X56175410Y-37581681D01*
X55880396Y-37523000D01*
X55579604Y-37523000D01*
X55284590Y-37581681D01*
X55006694Y-37696790D01*
X54756594Y-37863901D01*
X54543901Y-38076594D01*
X54376790Y-38326694D01*
X54261681Y-38604590D01*
X54203000Y-38899604D01*
X38838109Y-38899604D01*
X39189598Y-38318197D01*
X40424314Y-36564956D01*
X41778321Y-34902114D01*
X41873000Y-34801132D01*
X41873000Y-35058737D01*
X41973954Y-35566268D01*
X42171983Y-36044351D01*
X42459476Y-36474615D01*
X42825385Y-36840524D01*
X43255649Y-37128017D01*
X43733732Y-37326046D01*
X44241263Y-37427000D01*
X44758737Y-37427000D01*
X45266268Y-37326046D01*
X45744351Y-37128017D01*
X46174615Y-36840524D01*
X46540524Y-36474615D01*
X46828017Y-36044351D01*
X47026046Y-35566268D01*
X47127000Y-35058737D01*
X47127000Y-34541263D01*
X47026046Y-34033732D01*
X46828017Y-33555649D01*
X46540524Y-33125385D01*
X46174615Y-32759476D01*
X45744351Y-32471983D01*
X45266268Y-32273954D01*
X44758737Y-32173000D01*
X44500885Y-32173000D01*
X44817272Y-31879561D01*
X46487416Y-30534571D01*
X48247314Y-29309360D01*
X50088390Y-28209898D01*
X52001671Y-27241544D01*
X53977833Y-26409015D01*
X55981899Y-25725019D01*
X55840523Y-25866395D01*
X55786078Y-25911077D01*
X55741395Y-25965523D01*
X55741392Y-25965526D01*
X55729495Y-25980023D01*
X55670958Y-25997780D01*
X55431950Y-26125532D01*
X55222458Y-26297458D01*
X55050532Y-26506950D01*
X54922780Y-26745958D01*
X54844110Y-27005297D01*
X54817547Y-27275000D01*
X54817547Y-28725000D01*
X54844110Y-28994703D01*
X54922780Y-29254042D01*
X55050532Y-29493050D01*
X55222458Y-29702542D01*
X55431950Y-29874468D01*
X55670958Y-30002220D01*
X55930297Y-30080890D01*
X56200000Y-30107453D01*
X57400000Y-30107453D01*
X57669703Y-30080890D01*
X57929042Y-30002220D01*
X58168050Y-29874468D01*
X58251295Y-29806150D01*
X58539775Y-29960347D01*
X58912441Y-30073394D01*
X59300000Y-30111565D01*
X59687560Y-30073394D01*
X60060226Y-29960347D01*
X60403676Y-29776768D01*
X60704714Y-29529714D01*
X60951768Y-29228676D01*
X61009623Y-29120437D01*
X61109661Y-29199565D01*
X61332563Y-29313596D01*
X61573428Y-29381950D01*
X61577549Y-29382476D01*
X61777000Y-29295024D01*
X61777000Y-28023000D01*
X61823000Y-28023000D01*
X61823000Y-29295024D01*
X62022451Y-29382476D01*
X62026572Y-29381950D01*
X62267437Y-29313596D01*
X62490339Y-29199565D01*
X62686712Y-29044239D01*
X62849009Y-28853587D01*
X62970993Y-28634936D01*
X63047976Y-28396688D01*
X63077000Y-28148000D01*
X63077000Y-28023000D01*
X66673000Y-28023000D01*
X66673000Y-28148000D01*
X66702024Y-28396688D01*
X66779007Y-28634936D01*
X66900991Y-28853587D01*
X67063288Y-29044239D01*
X67259661Y-29199565D01*
X67482563Y-29313596D01*
X67723428Y-29381950D01*
X67727549Y-29382476D01*
X67927000Y-29295024D01*
X67927000Y-28023000D01*
X66673000Y-28023000D01*
X63077000Y-28023000D01*
X61823000Y-28023000D01*
X61777000Y-28023000D01*
X61757000Y-28023000D01*
X61757000Y-27977000D01*
X61777000Y-27977000D01*
X61777000Y-27957000D01*
X61823000Y-27957000D01*
X61823000Y-27977000D01*
X63077000Y-27977000D01*
X63077000Y-27852000D01*
X63071163Y-27801990D01*
X66678837Y-27801990D01*
X66673000Y-27852000D01*
X66673000Y-27977000D01*
X67927000Y-27977000D01*
X67927000Y-27957000D01*
X67973000Y-27957000D01*
X67973000Y-27977000D01*
X67993000Y-27977000D01*
X67993000Y-28023000D01*
X67973000Y-28023000D01*
X67973000Y-29295024D01*
X68172451Y-29382476D01*
X68176572Y-29381950D01*
X68417437Y-29313596D01*
X68640339Y-29199565D01*
X68740377Y-29120437D01*
X68798232Y-29228676D01*
X69045286Y-29529714D01*
X69346324Y-29776768D01*
X69689774Y-29960347D01*
X70062440Y-30073394D01*
X70450000Y-30111565D01*
X70837559Y-30073394D01*
X71210225Y-29960347D01*
X71498705Y-29806151D01*
X71581950Y-29874468D01*
X71820958Y-30002220D01*
X72080297Y-30080890D01*
X72350000Y-30107453D01*
X73550000Y-30107453D01*
X73819703Y-30080890D01*
X74079042Y-30002220D01*
X74318050Y-29874468D01*
X74527542Y-29702542D01*
X74699468Y-29493050D01*
X74827220Y-29254042D01*
X74905890Y-28994703D01*
X74932453Y-28725000D01*
X74932453Y-27275000D01*
X74905890Y-27005297D01*
X74827220Y-26745958D01*
X74699468Y-26506950D01*
X74527542Y-26297458D01*
X74318050Y-26125532D01*
X74079042Y-25997780D01*
X73819703Y-25919110D01*
X73550000Y-25892547D01*
X72860629Y-25892547D01*
X72279995Y-25311913D01*
X72941812Y-25466593D01*
G36*
X70546669Y-62535858D02*
G01*
X70532527Y-62550000D01*
X70546669Y-62564142D01*
X70514142Y-62596669D01*
X70500000Y-62582527D01*
X70485858Y-62596669D01*
X70453331Y-62564142D01*
X70467473Y-62550000D01*
X70453331Y-62535858D01*
X70485858Y-62503331D01*
X70500000Y-62517473D01*
X70514142Y-62503331D01*
X70546669Y-62535858D01*
X70546669Y-62535858D01*
G37*
X70546669Y-62535858D02*
X70532527Y-62550000D01*
X70546669Y-62564142D01*
X70514142Y-62596669D01*
X70500000Y-62582527D01*
X70485858Y-62596669D01*
X70453331Y-62564142D01*
X70467473Y-62550000D01*
X70453331Y-62535858D01*
X70485858Y-62503331D01*
X70500000Y-62517473D01*
X70514142Y-62503331D01*
X70546669Y-62535858D01*
G36*
X80796669Y-57435858D02*
G01*
X80782527Y-57450000D01*
X80796669Y-57464142D01*
X80764142Y-57496669D01*
X80750000Y-57482527D01*
X80735858Y-57496669D01*
X80703331Y-57464142D01*
X80717473Y-57450000D01*
X80703331Y-57435858D01*
X80735858Y-57403331D01*
X80750000Y-57417473D01*
X80764142Y-57403331D01*
X80796669Y-57435858D01*
X80796669Y-57435858D01*
G37*
X80796669Y-57435858D02*
X80782527Y-57450000D01*
X80796669Y-57464142D01*
X80764142Y-57496669D01*
X80750000Y-57482527D01*
X80735858Y-57496669D01*
X80703331Y-57464142D01*
X80717473Y-57450000D01*
X80703331Y-57435858D01*
X80735858Y-57403331D01*
X80750000Y-57417473D01*
X80764142Y-57403331D01*
X80796669Y-57435858D01*
G36*
X59896669Y-46785858D02*
G01*
X59882527Y-46800000D01*
X59896669Y-46814142D01*
X59864142Y-46846669D01*
X59850000Y-46832527D01*
X59835858Y-46846669D01*
X59803331Y-46814142D01*
X59817473Y-46800000D01*
X59803331Y-46785858D01*
X59835858Y-46753331D01*
X59850000Y-46767473D01*
X59864142Y-46753331D01*
X59896669Y-46785858D01*
X59896669Y-46785858D01*
G37*
X59896669Y-46785858D02*
X59882527Y-46800000D01*
X59896669Y-46814142D01*
X59864142Y-46846669D01*
X59850000Y-46832527D01*
X59835858Y-46846669D01*
X59803331Y-46814142D01*
X59817473Y-46800000D01*
X59803331Y-46785858D01*
X59835858Y-46753331D01*
X59850000Y-46767473D01*
X59864142Y-46753331D01*
X59896669Y-46785858D01*
M02*
