M48
; DRILL file {KiCad (5.1.2)-2} date 03/10/2019 15:31:18
; FORMAT={-:-/ absolute / metric / decimal}
; #@! TF.CreationDate,2019-10-03T15:31:18-04:00
; #@! TF.GenerationSoftware,Kicad,Pcbnew,(5.1.2)-2
; #@! TF.FileFunction,Plated,1,2,PTH
FMAT,2
METRIC
T1C0.762
T2C0.800
T3C1.000
T4C3.000
%
G90
G05
T1
X80.45Y-43.65
X80.45Y-46.15
X80.45Y-48.65
X80.45Y-51.15
X50.15Y-56.45
X50.15Y-58.95
X50.15Y-61.45
X50.15Y-63.95
X50.15Y-66.45
X50.15Y-68.95
X62.35Y-59.95
X64.85Y-59.95
X67.35Y-59.95
X69.85Y-59.95
X72.35Y-59.95
X43.7Y-42.7
X43.7Y-45.2
X43.7Y-47.7
X43.7Y-50.2
X80.45Y-38.65
X80.45Y-41.15
X80.45Y-53.65
X80.45Y-56.15
T2
X59.85Y-59.95
X54.18Y-54.2
X61.8Y-54.2
X54.23Y-39.4
X61.85Y-39.4
X54.18Y-47.2
X61.8Y-47.2
T3
X89.55Y-58.4
X89.55Y-60.94
X89.55Y-63.48
X89.55Y-66.02
X89.55Y-68.56
X89.55Y-71.1
X89.4Y-40.58
X89.4Y-43.12
X89.4Y-45.66
X89.4Y-48.2
X89.4Y-50.74
X89.4Y-53.28
T4
X44.6Y-34.6
X44.6Y-75.4
X85.3Y-75.4
X85.3Y-34.6
T0
M30
