G04 #@! TF.GenerationSoftware,KiCad,Pcbnew,(5.1.2)-2*
G04 #@! TF.CreationDate,2019-10-20T14:28:16-03:00*
G04 #@! TF.ProjectId,flight_computer,666c6967-6874-45f6-936f-6d7075746572,rev?*
G04 #@! TF.SameCoordinates,Original*
G04 #@! TF.FileFunction,Legend,Bot*
G04 #@! TF.FilePolarity,Positive*
%FSLAX46Y46*%
G04 Gerber Fmt 4.6, Leading zero omitted, Abs format (unit mm)*
G04 Created by KiCad (PCBNEW (5.1.2)-2) date 2019-10-20 14:28:16*
%MOMM*%
%LPD*%
G04 APERTURE LIST*
%ADD10C,0.150000*%
%ADD11C,0.010000*%
%ADD12C,0.120000*%
%ADD13C,1.924000*%
%ADD14R,2.000000X2.000000*%
%ADD15O,2.000000X2.000000*%
%ADD16C,2.100000*%
%ADD17C,2.100000*%
%ADD18C,0.100000*%
%ADD19O,2.100000X2.350000*%
%ADD20C,3.400000*%
%ADD21R,2.400000X2.400000*%
%ADD22C,2.400000*%
%ADD23C,2.000000*%
G04 APERTURE END LIST*
D10*
X83050000Y-70550000D02*
X58050000Y-70550000D01*
X58050000Y-70550000D02*
X58050000Y-36550000D01*
X58050000Y-36550000D02*
X83050000Y-36550000D01*
X83050000Y-36550000D02*
X83050000Y-70550000D01*
D11*
G36*
X93773043Y-51426571D02*
G01*
X93676768Y-51450809D01*
X93590184Y-51493641D01*
X93515373Y-51553419D01*
X93454418Y-51628494D01*
X93409399Y-51717220D01*
X93383136Y-51813530D01*
X93377286Y-51910795D01*
X93392140Y-52004654D01*
X93425840Y-52092511D01*
X93476528Y-52171770D01*
X93542345Y-52239836D01*
X93621434Y-52294112D01*
X93711934Y-52332002D01*
X93763200Y-52344426D01*
X93807698Y-52351947D01*
X93841999Y-52354919D01*
X93874960Y-52353094D01*
X93915434Y-52346225D01*
X93948531Y-52339250D01*
X94041947Y-52307741D01*
X94125619Y-52256617D01*
X94197665Y-52187429D01*
X94256200Y-52101728D01*
X94270148Y-52074489D01*
X94286586Y-52038122D01*
X94296894Y-52007582D01*
X94302460Y-51975450D01*
X94304669Y-51934307D01*
X94304948Y-51888222D01*
X94300861Y-51803865D01*
X94287446Y-51734586D01*
X94262256Y-51673961D01*
X94222846Y-51615567D01*
X94184298Y-51571302D01*
X94112406Y-51505484D01*
X94037313Y-51460053D01*
X93954562Y-51432850D01*
X93876928Y-51422576D01*
X93773043Y-51426571D01*
X93773043Y-51426571D01*
G37*
X93773043Y-51426571D02*
X93676768Y-51450809D01*
X93590184Y-51493641D01*
X93515373Y-51553419D01*
X93454418Y-51628494D01*
X93409399Y-51717220D01*
X93383136Y-51813530D01*
X93377286Y-51910795D01*
X93392140Y-52004654D01*
X93425840Y-52092511D01*
X93476528Y-52171770D01*
X93542345Y-52239836D01*
X93621434Y-52294112D01*
X93711934Y-52332002D01*
X93763200Y-52344426D01*
X93807698Y-52351947D01*
X93841999Y-52354919D01*
X93874960Y-52353094D01*
X93915434Y-52346225D01*
X93948531Y-52339250D01*
X94041947Y-52307741D01*
X94125619Y-52256617D01*
X94197665Y-52187429D01*
X94256200Y-52101728D01*
X94270148Y-52074489D01*
X94286586Y-52038122D01*
X94296894Y-52007582D01*
X94302460Y-51975450D01*
X94304669Y-51934307D01*
X94304948Y-51888222D01*
X94300861Y-51803865D01*
X94287446Y-51734586D01*
X94262256Y-51673961D01*
X94222846Y-51615567D01*
X94184298Y-51571302D01*
X94112406Y-51505484D01*
X94037313Y-51460053D01*
X93954562Y-51432850D01*
X93876928Y-51422576D01*
X93773043Y-51426571D01*
G36*
X85313493Y-53872245D02*
G01*
X85313474Y-54106662D01*
X85313448Y-54319603D01*
X85313375Y-54512168D01*
X85313218Y-54685459D01*
X85312936Y-54840576D01*
X85312491Y-54978620D01*
X85311844Y-55100692D01*
X85310955Y-55207894D01*
X85309787Y-55301326D01*
X85308299Y-55382090D01*
X85306454Y-55451286D01*
X85304211Y-55510015D01*
X85301531Y-55559379D01*
X85298377Y-55600478D01*
X85294708Y-55634413D01*
X85290487Y-55662286D01*
X85285673Y-55685198D01*
X85280227Y-55704249D01*
X85274112Y-55720540D01*
X85267288Y-55735173D01*
X85259715Y-55749249D01*
X85251355Y-55763868D01*
X85246161Y-55772974D01*
X85211896Y-55833689D01*
X86070045Y-55833689D01*
X86070045Y-55737733D01*
X86070776Y-55694370D01*
X86072728Y-55661205D01*
X86075537Y-55643424D01*
X86076779Y-55641778D01*
X86088201Y-55648662D01*
X86110916Y-55666505D01*
X86133615Y-55685879D01*
X86188200Y-55726614D01*
X86257679Y-55767617D01*
X86334730Y-55805123D01*
X86412035Y-55835364D01*
X86442887Y-55845012D01*
X86511384Y-55859578D01*
X86594236Y-55869539D01*
X86683629Y-55874583D01*
X86771752Y-55874396D01*
X86850793Y-55868666D01*
X86888489Y-55862858D01*
X87026586Y-55824797D01*
X87153887Y-55767073D01*
X87269708Y-55690211D01*
X87373363Y-55594739D01*
X87464167Y-55481179D01*
X87530969Y-55370381D01*
X87585836Y-55253625D01*
X87627837Y-55134276D01*
X87657833Y-55008283D01*
X87676689Y-54871594D01*
X87685268Y-54720158D01*
X87685994Y-54642711D01*
X87683900Y-54585934D01*
X86854783Y-54585934D01*
X86854576Y-54679002D01*
X86851663Y-54766692D01*
X86846000Y-54843772D01*
X86837545Y-54905009D01*
X86834962Y-54917350D01*
X86803160Y-55024633D01*
X86761502Y-55111658D01*
X86709637Y-55178642D01*
X86647219Y-55225805D01*
X86573900Y-55253365D01*
X86489331Y-55261541D01*
X86393165Y-55250551D01*
X86329689Y-55234829D01*
X86280546Y-55216639D01*
X86226417Y-55190791D01*
X86185756Y-55167089D01*
X86115200Y-55120721D01*
X86115200Y-53970530D01*
X86182608Y-53926962D01*
X86261133Y-53886040D01*
X86345319Y-53859389D01*
X86430443Y-53847465D01*
X86511784Y-53850722D01*
X86584620Y-53869615D01*
X86616574Y-53885184D01*
X86674499Y-53928181D01*
X86723456Y-53984953D01*
X86764610Y-54057575D01*
X86799126Y-54148121D01*
X86828167Y-54258666D01*
X86829448Y-54264533D01*
X86839619Y-54326788D01*
X86847261Y-54404594D01*
X86852330Y-54492720D01*
X86854783Y-54585934D01*
X87683900Y-54585934D01*
X87678143Y-54429895D01*
X87656198Y-54234059D01*
X87620214Y-54055332D01*
X87570241Y-53893845D01*
X87506332Y-53749726D01*
X87428538Y-53623106D01*
X87336911Y-53514115D01*
X87231503Y-53422883D01*
X87186338Y-53391932D01*
X87085389Y-53335785D01*
X86982099Y-53296174D01*
X86872011Y-53272014D01*
X86750670Y-53262219D01*
X86658164Y-53263265D01*
X86528510Y-53274231D01*
X86415916Y-53296046D01*
X86317125Y-53329714D01*
X86228879Y-53376236D01*
X86180014Y-53410448D01*
X86150647Y-53432362D01*
X86128957Y-53447333D01*
X86120747Y-53451733D01*
X86119132Y-53440904D01*
X86117841Y-53410251D01*
X86116862Y-53362526D01*
X86116183Y-53300479D01*
X86115790Y-53226862D01*
X86115670Y-53144427D01*
X86115812Y-53055925D01*
X86116203Y-52964107D01*
X86116829Y-52871724D01*
X86117680Y-52781528D01*
X86118740Y-52696271D01*
X86119999Y-52618703D01*
X86121444Y-52551576D01*
X86123062Y-52497641D01*
X86124839Y-52459650D01*
X86125331Y-52452667D01*
X86132908Y-52382251D01*
X86144469Y-52327102D01*
X86162208Y-52279981D01*
X86188318Y-52233647D01*
X86194585Y-52224067D01*
X86219017Y-52187378D01*
X85313689Y-52187378D01*
X85313493Y-53872245D01*
X85313493Y-53872245D01*
G37*
X85313493Y-53872245D02*
X85313474Y-54106662D01*
X85313448Y-54319603D01*
X85313375Y-54512168D01*
X85313218Y-54685459D01*
X85312936Y-54840576D01*
X85312491Y-54978620D01*
X85311844Y-55100692D01*
X85310955Y-55207894D01*
X85309787Y-55301326D01*
X85308299Y-55382090D01*
X85306454Y-55451286D01*
X85304211Y-55510015D01*
X85301531Y-55559379D01*
X85298377Y-55600478D01*
X85294708Y-55634413D01*
X85290487Y-55662286D01*
X85285673Y-55685198D01*
X85280227Y-55704249D01*
X85274112Y-55720540D01*
X85267288Y-55735173D01*
X85259715Y-55749249D01*
X85251355Y-55763868D01*
X85246161Y-55772974D01*
X85211896Y-55833689D01*
X86070045Y-55833689D01*
X86070045Y-55737733D01*
X86070776Y-55694370D01*
X86072728Y-55661205D01*
X86075537Y-55643424D01*
X86076779Y-55641778D01*
X86088201Y-55648662D01*
X86110916Y-55666505D01*
X86133615Y-55685879D01*
X86188200Y-55726614D01*
X86257679Y-55767617D01*
X86334730Y-55805123D01*
X86412035Y-55835364D01*
X86442887Y-55845012D01*
X86511384Y-55859578D01*
X86594236Y-55869539D01*
X86683629Y-55874583D01*
X86771752Y-55874396D01*
X86850793Y-55868666D01*
X86888489Y-55862858D01*
X87026586Y-55824797D01*
X87153887Y-55767073D01*
X87269708Y-55690211D01*
X87373363Y-55594739D01*
X87464167Y-55481179D01*
X87530969Y-55370381D01*
X87585836Y-55253625D01*
X87627837Y-55134276D01*
X87657833Y-55008283D01*
X87676689Y-54871594D01*
X87685268Y-54720158D01*
X87685994Y-54642711D01*
X87683900Y-54585934D01*
X86854783Y-54585934D01*
X86854576Y-54679002D01*
X86851663Y-54766692D01*
X86846000Y-54843772D01*
X86837545Y-54905009D01*
X86834962Y-54917350D01*
X86803160Y-55024633D01*
X86761502Y-55111658D01*
X86709637Y-55178642D01*
X86647219Y-55225805D01*
X86573900Y-55253365D01*
X86489331Y-55261541D01*
X86393165Y-55250551D01*
X86329689Y-55234829D01*
X86280546Y-55216639D01*
X86226417Y-55190791D01*
X86185756Y-55167089D01*
X86115200Y-55120721D01*
X86115200Y-53970530D01*
X86182608Y-53926962D01*
X86261133Y-53886040D01*
X86345319Y-53859389D01*
X86430443Y-53847465D01*
X86511784Y-53850722D01*
X86584620Y-53869615D01*
X86616574Y-53885184D01*
X86674499Y-53928181D01*
X86723456Y-53984953D01*
X86764610Y-54057575D01*
X86799126Y-54148121D01*
X86828167Y-54258666D01*
X86829448Y-54264533D01*
X86839619Y-54326788D01*
X86847261Y-54404594D01*
X86852330Y-54492720D01*
X86854783Y-54585934D01*
X87683900Y-54585934D01*
X87678143Y-54429895D01*
X87656198Y-54234059D01*
X87620214Y-54055332D01*
X87570241Y-53893845D01*
X87506332Y-53749726D01*
X87428538Y-53623106D01*
X87336911Y-53514115D01*
X87231503Y-53422883D01*
X87186338Y-53391932D01*
X87085389Y-53335785D01*
X86982099Y-53296174D01*
X86872011Y-53272014D01*
X86750670Y-53262219D01*
X86658164Y-53263265D01*
X86528510Y-53274231D01*
X86415916Y-53296046D01*
X86317125Y-53329714D01*
X86228879Y-53376236D01*
X86180014Y-53410448D01*
X86150647Y-53432362D01*
X86128957Y-53447333D01*
X86120747Y-53451733D01*
X86119132Y-53440904D01*
X86117841Y-53410251D01*
X86116862Y-53362526D01*
X86116183Y-53300479D01*
X86115790Y-53226862D01*
X86115670Y-53144427D01*
X86115812Y-53055925D01*
X86116203Y-52964107D01*
X86116829Y-52871724D01*
X86117680Y-52781528D01*
X86118740Y-52696271D01*
X86119999Y-52618703D01*
X86121444Y-52551576D01*
X86123062Y-52497641D01*
X86124839Y-52459650D01*
X86125331Y-52452667D01*
X86132908Y-52382251D01*
X86144469Y-52327102D01*
X86162208Y-52279981D01*
X86188318Y-52233647D01*
X86194585Y-52224067D01*
X86219017Y-52187378D01*
X85313689Y-52187378D01*
X85313493Y-53872245D01*
G36*
X88826426Y-53266552D02*
G01*
X88674508Y-53286567D01*
X88539244Y-53320202D01*
X88419761Y-53367725D01*
X88315185Y-53429405D01*
X88237576Y-53492965D01*
X88168735Y-53567099D01*
X88114994Y-53646871D01*
X88072090Y-53739091D01*
X88056616Y-53782161D01*
X88043756Y-53821142D01*
X88032554Y-53857289D01*
X88022880Y-53892434D01*
X88014604Y-53928410D01*
X88007597Y-53967050D01*
X88001728Y-54010185D01*
X87996869Y-54059649D01*
X87992890Y-54117273D01*
X87989660Y-54184891D01*
X87987051Y-54264334D01*
X87984933Y-54357436D01*
X87983176Y-54466027D01*
X87981651Y-54591942D01*
X87980228Y-54737012D01*
X87978975Y-54879778D01*
X87977649Y-55035968D01*
X87976444Y-55171239D01*
X87975234Y-55287246D01*
X87973894Y-55385645D01*
X87972300Y-55468093D01*
X87970325Y-55536246D01*
X87967844Y-55591760D01*
X87964731Y-55636292D01*
X87960862Y-55671498D01*
X87956111Y-55699034D01*
X87950352Y-55720556D01*
X87943461Y-55737722D01*
X87935311Y-55752186D01*
X87925777Y-55765606D01*
X87914734Y-55779638D01*
X87910434Y-55785071D01*
X87894614Y-55807910D01*
X87887578Y-55823463D01*
X87887556Y-55823922D01*
X87898433Y-55826121D01*
X87929418Y-55828147D01*
X87978043Y-55829942D01*
X88041837Y-55831451D01*
X88118331Y-55832616D01*
X88205056Y-55833380D01*
X88299543Y-55833686D01*
X88310450Y-55833689D01*
X88733343Y-55833689D01*
X88736605Y-55737622D01*
X88739867Y-55641556D01*
X88801956Y-55692543D01*
X88899286Y-55760057D01*
X89009187Y-55814749D01*
X89095651Y-55844978D01*
X89164722Y-55859666D01*
X89248075Y-55869659D01*
X89337841Y-55874646D01*
X89426155Y-55874313D01*
X89505149Y-55868351D01*
X89541378Y-55862638D01*
X89681397Y-55824776D01*
X89807822Y-55769932D01*
X89919740Y-55698924D01*
X90016238Y-55612568D01*
X90096400Y-55511679D01*
X90159313Y-55397076D01*
X90203688Y-55270984D01*
X90216022Y-55214401D01*
X90223632Y-55152202D01*
X90227261Y-55077363D01*
X90227755Y-55043467D01*
X90227690Y-55040282D01*
X89467752Y-55040282D01*
X89458459Y-55115333D01*
X89430272Y-55179160D01*
X89381803Y-55234798D01*
X89376746Y-55239211D01*
X89328452Y-55274037D01*
X89276743Y-55296620D01*
X89216011Y-55308540D01*
X89140648Y-55311383D01*
X89122541Y-55310978D01*
X89068722Y-55308325D01*
X89028692Y-55302909D01*
X88993676Y-55292745D01*
X88954897Y-55275850D01*
X88944255Y-55270672D01*
X88883604Y-55234844D01*
X88836785Y-55192212D01*
X88824048Y-55176973D01*
X88779378Y-55120462D01*
X88779378Y-54924586D01*
X88779914Y-54845939D01*
X88781604Y-54787988D01*
X88784572Y-54748875D01*
X88788943Y-54726741D01*
X88793028Y-54720274D01*
X88808953Y-54717111D01*
X88842736Y-54714488D01*
X88889660Y-54712655D01*
X88945007Y-54711857D01*
X88953894Y-54711842D01*
X89074670Y-54717096D01*
X89177340Y-54733263D01*
X89263894Y-54760961D01*
X89336319Y-54800808D01*
X89391249Y-54847758D01*
X89435796Y-54905645D01*
X89460520Y-54968693D01*
X89467752Y-55040282D01*
X90227690Y-55040282D01*
X90225822Y-54949712D01*
X90217478Y-54870812D01*
X90201232Y-54799590D01*
X90175595Y-54728864D01*
X90151599Y-54676493D01*
X90092980Y-54581196D01*
X90014883Y-54493170D01*
X89919685Y-54414017D01*
X89809762Y-54345340D01*
X89687490Y-54288741D01*
X89555245Y-54245821D01*
X89490578Y-54230882D01*
X89354396Y-54208777D01*
X89205951Y-54194194D01*
X89054495Y-54187813D01*
X88927936Y-54189445D01*
X88766050Y-54196224D01*
X88773470Y-54137245D01*
X88792762Y-54038092D01*
X88823896Y-53957372D01*
X88867731Y-53894466D01*
X88925129Y-53848756D01*
X88996952Y-53819622D01*
X89084059Y-53806447D01*
X89187314Y-53808611D01*
X89225289Y-53812612D01*
X89366480Y-53837780D01*
X89503293Y-53878814D01*
X89597822Y-53916815D01*
X89642982Y-53936190D01*
X89681415Y-53951760D01*
X89707766Y-53961405D01*
X89715454Y-53963452D01*
X89725198Y-53954374D01*
X89741917Y-53925405D01*
X89765768Y-53876217D01*
X89796907Y-53806484D01*
X89835493Y-53715879D01*
X89842090Y-53700089D01*
X89872147Y-53627772D01*
X89899126Y-53562425D01*
X89921864Y-53506906D01*
X89939194Y-53464072D01*
X89949952Y-53436781D01*
X89953059Y-53427942D01*
X89943060Y-53423187D01*
X89916783Y-53417910D01*
X89888511Y-53414231D01*
X89858354Y-53409474D01*
X89810567Y-53400028D01*
X89749388Y-53386820D01*
X89679054Y-53370776D01*
X89603806Y-53352820D01*
X89575245Y-53345797D01*
X89470184Y-53320209D01*
X89382520Y-53300147D01*
X89307932Y-53284969D01*
X89242097Y-53274035D01*
X89180693Y-53266704D01*
X89119398Y-53262335D01*
X89053890Y-53260287D01*
X88995872Y-53259889D01*
X88826426Y-53266552D01*
X88826426Y-53266552D01*
G37*
X88826426Y-53266552D02*
X88674508Y-53286567D01*
X88539244Y-53320202D01*
X88419761Y-53367725D01*
X88315185Y-53429405D01*
X88237576Y-53492965D01*
X88168735Y-53567099D01*
X88114994Y-53646871D01*
X88072090Y-53739091D01*
X88056616Y-53782161D01*
X88043756Y-53821142D01*
X88032554Y-53857289D01*
X88022880Y-53892434D01*
X88014604Y-53928410D01*
X88007597Y-53967050D01*
X88001728Y-54010185D01*
X87996869Y-54059649D01*
X87992890Y-54117273D01*
X87989660Y-54184891D01*
X87987051Y-54264334D01*
X87984933Y-54357436D01*
X87983176Y-54466027D01*
X87981651Y-54591942D01*
X87980228Y-54737012D01*
X87978975Y-54879778D01*
X87977649Y-55035968D01*
X87976444Y-55171239D01*
X87975234Y-55287246D01*
X87973894Y-55385645D01*
X87972300Y-55468093D01*
X87970325Y-55536246D01*
X87967844Y-55591760D01*
X87964731Y-55636292D01*
X87960862Y-55671498D01*
X87956111Y-55699034D01*
X87950352Y-55720556D01*
X87943461Y-55737722D01*
X87935311Y-55752186D01*
X87925777Y-55765606D01*
X87914734Y-55779638D01*
X87910434Y-55785071D01*
X87894614Y-55807910D01*
X87887578Y-55823463D01*
X87887556Y-55823922D01*
X87898433Y-55826121D01*
X87929418Y-55828147D01*
X87978043Y-55829942D01*
X88041837Y-55831451D01*
X88118331Y-55832616D01*
X88205056Y-55833380D01*
X88299543Y-55833686D01*
X88310450Y-55833689D01*
X88733343Y-55833689D01*
X88736605Y-55737622D01*
X88739867Y-55641556D01*
X88801956Y-55692543D01*
X88899286Y-55760057D01*
X89009187Y-55814749D01*
X89095651Y-55844978D01*
X89164722Y-55859666D01*
X89248075Y-55869659D01*
X89337841Y-55874646D01*
X89426155Y-55874313D01*
X89505149Y-55868351D01*
X89541378Y-55862638D01*
X89681397Y-55824776D01*
X89807822Y-55769932D01*
X89919740Y-55698924D01*
X90016238Y-55612568D01*
X90096400Y-55511679D01*
X90159313Y-55397076D01*
X90203688Y-55270984D01*
X90216022Y-55214401D01*
X90223632Y-55152202D01*
X90227261Y-55077363D01*
X90227755Y-55043467D01*
X90227690Y-55040282D01*
X89467752Y-55040282D01*
X89458459Y-55115333D01*
X89430272Y-55179160D01*
X89381803Y-55234798D01*
X89376746Y-55239211D01*
X89328452Y-55274037D01*
X89276743Y-55296620D01*
X89216011Y-55308540D01*
X89140648Y-55311383D01*
X89122541Y-55310978D01*
X89068722Y-55308325D01*
X89028692Y-55302909D01*
X88993676Y-55292745D01*
X88954897Y-55275850D01*
X88944255Y-55270672D01*
X88883604Y-55234844D01*
X88836785Y-55192212D01*
X88824048Y-55176973D01*
X88779378Y-55120462D01*
X88779378Y-54924586D01*
X88779914Y-54845939D01*
X88781604Y-54787988D01*
X88784572Y-54748875D01*
X88788943Y-54726741D01*
X88793028Y-54720274D01*
X88808953Y-54717111D01*
X88842736Y-54714488D01*
X88889660Y-54712655D01*
X88945007Y-54711857D01*
X88953894Y-54711842D01*
X89074670Y-54717096D01*
X89177340Y-54733263D01*
X89263894Y-54760961D01*
X89336319Y-54800808D01*
X89391249Y-54847758D01*
X89435796Y-54905645D01*
X89460520Y-54968693D01*
X89467752Y-55040282D01*
X90227690Y-55040282D01*
X90225822Y-54949712D01*
X90217478Y-54870812D01*
X90201232Y-54799590D01*
X90175595Y-54728864D01*
X90151599Y-54676493D01*
X90092980Y-54581196D01*
X90014883Y-54493170D01*
X89919685Y-54414017D01*
X89809762Y-54345340D01*
X89687490Y-54288741D01*
X89555245Y-54245821D01*
X89490578Y-54230882D01*
X89354396Y-54208777D01*
X89205951Y-54194194D01*
X89054495Y-54187813D01*
X88927936Y-54189445D01*
X88766050Y-54196224D01*
X88773470Y-54137245D01*
X88792762Y-54038092D01*
X88823896Y-53957372D01*
X88867731Y-53894466D01*
X88925129Y-53848756D01*
X88996952Y-53819622D01*
X89084059Y-53806447D01*
X89187314Y-53808611D01*
X89225289Y-53812612D01*
X89366480Y-53837780D01*
X89503293Y-53878814D01*
X89597822Y-53916815D01*
X89642982Y-53936190D01*
X89681415Y-53951760D01*
X89707766Y-53961405D01*
X89715454Y-53963452D01*
X89725198Y-53954374D01*
X89741917Y-53925405D01*
X89765768Y-53876217D01*
X89796907Y-53806484D01*
X89835493Y-53715879D01*
X89842090Y-53700089D01*
X89872147Y-53627772D01*
X89899126Y-53562425D01*
X89921864Y-53506906D01*
X89939194Y-53464072D01*
X89949952Y-53436781D01*
X89953059Y-53427942D01*
X89943060Y-53423187D01*
X89916783Y-53417910D01*
X89888511Y-53414231D01*
X89858354Y-53409474D01*
X89810567Y-53400028D01*
X89749388Y-53386820D01*
X89679054Y-53370776D01*
X89603806Y-53352820D01*
X89575245Y-53345797D01*
X89470184Y-53320209D01*
X89382520Y-53300147D01*
X89307932Y-53284969D01*
X89242097Y-53274035D01*
X89180693Y-53266704D01*
X89119398Y-53262335D01*
X89053890Y-53260287D01*
X88995872Y-53259889D01*
X88826426Y-53266552D01*
G36*
X91171571Y-52349071D02*
G01*
X91011430Y-52370245D01*
X90847490Y-52410385D01*
X90677687Y-52469889D01*
X90499957Y-52549154D01*
X90488690Y-52554699D01*
X90430995Y-52582725D01*
X90379448Y-52606802D01*
X90337809Y-52625249D01*
X90309838Y-52636386D01*
X90300267Y-52638933D01*
X90281050Y-52643941D01*
X90276439Y-52648147D01*
X90281542Y-52658580D01*
X90297582Y-52684868D01*
X90322712Y-52724257D01*
X90355086Y-52773991D01*
X90392857Y-52831315D01*
X90434178Y-52893476D01*
X90477202Y-52957718D01*
X90520083Y-53021285D01*
X90560974Y-53081425D01*
X90598029Y-53135380D01*
X90629400Y-53180397D01*
X90653241Y-53213721D01*
X90667706Y-53232597D01*
X90669691Y-53234787D01*
X90679809Y-53230138D01*
X90702150Y-53212962D01*
X90732720Y-53186440D01*
X90748464Y-53171964D01*
X90844953Y-53096682D01*
X90951664Y-53041241D01*
X91067168Y-53006141D01*
X91190038Y-52991880D01*
X91259439Y-52993051D01*
X91380577Y-53010212D01*
X91489795Y-53046094D01*
X91587418Y-53100959D01*
X91673772Y-53175070D01*
X91749185Y-53268688D01*
X91813982Y-53382076D01*
X91851399Y-53468667D01*
X91895252Y-53604366D01*
X91927572Y-53751850D01*
X91948443Y-53907314D01*
X91957949Y-54066956D01*
X91956173Y-54226973D01*
X91943197Y-54383561D01*
X91919106Y-54532918D01*
X91883982Y-54671240D01*
X91837908Y-54794724D01*
X91821627Y-54828978D01*
X91753380Y-54943064D01*
X91672921Y-55039557D01*
X91581430Y-55117670D01*
X91480089Y-55176617D01*
X91370080Y-55215612D01*
X91252585Y-55233868D01*
X91211117Y-55235211D01*
X91089559Y-55224290D01*
X90969122Y-55191474D01*
X90851334Y-55137439D01*
X90737723Y-55062865D01*
X90646315Y-54984539D01*
X90599785Y-54940008D01*
X90418517Y-55237271D01*
X90373420Y-55311433D01*
X90332181Y-55379646D01*
X90296265Y-55439459D01*
X90267134Y-55488420D01*
X90246250Y-55524079D01*
X90235076Y-55543984D01*
X90233625Y-55547079D01*
X90241854Y-55556718D01*
X90267433Y-55573999D01*
X90307127Y-55597283D01*
X90357703Y-55624934D01*
X90415926Y-55655315D01*
X90478563Y-55686790D01*
X90542379Y-55717722D01*
X90604140Y-55746473D01*
X90660612Y-55771408D01*
X90708562Y-55790889D01*
X90732014Y-55799318D01*
X90865779Y-55837133D01*
X91003673Y-55862136D01*
X91151378Y-55875140D01*
X91278167Y-55877468D01*
X91346122Y-55876373D01*
X91411723Y-55874275D01*
X91469153Y-55871434D01*
X91512597Y-55868106D01*
X91526702Y-55866422D01*
X91665716Y-55837587D01*
X91807243Y-55792468D01*
X91944725Y-55733750D01*
X92071606Y-55664120D01*
X92149111Y-55611441D01*
X92276519Y-55503239D01*
X92394822Y-55376671D01*
X92501828Y-55234866D01*
X92595348Y-55080951D01*
X92673190Y-54918053D01*
X92717044Y-54800756D01*
X92767292Y-54617128D01*
X92800791Y-54422581D01*
X92817551Y-54221325D01*
X92817584Y-54017568D01*
X92800899Y-53815521D01*
X92767507Y-53619392D01*
X92717420Y-53433391D01*
X92713603Y-53421803D01*
X92650719Y-53259750D01*
X92573972Y-53111832D01*
X92480758Y-52973865D01*
X92368473Y-52841661D01*
X92324608Y-52796399D01*
X92188466Y-52672457D01*
X92048509Y-52569915D01*
X91902589Y-52487656D01*
X91748558Y-52424564D01*
X91584268Y-52379523D01*
X91488711Y-52362033D01*
X91329977Y-52346466D01*
X91171571Y-52349071D01*
X91171571Y-52349071D01*
G37*
X91171571Y-52349071D02*
X91011430Y-52370245D01*
X90847490Y-52410385D01*
X90677687Y-52469889D01*
X90499957Y-52549154D01*
X90488690Y-52554699D01*
X90430995Y-52582725D01*
X90379448Y-52606802D01*
X90337809Y-52625249D01*
X90309838Y-52636386D01*
X90300267Y-52638933D01*
X90281050Y-52643941D01*
X90276439Y-52648147D01*
X90281542Y-52658580D01*
X90297582Y-52684868D01*
X90322712Y-52724257D01*
X90355086Y-52773991D01*
X90392857Y-52831315D01*
X90434178Y-52893476D01*
X90477202Y-52957718D01*
X90520083Y-53021285D01*
X90560974Y-53081425D01*
X90598029Y-53135380D01*
X90629400Y-53180397D01*
X90653241Y-53213721D01*
X90667706Y-53232597D01*
X90669691Y-53234787D01*
X90679809Y-53230138D01*
X90702150Y-53212962D01*
X90732720Y-53186440D01*
X90748464Y-53171964D01*
X90844953Y-53096682D01*
X90951664Y-53041241D01*
X91067168Y-53006141D01*
X91190038Y-52991880D01*
X91259439Y-52993051D01*
X91380577Y-53010212D01*
X91489795Y-53046094D01*
X91587418Y-53100959D01*
X91673772Y-53175070D01*
X91749185Y-53268688D01*
X91813982Y-53382076D01*
X91851399Y-53468667D01*
X91895252Y-53604366D01*
X91927572Y-53751850D01*
X91948443Y-53907314D01*
X91957949Y-54066956D01*
X91956173Y-54226973D01*
X91943197Y-54383561D01*
X91919106Y-54532918D01*
X91883982Y-54671240D01*
X91837908Y-54794724D01*
X91821627Y-54828978D01*
X91753380Y-54943064D01*
X91672921Y-55039557D01*
X91581430Y-55117670D01*
X91480089Y-55176617D01*
X91370080Y-55215612D01*
X91252585Y-55233868D01*
X91211117Y-55235211D01*
X91089559Y-55224290D01*
X90969122Y-55191474D01*
X90851334Y-55137439D01*
X90737723Y-55062865D01*
X90646315Y-54984539D01*
X90599785Y-54940008D01*
X90418517Y-55237271D01*
X90373420Y-55311433D01*
X90332181Y-55379646D01*
X90296265Y-55439459D01*
X90267134Y-55488420D01*
X90246250Y-55524079D01*
X90235076Y-55543984D01*
X90233625Y-55547079D01*
X90241854Y-55556718D01*
X90267433Y-55573999D01*
X90307127Y-55597283D01*
X90357703Y-55624934D01*
X90415926Y-55655315D01*
X90478563Y-55686790D01*
X90542379Y-55717722D01*
X90604140Y-55746473D01*
X90660612Y-55771408D01*
X90708562Y-55790889D01*
X90732014Y-55799318D01*
X90865779Y-55837133D01*
X91003673Y-55862136D01*
X91151378Y-55875140D01*
X91278167Y-55877468D01*
X91346122Y-55876373D01*
X91411723Y-55874275D01*
X91469153Y-55871434D01*
X91512597Y-55868106D01*
X91526702Y-55866422D01*
X91665716Y-55837587D01*
X91807243Y-55792468D01*
X91944725Y-55733750D01*
X92071606Y-55664120D01*
X92149111Y-55611441D01*
X92276519Y-55503239D01*
X92394822Y-55376671D01*
X92501828Y-55234866D01*
X92595348Y-55080951D01*
X92673190Y-54918053D01*
X92717044Y-54800756D01*
X92767292Y-54617128D01*
X92800791Y-54422581D01*
X92817551Y-54221325D01*
X92817584Y-54017568D01*
X92800899Y-53815521D01*
X92767507Y-53619392D01*
X92717420Y-53433391D01*
X92713603Y-53421803D01*
X92650719Y-53259750D01*
X92573972Y-53111832D01*
X92480758Y-52973865D01*
X92368473Y-52841661D01*
X92324608Y-52796399D01*
X92188466Y-52672457D01*
X92048509Y-52569915D01*
X91902589Y-52487656D01*
X91748558Y-52424564D01*
X91584268Y-52379523D01*
X91488711Y-52362033D01*
X91329977Y-52346466D01*
X91171571Y-52349071D01*
G36*
X94446400Y-51889054D02*
G01*
X94435535Y-52002993D01*
X94403918Y-52110616D01*
X94353015Y-52209615D01*
X94284293Y-52297684D01*
X94199219Y-52372516D01*
X94102232Y-52430384D01*
X93995964Y-52470005D01*
X93888950Y-52488573D01*
X93783300Y-52487434D01*
X93681125Y-52467930D01*
X93584534Y-52431406D01*
X93495638Y-52379205D01*
X93416546Y-52312673D01*
X93349369Y-52233152D01*
X93296217Y-52141987D01*
X93259199Y-52040523D01*
X93240427Y-51930102D01*
X93238489Y-51880206D01*
X93238489Y-51792267D01*
X93186560Y-51792267D01*
X93150253Y-51795111D01*
X93123355Y-51806911D01*
X93096249Y-51830649D01*
X93057867Y-51869031D01*
X93057867Y-54060602D01*
X93057876Y-54322739D01*
X93057908Y-54563241D01*
X93057972Y-54783048D01*
X93058076Y-54983101D01*
X93058227Y-55164344D01*
X93058434Y-55327716D01*
X93058706Y-55474160D01*
X93059050Y-55604617D01*
X93059474Y-55720029D01*
X93059987Y-55821338D01*
X93060597Y-55909484D01*
X93061312Y-55985410D01*
X93062140Y-56050057D01*
X93063089Y-56104367D01*
X93064167Y-56149280D01*
X93065383Y-56185740D01*
X93066745Y-56214687D01*
X93068261Y-56237063D01*
X93069938Y-56253809D01*
X93071786Y-56265868D01*
X93073813Y-56274180D01*
X93076025Y-56279687D01*
X93077108Y-56281537D01*
X93081271Y-56288549D01*
X93084805Y-56294996D01*
X93088635Y-56300900D01*
X93093682Y-56306286D01*
X93100871Y-56311178D01*
X93111123Y-56315598D01*
X93125364Y-56319572D01*
X93144514Y-56323121D01*
X93169499Y-56326270D01*
X93201240Y-56329042D01*
X93240662Y-56331461D01*
X93288686Y-56333551D01*
X93346237Y-56335335D01*
X93414237Y-56336837D01*
X93493610Y-56338080D01*
X93585279Y-56339089D01*
X93690166Y-56339885D01*
X93809196Y-56340494D01*
X93943290Y-56340939D01*
X94093373Y-56341243D01*
X94260367Y-56341430D01*
X94445196Y-56341524D01*
X94648783Y-56341548D01*
X94872050Y-56341525D01*
X95115922Y-56341480D01*
X95381321Y-56341437D01*
X95419704Y-56341432D01*
X95686682Y-56341389D01*
X95932002Y-56341318D01*
X96156583Y-56341213D01*
X96361345Y-56341066D01*
X96547206Y-56340869D01*
X96715088Y-56340616D01*
X96865908Y-56340300D01*
X97000587Y-56339913D01*
X97120044Y-56339447D01*
X97225199Y-56338897D01*
X97316971Y-56338253D01*
X97396279Y-56337511D01*
X97464043Y-56336661D01*
X97521182Y-56335697D01*
X97568617Y-56334611D01*
X97607266Y-56333397D01*
X97638049Y-56332047D01*
X97661885Y-56330555D01*
X97679694Y-56328911D01*
X97692395Y-56327111D01*
X97700908Y-56325145D01*
X97705266Y-56323477D01*
X97713728Y-56319906D01*
X97721497Y-56317270D01*
X97728602Y-56314634D01*
X97735073Y-56311062D01*
X97740939Y-56305621D01*
X97746229Y-56297375D01*
X97750974Y-56285390D01*
X97755202Y-56268731D01*
X97758943Y-56246463D01*
X97762227Y-56217652D01*
X97765083Y-56181363D01*
X97767540Y-56136661D01*
X97769629Y-56082611D01*
X97771378Y-56018279D01*
X97772817Y-55942730D01*
X97773976Y-55855030D01*
X97774883Y-55754243D01*
X97775569Y-55639434D01*
X97776063Y-55509670D01*
X97776395Y-55364015D01*
X97776593Y-55201535D01*
X97776687Y-55021295D01*
X97776708Y-54822360D01*
X97776685Y-54603796D01*
X97776646Y-54364668D01*
X97776622Y-54104040D01*
X97776622Y-54061889D01*
X97776636Y-53798992D01*
X97776661Y-53557732D01*
X97776671Y-53337165D01*
X97776642Y-53136352D01*
X97776548Y-52954349D01*
X97776362Y-52790216D01*
X97776059Y-52643011D01*
X97775614Y-52511792D01*
X97775034Y-52401867D01*
X97472197Y-52401867D01*
X97432407Y-52459711D01*
X97421236Y-52475479D01*
X97411166Y-52489441D01*
X97402138Y-52502784D01*
X97394097Y-52516693D01*
X97386986Y-52532356D01*
X97380747Y-52550958D01*
X97375325Y-52573686D01*
X97370662Y-52601727D01*
X97366701Y-52636267D01*
X97363385Y-52678492D01*
X97360659Y-52729589D01*
X97358464Y-52790744D01*
X97356745Y-52863144D01*
X97355444Y-52947975D01*
X97354505Y-53046422D01*
X97353870Y-53159674D01*
X97353484Y-53288916D01*
X97353288Y-53435334D01*
X97353227Y-53600116D01*
X97353243Y-53784447D01*
X97353280Y-53989513D01*
X97353289Y-54112133D01*
X97353265Y-54329082D01*
X97353231Y-54524642D01*
X97353243Y-54699999D01*
X97353358Y-54856341D01*
X97353630Y-54994857D01*
X97354118Y-55116734D01*
X97354876Y-55223160D01*
X97355962Y-55315322D01*
X97357431Y-55394409D01*
X97359340Y-55461608D01*
X97361744Y-55518107D01*
X97364701Y-55565093D01*
X97368266Y-55603755D01*
X97372495Y-55635280D01*
X97377446Y-55660855D01*
X97383173Y-55681670D01*
X97389733Y-55698911D01*
X97397183Y-55713765D01*
X97405579Y-55727422D01*
X97414976Y-55741069D01*
X97425432Y-55755893D01*
X97431523Y-55764783D01*
X97470296Y-55822400D01*
X96938732Y-55822400D01*
X96815483Y-55822365D01*
X96712987Y-55822215D01*
X96629420Y-55821878D01*
X96562956Y-55821286D01*
X96511771Y-55820367D01*
X96474041Y-55819051D01*
X96447940Y-55817269D01*
X96431644Y-55814951D01*
X96423328Y-55812026D01*
X96421168Y-55808424D01*
X96423339Y-55804075D01*
X96424535Y-55802645D01*
X96449685Y-55765573D01*
X96475583Y-55712772D01*
X96499192Y-55650770D01*
X96507461Y-55624357D01*
X96512078Y-55606416D01*
X96515979Y-55585355D01*
X96519248Y-55559089D01*
X96521966Y-55525532D01*
X96524215Y-55482599D01*
X96526077Y-55428204D01*
X96527636Y-55360262D01*
X96528972Y-55276688D01*
X96530169Y-55175395D01*
X96531308Y-55054300D01*
X96531685Y-55009600D01*
X96532702Y-54884449D01*
X96533460Y-54780082D01*
X96533903Y-54694707D01*
X96533970Y-54626533D01*
X96533605Y-54573765D01*
X96532748Y-54534614D01*
X96531341Y-54507285D01*
X96529325Y-54489986D01*
X96526643Y-54480926D01*
X96523236Y-54478312D01*
X96519044Y-54480351D01*
X96514571Y-54484667D01*
X96504216Y-54497602D01*
X96482158Y-54526676D01*
X96449957Y-54569759D01*
X96409174Y-54624718D01*
X96361370Y-54689423D01*
X96308105Y-54761742D01*
X96250940Y-54839544D01*
X96191437Y-54920698D01*
X96131155Y-55003072D01*
X96071655Y-55084536D01*
X96014498Y-55162957D01*
X95961245Y-55236204D01*
X95913457Y-55302147D01*
X95872693Y-55358654D01*
X95840516Y-55403593D01*
X95818485Y-55434834D01*
X95813917Y-55441466D01*
X95790996Y-55478369D01*
X95764188Y-55526359D01*
X95738789Y-55575897D01*
X95735568Y-55582577D01*
X95713890Y-55630772D01*
X95701304Y-55668334D01*
X95695574Y-55704160D01*
X95694456Y-55746200D01*
X95695090Y-55822400D01*
X94540651Y-55822400D01*
X94631815Y-55728669D01*
X94678612Y-55678775D01*
X94728899Y-55622295D01*
X94774944Y-55568026D01*
X94795369Y-55542673D01*
X94825807Y-55503128D01*
X94865862Y-55449916D01*
X94914361Y-55384667D01*
X94970135Y-55309011D01*
X95032011Y-55224577D01*
X95098819Y-55132994D01*
X95169387Y-55035892D01*
X95242545Y-54934901D01*
X95317121Y-54831650D01*
X95391944Y-54727768D01*
X95465843Y-54624885D01*
X95537646Y-54524631D01*
X95606184Y-54428636D01*
X95670284Y-54338527D01*
X95728775Y-54255936D01*
X95780486Y-54182492D01*
X95824247Y-54119824D01*
X95858885Y-54069561D01*
X95883230Y-54033334D01*
X95896111Y-54012771D01*
X95897869Y-54008668D01*
X95889910Y-53997342D01*
X95869115Y-53970162D01*
X95836847Y-53928829D01*
X95794470Y-53875044D01*
X95743347Y-53810506D01*
X95684841Y-53736918D01*
X95620314Y-53655978D01*
X95551131Y-53569388D01*
X95478653Y-53478848D01*
X95404246Y-53386060D01*
X95344517Y-53311702D01*
X94333511Y-53311702D01*
X94327602Y-53324659D01*
X94313272Y-53346908D01*
X94312225Y-53348391D01*
X94293438Y-53378544D01*
X94273791Y-53415375D01*
X94269892Y-53423511D01*
X94266356Y-53431940D01*
X94263230Y-53442059D01*
X94260486Y-53455260D01*
X94258092Y-53472938D01*
X94256019Y-53496484D01*
X94254235Y-53527293D01*
X94252712Y-53566757D01*
X94251419Y-53616269D01*
X94250326Y-53677223D01*
X94249403Y-53751011D01*
X94248619Y-53839028D01*
X94247945Y-53942665D01*
X94247350Y-54063316D01*
X94246805Y-54202374D01*
X94246279Y-54361232D01*
X94245745Y-54540089D01*
X94245206Y-54725207D01*
X94244772Y-54889145D01*
X94244509Y-55033303D01*
X94244484Y-55159079D01*
X94244765Y-55267871D01*
X94245419Y-55361077D01*
X94246514Y-55440097D01*
X94248118Y-55506328D01*
X94250297Y-55561170D01*
X94253119Y-55606021D01*
X94256651Y-55642278D01*
X94260961Y-55671341D01*
X94266117Y-55694609D01*
X94272185Y-55713479D01*
X94279233Y-55729351D01*
X94287329Y-55743622D01*
X94296540Y-55757691D01*
X94305040Y-55770158D01*
X94322176Y-55796452D01*
X94332322Y-55814037D01*
X94333511Y-55817257D01*
X94322604Y-55818334D01*
X94291411Y-55819335D01*
X94242223Y-55820235D01*
X94177333Y-55821010D01*
X94099030Y-55821637D01*
X94009607Y-55822091D01*
X93911356Y-55822349D01*
X93842445Y-55822400D01*
X93737452Y-55822180D01*
X93640610Y-55821548D01*
X93554107Y-55820549D01*
X93480132Y-55819227D01*
X93420874Y-55817626D01*
X93378520Y-55815791D01*
X93355260Y-55813765D01*
X93351378Y-55812493D01*
X93359076Y-55797591D01*
X93367074Y-55789560D01*
X93380246Y-55772434D01*
X93397485Y-55742183D01*
X93409407Y-55717622D01*
X93436045Y-55658711D01*
X93439120Y-54481845D01*
X93442195Y-53304978D01*
X93887853Y-53304978D01*
X93985670Y-53305142D01*
X94076064Y-53305611D01*
X94156630Y-53306347D01*
X94224962Y-53307316D01*
X94278656Y-53308480D01*
X94315305Y-53309803D01*
X94332504Y-53311249D01*
X94333511Y-53311702D01*
X95344517Y-53311702D01*
X95329270Y-53292722D01*
X95255090Y-53200537D01*
X95183069Y-53111204D01*
X95114569Y-53026424D01*
X95050955Y-52947898D01*
X94993588Y-52877326D01*
X94943833Y-52816409D01*
X94903052Y-52766847D01*
X94885888Y-52746178D01*
X94799596Y-52645516D01*
X94722997Y-52562259D01*
X94654183Y-52494438D01*
X94591248Y-52440089D01*
X94581867Y-52432722D01*
X94542356Y-52402117D01*
X95674116Y-52401867D01*
X95668827Y-52449844D01*
X95672130Y-52507188D01*
X95693661Y-52575463D01*
X95733635Y-52655212D01*
X95778943Y-52727495D01*
X95795161Y-52750140D01*
X95823214Y-52787696D01*
X95861430Y-52838021D01*
X95908137Y-52898973D01*
X95961661Y-52968411D01*
X96020331Y-53044194D01*
X96082475Y-53124180D01*
X96146421Y-53206228D01*
X96210495Y-53288196D01*
X96273027Y-53367943D01*
X96332343Y-53443327D01*
X96386771Y-53512207D01*
X96434639Y-53572442D01*
X96474275Y-53621889D01*
X96504006Y-53658408D01*
X96522161Y-53679858D01*
X96525220Y-53683156D01*
X96528079Y-53675149D01*
X96530293Y-53644855D01*
X96531857Y-53592556D01*
X96532767Y-53518531D01*
X96533020Y-53423063D01*
X96532613Y-53306434D01*
X96531704Y-53186445D01*
X96530382Y-53054333D01*
X96528857Y-52942594D01*
X96526881Y-52849025D01*
X96524206Y-52771419D01*
X96520582Y-52707574D01*
X96515761Y-52655283D01*
X96509494Y-52612344D01*
X96501532Y-52576551D01*
X96491627Y-52545700D01*
X96479531Y-52517586D01*
X96464993Y-52490005D01*
X96450311Y-52464966D01*
X96412314Y-52401867D01*
X97472197Y-52401867D01*
X97775034Y-52401867D01*
X97775001Y-52395617D01*
X97774195Y-52293544D01*
X97773170Y-52204633D01*
X97771900Y-52127941D01*
X97770360Y-52062527D01*
X97768524Y-52007449D01*
X97766367Y-51961765D01*
X97763863Y-51924534D01*
X97760987Y-51894813D01*
X97757713Y-51871662D01*
X97754015Y-51854139D01*
X97749869Y-51841301D01*
X97745247Y-51832208D01*
X97740126Y-51825918D01*
X97734478Y-51821488D01*
X97728279Y-51817978D01*
X97721504Y-51814445D01*
X97715508Y-51810876D01*
X97710275Y-51808300D01*
X97702099Y-51805972D01*
X97689886Y-51803878D01*
X97672541Y-51802007D01*
X97648969Y-51800347D01*
X97618077Y-51798884D01*
X97578768Y-51797608D01*
X97529950Y-51796504D01*
X97470527Y-51795561D01*
X97399404Y-51794767D01*
X97315488Y-51794109D01*
X97217683Y-51793575D01*
X97104894Y-51793153D01*
X96976029Y-51792829D01*
X96829991Y-51792592D01*
X96665686Y-51792430D01*
X96482020Y-51792330D01*
X96277897Y-51792280D01*
X96066753Y-51792267D01*
X94446400Y-51792267D01*
X94446400Y-51889054D01*
X94446400Y-51889054D01*
G37*
X94446400Y-51889054D02*
X94435535Y-52002993D01*
X94403918Y-52110616D01*
X94353015Y-52209615D01*
X94284293Y-52297684D01*
X94199219Y-52372516D01*
X94102232Y-52430384D01*
X93995964Y-52470005D01*
X93888950Y-52488573D01*
X93783300Y-52487434D01*
X93681125Y-52467930D01*
X93584534Y-52431406D01*
X93495638Y-52379205D01*
X93416546Y-52312673D01*
X93349369Y-52233152D01*
X93296217Y-52141987D01*
X93259199Y-52040523D01*
X93240427Y-51930102D01*
X93238489Y-51880206D01*
X93238489Y-51792267D01*
X93186560Y-51792267D01*
X93150253Y-51795111D01*
X93123355Y-51806911D01*
X93096249Y-51830649D01*
X93057867Y-51869031D01*
X93057867Y-54060602D01*
X93057876Y-54322739D01*
X93057908Y-54563241D01*
X93057972Y-54783048D01*
X93058076Y-54983101D01*
X93058227Y-55164344D01*
X93058434Y-55327716D01*
X93058706Y-55474160D01*
X93059050Y-55604617D01*
X93059474Y-55720029D01*
X93059987Y-55821338D01*
X93060597Y-55909484D01*
X93061312Y-55985410D01*
X93062140Y-56050057D01*
X93063089Y-56104367D01*
X93064167Y-56149280D01*
X93065383Y-56185740D01*
X93066745Y-56214687D01*
X93068261Y-56237063D01*
X93069938Y-56253809D01*
X93071786Y-56265868D01*
X93073813Y-56274180D01*
X93076025Y-56279687D01*
X93077108Y-56281537D01*
X93081271Y-56288549D01*
X93084805Y-56294996D01*
X93088635Y-56300900D01*
X93093682Y-56306286D01*
X93100871Y-56311178D01*
X93111123Y-56315598D01*
X93125364Y-56319572D01*
X93144514Y-56323121D01*
X93169499Y-56326270D01*
X93201240Y-56329042D01*
X93240662Y-56331461D01*
X93288686Y-56333551D01*
X93346237Y-56335335D01*
X93414237Y-56336837D01*
X93493610Y-56338080D01*
X93585279Y-56339089D01*
X93690166Y-56339885D01*
X93809196Y-56340494D01*
X93943290Y-56340939D01*
X94093373Y-56341243D01*
X94260367Y-56341430D01*
X94445196Y-56341524D01*
X94648783Y-56341548D01*
X94872050Y-56341525D01*
X95115922Y-56341480D01*
X95381321Y-56341437D01*
X95419704Y-56341432D01*
X95686682Y-56341389D01*
X95932002Y-56341318D01*
X96156583Y-56341213D01*
X96361345Y-56341066D01*
X96547206Y-56340869D01*
X96715088Y-56340616D01*
X96865908Y-56340300D01*
X97000587Y-56339913D01*
X97120044Y-56339447D01*
X97225199Y-56338897D01*
X97316971Y-56338253D01*
X97396279Y-56337511D01*
X97464043Y-56336661D01*
X97521182Y-56335697D01*
X97568617Y-56334611D01*
X97607266Y-56333397D01*
X97638049Y-56332047D01*
X97661885Y-56330555D01*
X97679694Y-56328911D01*
X97692395Y-56327111D01*
X97700908Y-56325145D01*
X97705266Y-56323477D01*
X97713728Y-56319906D01*
X97721497Y-56317270D01*
X97728602Y-56314634D01*
X97735073Y-56311062D01*
X97740939Y-56305621D01*
X97746229Y-56297375D01*
X97750974Y-56285390D01*
X97755202Y-56268731D01*
X97758943Y-56246463D01*
X97762227Y-56217652D01*
X97765083Y-56181363D01*
X97767540Y-56136661D01*
X97769629Y-56082611D01*
X97771378Y-56018279D01*
X97772817Y-55942730D01*
X97773976Y-55855030D01*
X97774883Y-55754243D01*
X97775569Y-55639434D01*
X97776063Y-55509670D01*
X97776395Y-55364015D01*
X97776593Y-55201535D01*
X97776687Y-55021295D01*
X97776708Y-54822360D01*
X97776685Y-54603796D01*
X97776646Y-54364668D01*
X97776622Y-54104040D01*
X97776622Y-54061889D01*
X97776636Y-53798992D01*
X97776661Y-53557732D01*
X97776671Y-53337165D01*
X97776642Y-53136352D01*
X97776548Y-52954349D01*
X97776362Y-52790216D01*
X97776059Y-52643011D01*
X97775614Y-52511792D01*
X97775034Y-52401867D01*
X97472197Y-52401867D01*
X97432407Y-52459711D01*
X97421236Y-52475479D01*
X97411166Y-52489441D01*
X97402138Y-52502784D01*
X97394097Y-52516693D01*
X97386986Y-52532356D01*
X97380747Y-52550958D01*
X97375325Y-52573686D01*
X97370662Y-52601727D01*
X97366701Y-52636267D01*
X97363385Y-52678492D01*
X97360659Y-52729589D01*
X97358464Y-52790744D01*
X97356745Y-52863144D01*
X97355444Y-52947975D01*
X97354505Y-53046422D01*
X97353870Y-53159674D01*
X97353484Y-53288916D01*
X97353288Y-53435334D01*
X97353227Y-53600116D01*
X97353243Y-53784447D01*
X97353280Y-53989513D01*
X97353289Y-54112133D01*
X97353265Y-54329082D01*
X97353231Y-54524642D01*
X97353243Y-54699999D01*
X97353358Y-54856341D01*
X97353630Y-54994857D01*
X97354118Y-55116734D01*
X97354876Y-55223160D01*
X97355962Y-55315322D01*
X97357431Y-55394409D01*
X97359340Y-55461608D01*
X97361744Y-55518107D01*
X97364701Y-55565093D01*
X97368266Y-55603755D01*
X97372495Y-55635280D01*
X97377446Y-55660855D01*
X97383173Y-55681670D01*
X97389733Y-55698911D01*
X97397183Y-55713765D01*
X97405579Y-55727422D01*
X97414976Y-55741069D01*
X97425432Y-55755893D01*
X97431523Y-55764783D01*
X97470296Y-55822400D01*
X96938732Y-55822400D01*
X96815483Y-55822365D01*
X96712987Y-55822215D01*
X96629420Y-55821878D01*
X96562956Y-55821286D01*
X96511771Y-55820367D01*
X96474041Y-55819051D01*
X96447940Y-55817269D01*
X96431644Y-55814951D01*
X96423328Y-55812026D01*
X96421168Y-55808424D01*
X96423339Y-55804075D01*
X96424535Y-55802645D01*
X96449685Y-55765573D01*
X96475583Y-55712772D01*
X96499192Y-55650770D01*
X96507461Y-55624357D01*
X96512078Y-55606416D01*
X96515979Y-55585355D01*
X96519248Y-55559089D01*
X96521966Y-55525532D01*
X96524215Y-55482599D01*
X96526077Y-55428204D01*
X96527636Y-55360262D01*
X96528972Y-55276688D01*
X96530169Y-55175395D01*
X96531308Y-55054300D01*
X96531685Y-55009600D01*
X96532702Y-54884449D01*
X96533460Y-54780082D01*
X96533903Y-54694707D01*
X96533970Y-54626533D01*
X96533605Y-54573765D01*
X96532748Y-54534614D01*
X96531341Y-54507285D01*
X96529325Y-54489986D01*
X96526643Y-54480926D01*
X96523236Y-54478312D01*
X96519044Y-54480351D01*
X96514571Y-54484667D01*
X96504216Y-54497602D01*
X96482158Y-54526676D01*
X96449957Y-54569759D01*
X96409174Y-54624718D01*
X96361370Y-54689423D01*
X96308105Y-54761742D01*
X96250940Y-54839544D01*
X96191437Y-54920698D01*
X96131155Y-55003072D01*
X96071655Y-55084536D01*
X96014498Y-55162957D01*
X95961245Y-55236204D01*
X95913457Y-55302147D01*
X95872693Y-55358654D01*
X95840516Y-55403593D01*
X95818485Y-55434834D01*
X95813917Y-55441466D01*
X95790996Y-55478369D01*
X95764188Y-55526359D01*
X95738789Y-55575897D01*
X95735568Y-55582577D01*
X95713890Y-55630772D01*
X95701304Y-55668334D01*
X95695574Y-55704160D01*
X95694456Y-55746200D01*
X95695090Y-55822400D01*
X94540651Y-55822400D01*
X94631815Y-55728669D01*
X94678612Y-55678775D01*
X94728899Y-55622295D01*
X94774944Y-55568026D01*
X94795369Y-55542673D01*
X94825807Y-55503128D01*
X94865862Y-55449916D01*
X94914361Y-55384667D01*
X94970135Y-55309011D01*
X95032011Y-55224577D01*
X95098819Y-55132994D01*
X95169387Y-55035892D01*
X95242545Y-54934901D01*
X95317121Y-54831650D01*
X95391944Y-54727768D01*
X95465843Y-54624885D01*
X95537646Y-54524631D01*
X95606184Y-54428636D01*
X95670284Y-54338527D01*
X95728775Y-54255936D01*
X95780486Y-54182492D01*
X95824247Y-54119824D01*
X95858885Y-54069561D01*
X95883230Y-54033334D01*
X95896111Y-54012771D01*
X95897869Y-54008668D01*
X95889910Y-53997342D01*
X95869115Y-53970162D01*
X95836847Y-53928829D01*
X95794470Y-53875044D01*
X95743347Y-53810506D01*
X95684841Y-53736918D01*
X95620314Y-53655978D01*
X95551131Y-53569388D01*
X95478653Y-53478848D01*
X95404246Y-53386060D01*
X95344517Y-53311702D01*
X94333511Y-53311702D01*
X94327602Y-53324659D01*
X94313272Y-53346908D01*
X94312225Y-53348391D01*
X94293438Y-53378544D01*
X94273791Y-53415375D01*
X94269892Y-53423511D01*
X94266356Y-53431940D01*
X94263230Y-53442059D01*
X94260486Y-53455260D01*
X94258092Y-53472938D01*
X94256019Y-53496484D01*
X94254235Y-53527293D01*
X94252712Y-53566757D01*
X94251419Y-53616269D01*
X94250326Y-53677223D01*
X94249403Y-53751011D01*
X94248619Y-53839028D01*
X94247945Y-53942665D01*
X94247350Y-54063316D01*
X94246805Y-54202374D01*
X94246279Y-54361232D01*
X94245745Y-54540089D01*
X94245206Y-54725207D01*
X94244772Y-54889145D01*
X94244509Y-55033303D01*
X94244484Y-55159079D01*
X94244765Y-55267871D01*
X94245419Y-55361077D01*
X94246514Y-55440097D01*
X94248118Y-55506328D01*
X94250297Y-55561170D01*
X94253119Y-55606021D01*
X94256651Y-55642278D01*
X94260961Y-55671341D01*
X94266117Y-55694609D01*
X94272185Y-55713479D01*
X94279233Y-55729351D01*
X94287329Y-55743622D01*
X94296540Y-55757691D01*
X94305040Y-55770158D01*
X94322176Y-55796452D01*
X94332322Y-55814037D01*
X94333511Y-55817257D01*
X94322604Y-55818334D01*
X94291411Y-55819335D01*
X94242223Y-55820235D01*
X94177333Y-55821010D01*
X94099030Y-55821637D01*
X94009607Y-55822091D01*
X93911356Y-55822349D01*
X93842445Y-55822400D01*
X93737452Y-55822180D01*
X93640610Y-55821548D01*
X93554107Y-55820549D01*
X93480132Y-55819227D01*
X93420874Y-55817626D01*
X93378520Y-55815791D01*
X93355260Y-55813765D01*
X93351378Y-55812493D01*
X93359076Y-55797591D01*
X93367074Y-55789560D01*
X93380246Y-55772434D01*
X93397485Y-55742183D01*
X93409407Y-55717622D01*
X93436045Y-55658711D01*
X93439120Y-54481845D01*
X93442195Y-53304978D01*
X93887853Y-53304978D01*
X93985670Y-53305142D01*
X94076064Y-53305611D01*
X94156630Y-53306347D01*
X94224962Y-53307316D01*
X94278656Y-53308480D01*
X94315305Y-53309803D01*
X94332504Y-53311249D01*
X94333511Y-53311702D01*
X95344517Y-53311702D01*
X95329270Y-53292722D01*
X95255090Y-53200537D01*
X95183069Y-53111204D01*
X95114569Y-53026424D01*
X95050955Y-52947898D01*
X94993588Y-52877326D01*
X94943833Y-52816409D01*
X94903052Y-52766847D01*
X94885888Y-52746178D01*
X94799596Y-52645516D01*
X94722997Y-52562259D01*
X94654183Y-52494438D01*
X94591248Y-52440089D01*
X94581867Y-52432722D01*
X94542356Y-52402117D01*
X95674116Y-52401867D01*
X95668827Y-52449844D01*
X95672130Y-52507188D01*
X95693661Y-52575463D01*
X95733635Y-52655212D01*
X95778943Y-52727495D01*
X95795161Y-52750140D01*
X95823214Y-52787696D01*
X95861430Y-52838021D01*
X95908137Y-52898973D01*
X95961661Y-52968411D01*
X96020331Y-53044194D01*
X96082475Y-53124180D01*
X96146421Y-53206228D01*
X96210495Y-53288196D01*
X96273027Y-53367943D01*
X96332343Y-53443327D01*
X96386771Y-53512207D01*
X96434639Y-53572442D01*
X96474275Y-53621889D01*
X96504006Y-53658408D01*
X96522161Y-53679858D01*
X96525220Y-53683156D01*
X96528079Y-53675149D01*
X96530293Y-53644855D01*
X96531857Y-53592556D01*
X96532767Y-53518531D01*
X96533020Y-53423063D01*
X96532613Y-53306434D01*
X96531704Y-53186445D01*
X96530382Y-53054333D01*
X96528857Y-52942594D01*
X96526881Y-52849025D01*
X96524206Y-52771419D01*
X96520582Y-52707574D01*
X96515761Y-52655283D01*
X96509494Y-52612344D01*
X96501532Y-52576551D01*
X96491627Y-52545700D01*
X96479531Y-52517586D01*
X96464993Y-52490005D01*
X96450311Y-52464966D01*
X96412314Y-52401867D01*
X97472197Y-52401867D01*
X97775034Y-52401867D01*
X97775001Y-52395617D01*
X97774195Y-52293544D01*
X97773170Y-52204633D01*
X97771900Y-52127941D01*
X97770360Y-52062527D01*
X97768524Y-52007449D01*
X97766367Y-51961765D01*
X97763863Y-51924534D01*
X97760987Y-51894813D01*
X97757713Y-51871662D01*
X97754015Y-51854139D01*
X97749869Y-51841301D01*
X97745247Y-51832208D01*
X97740126Y-51825918D01*
X97734478Y-51821488D01*
X97728279Y-51817978D01*
X97721504Y-51814445D01*
X97715508Y-51810876D01*
X97710275Y-51808300D01*
X97702099Y-51805972D01*
X97689886Y-51803878D01*
X97672541Y-51802007D01*
X97648969Y-51800347D01*
X97618077Y-51798884D01*
X97578768Y-51797608D01*
X97529950Y-51796504D01*
X97470527Y-51795561D01*
X97399404Y-51794767D01*
X97315488Y-51794109D01*
X97217683Y-51793575D01*
X97104894Y-51793153D01*
X96976029Y-51792829D01*
X96829991Y-51792592D01*
X96665686Y-51792430D01*
X96482020Y-51792330D01*
X96277897Y-51792280D01*
X96066753Y-51792267D01*
X94446400Y-51792267D01*
X94446400Y-51889054D01*
D12*
X51950000Y-53700000D02*
G75*
G03X51950000Y-53700000I-6100000J0D01*
G01*
D10*
X72311904Y-52602380D02*
X72311904Y-53411904D01*
X72264285Y-53507142D01*
X72216666Y-53554761D01*
X72121428Y-53602380D01*
X71930952Y-53602380D01*
X71835714Y-53554761D01*
X71788095Y-53507142D01*
X71740476Y-53411904D01*
X71740476Y-52602380D01*
X70740476Y-53602380D02*
X71311904Y-53602380D01*
X71026190Y-53602380D02*
X71026190Y-52602380D01*
X71121428Y-52745238D01*
X71216666Y-52840476D01*
X71311904Y-52888095D01*
X75516666Y-56402380D02*
X75516666Y-55402380D01*
X74945238Y-56402380D01*
X74945238Y-55402380D01*
X74469047Y-55878571D02*
X74135714Y-55878571D01*
X73992857Y-56402380D02*
X74469047Y-56402380D01*
X74469047Y-55402380D01*
X73992857Y-55402380D01*
X73373809Y-55402380D02*
X73183333Y-55402380D01*
X73088095Y-55450000D01*
X72992857Y-55545238D01*
X72945238Y-55735714D01*
X72945238Y-56069047D01*
X72992857Y-56259523D01*
X73088095Y-56354761D01*
X73183333Y-56402380D01*
X73373809Y-56402380D01*
X73469047Y-56354761D01*
X73564285Y-56259523D01*
X73611904Y-56069047D01*
X73611904Y-55735714D01*
X73564285Y-55545238D01*
X73469047Y-55450000D01*
X73373809Y-55402380D01*
X72088095Y-55402380D02*
X72278571Y-55402380D01*
X72373809Y-55450000D01*
X72421428Y-55497619D01*
X72516666Y-55640476D01*
X72564285Y-55830952D01*
X72564285Y-56211904D01*
X72516666Y-56307142D01*
X72469047Y-56354761D01*
X72373809Y-56402380D01*
X72183333Y-56402380D01*
X72088095Y-56354761D01*
X72040476Y-56307142D01*
X71992857Y-56211904D01*
X71992857Y-55973809D01*
X72040476Y-55878571D01*
X72088095Y-55830952D01*
X72183333Y-55783333D01*
X72373809Y-55783333D01*
X72469047Y-55830952D01*
X72516666Y-55878571D01*
X72564285Y-55973809D01*
X71564285Y-56402380D02*
X71564285Y-55402380D01*
X71230952Y-56116666D01*
X70897619Y-55402380D01*
X70897619Y-56402380D01*
X70659523Y-56497619D02*
X69897619Y-56497619D01*
X69135714Y-55450000D02*
X69230952Y-55402380D01*
X69373809Y-55402380D01*
X69516666Y-55450000D01*
X69611904Y-55545238D01*
X69659523Y-55640476D01*
X69707142Y-55830952D01*
X69707142Y-55973809D01*
X69659523Y-56164285D01*
X69611904Y-56259523D01*
X69516666Y-56354761D01*
X69373809Y-56402380D01*
X69278571Y-56402380D01*
X69135714Y-56354761D01*
X69088095Y-56307142D01*
X69088095Y-55973809D01*
X69278571Y-55973809D01*
X68659523Y-56402380D02*
X68659523Y-55402380D01*
X68278571Y-55402380D01*
X68183333Y-55450000D01*
X68135714Y-55497619D01*
X68088095Y-55592857D01*
X68088095Y-55735714D01*
X68135714Y-55830952D01*
X68183333Y-55878571D01*
X68278571Y-55926190D01*
X68659523Y-55926190D01*
X67707142Y-56354761D02*
X67564285Y-56402380D01*
X67326190Y-56402380D01*
X67230952Y-56354761D01*
X67183333Y-56307142D01*
X67135714Y-56211904D01*
X67135714Y-56116666D01*
X67183333Y-56021428D01*
X67230952Y-55973809D01*
X67326190Y-55926190D01*
X67516666Y-55878571D01*
X67611904Y-55830952D01*
X67659523Y-55783333D01*
X67707142Y-55688095D01*
X67707142Y-55592857D01*
X67659523Y-55497619D01*
X67611904Y-55450000D01*
X67516666Y-55402380D01*
X67278571Y-55402380D01*
X67135714Y-55450000D01*
X66252380Y-65716666D02*
X67252380Y-66050000D01*
X66252380Y-66383333D01*
X67157142Y-67288095D02*
X67204761Y-67240476D01*
X67252380Y-67097619D01*
X67252380Y-67002380D01*
X67204761Y-66859523D01*
X67109523Y-66764285D01*
X67014285Y-66716666D01*
X66823809Y-66669047D01*
X66680952Y-66669047D01*
X66490476Y-66716666D01*
X66395238Y-66764285D01*
X66300000Y-66859523D01*
X66252380Y-67002380D01*
X66252380Y-67097619D01*
X66300000Y-67240476D01*
X66347619Y-67288095D01*
X67157142Y-68288095D02*
X67204761Y-68240476D01*
X67252380Y-68097619D01*
X67252380Y-68002380D01*
X67204761Y-67859523D01*
X67109523Y-67764285D01*
X67014285Y-67716666D01*
X66823809Y-67669047D01*
X66680952Y-67669047D01*
X66490476Y-67716666D01*
X66395238Y-67764285D01*
X66300000Y-67859523D01*
X66252380Y-68002380D01*
X66252380Y-68097619D01*
X66300000Y-68240476D01*
X66347619Y-68288095D01*
X69752380Y-67633333D02*
X69276190Y-67300000D01*
X69752380Y-67061904D02*
X68752380Y-67061904D01*
X68752380Y-67442857D01*
X68800000Y-67538095D01*
X68847619Y-67585714D01*
X68942857Y-67633333D01*
X69085714Y-67633333D01*
X69180952Y-67585714D01*
X69228571Y-67538095D01*
X69276190Y-67442857D01*
X69276190Y-67061904D01*
X68752380Y-67966666D02*
X69752380Y-68633333D01*
X68752380Y-68633333D02*
X69752380Y-67966666D01*
X71502380Y-67038095D02*
X71502380Y-67609523D01*
X72502380Y-67323809D02*
X71502380Y-67323809D01*
X71502380Y-67847619D02*
X72502380Y-68514285D01*
X71502380Y-68514285D02*
X72502380Y-67847619D01*
X74050000Y-66478095D02*
X74002380Y-66382857D01*
X74002380Y-66240000D01*
X74050000Y-66097142D01*
X74145238Y-66001904D01*
X74240476Y-65954285D01*
X74430952Y-65906666D01*
X74573809Y-65906666D01*
X74764285Y-65954285D01*
X74859523Y-66001904D01*
X74954761Y-66097142D01*
X75002380Y-66240000D01*
X75002380Y-66335238D01*
X74954761Y-66478095D01*
X74907142Y-66525714D01*
X74573809Y-66525714D01*
X74573809Y-66335238D01*
X75002380Y-66954285D02*
X74002380Y-66954285D01*
X75002380Y-67525714D01*
X74002380Y-67525714D01*
X75002380Y-68001904D02*
X74002380Y-68001904D01*
X74002380Y-68240000D01*
X74050000Y-68382857D01*
X74145238Y-68478095D01*
X74240476Y-68525714D01*
X74430952Y-68573333D01*
X74573809Y-68573333D01*
X74764285Y-68525714D01*
X74859523Y-68478095D01*
X74954761Y-68382857D01*
X75002380Y-68240000D01*
X75002380Y-68001904D01*
X46730952Y-51228571D02*
X46588095Y-51276190D01*
X46540476Y-51323809D01*
X46492857Y-51419047D01*
X46492857Y-51561904D01*
X46540476Y-51657142D01*
X46588095Y-51704761D01*
X46683333Y-51752380D01*
X47064285Y-51752380D01*
X47064285Y-50752380D01*
X46730952Y-50752380D01*
X46635714Y-50800000D01*
X46588095Y-50847619D01*
X46540476Y-50942857D01*
X46540476Y-51038095D01*
X46588095Y-51133333D01*
X46635714Y-51180952D01*
X46730952Y-51228571D01*
X47064285Y-51228571D01*
X46159523Y-50752380D02*
X45492857Y-50752380D01*
X46159523Y-51752380D01*
X45492857Y-51752380D01*
X44588095Y-51752380D02*
X45159523Y-51752380D01*
X44873809Y-51752380D02*
X44873809Y-50752380D01*
X44969047Y-50895238D01*
X45064285Y-50990476D01*
X45159523Y-51038095D01*
X50040952Y-51231428D02*
X49279047Y-51231428D01*
X49660000Y-51612380D02*
X49660000Y-50850476D01*
%LPC*%
D13*
X72120000Y-69780000D03*
X69580000Y-69780000D03*
X74660000Y-69780000D03*
X67040000Y-69780000D03*
D14*
X51000000Y-62450000D03*
D15*
X84020000Y-47210000D03*
X53540000Y-62450000D03*
X81480000Y-47210000D03*
X56080000Y-62450000D03*
X78940000Y-47210000D03*
X58620000Y-62450000D03*
X76400000Y-47210000D03*
X61160000Y-62450000D03*
X73860000Y-47210000D03*
X63700000Y-62450000D03*
X71320000Y-47210000D03*
X66240000Y-62450000D03*
X68780000Y-47210000D03*
X68780000Y-62450000D03*
X66240000Y-47210000D03*
X71320000Y-62450000D03*
X63700000Y-47210000D03*
X73860000Y-62450000D03*
X61160000Y-47210000D03*
X76400000Y-62450000D03*
X58620000Y-47210000D03*
X78940000Y-62450000D03*
X56080000Y-47210000D03*
X81480000Y-62450000D03*
X53540000Y-47210000D03*
X84020000Y-62450000D03*
X51000000Y-47210000D03*
X86560000Y-62450000D03*
X86560000Y-47210000D03*
D16*
X42024748Y-64053842D03*
D17*
X41907286Y-64096595D02*
X42142210Y-64011089D01*
D16*
X42879799Y-66403074D03*
D17*
X42762337Y-66445827D02*
X42997261Y-66360321D01*
D16*
X43734849Y-68752305D03*
D17*
X43617387Y-68795058D02*
X43852311Y-68709552D01*
D16*
X44589899Y-71101537D03*
D17*
X44472437Y-71144290D02*
X44707361Y-71058784D01*
D16*
X45444950Y-73450768D03*
D17*
X45327488Y-73493521D02*
X45562412Y-73408015D01*
D18*
G36*
X46904090Y-74501548D02*
G01*
X46933846Y-74507298D01*
X46962895Y-74515937D01*
X46990957Y-74527382D01*
X47017763Y-74541523D01*
X47043053Y-74558222D01*
X47066585Y-74577321D01*
X47088131Y-74598633D01*
X47107485Y-74621955D01*
X47124459Y-74647062D01*
X47138891Y-74673712D01*
X47150642Y-74701647D01*
X47657637Y-76094605D01*
X47666592Y-76123558D01*
X47672667Y-76153250D01*
X47675802Y-76183394D01*
X47675967Y-76213700D01*
X47673161Y-76243876D01*
X47667411Y-76273632D01*
X47658772Y-76302681D01*
X47647327Y-76330743D01*
X47633186Y-76357549D01*
X47616487Y-76382839D01*
X47597388Y-76406371D01*
X47576076Y-76427917D01*
X47552754Y-76447271D01*
X47527647Y-76464245D01*
X47500997Y-76478677D01*
X47473062Y-76490428D01*
X45845181Y-77082928D01*
X45816228Y-77091883D01*
X45786536Y-77097958D01*
X45756392Y-77101093D01*
X45726086Y-77101258D01*
X45695910Y-77098452D01*
X45666154Y-77092702D01*
X45637105Y-77084063D01*
X45609043Y-77072618D01*
X45582237Y-77058477D01*
X45556947Y-77041778D01*
X45533415Y-77022679D01*
X45511869Y-77001367D01*
X45492515Y-76978045D01*
X45475541Y-76952938D01*
X45461109Y-76926288D01*
X45449358Y-76898353D01*
X44942363Y-75505395D01*
X44933408Y-75476442D01*
X44927333Y-75446750D01*
X44924198Y-75416606D01*
X44924033Y-75386300D01*
X44926839Y-75356124D01*
X44932589Y-75326368D01*
X44941228Y-75297319D01*
X44952673Y-75269257D01*
X44966814Y-75242451D01*
X44983513Y-75217161D01*
X45002612Y-75193629D01*
X45023924Y-75172083D01*
X45047246Y-75152729D01*
X45072353Y-75135755D01*
X45099003Y-75121323D01*
X45126938Y-75109572D01*
X46754819Y-74517072D01*
X46783772Y-74508117D01*
X46813464Y-74502042D01*
X46843608Y-74498907D01*
X46873914Y-74498742D01*
X46904090Y-74501548D01*
X46904090Y-74501548D01*
G37*
D16*
X46300000Y-75800000D03*
X96615151Y-63052305D03*
D17*
X96497689Y-63009552D02*
X96732613Y-63095058D01*
D16*
X95760100Y-65401537D03*
D17*
X95642638Y-65358784D02*
X95877562Y-65444290D01*
D16*
X94905050Y-67750768D03*
D17*
X94787588Y-67708015D02*
X95022512Y-67793521D01*
D16*
X94050000Y-70100000D03*
D17*
X93932538Y-70057247D02*
X94167462Y-70142753D01*
D16*
X93194949Y-72449231D03*
D17*
X93077487Y-72406478D02*
X93312411Y-72491984D01*
D18*
G36*
X91796291Y-73497370D02*
G01*
X91826435Y-73500505D01*
X91856127Y-73506580D01*
X91885080Y-73515535D01*
X93512961Y-74108035D01*
X93540896Y-74119786D01*
X93567546Y-74134218D01*
X93592653Y-74151192D01*
X93615975Y-74170546D01*
X93637287Y-74192092D01*
X93656386Y-74215624D01*
X93673085Y-74240914D01*
X93687226Y-74267720D01*
X93698671Y-74295782D01*
X93707310Y-74324831D01*
X93713060Y-74354587D01*
X93715866Y-74384763D01*
X93715701Y-74415069D01*
X93712566Y-74445213D01*
X93706491Y-74474905D01*
X93697536Y-74503858D01*
X93190541Y-75896816D01*
X93178790Y-75924751D01*
X93164358Y-75951401D01*
X93147384Y-75976508D01*
X93128030Y-75999830D01*
X93106484Y-76021142D01*
X93082952Y-76040241D01*
X93057662Y-76056940D01*
X93030856Y-76071081D01*
X93002794Y-76082526D01*
X92973745Y-76091165D01*
X92943989Y-76096915D01*
X92913813Y-76099721D01*
X92883507Y-76099556D01*
X92853363Y-76096421D01*
X92823671Y-76090346D01*
X92794718Y-76081391D01*
X91166837Y-75488891D01*
X91138902Y-75477140D01*
X91112252Y-75462708D01*
X91087145Y-75445734D01*
X91063823Y-75426380D01*
X91042511Y-75404834D01*
X91023412Y-75381302D01*
X91006713Y-75356012D01*
X90992572Y-75329206D01*
X90981127Y-75301144D01*
X90972488Y-75272095D01*
X90966738Y-75242339D01*
X90963932Y-75212163D01*
X90964097Y-75181857D01*
X90967232Y-75151713D01*
X90973307Y-75122021D01*
X90982262Y-75093068D01*
X91489257Y-73700110D01*
X91501008Y-73672175D01*
X91515440Y-73645525D01*
X91532414Y-73620418D01*
X91551768Y-73597096D01*
X91573314Y-73575784D01*
X91596846Y-73556685D01*
X91622136Y-73539986D01*
X91648942Y-73525845D01*
X91677004Y-73514400D01*
X91706053Y-73505761D01*
X91735809Y-73500011D01*
X91765985Y-73497205D01*
X91796291Y-73497370D01*
X91796291Y-73497370D01*
G37*
D16*
X92339899Y-74798463D03*
D19*
X67850000Y-34850000D03*
X65350000Y-34850000D03*
X62850000Y-34850000D03*
D18*
G36*
X61121447Y-33676487D02*
G01*
X61151425Y-33680934D01*
X61180824Y-33688298D01*
X61209358Y-33698508D01*
X61236755Y-33711465D01*
X61262750Y-33727046D01*
X61287092Y-33745100D01*
X61309548Y-33765452D01*
X61329900Y-33787908D01*
X61347954Y-33812250D01*
X61363535Y-33838245D01*
X61376492Y-33865642D01*
X61386702Y-33894176D01*
X61394066Y-33923575D01*
X61398513Y-33953553D01*
X61400000Y-33983823D01*
X61400000Y-35716177D01*
X61398513Y-35746447D01*
X61394066Y-35776425D01*
X61386702Y-35805824D01*
X61376492Y-35834358D01*
X61363535Y-35861755D01*
X61347954Y-35887750D01*
X61329900Y-35912092D01*
X61309548Y-35934548D01*
X61287092Y-35954900D01*
X61262750Y-35972954D01*
X61236755Y-35988535D01*
X61209358Y-36001492D01*
X61180824Y-36011702D01*
X61151425Y-36019066D01*
X61121447Y-36023513D01*
X61091177Y-36025000D01*
X59608823Y-36025000D01*
X59578553Y-36023513D01*
X59548575Y-36019066D01*
X59519176Y-36011702D01*
X59490642Y-36001492D01*
X59463245Y-35988535D01*
X59437250Y-35972954D01*
X59412908Y-35954900D01*
X59390452Y-35934548D01*
X59370100Y-35912092D01*
X59352046Y-35887750D01*
X59336465Y-35861755D01*
X59323508Y-35834358D01*
X59313298Y-35805824D01*
X59305934Y-35776425D01*
X59301487Y-35746447D01*
X59300000Y-35716177D01*
X59300000Y-33983823D01*
X59301487Y-33953553D01*
X59305934Y-33923575D01*
X59313298Y-33894176D01*
X59323508Y-33865642D01*
X59336465Y-33838245D01*
X59352046Y-33812250D01*
X59370100Y-33787908D01*
X59390452Y-33765452D01*
X59412908Y-33745100D01*
X59437250Y-33727046D01*
X59463245Y-33711465D01*
X59490642Y-33698508D01*
X59519176Y-33688298D01*
X59548575Y-33680934D01*
X59578553Y-33676487D01*
X59608823Y-33675000D01*
X61091177Y-33675000D01*
X61121447Y-33676487D01*
X61121447Y-33676487D01*
G37*
D16*
X60350000Y-34850000D03*
D19*
X78900000Y-34850000D03*
X76400000Y-34850000D03*
D18*
G36*
X74671447Y-33676487D02*
G01*
X74701425Y-33680934D01*
X74730824Y-33688298D01*
X74759358Y-33698508D01*
X74786755Y-33711465D01*
X74812750Y-33727046D01*
X74837092Y-33745100D01*
X74859548Y-33765452D01*
X74879900Y-33787908D01*
X74897954Y-33812250D01*
X74913535Y-33838245D01*
X74926492Y-33865642D01*
X74936702Y-33894176D01*
X74944066Y-33923575D01*
X74948513Y-33953553D01*
X74950000Y-33983823D01*
X74950000Y-35716177D01*
X74948513Y-35746447D01*
X74944066Y-35776425D01*
X74936702Y-35805824D01*
X74926492Y-35834358D01*
X74913535Y-35861755D01*
X74897954Y-35887750D01*
X74879900Y-35912092D01*
X74859548Y-35934548D01*
X74837092Y-35954900D01*
X74812750Y-35972954D01*
X74786755Y-35988535D01*
X74759358Y-36001492D01*
X74730824Y-36011702D01*
X74701425Y-36019066D01*
X74671447Y-36023513D01*
X74641177Y-36025000D01*
X73158823Y-36025000D01*
X73128553Y-36023513D01*
X73098575Y-36019066D01*
X73069176Y-36011702D01*
X73040642Y-36001492D01*
X73013245Y-35988535D01*
X72987250Y-35972954D01*
X72962908Y-35954900D01*
X72940452Y-35934548D01*
X72920100Y-35912092D01*
X72902046Y-35887750D01*
X72886465Y-35861755D01*
X72873508Y-35834358D01*
X72863298Y-35805824D01*
X72855934Y-35776425D01*
X72851487Y-35746447D01*
X72850000Y-35716177D01*
X72850000Y-33983823D01*
X72851487Y-33953553D01*
X72855934Y-33923575D01*
X72863298Y-33894176D01*
X72873508Y-33865642D01*
X72886465Y-33838245D01*
X72902046Y-33812250D01*
X72920100Y-33787908D01*
X72940452Y-33765452D01*
X72962908Y-33745100D01*
X72987250Y-33727046D01*
X73013245Y-33711465D01*
X73040642Y-33698508D01*
X73069176Y-33688298D01*
X73098575Y-33680934D01*
X73128553Y-33676487D01*
X73158823Y-33675000D01*
X74641177Y-33675000D01*
X74671447Y-33676487D01*
X74671447Y-33676487D01*
G37*
D16*
X73900000Y-34850000D03*
D20*
X49500000Y-41200000D03*
X90100000Y-41200000D03*
X90100000Y-81800000D03*
X49500000Y-81800000D03*
D21*
X49650000Y-53700000D03*
D22*
X42050000Y-53700000D03*
D23*
X59300000Y-42650000D03*
D15*
X69460000Y-42650000D03*
X81810000Y-42650000D03*
D23*
X71650000Y-42650000D03*
M02*
