G04 #@! TF.GenerationSoftware,KiCad,Pcbnew,(5.1.2)-2*
G04 #@! TF.CreationDate,2019-10-20T14:28:16-03:00*
G04 #@! TF.ProjectId,flight_computer,666c6967-6874-45f6-936f-6d7075746572,rev?*
G04 #@! TF.SameCoordinates,Original*
G04 #@! TF.FileFunction,Copper,L2,Bot*
G04 #@! TF.FilePolarity,Positive*
%FSLAX46Y46*%
G04 Gerber Fmt 4.6, Leading zero omitted, Abs format (unit mm)*
G04 Created by KiCad (PCBNEW (5.1.2)-2) date 2019-10-20 14:28:16*
%MOMM*%
%LPD*%
G04 APERTURE LIST*
%ADD10C,1.524000*%
%ADD11R,1.600000X1.600000*%
%ADD12O,1.600000X1.600000*%
%ADD13C,1.700000*%
%ADD14C,1.700000*%
%ADD15C,0.100000*%
%ADD16O,1.700000X1.950000*%
%ADD17C,3.000000*%
%ADD18R,2.000000X2.000000*%
%ADD19C,2.000000*%
%ADD20C,1.600000*%
%ADD21C,0.800000*%
%ADD22C,0.600000*%
%ADD23C,0.500000*%
%ADD24C,0.254000*%
G04 APERTURE END LIST*
D10*
X72120000Y-69780000D03*
X69580000Y-69780000D03*
X74660000Y-69780000D03*
X67040000Y-69780000D03*
D11*
X51000000Y-62450000D03*
D12*
X84020000Y-47210000D03*
X53540000Y-62450000D03*
X81480000Y-47210000D03*
X56080000Y-62450000D03*
X78940000Y-47210000D03*
X58620000Y-62450000D03*
X76400000Y-47210000D03*
X61160000Y-62450000D03*
X73860000Y-47210000D03*
X63700000Y-62450000D03*
X71320000Y-47210000D03*
X66240000Y-62450000D03*
X68780000Y-47210000D03*
X68780000Y-62450000D03*
X66240000Y-47210000D03*
X71320000Y-62450000D03*
X63700000Y-47210000D03*
X73860000Y-62450000D03*
X61160000Y-47210000D03*
X76400000Y-62450000D03*
X58620000Y-47210000D03*
X78940000Y-62450000D03*
X56080000Y-47210000D03*
X81480000Y-62450000D03*
X53540000Y-47210000D03*
X84020000Y-62450000D03*
X51000000Y-47210000D03*
X86560000Y-62450000D03*
X86560000Y-47210000D03*
D13*
X42024748Y-64053842D03*
D14*
X41907286Y-64096595D02*
X42142210Y-64011089D01*
D13*
X42879799Y-66403074D03*
D14*
X42762337Y-66445827D02*
X42997261Y-66360321D01*
D13*
X43734849Y-68752305D03*
D14*
X43617387Y-68795058D02*
X43852311Y-68709552D01*
D13*
X44589899Y-71101537D03*
D14*
X44472437Y-71144290D02*
X44707361Y-71058784D01*
D13*
X45444950Y-73450768D03*
D14*
X45327488Y-73493521D02*
X45562412Y-73408015D01*
D15*
G36*
X46811398Y-74740729D02*
G01*
X46835486Y-74745384D01*
X46859002Y-74752378D01*
X46881720Y-74761643D01*
X46903419Y-74773090D01*
X46923892Y-74786609D01*
X46942942Y-74802069D01*
X46960384Y-74819322D01*
X46976052Y-74838202D01*
X46989793Y-74858527D01*
X47001476Y-74880100D01*
X47010988Y-74902715D01*
X47421412Y-76030346D01*
X47428662Y-76053784D01*
X47433579Y-76077820D01*
X47436117Y-76102222D01*
X47436251Y-76126756D01*
X47433980Y-76151184D01*
X47429325Y-76175272D01*
X47422331Y-76198788D01*
X47413066Y-76221506D01*
X47401619Y-76243205D01*
X47388100Y-76263678D01*
X47372640Y-76282728D01*
X47355387Y-76300170D01*
X47336507Y-76315838D01*
X47316182Y-76329579D01*
X47294609Y-76341262D01*
X47271994Y-76350774D01*
X45909440Y-76846703D01*
X45886002Y-76853953D01*
X45861966Y-76858870D01*
X45837564Y-76861408D01*
X45813030Y-76861542D01*
X45788602Y-76859271D01*
X45764514Y-76854616D01*
X45740998Y-76847622D01*
X45718280Y-76838357D01*
X45696581Y-76826910D01*
X45676108Y-76813391D01*
X45657058Y-76797931D01*
X45639616Y-76780678D01*
X45623948Y-76761798D01*
X45610207Y-76741473D01*
X45598524Y-76719900D01*
X45589012Y-76697285D01*
X45178588Y-75569654D01*
X45171338Y-75546216D01*
X45166421Y-75522180D01*
X45163883Y-75497778D01*
X45163749Y-75473244D01*
X45166020Y-75448816D01*
X45170675Y-75424728D01*
X45177669Y-75401212D01*
X45186934Y-75378494D01*
X45198381Y-75356795D01*
X45211900Y-75336322D01*
X45227360Y-75317272D01*
X45244613Y-75299830D01*
X45263493Y-75284162D01*
X45283818Y-75270421D01*
X45305391Y-75258738D01*
X45328006Y-75249226D01*
X46690560Y-74753297D01*
X46713998Y-74746047D01*
X46738034Y-74741130D01*
X46762436Y-74738592D01*
X46786970Y-74738458D01*
X46811398Y-74740729D01*
X46811398Y-74740729D01*
G37*
D13*
X46300000Y-75800000D03*
X96615151Y-63052305D03*
D14*
X96497689Y-63009552D02*
X96732613Y-63095058D01*
D13*
X95760100Y-65401537D03*
D14*
X95642638Y-65358784D02*
X95877562Y-65444290D01*
D13*
X94905050Y-67750768D03*
D14*
X94787588Y-67708015D02*
X95022512Y-67793521D01*
D13*
X94050000Y-70100000D03*
D14*
X93932538Y-70057247D02*
X94167462Y-70142753D01*
D13*
X93194949Y-72449231D03*
D14*
X93077487Y-72406478D02*
X93312411Y-72491984D01*
D15*
G36*
X91877463Y-73737055D02*
G01*
X91901865Y-73739593D01*
X91925901Y-73744510D01*
X91949339Y-73751760D01*
X93311893Y-74247689D01*
X93334508Y-74257201D01*
X93356081Y-74268884D01*
X93376406Y-74282625D01*
X93395286Y-74298293D01*
X93412539Y-74315735D01*
X93427999Y-74334785D01*
X93441518Y-74355258D01*
X93452965Y-74376957D01*
X93462230Y-74399675D01*
X93469224Y-74423191D01*
X93473879Y-74447279D01*
X93476150Y-74471707D01*
X93476016Y-74496241D01*
X93473478Y-74520643D01*
X93468561Y-74544679D01*
X93461311Y-74568117D01*
X93050887Y-75695748D01*
X93041375Y-75718363D01*
X93029692Y-75739936D01*
X93015951Y-75760261D01*
X93000283Y-75779141D01*
X92982841Y-75796394D01*
X92963791Y-75811854D01*
X92943318Y-75825373D01*
X92921619Y-75836820D01*
X92898901Y-75846085D01*
X92875385Y-75853079D01*
X92851297Y-75857734D01*
X92826869Y-75860005D01*
X92802335Y-75859871D01*
X92777933Y-75857333D01*
X92753897Y-75852416D01*
X92730459Y-75845166D01*
X91367905Y-75349237D01*
X91345290Y-75339725D01*
X91323717Y-75328042D01*
X91303392Y-75314301D01*
X91284512Y-75298633D01*
X91267259Y-75281191D01*
X91251799Y-75262141D01*
X91238280Y-75241668D01*
X91226833Y-75219969D01*
X91217568Y-75197251D01*
X91210574Y-75173735D01*
X91205919Y-75149647D01*
X91203648Y-75125219D01*
X91203782Y-75100685D01*
X91206320Y-75076283D01*
X91211237Y-75052247D01*
X91218487Y-75028809D01*
X91628911Y-73901178D01*
X91638423Y-73878563D01*
X91650106Y-73856990D01*
X91663847Y-73836665D01*
X91679515Y-73817785D01*
X91696957Y-73800532D01*
X91716007Y-73785072D01*
X91736480Y-73771553D01*
X91758179Y-73760106D01*
X91780897Y-73750841D01*
X91804413Y-73743847D01*
X91828501Y-73739192D01*
X91852929Y-73736921D01*
X91877463Y-73737055D01*
X91877463Y-73737055D01*
G37*
D13*
X92339899Y-74798463D03*
D16*
X67850000Y-34850000D03*
X65350000Y-34850000D03*
X62850000Y-34850000D03*
D15*
G36*
X60974504Y-33876204D02*
G01*
X60998773Y-33879804D01*
X61022571Y-33885765D01*
X61045671Y-33894030D01*
X61067849Y-33904520D01*
X61088893Y-33917133D01*
X61108598Y-33931747D01*
X61126777Y-33948223D01*
X61143253Y-33966402D01*
X61157867Y-33986107D01*
X61170480Y-34007151D01*
X61180970Y-34029329D01*
X61189235Y-34052429D01*
X61195196Y-34076227D01*
X61198796Y-34100496D01*
X61200000Y-34125000D01*
X61200000Y-35575000D01*
X61198796Y-35599504D01*
X61195196Y-35623773D01*
X61189235Y-35647571D01*
X61180970Y-35670671D01*
X61170480Y-35692849D01*
X61157867Y-35713893D01*
X61143253Y-35733598D01*
X61126777Y-35751777D01*
X61108598Y-35768253D01*
X61088893Y-35782867D01*
X61067849Y-35795480D01*
X61045671Y-35805970D01*
X61022571Y-35814235D01*
X60998773Y-35820196D01*
X60974504Y-35823796D01*
X60950000Y-35825000D01*
X59750000Y-35825000D01*
X59725496Y-35823796D01*
X59701227Y-35820196D01*
X59677429Y-35814235D01*
X59654329Y-35805970D01*
X59632151Y-35795480D01*
X59611107Y-35782867D01*
X59591402Y-35768253D01*
X59573223Y-35751777D01*
X59556747Y-35733598D01*
X59542133Y-35713893D01*
X59529520Y-35692849D01*
X59519030Y-35670671D01*
X59510765Y-35647571D01*
X59504804Y-35623773D01*
X59501204Y-35599504D01*
X59500000Y-35575000D01*
X59500000Y-34125000D01*
X59501204Y-34100496D01*
X59504804Y-34076227D01*
X59510765Y-34052429D01*
X59519030Y-34029329D01*
X59529520Y-34007151D01*
X59542133Y-33986107D01*
X59556747Y-33966402D01*
X59573223Y-33948223D01*
X59591402Y-33931747D01*
X59611107Y-33917133D01*
X59632151Y-33904520D01*
X59654329Y-33894030D01*
X59677429Y-33885765D01*
X59701227Y-33879804D01*
X59725496Y-33876204D01*
X59750000Y-33875000D01*
X60950000Y-33875000D01*
X60974504Y-33876204D01*
X60974504Y-33876204D01*
G37*
D13*
X60350000Y-34850000D03*
D16*
X78900000Y-34850000D03*
X76400000Y-34850000D03*
D15*
G36*
X74524504Y-33876204D02*
G01*
X74548773Y-33879804D01*
X74572571Y-33885765D01*
X74595671Y-33894030D01*
X74617849Y-33904520D01*
X74638893Y-33917133D01*
X74658598Y-33931747D01*
X74676777Y-33948223D01*
X74693253Y-33966402D01*
X74707867Y-33986107D01*
X74720480Y-34007151D01*
X74730970Y-34029329D01*
X74739235Y-34052429D01*
X74745196Y-34076227D01*
X74748796Y-34100496D01*
X74750000Y-34125000D01*
X74750000Y-35575000D01*
X74748796Y-35599504D01*
X74745196Y-35623773D01*
X74739235Y-35647571D01*
X74730970Y-35670671D01*
X74720480Y-35692849D01*
X74707867Y-35713893D01*
X74693253Y-35733598D01*
X74676777Y-35751777D01*
X74658598Y-35768253D01*
X74638893Y-35782867D01*
X74617849Y-35795480D01*
X74595671Y-35805970D01*
X74572571Y-35814235D01*
X74548773Y-35820196D01*
X74524504Y-35823796D01*
X74500000Y-35825000D01*
X73300000Y-35825000D01*
X73275496Y-35823796D01*
X73251227Y-35820196D01*
X73227429Y-35814235D01*
X73204329Y-35805970D01*
X73182151Y-35795480D01*
X73161107Y-35782867D01*
X73141402Y-35768253D01*
X73123223Y-35751777D01*
X73106747Y-35733598D01*
X73092133Y-35713893D01*
X73079520Y-35692849D01*
X73069030Y-35670671D01*
X73060765Y-35647571D01*
X73054804Y-35623773D01*
X73051204Y-35599504D01*
X73050000Y-35575000D01*
X73050000Y-34125000D01*
X73051204Y-34100496D01*
X73054804Y-34076227D01*
X73060765Y-34052429D01*
X73069030Y-34029329D01*
X73079520Y-34007151D01*
X73092133Y-33986107D01*
X73106747Y-33966402D01*
X73123223Y-33948223D01*
X73141402Y-33931747D01*
X73161107Y-33917133D01*
X73182151Y-33904520D01*
X73204329Y-33894030D01*
X73227429Y-33885765D01*
X73251227Y-33879804D01*
X73275496Y-33876204D01*
X73300000Y-33875000D01*
X74500000Y-33875000D01*
X74524504Y-33876204D01*
X74524504Y-33876204D01*
G37*
D13*
X73900000Y-34850000D03*
D17*
X49500000Y-41200000D03*
X90100000Y-41200000D03*
X90100000Y-81800000D03*
X49500000Y-81800000D03*
D18*
X49650000Y-53700000D03*
D19*
X42050000Y-53700000D03*
D20*
X59300000Y-42650000D03*
D12*
X69460000Y-42650000D03*
X81810000Y-42650000D03*
D20*
X71650000Y-42650000D03*
D21*
X68000000Y-64800000D03*
X65100000Y-64800000D03*
X71600000Y-57000000D03*
X76600000Y-57000000D03*
X90450000Y-62850001D03*
X68050000Y-66200000D03*
X75550000Y-67050000D03*
D22*
X61248372Y-33951628D02*
X60350000Y-34850000D01*
X62925020Y-32274980D02*
X61248372Y-33951628D01*
X76071314Y-32274980D02*
X62925020Y-32274980D01*
X78646334Y-34850000D02*
X76071314Y-32274980D01*
X78900000Y-34850000D02*
X78646334Y-34850000D01*
X78900000Y-39740000D02*
X81810000Y-42650000D01*
X78900000Y-34850000D02*
X78900000Y-39740000D01*
X81480000Y-42980000D02*
X81810000Y-42650000D01*
X81480000Y-47210000D02*
X81480000Y-42980000D01*
X49650000Y-52100000D02*
X48100000Y-50550000D01*
X49650000Y-53700000D02*
X49650000Y-52100000D01*
X48100000Y-50550000D02*
X48100000Y-46300000D01*
X48100000Y-46300000D02*
X54850000Y-39550000D01*
X54850000Y-39550000D02*
X54850000Y-36250000D01*
X56250000Y-34850000D02*
X60350000Y-34850000D01*
X54850000Y-36250000D02*
X56250000Y-34850000D01*
X51250000Y-53700000D02*
X53550000Y-51400000D01*
X49650000Y-53700000D02*
X51250000Y-53700000D01*
X53540000Y-51390000D02*
X53540000Y-47210000D01*
X53550000Y-51400000D02*
X53540000Y-51390000D01*
X74660000Y-69780000D02*
X70280000Y-65400000D01*
X60970000Y-64800000D02*
X58620000Y-62450000D01*
X65100000Y-64800000D02*
X60970000Y-64800000D01*
X70280000Y-65400000D02*
X70280000Y-65380000D01*
X70280000Y-65380000D02*
X69700000Y-64800000D01*
X69700000Y-64800000D02*
X68000000Y-64800000D01*
X67850000Y-34975000D02*
X67850000Y-34850000D01*
X60974999Y-41850001D02*
X67850000Y-34975000D01*
X60099999Y-41850001D02*
X60974999Y-41850001D01*
X59300000Y-42650000D02*
X60099999Y-41850001D01*
X71600000Y-57000000D02*
X72165685Y-57000000D01*
X72165685Y-57000000D02*
X76600000Y-57000000D01*
X90450000Y-69704282D02*
X93194949Y-72449231D01*
X90450000Y-62850001D02*
X90450000Y-69704282D01*
X72120000Y-69780000D02*
X71630000Y-69780000D01*
X71630000Y-69780000D02*
X68050000Y-66200000D01*
X66240000Y-66440000D02*
X66240000Y-62450000D01*
X69580000Y-69780000D02*
X66240000Y-66440000D01*
D23*
X65440001Y-48009999D02*
X66240000Y-47210000D01*
X58149999Y-55300001D02*
X65440001Y-48009999D01*
X46249999Y-55300001D02*
X58149999Y-55300001D01*
X38999990Y-62550010D02*
X46249999Y-55300001D01*
X38999990Y-67777444D02*
X38999990Y-62550010D01*
X43971386Y-72748839D02*
X38999990Y-67777444D01*
X44743021Y-72748839D02*
X43971386Y-72748839D01*
X45444950Y-73450768D02*
X44743021Y-72748839D01*
D22*
X76250000Y-62600000D02*
X76400000Y-62450000D01*
X76400000Y-62450000D02*
X76400000Y-66200000D01*
X76400000Y-66200000D02*
X75550000Y-67050000D01*
D23*
X43526178Y-71101537D02*
X39850000Y-67425359D01*
X44589899Y-71101537D02*
X43526178Y-71101537D01*
X39850000Y-63966409D02*
X46866409Y-56950000D01*
X39850000Y-67425359D02*
X39850000Y-63966409D01*
X46866409Y-56950000D02*
X64300000Y-56950000D01*
X68780000Y-52470000D02*
X68780000Y-47210000D01*
X64300000Y-56950000D02*
X68780000Y-52470000D01*
D22*
X70980000Y-34850000D02*
X73900000Y-34850000D01*
X58620000Y-47210000D02*
X70980000Y-34850000D01*
X43734849Y-68752305D02*
X49013195Y-63473959D01*
X49013195Y-61786805D02*
X50621390Y-60178610D01*
X49013195Y-63473959D02*
X49013195Y-61786805D01*
X79208610Y-60178610D02*
X81480000Y-62450000D01*
X50621390Y-60178610D02*
X79208610Y-60178610D01*
X84020000Y-62450000D02*
X84020000Y-61253516D01*
X84020000Y-61253516D02*
X81995084Y-59228600D01*
X50054273Y-59228600D02*
X42879799Y-66403074D01*
X81995084Y-59228600D02*
X50054273Y-59228600D01*
X65350000Y-34975000D02*
X65350000Y-34850000D01*
X59425009Y-40899991D02*
X65350000Y-34975000D01*
X57310009Y-40899991D02*
X59425009Y-40899991D01*
X51000000Y-47210000D02*
X57310009Y-40899991D01*
X42024748Y-64053842D02*
X47800000Y-58278590D01*
X82388590Y-58278590D02*
X86560000Y-62450000D01*
X47800000Y-58278590D02*
X82388590Y-58278590D01*
X62850000Y-34725000D02*
X62850000Y-34850000D01*
X64350010Y-33224990D02*
X62850000Y-34725000D01*
X74899990Y-33224990D02*
X64350010Y-33224990D01*
X76400000Y-34725000D02*
X74899990Y-33224990D01*
X76400000Y-34850000D02*
X76400000Y-34725000D01*
X69460000Y-42650000D02*
X71650000Y-42650000D01*
X74380000Y-42650000D02*
X71650000Y-42650000D01*
X78940000Y-47210000D02*
X74380000Y-42650000D01*
D24*
G36*
X71425344Y-30696228D02*
G01*
X73574965Y-30890157D01*
X75705829Y-31233564D01*
X77807522Y-31724771D01*
X79869862Y-32361398D01*
X81882737Y-33140323D01*
X83836402Y-34057774D01*
X85721294Y-35109263D01*
X87528242Y-36289671D01*
X89248462Y-37593261D01*
X90674562Y-38839740D01*
X90339039Y-38773000D01*
X89860961Y-38773000D01*
X89392070Y-38866268D01*
X88950385Y-39049221D01*
X88552878Y-39314826D01*
X88214826Y-39652878D01*
X87949221Y-40050385D01*
X87766268Y-40492070D01*
X87673000Y-40960961D01*
X87673000Y-41439039D01*
X87766268Y-41907930D01*
X87949221Y-42349615D01*
X88214826Y-42747122D01*
X88552878Y-43085174D01*
X88950385Y-43350779D01*
X89392070Y-43533732D01*
X89860961Y-43627000D01*
X90339039Y-43627000D01*
X90807930Y-43533732D01*
X91249615Y-43350779D01*
X91647122Y-43085174D01*
X91985174Y-42747122D01*
X92250779Y-42349615D01*
X92433732Y-41907930D01*
X92527000Y-41439039D01*
X92527000Y-40960961D01*
X92458536Y-40616768D01*
X93807192Y-42176723D01*
X95101454Y-43903968D01*
X96272068Y-45717277D01*
X97313354Y-47607851D01*
X98220211Y-49566429D01*
X98988242Y-51583514D01*
X99613693Y-53649243D01*
X100093527Y-55753588D01*
X100425396Y-57886258D01*
X100607692Y-60036904D01*
X100639521Y-62195011D01*
X100520731Y-64350100D01*
X100251901Y-66491625D01*
X99834336Y-68609210D01*
X99270077Y-70692489D01*
X98561871Y-72731338D01*
X97713162Y-74715823D01*
X96728094Y-76636266D01*
X95611457Y-78483324D01*
X94368712Y-80247967D01*
X93005873Y-81921655D01*
X92415958Y-82550840D01*
X92433732Y-82507930D01*
X92527000Y-82039039D01*
X92527000Y-81560961D01*
X92433732Y-81092070D01*
X92250779Y-80650385D01*
X91985174Y-80252878D01*
X91647122Y-79914826D01*
X91249615Y-79649221D01*
X90807930Y-79466268D01*
X90339039Y-79373000D01*
X89860961Y-79373000D01*
X89392070Y-79466268D01*
X88950385Y-79649221D01*
X88552878Y-79914826D01*
X88214826Y-80252878D01*
X87949221Y-80650385D01*
X87766268Y-81092070D01*
X87673000Y-81560961D01*
X87673000Y-82039039D01*
X87766268Y-82507930D01*
X87949221Y-82949615D01*
X88214826Y-83347122D01*
X88552878Y-83685174D01*
X88950385Y-83950779D01*
X89392070Y-84133732D01*
X89860961Y-84227000D01*
X90339039Y-84227000D01*
X90807930Y-84133732D01*
X90869875Y-84108073D01*
X89947131Y-84963891D01*
X88266108Y-86317642D01*
X86494751Y-87550830D01*
X84641685Y-88657453D01*
X82715937Y-89632118D01*
X81300461Y-90228437D01*
X81300461Y-71639379D01*
X81305672Y-71586470D01*
X81284878Y-71375341D01*
X81223294Y-71172326D01*
X81123287Y-70985226D01*
X80988700Y-70821231D01*
X80824705Y-70686644D01*
X80637605Y-70586637D01*
X80434590Y-70525053D01*
X80276370Y-70509470D01*
X80223461Y-70504259D01*
X80170552Y-70509470D01*
X75828054Y-70509470D01*
X75865656Y-70498980D01*
X75982756Y-70249952D01*
X76049023Y-69982865D01*
X76061910Y-69707983D01*
X76020922Y-69435867D01*
X75927636Y-69176977D01*
X75865656Y-69061020D01*
X75625565Y-68994040D01*
X74839605Y-69780000D01*
X74853748Y-69794143D01*
X74674143Y-69973748D01*
X74660000Y-69959605D01*
X74645858Y-69973748D01*
X74466253Y-69794143D01*
X74480395Y-69780000D01*
X73694435Y-68994040D01*
X73630045Y-69012003D01*
X73616772Y-68979959D01*
X73506173Y-68814435D01*
X73874040Y-68814435D01*
X74660000Y-69600395D01*
X75445960Y-68814435D01*
X75378980Y-68574344D01*
X75129952Y-68457244D01*
X74862865Y-68390977D01*
X74587983Y-68378090D01*
X74315867Y-68419078D01*
X74056977Y-68512364D01*
X73941020Y-68574344D01*
X73874040Y-68814435D01*
X73506173Y-68814435D01*
X73431932Y-68703325D01*
X73196675Y-68468068D01*
X72920041Y-68283228D01*
X72612663Y-68155908D01*
X72286352Y-68091000D01*
X71953648Y-68091000D01*
X71722265Y-68137025D01*
X69274977Y-65689738D01*
X69225972Y-65571430D01*
X69080748Y-65354087D01*
X68895913Y-65169252D01*
X68678570Y-65024028D01*
X68437072Y-64923996D01*
X68180698Y-64873000D01*
X67919302Y-64873000D01*
X67662928Y-64923996D01*
X67467000Y-65005152D01*
X67467000Y-63677149D01*
X67467082Y-63677082D01*
X67510000Y-63624786D01*
X67552918Y-63677082D01*
X67815888Y-63892896D01*
X68115908Y-64053260D01*
X68441449Y-64152012D01*
X68695159Y-64177000D01*
X68864841Y-64177000D01*
X69118551Y-64152012D01*
X69444092Y-64053260D01*
X69744112Y-63892896D01*
X70007082Y-63677082D01*
X70050000Y-63624786D01*
X70092918Y-63677082D01*
X70355888Y-63892896D01*
X70655908Y-64053260D01*
X70981449Y-64152012D01*
X71235159Y-64177000D01*
X71404841Y-64177000D01*
X71658551Y-64152012D01*
X71984092Y-64053260D01*
X72284112Y-63892896D01*
X72547082Y-63677082D01*
X72590000Y-63624786D01*
X72632918Y-63677082D01*
X72895888Y-63892896D01*
X73195908Y-64053260D01*
X73521449Y-64152012D01*
X73775159Y-64177000D01*
X73944841Y-64177000D01*
X74198551Y-64152012D01*
X74524092Y-64053260D01*
X74824112Y-63892896D01*
X75087082Y-63677082D01*
X75130000Y-63624786D01*
X75172918Y-63677082D01*
X75173000Y-63677150D01*
X75173001Y-65691760D01*
X75039737Y-65825023D01*
X74921430Y-65874028D01*
X74704087Y-66019252D01*
X74519252Y-66204087D01*
X74374028Y-66421430D01*
X74273996Y-66662928D01*
X74223000Y-66919302D01*
X74223000Y-67180698D01*
X74273996Y-67437072D01*
X74374028Y-67678570D01*
X74519252Y-67895913D01*
X74704087Y-68080748D01*
X74921430Y-68225972D01*
X75162928Y-68326004D01*
X75419302Y-68377000D01*
X75680698Y-68377000D01*
X75937072Y-68326004D01*
X76178570Y-68225972D01*
X76395913Y-68080748D01*
X76580748Y-67895913D01*
X76725972Y-67678570D01*
X76774977Y-67560263D01*
X77225005Y-67110235D01*
X77271817Y-67071817D01*
X77425149Y-66884983D01*
X77539084Y-66671824D01*
X77547644Y-66643607D01*
X77609246Y-66440534D01*
X77626093Y-66269472D01*
X77627000Y-66260268D01*
X77627000Y-66260263D01*
X77632935Y-66200000D01*
X77627000Y-66139737D01*
X77627000Y-63677149D01*
X77627082Y-63677082D01*
X77670000Y-63624786D01*
X77712918Y-63677082D01*
X77975888Y-63892896D01*
X78275908Y-64053260D01*
X78601449Y-64152012D01*
X78855159Y-64177000D01*
X79024841Y-64177000D01*
X79278551Y-64152012D01*
X79604092Y-64053260D01*
X79904112Y-63892896D01*
X80167082Y-63677082D01*
X80210000Y-63624786D01*
X80252918Y-63677082D01*
X80515888Y-63892896D01*
X80815908Y-64053260D01*
X81141449Y-64152012D01*
X81395159Y-64177000D01*
X81564841Y-64177000D01*
X81818551Y-64152012D01*
X82144092Y-64053260D01*
X82444112Y-63892896D01*
X82707082Y-63677082D01*
X82750000Y-63624786D01*
X82792918Y-63677082D01*
X83055888Y-63892896D01*
X83355908Y-64053260D01*
X83681449Y-64152012D01*
X83935159Y-64177000D01*
X84104841Y-64177000D01*
X84358551Y-64152012D01*
X84684092Y-64053260D01*
X84984112Y-63892896D01*
X85247082Y-63677082D01*
X85290000Y-63624786D01*
X85332918Y-63677082D01*
X85595888Y-63892896D01*
X85895908Y-64053260D01*
X86221449Y-64152012D01*
X86475159Y-64177000D01*
X86644841Y-64177000D01*
X86898551Y-64152012D01*
X87224092Y-64053260D01*
X87524112Y-63892896D01*
X87787082Y-63677082D01*
X88002896Y-63414112D01*
X88163260Y-63114092D01*
X88262012Y-62788551D01*
X88268832Y-62719303D01*
X89123000Y-62719303D01*
X89123000Y-62980699D01*
X89173996Y-63237073D01*
X89223000Y-63355379D01*
X89223001Y-69644012D01*
X89217065Y-69704282D01*
X89240755Y-69944815D01*
X89284328Y-70088453D01*
X89310917Y-70176106D01*
X89424852Y-70389265D01*
X89474940Y-70450297D01*
X89531169Y-70518811D01*
X89578184Y-70576099D01*
X89624996Y-70614517D01*
X91304008Y-72293530D01*
X91293589Y-72484360D01*
X91343060Y-72830885D01*
X91372026Y-72913253D01*
X91364517Y-72915894D01*
X91165210Y-73033881D01*
X90992752Y-73188483D01*
X90853768Y-73373760D01*
X90753601Y-73582591D01*
X90343177Y-74710222D01*
X90285676Y-74934583D01*
X90273050Y-75165850D01*
X90305784Y-75395136D01*
X90382621Y-75613631D01*
X90500608Y-75812938D01*
X90655210Y-75985396D01*
X90840487Y-76124380D01*
X91049318Y-76224547D01*
X92411872Y-76720476D01*
X92636233Y-76777977D01*
X92867500Y-76790603D01*
X93096786Y-76757869D01*
X93315281Y-76681032D01*
X93514588Y-76563045D01*
X93687046Y-76408443D01*
X93826030Y-76223166D01*
X93926197Y-76014335D01*
X94336621Y-74886704D01*
X94394122Y-74662343D01*
X94406748Y-74431076D01*
X94374014Y-74201790D01*
X94297177Y-73983295D01*
X94293122Y-73976445D01*
X94368248Y-73931972D01*
X94628888Y-73698319D01*
X94838937Y-73418308D01*
X94990322Y-73102698D01*
X95077226Y-72763619D01*
X95096309Y-72414101D01*
X95046837Y-72067577D01*
X94936122Y-71752744D01*
X95223299Y-71582741D01*
X95483939Y-71349088D01*
X95693988Y-71069077D01*
X95845373Y-70753467D01*
X95932277Y-70414388D01*
X95951360Y-70064870D01*
X95901888Y-69718346D01*
X95791173Y-69403512D01*
X96078349Y-69233509D01*
X96338989Y-68999856D01*
X96549038Y-68719845D01*
X96700423Y-68404235D01*
X96787327Y-68065156D01*
X96806410Y-67715638D01*
X96756938Y-67369114D01*
X96646223Y-67054281D01*
X96933399Y-66884278D01*
X97194039Y-66650625D01*
X97404088Y-66370614D01*
X97555473Y-66055004D01*
X97642377Y-65715925D01*
X97661460Y-65366407D01*
X97611988Y-65019883D01*
X97501273Y-64705049D01*
X97788450Y-64535046D01*
X98049090Y-64301393D01*
X98259139Y-64021382D01*
X98410524Y-63705772D01*
X98497428Y-63366693D01*
X98516511Y-63017175D01*
X98467039Y-62670651D01*
X98350915Y-62340436D01*
X98172601Y-62039221D01*
X97938948Y-61778581D01*
X97658937Y-61568532D01*
X97422418Y-61455083D01*
X97023431Y-61309863D01*
X96769324Y-61244737D01*
X96419807Y-61225654D01*
X96073282Y-61275125D01*
X95743067Y-61391250D01*
X95441852Y-61569564D01*
X95181212Y-61803217D01*
X94971163Y-62083228D01*
X94819778Y-62398838D01*
X94732874Y-62737917D01*
X94713791Y-63087434D01*
X94763262Y-63433959D01*
X94873978Y-63748792D01*
X94586801Y-63918796D01*
X94326161Y-64152449D01*
X94116112Y-64432460D01*
X93964727Y-64748070D01*
X93877823Y-65087149D01*
X93858740Y-65436666D01*
X93908211Y-65783191D01*
X94018927Y-66098024D01*
X93731751Y-66268027D01*
X93471111Y-66501680D01*
X93261062Y-66781691D01*
X93109677Y-67097301D01*
X93022773Y-67436380D01*
X93003690Y-67785897D01*
X93053161Y-68132422D01*
X93163877Y-68447256D01*
X92876701Y-68617259D01*
X92616061Y-68850912D01*
X92406012Y-69130923D01*
X92254627Y-69446533D01*
X92187888Y-69706931D01*
X91677000Y-69196043D01*
X91677000Y-63355379D01*
X91726004Y-63237073D01*
X91777000Y-62980699D01*
X91777000Y-62719303D01*
X91726004Y-62462929D01*
X91625972Y-62221431D01*
X91480748Y-62004088D01*
X91295913Y-61819253D01*
X91078570Y-61674029D01*
X90837072Y-61573997D01*
X90580698Y-61523001D01*
X90319302Y-61523001D01*
X90062928Y-61573997D01*
X89821430Y-61674029D01*
X89604087Y-61819253D01*
X89419252Y-62004088D01*
X89274028Y-62221431D01*
X89173996Y-62462929D01*
X89123000Y-62719303D01*
X88268832Y-62719303D01*
X88295356Y-62450000D01*
X88262012Y-62111449D01*
X88163260Y-61785908D01*
X88002896Y-61485888D01*
X87787082Y-61222918D01*
X87524112Y-61007104D01*
X87224092Y-60846740D01*
X86898551Y-60747988D01*
X86644841Y-60723000D01*
X86568240Y-60723000D01*
X83298829Y-57453590D01*
X83260407Y-57406773D01*
X83073573Y-57253441D01*
X82860414Y-57139506D01*
X82629124Y-57069345D01*
X82448858Y-57051590D01*
X82448850Y-57051590D01*
X82388590Y-57045655D01*
X82328330Y-57051590D01*
X77927000Y-57051590D01*
X77927000Y-56869302D01*
X77876004Y-56612928D01*
X77775972Y-56371430D01*
X77630748Y-56154087D01*
X77445913Y-55969252D01*
X77228570Y-55824028D01*
X76987072Y-55723996D01*
X76730698Y-55673000D01*
X76469302Y-55673000D01*
X76212928Y-55723996D01*
X76094622Y-55773000D01*
X72105378Y-55773000D01*
X71987072Y-55723996D01*
X71730698Y-55673000D01*
X71469302Y-55673000D01*
X71212928Y-55723996D01*
X70971430Y-55824028D01*
X70754087Y-55969252D01*
X70569252Y-56154087D01*
X70424028Y-56371430D01*
X70323996Y-56612928D01*
X70273000Y-56869302D01*
X70273000Y-57051590D01*
X65862938Y-57051590D01*
X69571389Y-53343141D01*
X69616291Y-53306291D01*
X69732421Y-53164787D01*
X69763374Y-53127070D01*
X69781059Y-53093984D01*
X69872667Y-52922597D01*
X69939969Y-52700732D01*
X69948545Y-52613656D01*
X69962694Y-52470000D01*
X69957000Y-52412188D01*
X69957000Y-48478183D01*
X70007082Y-48437082D01*
X70050000Y-48384786D01*
X70092918Y-48437082D01*
X70355888Y-48652896D01*
X70655908Y-48813260D01*
X70981449Y-48912012D01*
X71235159Y-48937000D01*
X71404841Y-48937000D01*
X71658551Y-48912012D01*
X71984092Y-48813260D01*
X72284112Y-48652896D01*
X72547082Y-48437082D01*
X72590000Y-48384786D01*
X72632918Y-48437082D01*
X72895888Y-48652896D01*
X73195908Y-48813260D01*
X73521449Y-48912012D01*
X73775159Y-48937000D01*
X73944841Y-48937000D01*
X74198551Y-48912012D01*
X74524092Y-48813260D01*
X74824112Y-48652896D01*
X75087082Y-48437082D01*
X75130000Y-48384786D01*
X75172918Y-48437082D01*
X75435888Y-48652896D01*
X75735908Y-48813260D01*
X76061449Y-48912012D01*
X76315159Y-48937000D01*
X76484841Y-48937000D01*
X76738551Y-48912012D01*
X77064092Y-48813260D01*
X77364112Y-48652896D01*
X77627082Y-48437082D01*
X77670000Y-48384786D01*
X77712918Y-48437082D01*
X77975888Y-48652896D01*
X78275908Y-48813260D01*
X78601449Y-48912012D01*
X78855159Y-48937000D01*
X79024841Y-48937000D01*
X79278551Y-48912012D01*
X79604092Y-48813260D01*
X79904112Y-48652896D01*
X80167082Y-48437082D01*
X80382896Y-48174112D01*
X80399045Y-48143900D01*
X80516586Y-48273519D01*
X80742580Y-48441037D01*
X80996913Y-48561246D01*
X81130961Y-48601904D01*
X81353000Y-48479915D01*
X81353000Y-47337000D01*
X81333000Y-47337000D01*
X81333000Y-47083000D01*
X81353000Y-47083000D01*
X81353000Y-45940085D01*
X81607000Y-45940085D01*
X81607000Y-47083000D01*
X81627000Y-47083000D01*
X81627000Y-47337000D01*
X81607000Y-47337000D01*
X81607000Y-48479915D01*
X81829039Y-48601904D01*
X81963087Y-48561246D01*
X82217420Y-48441037D01*
X82443414Y-48273519D01*
X82560955Y-48143900D01*
X82577104Y-48174112D01*
X82792918Y-48437082D01*
X83055888Y-48652896D01*
X83355908Y-48813260D01*
X83681449Y-48912012D01*
X83935159Y-48937000D01*
X84104841Y-48937000D01*
X84358551Y-48912012D01*
X84684092Y-48813260D01*
X84984112Y-48652896D01*
X85247082Y-48437082D01*
X85290000Y-48384786D01*
X85332918Y-48437082D01*
X85595888Y-48652896D01*
X85895908Y-48813260D01*
X86221449Y-48912012D01*
X86475159Y-48937000D01*
X86644841Y-48937000D01*
X86898551Y-48912012D01*
X87224092Y-48813260D01*
X87524112Y-48652896D01*
X87787082Y-48437082D01*
X88002896Y-48174112D01*
X88163260Y-47874092D01*
X88262012Y-47548551D01*
X88295356Y-47210000D01*
X88262012Y-46871449D01*
X88163260Y-46545908D01*
X88002896Y-46245888D01*
X87787082Y-45982918D01*
X87524112Y-45767104D01*
X87224092Y-45606740D01*
X86898551Y-45507988D01*
X86644841Y-45483000D01*
X86475159Y-45483000D01*
X86221449Y-45507988D01*
X85895908Y-45606740D01*
X85595888Y-45767104D01*
X85332918Y-45982918D01*
X85290000Y-46035214D01*
X85247082Y-45982918D01*
X84984112Y-45767104D01*
X84684092Y-45606740D01*
X84358551Y-45507988D01*
X84104841Y-45483000D01*
X83935159Y-45483000D01*
X83681449Y-45507988D01*
X83355908Y-45606740D01*
X83055888Y-45767104D01*
X82792918Y-45982918D01*
X82577104Y-46245888D01*
X82560955Y-46276100D01*
X82443414Y-46146481D01*
X82217420Y-45978963D01*
X81963087Y-45858754D01*
X81829039Y-45818096D01*
X81607000Y-45940085D01*
X81353000Y-45940085D01*
X81130961Y-45818096D01*
X80996913Y-45858754D01*
X80742580Y-45978963D01*
X80516586Y-46146481D01*
X80399045Y-46276100D01*
X80382896Y-46245888D01*
X80167082Y-45982918D01*
X79904112Y-45767104D01*
X79604092Y-45606740D01*
X79278551Y-45507988D01*
X79024841Y-45483000D01*
X78948240Y-45483000D01*
X76464279Y-42999039D01*
X80418096Y-42999039D01*
X80458754Y-43133087D01*
X80578963Y-43387420D01*
X80746481Y-43613414D01*
X80954869Y-43802385D01*
X81196119Y-43947070D01*
X81460960Y-44041909D01*
X81683000Y-43920624D01*
X81683000Y-42777000D01*
X81937000Y-42777000D01*
X81937000Y-43920624D01*
X82159040Y-44041909D01*
X82423881Y-43947070D01*
X82665131Y-43802385D01*
X82873519Y-43613414D01*
X83041037Y-43387420D01*
X83161246Y-43133087D01*
X83201904Y-42999039D01*
X83079915Y-42777000D01*
X81937000Y-42777000D01*
X81683000Y-42777000D01*
X80540085Y-42777000D01*
X80418096Y-42999039D01*
X76464279Y-42999039D01*
X75766201Y-42300961D01*
X80418096Y-42300961D01*
X80540085Y-42523000D01*
X81683000Y-42523000D01*
X81683000Y-41379376D01*
X81937000Y-41379376D01*
X81937000Y-42523000D01*
X83079915Y-42523000D01*
X83201904Y-42300961D01*
X83161246Y-42166913D01*
X83041037Y-41912580D01*
X82873519Y-41686586D01*
X82665131Y-41497615D01*
X82423881Y-41352930D01*
X82159040Y-41258091D01*
X81937000Y-41379376D01*
X81683000Y-41379376D01*
X81460960Y-41258091D01*
X81196119Y-41352930D01*
X80954869Y-41497615D01*
X80746481Y-41686586D01*
X80578963Y-41912580D01*
X80458754Y-42166913D01*
X80418096Y-42300961D01*
X75766201Y-42300961D01*
X75290239Y-41825000D01*
X75251817Y-41778183D01*
X75064983Y-41624851D01*
X74851824Y-41510916D01*
X74620534Y-41440755D01*
X74440268Y-41423000D01*
X74440260Y-41423000D01*
X74380000Y-41417065D01*
X74319740Y-41423000D01*
X72865346Y-41423000D01*
X72750898Y-41308552D01*
X72468041Y-41119553D01*
X72153747Y-40989368D01*
X71820095Y-40923000D01*
X71479905Y-40923000D01*
X71146253Y-40989368D01*
X70831959Y-41119553D01*
X70549102Y-41308552D01*
X70548482Y-41309172D01*
X70424112Y-41207104D01*
X70124092Y-41046740D01*
X69798551Y-40947988D01*
X69544841Y-40923000D01*
X69375159Y-40923000D01*
X69121449Y-40947988D01*
X68795908Y-41046740D01*
X68495888Y-41207104D01*
X68232918Y-41422918D01*
X68017104Y-41685888D01*
X67856740Y-41985908D01*
X67757988Y-42311449D01*
X67724644Y-42650000D01*
X67757988Y-42988551D01*
X67856740Y-43314092D01*
X68017104Y-43614112D01*
X68232918Y-43877082D01*
X68495888Y-44092896D01*
X68795908Y-44253260D01*
X69121449Y-44352012D01*
X69375159Y-44377000D01*
X69544841Y-44377000D01*
X69798551Y-44352012D01*
X70124092Y-44253260D01*
X70424112Y-44092896D01*
X70548482Y-43990828D01*
X70549102Y-43991448D01*
X70831959Y-44180447D01*
X71146253Y-44310632D01*
X71479905Y-44377000D01*
X71820095Y-44377000D01*
X72153747Y-44310632D01*
X72468041Y-44180447D01*
X72750898Y-43991448D01*
X72865346Y-43877000D01*
X73871761Y-43877000D01*
X75648318Y-45653558D01*
X75435888Y-45767104D01*
X75172918Y-45982918D01*
X75130000Y-46035214D01*
X75087082Y-45982918D01*
X74824112Y-45767104D01*
X74524092Y-45606740D01*
X74198551Y-45507988D01*
X73944841Y-45483000D01*
X73775159Y-45483000D01*
X73521449Y-45507988D01*
X73195908Y-45606740D01*
X72895888Y-45767104D01*
X72632918Y-45982918D01*
X72590000Y-46035214D01*
X72547082Y-45982918D01*
X72284112Y-45767104D01*
X71984092Y-45606740D01*
X71658551Y-45507988D01*
X71404841Y-45483000D01*
X71235159Y-45483000D01*
X70981449Y-45507988D01*
X70655908Y-45606740D01*
X70355888Y-45767104D01*
X70092918Y-45982918D01*
X70050000Y-46035214D01*
X70007082Y-45982918D01*
X69744112Y-45767104D01*
X69444092Y-45606740D01*
X69118551Y-45507988D01*
X68864841Y-45483000D01*
X68695159Y-45483000D01*
X68441449Y-45507988D01*
X68115908Y-45606740D01*
X67815888Y-45767104D01*
X67552918Y-45982918D01*
X67510000Y-46035214D01*
X67467082Y-45982918D01*
X67204112Y-45767104D01*
X66904092Y-45606740D01*
X66578551Y-45507988D01*
X66324841Y-45483000D01*
X66155159Y-45483000D01*
X65901449Y-45507988D01*
X65575908Y-45606740D01*
X65275888Y-45767104D01*
X65012918Y-45982918D01*
X64970000Y-46035214D01*
X64927082Y-45982918D01*
X64664112Y-45767104D01*
X64364092Y-45606740D01*
X64038551Y-45507988D01*
X63784841Y-45483000D01*
X63615159Y-45483000D01*
X63361449Y-45507988D01*
X63035908Y-45606740D01*
X62735888Y-45767104D01*
X62472918Y-45982918D01*
X62430000Y-46035214D01*
X62387082Y-45982918D01*
X62124112Y-45767104D01*
X61911682Y-45653558D01*
X71488240Y-36077000D01*
X72235103Y-36077000D01*
X72317631Y-36231398D01*
X72464564Y-36410436D01*
X72643602Y-36557369D01*
X72847865Y-36666550D01*
X73069504Y-36733783D01*
X73300000Y-36756485D01*
X74500000Y-36756485D01*
X74730496Y-36733783D01*
X74952135Y-36666550D01*
X75156398Y-36557369D01*
X75335436Y-36410436D01*
X75340486Y-36404283D01*
X75407976Y-36459670D01*
X75716682Y-36624677D01*
X76051648Y-36726288D01*
X76400000Y-36760598D01*
X76748353Y-36726288D01*
X77083319Y-36624677D01*
X77392025Y-36459670D01*
X77662608Y-36237608D01*
X77845361Y-36014923D01*
X78028807Y-36177496D01*
X78280142Y-36324352D01*
X78543110Y-36416476D01*
X78773000Y-36295155D01*
X78773000Y-34977000D01*
X79027000Y-34977000D01*
X79027000Y-36295155D01*
X79256890Y-36416476D01*
X79519858Y-36324352D01*
X79771193Y-36177496D01*
X79989049Y-35984429D01*
X80165053Y-35752570D01*
X80292442Y-35490830D01*
X80366320Y-35209267D01*
X80226165Y-34977000D01*
X79027000Y-34977000D01*
X78773000Y-34977000D01*
X78753000Y-34977000D01*
X78753000Y-34723000D01*
X78773000Y-34723000D01*
X78773000Y-33404845D01*
X79027000Y-33404845D01*
X79027000Y-34723000D01*
X80226165Y-34723000D01*
X80366320Y-34490733D01*
X80292442Y-34209170D01*
X80165053Y-33947430D01*
X79989049Y-33715571D01*
X79771193Y-33522504D01*
X79519858Y-33375648D01*
X79256890Y-33283524D01*
X79027000Y-33404845D01*
X78773000Y-33404845D01*
X78543110Y-33283524D01*
X78280142Y-33375648D01*
X78028807Y-33522504D01*
X77845361Y-33685077D01*
X77662608Y-33462392D01*
X77392024Y-33240330D01*
X77083318Y-33075323D01*
X76748352Y-32973712D01*
X76400000Y-32939402D01*
X76354157Y-32943917D01*
X75810229Y-32399990D01*
X75771807Y-32353173D01*
X75584973Y-32199841D01*
X75371814Y-32085906D01*
X75140524Y-32015745D01*
X74960258Y-31997990D01*
X74960250Y-31997990D01*
X74899990Y-31992055D01*
X74839730Y-31997990D01*
X64410269Y-31997990D01*
X64350009Y-31992055D01*
X64289749Y-31997990D01*
X64289742Y-31997990D01*
X64133250Y-32013403D01*
X64109475Y-32015745D01*
X64043957Y-32035620D01*
X63878186Y-32085906D01*
X63665027Y-32199841D01*
X63478193Y-32353173D01*
X63439775Y-32399985D01*
X62895843Y-32943917D01*
X62850000Y-32939402D01*
X62501647Y-32973712D01*
X62166681Y-33075323D01*
X61857975Y-33240330D01*
X61642792Y-33416927D01*
X61554494Y-33344463D01*
X61444180Y-33285498D01*
X61324482Y-33249188D01*
X61200000Y-33236928D01*
X60635750Y-33240000D01*
X60477000Y-33398750D01*
X60477000Y-34723000D01*
X60497000Y-34723000D01*
X60497000Y-34977000D01*
X60477000Y-34977000D01*
X60477000Y-36301250D01*
X60635750Y-36460000D01*
X61200000Y-36463072D01*
X61324482Y-36450812D01*
X61444180Y-36414502D01*
X61554494Y-36355537D01*
X61642792Y-36283073D01*
X61857976Y-36459670D01*
X62035306Y-36554455D01*
X58916770Y-39672991D01*
X57370268Y-39672991D01*
X57310008Y-39667056D01*
X57249748Y-39672991D01*
X57249741Y-39672991D01*
X57069475Y-39690746D01*
X56838185Y-39760907D01*
X56625026Y-39874842D01*
X56438192Y-40028174D01*
X56399774Y-40074986D01*
X50991761Y-45483000D01*
X50915159Y-45483000D01*
X50661449Y-45507988D01*
X50335908Y-45606740D01*
X50035888Y-45767104D01*
X49772918Y-45982918D01*
X49557104Y-46245888D01*
X49396740Y-46545908D01*
X49297988Y-46871449D01*
X49264644Y-47210000D01*
X49297988Y-47548551D01*
X49396740Y-47874092D01*
X49557104Y-48174112D01*
X49772918Y-48437082D01*
X50035888Y-48652896D01*
X50335908Y-48813260D01*
X50661449Y-48912012D01*
X50915159Y-48937000D01*
X51084841Y-48937000D01*
X51338551Y-48912012D01*
X51664092Y-48813260D01*
X51964112Y-48652896D01*
X52227082Y-48437082D01*
X52442896Y-48174112D01*
X52459045Y-48143900D01*
X52576586Y-48273519D01*
X52802580Y-48441037D01*
X53056913Y-48561246D01*
X53190961Y-48601904D01*
X53413000Y-48479915D01*
X53413000Y-47337000D01*
X53393000Y-47337000D01*
X53393000Y-47083000D01*
X53413000Y-47083000D01*
X53413000Y-47063000D01*
X53667000Y-47063000D01*
X53667000Y-47083000D01*
X53687000Y-47083000D01*
X53687000Y-47337000D01*
X53667000Y-47337000D01*
X53667000Y-48479915D01*
X53889039Y-48601904D01*
X54023087Y-48561246D01*
X54277420Y-48441037D01*
X54503414Y-48273519D01*
X54620955Y-48143900D01*
X54637104Y-48174112D01*
X54852918Y-48437082D01*
X55115888Y-48652896D01*
X55415908Y-48813260D01*
X55741449Y-48912012D01*
X55995159Y-48937000D01*
X56164841Y-48937000D01*
X56418551Y-48912012D01*
X56744092Y-48813260D01*
X57044112Y-48652896D01*
X57307082Y-48437082D01*
X57350000Y-48384786D01*
X57392918Y-48437082D01*
X57655888Y-48652896D01*
X57955908Y-48813260D01*
X58281449Y-48912012D01*
X58535159Y-48937000D01*
X58704841Y-48937000D01*
X58958551Y-48912012D01*
X59284092Y-48813260D01*
X59584112Y-48652896D01*
X59847082Y-48437082D01*
X59890000Y-48384786D01*
X59932918Y-48437082D01*
X60195888Y-48652896D01*
X60495908Y-48813260D01*
X60821449Y-48912012D01*
X61075159Y-48937000D01*
X61244841Y-48937000D01*
X61498551Y-48912012D01*
X61824092Y-48813260D01*
X62124112Y-48652896D01*
X62387082Y-48437082D01*
X62430000Y-48384786D01*
X62472918Y-48437082D01*
X62735888Y-48652896D01*
X62994398Y-48791072D01*
X57662471Y-54123001D01*
X51285590Y-54123001D01*
X51285000Y-53985750D01*
X51126250Y-53827000D01*
X49777000Y-53827000D01*
X49777000Y-53847000D01*
X49523000Y-53847000D01*
X49523000Y-53827000D01*
X48173750Y-53827000D01*
X48015000Y-53985750D01*
X48014410Y-54123001D01*
X46307810Y-54123001D01*
X46249998Y-54117307D01*
X46094340Y-54132638D01*
X46019267Y-54140032D01*
X45797402Y-54207334D01*
X45592929Y-54316627D01*
X45413708Y-54463710D01*
X45376855Y-54508616D01*
X38809286Y-61076186D01*
X38807401Y-60948393D01*
X38926192Y-58793303D01*
X39195021Y-56651779D01*
X39612586Y-54534194D01*
X39889934Y-53510207D01*
X40123000Y-53510207D01*
X40123000Y-53889793D01*
X40197053Y-54262085D01*
X40342315Y-54612777D01*
X40553201Y-54928391D01*
X40821609Y-55196799D01*
X41137223Y-55407685D01*
X41487915Y-55552947D01*
X41860207Y-55627000D01*
X42239793Y-55627000D01*
X42612085Y-55552947D01*
X42962777Y-55407685D01*
X43278391Y-55196799D01*
X43546799Y-54928391D01*
X43757685Y-54612777D01*
X43902947Y-54262085D01*
X43977000Y-53889793D01*
X43977000Y-53510207D01*
X43902947Y-53137915D01*
X43757685Y-52787223D01*
X43699405Y-52700000D01*
X48011928Y-52700000D01*
X48015000Y-53414250D01*
X48173750Y-53573000D01*
X49523000Y-53573000D01*
X49523000Y-52223750D01*
X49777000Y-52223750D01*
X49777000Y-53573000D01*
X51126250Y-53573000D01*
X51285000Y-53414250D01*
X51288072Y-52700000D01*
X51275812Y-52575518D01*
X51239502Y-52455820D01*
X51180537Y-52345506D01*
X51101185Y-52248815D01*
X51004494Y-52169463D01*
X50894180Y-52110498D01*
X50774482Y-52074188D01*
X50650000Y-52061928D01*
X49935750Y-52065000D01*
X49777000Y-52223750D01*
X49523000Y-52223750D01*
X49364250Y-52065000D01*
X48650000Y-52061928D01*
X48525518Y-52074188D01*
X48405820Y-52110498D01*
X48295506Y-52169463D01*
X48198815Y-52248815D01*
X48119463Y-52345506D01*
X48060498Y-52455820D01*
X48024188Y-52575518D01*
X48011928Y-52700000D01*
X43699405Y-52700000D01*
X43546799Y-52471609D01*
X43278391Y-52203201D01*
X42962777Y-51992315D01*
X42612085Y-51847053D01*
X42239793Y-51773000D01*
X41860207Y-51773000D01*
X41487915Y-51847053D01*
X41137223Y-51992315D01*
X40821609Y-52203201D01*
X40553201Y-52471609D01*
X40342315Y-52787223D01*
X40197053Y-53137915D01*
X40123000Y-53510207D01*
X39889934Y-53510207D01*
X40176846Y-52450910D01*
X40885049Y-50412074D01*
X41733760Y-48427581D01*
X42718828Y-46507138D01*
X43835461Y-44660086D01*
X45078210Y-42895436D01*
X46441035Y-41221764D01*
X47198782Y-40413575D01*
X47166268Y-40492070D01*
X47073000Y-40960961D01*
X47073000Y-41439039D01*
X47166268Y-41907930D01*
X47349221Y-42349615D01*
X47614826Y-42747122D01*
X47952878Y-43085174D01*
X48350385Y-43350779D01*
X48792070Y-43533732D01*
X49260961Y-43627000D01*
X49739039Y-43627000D01*
X50207930Y-43533732D01*
X50649615Y-43350779D01*
X51047122Y-43085174D01*
X51385174Y-42747122D01*
X51650779Y-42349615D01*
X51833732Y-41907930D01*
X51927000Y-41439039D01*
X51927000Y-40960961D01*
X51833732Y-40492070D01*
X51650779Y-40050385D01*
X51385174Y-39652878D01*
X51047122Y-39314826D01*
X50649615Y-39049221D01*
X50207930Y-38866268D01*
X49739039Y-38773000D01*
X49260961Y-38773000D01*
X48792070Y-38866268D01*
X48732908Y-38890774D01*
X49499791Y-38179513D01*
X51180808Y-36825767D01*
X52618313Y-35825000D01*
X58861928Y-35825000D01*
X58874188Y-35949482D01*
X58910498Y-36069180D01*
X58969463Y-36179494D01*
X59048815Y-36276185D01*
X59145506Y-36355537D01*
X59255820Y-36414502D01*
X59375518Y-36450812D01*
X59500000Y-36463072D01*
X60064250Y-36460000D01*
X60223000Y-36301250D01*
X60223000Y-34977000D01*
X59023750Y-34977000D01*
X58865000Y-35135750D01*
X58861928Y-35825000D01*
X52618313Y-35825000D01*
X52952175Y-35592571D01*
X54805236Y-34485951D01*
X56012357Y-33875000D01*
X58861928Y-33875000D01*
X58865000Y-34564250D01*
X59023750Y-34723000D01*
X60223000Y-34723000D01*
X60223000Y-33398750D01*
X60064250Y-33240000D01*
X59500000Y-33236928D01*
X59375518Y-33249188D01*
X59255820Y-33285498D01*
X59145506Y-33344463D01*
X59048815Y-33423815D01*
X58969463Y-33520506D01*
X58910498Y-33630820D01*
X58874188Y-33750518D01*
X58861928Y-33875000D01*
X56012357Y-33875000D01*
X56730974Y-33511292D01*
X58720040Y-32673327D01*
X60762688Y-31976164D01*
X62848978Y-31423189D01*
X64968796Y-31017087D01*
X67111738Y-30759850D01*
X69267448Y-30652721D01*
X71425344Y-30696228D01*
X71425344Y-30696228D01*
G37*
X71425344Y-30696228D02*
X73574965Y-30890157D01*
X75705829Y-31233564D01*
X77807522Y-31724771D01*
X79869862Y-32361398D01*
X81882737Y-33140323D01*
X83836402Y-34057774D01*
X85721294Y-35109263D01*
X87528242Y-36289671D01*
X89248462Y-37593261D01*
X90674562Y-38839740D01*
X90339039Y-38773000D01*
X89860961Y-38773000D01*
X89392070Y-38866268D01*
X88950385Y-39049221D01*
X88552878Y-39314826D01*
X88214826Y-39652878D01*
X87949221Y-40050385D01*
X87766268Y-40492070D01*
X87673000Y-40960961D01*
X87673000Y-41439039D01*
X87766268Y-41907930D01*
X87949221Y-42349615D01*
X88214826Y-42747122D01*
X88552878Y-43085174D01*
X88950385Y-43350779D01*
X89392070Y-43533732D01*
X89860961Y-43627000D01*
X90339039Y-43627000D01*
X90807930Y-43533732D01*
X91249615Y-43350779D01*
X91647122Y-43085174D01*
X91985174Y-42747122D01*
X92250779Y-42349615D01*
X92433732Y-41907930D01*
X92527000Y-41439039D01*
X92527000Y-40960961D01*
X92458536Y-40616768D01*
X93807192Y-42176723D01*
X95101454Y-43903968D01*
X96272068Y-45717277D01*
X97313354Y-47607851D01*
X98220211Y-49566429D01*
X98988242Y-51583514D01*
X99613693Y-53649243D01*
X100093527Y-55753588D01*
X100425396Y-57886258D01*
X100607692Y-60036904D01*
X100639521Y-62195011D01*
X100520731Y-64350100D01*
X100251901Y-66491625D01*
X99834336Y-68609210D01*
X99270077Y-70692489D01*
X98561871Y-72731338D01*
X97713162Y-74715823D01*
X96728094Y-76636266D01*
X95611457Y-78483324D01*
X94368712Y-80247967D01*
X93005873Y-81921655D01*
X92415958Y-82550840D01*
X92433732Y-82507930D01*
X92527000Y-82039039D01*
X92527000Y-81560961D01*
X92433732Y-81092070D01*
X92250779Y-80650385D01*
X91985174Y-80252878D01*
X91647122Y-79914826D01*
X91249615Y-79649221D01*
X90807930Y-79466268D01*
X90339039Y-79373000D01*
X89860961Y-79373000D01*
X89392070Y-79466268D01*
X88950385Y-79649221D01*
X88552878Y-79914826D01*
X88214826Y-80252878D01*
X87949221Y-80650385D01*
X87766268Y-81092070D01*
X87673000Y-81560961D01*
X87673000Y-82039039D01*
X87766268Y-82507930D01*
X87949221Y-82949615D01*
X88214826Y-83347122D01*
X88552878Y-83685174D01*
X88950385Y-83950779D01*
X89392070Y-84133732D01*
X89860961Y-84227000D01*
X90339039Y-84227000D01*
X90807930Y-84133732D01*
X90869875Y-84108073D01*
X89947131Y-84963891D01*
X88266108Y-86317642D01*
X86494751Y-87550830D01*
X84641685Y-88657453D01*
X82715937Y-89632118D01*
X81300461Y-90228437D01*
X81300461Y-71639379D01*
X81305672Y-71586470D01*
X81284878Y-71375341D01*
X81223294Y-71172326D01*
X81123287Y-70985226D01*
X80988700Y-70821231D01*
X80824705Y-70686644D01*
X80637605Y-70586637D01*
X80434590Y-70525053D01*
X80276370Y-70509470D01*
X80223461Y-70504259D01*
X80170552Y-70509470D01*
X75828054Y-70509470D01*
X75865656Y-70498980D01*
X75982756Y-70249952D01*
X76049023Y-69982865D01*
X76061910Y-69707983D01*
X76020922Y-69435867D01*
X75927636Y-69176977D01*
X75865656Y-69061020D01*
X75625565Y-68994040D01*
X74839605Y-69780000D01*
X74853748Y-69794143D01*
X74674143Y-69973748D01*
X74660000Y-69959605D01*
X74645858Y-69973748D01*
X74466253Y-69794143D01*
X74480395Y-69780000D01*
X73694435Y-68994040D01*
X73630045Y-69012003D01*
X73616772Y-68979959D01*
X73506173Y-68814435D01*
X73874040Y-68814435D01*
X74660000Y-69600395D01*
X75445960Y-68814435D01*
X75378980Y-68574344D01*
X75129952Y-68457244D01*
X74862865Y-68390977D01*
X74587983Y-68378090D01*
X74315867Y-68419078D01*
X74056977Y-68512364D01*
X73941020Y-68574344D01*
X73874040Y-68814435D01*
X73506173Y-68814435D01*
X73431932Y-68703325D01*
X73196675Y-68468068D01*
X72920041Y-68283228D01*
X72612663Y-68155908D01*
X72286352Y-68091000D01*
X71953648Y-68091000D01*
X71722265Y-68137025D01*
X69274977Y-65689738D01*
X69225972Y-65571430D01*
X69080748Y-65354087D01*
X68895913Y-65169252D01*
X68678570Y-65024028D01*
X68437072Y-64923996D01*
X68180698Y-64873000D01*
X67919302Y-64873000D01*
X67662928Y-64923996D01*
X67467000Y-65005152D01*
X67467000Y-63677149D01*
X67467082Y-63677082D01*
X67510000Y-63624786D01*
X67552918Y-63677082D01*
X67815888Y-63892896D01*
X68115908Y-64053260D01*
X68441449Y-64152012D01*
X68695159Y-64177000D01*
X68864841Y-64177000D01*
X69118551Y-64152012D01*
X69444092Y-64053260D01*
X69744112Y-63892896D01*
X70007082Y-63677082D01*
X70050000Y-63624786D01*
X70092918Y-63677082D01*
X70355888Y-63892896D01*
X70655908Y-64053260D01*
X70981449Y-64152012D01*
X71235159Y-64177000D01*
X71404841Y-64177000D01*
X71658551Y-64152012D01*
X71984092Y-64053260D01*
X72284112Y-63892896D01*
X72547082Y-63677082D01*
X72590000Y-63624786D01*
X72632918Y-63677082D01*
X72895888Y-63892896D01*
X73195908Y-64053260D01*
X73521449Y-64152012D01*
X73775159Y-64177000D01*
X73944841Y-64177000D01*
X74198551Y-64152012D01*
X74524092Y-64053260D01*
X74824112Y-63892896D01*
X75087082Y-63677082D01*
X75130000Y-63624786D01*
X75172918Y-63677082D01*
X75173000Y-63677150D01*
X75173001Y-65691760D01*
X75039737Y-65825023D01*
X74921430Y-65874028D01*
X74704087Y-66019252D01*
X74519252Y-66204087D01*
X74374028Y-66421430D01*
X74273996Y-66662928D01*
X74223000Y-66919302D01*
X74223000Y-67180698D01*
X74273996Y-67437072D01*
X74374028Y-67678570D01*
X74519252Y-67895913D01*
X74704087Y-68080748D01*
X74921430Y-68225972D01*
X75162928Y-68326004D01*
X75419302Y-68377000D01*
X75680698Y-68377000D01*
X75937072Y-68326004D01*
X76178570Y-68225972D01*
X76395913Y-68080748D01*
X76580748Y-67895913D01*
X76725972Y-67678570D01*
X76774977Y-67560263D01*
X77225005Y-67110235D01*
X77271817Y-67071817D01*
X77425149Y-66884983D01*
X77539084Y-66671824D01*
X77547644Y-66643607D01*
X77609246Y-66440534D01*
X77626093Y-66269472D01*
X77627000Y-66260268D01*
X77627000Y-66260263D01*
X77632935Y-66200000D01*
X77627000Y-66139737D01*
X77627000Y-63677149D01*
X77627082Y-63677082D01*
X77670000Y-63624786D01*
X77712918Y-63677082D01*
X77975888Y-63892896D01*
X78275908Y-64053260D01*
X78601449Y-64152012D01*
X78855159Y-64177000D01*
X79024841Y-64177000D01*
X79278551Y-64152012D01*
X79604092Y-64053260D01*
X79904112Y-63892896D01*
X80167082Y-63677082D01*
X80210000Y-63624786D01*
X80252918Y-63677082D01*
X80515888Y-63892896D01*
X80815908Y-64053260D01*
X81141449Y-64152012D01*
X81395159Y-64177000D01*
X81564841Y-64177000D01*
X81818551Y-64152012D01*
X82144092Y-64053260D01*
X82444112Y-63892896D01*
X82707082Y-63677082D01*
X82750000Y-63624786D01*
X82792918Y-63677082D01*
X83055888Y-63892896D01*
X83355908Y-64053260D01*
X83681449Y-64152012D01*
X83935159Y-64177000D01*
X84104841Y-64177000D01*
X84358551Y-64152012D01*
X84684092Y-64053260D01*
X84984112Y-63892896D01*
X85247082Y-63677082D01*
X85290000Y-63624786D01*
X85332918Y-63677082D01*
X85595888Y-63892896D01*
X85895908Y-64053260D01*
X86221449Y-64152012D01*
X86475159Y-64177000D01*
X86644841Y-64177000D01*
X86898551Y-64152012D01*
X87224092Y-64053260D01*
X87524112Y-63892896D01*
X87787082Y-63677082D01*
X88002896Y-63414112D01*
X88163260Y-63114092D01*
X88262012Y-62788551D01*
X88268832Y-62719303D01*
X89123000Y-62719303D01*
X89123000Y-62980699D01*
X89173996Y-63237073D01*
X89223000Y-63355379D01*
X89223001Y-69644012D01*
X89217065Y-69704282D01*
X89240755Y-69944815D01*
X89284328Y-70088453D01*
X89310917Y-70176106D01*
X89424852Y-70389265D01*
X89474940Y-70450297D01*
X89531169Y-70518811D01*
X89578184Y-70576099D01*
X89624996Y-70614517D01*
X91304008Y-72293530D01*
X91293589Y-72484360D01*
X91343060Y-72830885D01*
X91372026Y-72913253D01*
X91364517Y-72915894D01*
X91165210Y-73033881D01*
X90992752Y-73188483D01*
X90853768Y-73373760D01*
X90753601Y-73582591D01*
X90343177Y-74710222D01*
X90285676Y-74934583D01*
X90273050Y-75165850D01*
X90305784Y-75395136D01*
X90382621Y-75613631D01*
X90500608Y-75812938D01*
X90655210Y-75985396D01*
X90840487Y-76124380D01*
X91049318Y-76224547D01*
X92411872Y-76720476D01*
X92636233Y-76777977D01*
X92867500Y-76790603D01*
X93096786Y-76757869D01*
X93315281Y-76681032D01*
X93514588Y-76563045D01*
X93687046Y-76408443D01*
X93826030Y-76223166D01*
X93926197Y-76014335D01*
X94336621Y-74886704D01*
X94394122Y-74662343D01*
X94406748Y-74431076D01*
X94374014Y-74201790D01*
X94297177Y-73983295D01*
X94293122Y-73976445D01*
X94368248Y-73931972D01*
X94628888Y-73698319D01*
X94838937Y-73418308D01*
X94990322Y-73102698D01*
X95077226Y-72763619D01*
X95096309Y-72414101D01*
X95046837Y-72067577D01*
X94936122Y-71752744D01*
X95223299Y-71582741D01*
X95483939Y-71349088D01*
X95693988Y-71069077D01*
X95845373Y-70753467D01*
X95932277Y-70414388D01*
X95951360Y-70064870D01*
X95901888Y-69718346D01*
X95791173Y-69403512D01*
X96078349Y-69233509D01*
X96338989Y-68999856D01*
X96549038Y-68719845D01*
X96700423Y-68404235D01*
X96787327Y-68065156D01*
X96806410Y-67715638D01*
X96756938Y-67369114D01*
X96646223Y-67054281D01*
X96933399Y-66884278D01*
X97194039Y-66650625D01*
X97404088Y-66370614D01*
X97555473Y-66055004D01*
X97642377Y-65715925D01*
X97661460Y-65366407D01*
X97611988Y-65019883D01*
X97501273Y-64705049D01*
X97788450Y-64535046D01*
X98049090Y-64301393D01*
X98259139Y-64021382D01*
X98410524Y-63705772D01*
X98497428Y-63366693D01*
X98516511Y-63017175D01*
X98467039Y-62670651D01*
X98350915Y-62340436D01*
X98172601Y-62039221D01*
X97938948Y-61778581D01*
X97658937Y-61568532D01*
X97422418Y-61455083D01*
X97023431Y-61309863D01*
X96769324Y-61244737D01*
X96419807Y-61225654D01*
X96073282Y-61275125D01*
X95743067Y-61391250D01*
X95441852Y-61569564D01*
X95181212Y-61803217D01*
X94971163Y-62083228D01*
X94819778Y-62398838D01*
X94732874Y-62737917D01*
X94713791Y-63087434D01*
X94763262Y-63433959D01*
X94873978Y-63748792D01*
X94586801Y-63918796D01*
X94326161Y-64152449D01*
X94116112Y-64432460D01*
X93964727Y-64748070D01*
X93877823Y-65087149D01*
X93858740Y-65436666D01*
X93908211Y-65783191D01*
X94018927Y-66098024D01*
X93731751Y-66268027D01*
X93471111Y-66501680D01*
X93261062Y-66781691D01*
X93109677Y-67097301D01*
X93022773Y-67436380D01*
X93003690Y-67785897D01*
X93053161Y-68132422D01*
X93163877Y-68447256D01*
X92876701Y-68617259D01*
X92616061Y-68850912D01*
X92406012Y-69130923D01*
X92254627Y-69446533D01*
X92187888Y-69706931D01*
X91677000Y-69196043D01*
X91677000Y-63355379D01*
X91726004Y-63237073D01*
X91777000Y-62980699D01*
X91777000Y-62719303D01*
X91726004Y-62462929D01*
X91625972Y-62221431D01*
X91480748Y-62004088D01*
X91295913Y-61819253D01*
X91078570Y-61674029D01*
X90837072Y-61573997D01*
X90580698Y-61523001D01*
X90319302Y-61523001D01*
X90062928Y-61573997D01*
X89821430Y-61674029D01*
X89604087Y-61819253D01*
X89419252Y-62004088D01*
X89274028Y-62221431D01*
X89173996Y-62462929D01*
X89123000Y-62719303D01*
X88268832Y-62719303D01*
X88295356Y-62450000D01*
X88262012Y-62111449D01*
X88163260Y-61785908D01*
X88002896Y-61485888D01*
X87787082Y-61222918D01*
X87524112Y-61007104D01*
X87224092Y-60846740D01*
X86898551Y-60747988D01*
X86644841Y-60723000D01*
X86568240Y-60723000D01*
X83298829Y-57453590D01*
X83260407Y-57406773D01*
X83073573Y-57253441D01*
X82860414Y-57139506D01*
X82629124Y-57069345D01*
X82448858Y-57051590D01*
X82448850Y-57051590D01*
X82388590Y-57045655D01*
X82328330Y-57051590D01*
X77927000Y-57051590D01*
X77927000Y-56869302D01*
X77876004Y-56612928D01*
X77775972Y-56371430D01*
X77630748Y-56154087D01*
X77445913Y-55969252D01*
X77228570Y-55824028D01*
X76987072Y-55723996D01*
X76730698Y-55673000D01*
X76469302Y-55673000D01*
X76212928Y-55723996D01*
X76094622Y-55773000D01*
X72105378Y-55773000D01*
X71987072Y-55723996D01*
X71730698Y-55673000D01*
X71469302Y-55673000D01*
X71212928Y-55723996D01*
X70971430Y-55824028D01*
X70754087Y-55969252D01*
X70569252Y-56154087D01*
X70424028Y-56371430D01*
X70323996Y-56612928D01*
X70273000Y-56869302D01*
X70273000Y-57051590D01*
X65862938Y-57051590D01*
X69571389Y-53343141D01*
X69616291Y-53306291D01*
X69732421Y-53164787D01*
X69763374Y-53127070D01*
X69781059Y-53093984D01*
X69872667Y-52922597D01*
X69939969Y-52700732D01*
X69948545Y-52613656D01*
X69962694Y-52470000D01*
X69957000Y-52412188D01*
X69957000Y-48478183D01*
X70007082Y-48437082D01*
X70050000Y-48384786D01*
X70092918Y-48437082D01*
X70355888Y-48652896D01*
X70655908Y-48813260D01*
X70981449Y-48912012D01*
X71235159Y-48937000D01*
X71404841Y-48937000D01*
X71658551Y-48912012D01*
X71984092Y-48813260D01*
X72284112Y-48652896D01*
X72547082Y-48437082D01*
X72590000Y-48384786D01*
X72632918Y-48437082D01*
X72895888Y-48652896D01*
X73195908Y-48813260D01*
X73521449Y-48912012D01*
X73775159Y-48937000D01*
X73944841Y-48937000D01*
X74198551Y-48912012D01*
X74524092Y-48813260D01*
X74824112Y-48652896D01*
X75087082Y-48437082D01*
X75130000Y-48384786D01*
X75172918Y-48437082D01*
X75435888Y-48652896D01*
X75735908Y-48813260D01*
X76061449Y-48912012D01*
X76315159Y-48937000D01*
X76484841Y-48937000D01*
X76738551Y-48912012D01*
X77064092Y-48813260D01*
X77364112Y-48652896D01*
X77627082Y-48437082D01*
X77670000Y-48384786D01*
X77712918Y-48437082D01*
X77975888Y-48652896D01*
X78275908Y-48813260D01*
X78601449Y-48912012D01*
X78855159Y-48937000D01*
X79024841Y-48937000D01*
X79278551Y-48912012D01*
X79604092Y-48813260D01*
X79904112Y-48652896D01*
X80167082Y-48437082D01*
X80382896Y-48174112D01*
X80399045Y-48143900D01*
X80516586Y-48273519D01*
X80742580Y-48441037D01*
X80996913Y-48561246D01*
X81130961Y-48601904D01*
X81353000Y-48479915D01*
X81353000Y-47337000D01*
X81333000Y-47337000D01*
X81333000Y-47083000D01*
X81353000Y-47083000D01*
X81353000Y-45940085D01*
X81607000Y-45940085D01*
X81607000Y-47083000D01*
X81627000Y-47083000D01*
X81627000Y-47337000D01*
X81607000Y-47337000D01*
X81607000Y-48479915D01*
X81829039Y-48601904D01*
X81963087Y-48561246D01*
X82217420Y-48441037D01*
X82443414Y-48273519D01*
X82560955Y-48143900D01*
X82577104Y-48174112D01*
X82792918Y-48437082D01*
X83055888Y-48652896D01*
X83355908Y-48813260D01*
X83681449Y-48912012D01*
X83935159Y-48937000D01*
X84104841Y-48937000D01*
X84358551Y-48912012D01*
X84684092Y-48813260D01*
X84984112Y-48652896D01*
X85247082Y-48437082D01*
X85290000Y-48384786D01*
X85332918Y-48437082D01*
X85595888Y-48652896D01*
X85895908Y-48813260D01*
X86221449Y-48912012D01*
X86475159Y-48937000D01*
X86644841Y-48937000D01*
X86898551Y-48912012D01*
X87224092Y-48813260D01*
X87524112Y-48652896D01*
X87787082Y-48437082D01*
X88002896Y-48174112D01*
X88163260Y-47874092D01*
X88262012Y-47548551D01*
X88295356Y-47210000D01*
X88262012Y-46871449D01*
X88163260Y-46545908D01*
X88002896Y-46245888D01*
X87787082Y-45982918D01*
X87524112Y-45767104D01*
X87224092Y-45606740D01*
X86898551Y-45507988D01*
X86644841Y-45483000D01*
X86475159Y-45483000D01*
X86221449Y-45507988D01*
X85895908Y-45606740D01*
X85595888Y-45767104D01*
X85332918Y-45982918D01*
X85290000Y-46035214D01*
X85247082Y-45982918D01*
X84984112Y-45767104D01*
X84684092Y-45606740D01*
X84358551Y-45507988D01*
X84104841Y-45483000D01*
X83935159Y-45483000D01*
X83681449Y-45507988D01*
X83355908Y-45606740D01*
X83055888Y-45767104D01*
X82792918Y-45982918D01*
X82577104Y-46245888D01*
X82560955Y-46276100D01*
X82443414Y-46146481D01*
X82217420Y-45978963D01*
X81963087Y-45858754D01*
X81829039Y-45818096D01*
X81607000Y-45940085D01*
X81353000Y-45940085D01*
X81130961Y-45818096D01*
X80996913Y-45858754D01*
X80742580Y-45978963D01*
X80516586Y-46146481D01*
X80399045Y-46276100D01*
X80382896Y-46245888D01*
X80167082Y-45982918D01*
X79904112Y-45767104D01*
X79604092Y-45606740D01*
X79278551Y-45507988D01*
X79024841Y-45483000D01*
X78948240Y-45483000D01*
X76464279Y-42999039D01*
X80418096Y-42999039D01*
X80458754Y-43133087D01*
X80578963Y-43387420D01*
X80746481Y-43613414D01*
X80954869Y-43802385D01*
X81196119Y-43947070D01*
X81460960Y-44041909D01*
X81683000Y-43920624D01*
X81683000Y-42777000D01*
X81937000Y-42777000D01*
X81937000Y-43920624D01*
X82159040Y-44041909D01*
X82423881Y-43947070D01*
X82665131Y-43802385D01*
X82873519Y-43613414D01*
X83041037Y-43387420D01*
X83161246Y-43133087D01*
X83201904Y-42999039D01*
X83079915Y-42777000D01*
X81937000Y-42777000D01*
X81683000Y-42777000D01*
X80540085Y-42777000D01*
X80418096Y-42999039D01*
X76464279Y-42999039D01*
X75766201Y-42300961D01*
X80418096Y-42300961D01*
X80540085Y-42523000D01*
X81683000Y-42523000D01*
X81683000Y-41379376D01*
X81937000Y-41379376D01*
X81937000Y-42523000D01*
X83079915Y-42523000D01*
X83201904Y-42300961D01*
X83161246Y-42166913D01*
X83041037Y-41912580D01*
X82873519Y-41686586D01*
X82665131Y-41497615D01*
X82423881Y-41352930D01*
X82159040Y-41258091D01*
X81937000Y-41379376D01*
X81683000Y-41379376D01*
X81460960Y-41258091D01*
X81196119Y-41352930D01*
X80954869Y-41497615D01*
X80746481Y-41686586D01*
X80578963Y-41912580D01*
X80458754Y-42166913D01*
X80418096Y-42300961D01*
X75766201Y-42300961D01*
X75290239Y-41825000D01*
X75251817Y-41778183D01*
X75064983Y-41624851D01*
X74851824Y-41510916D01*
X74620534Y-41440755D01*
X74440268Y-41423000D01*
X74440260Y-41423000D01*
X74380000Y-41417065D01*
X74319740Y-41423000D01*
X72865346Y-41423000D01*
X72750898Y-41308552D01*
X72468041Y-41119553D01*
X72153747Y-40989368D01*
X71820095Y-40923000D01*
X71479905Y-40923000D01*
X71146253Y-40989368D01*
X70831959Y-41119553D01*
X70549102Y-41308552D01*
X70548482Y-41309172D01*
X70424112Y-41207104D01*
X70124092Y-41046740D01*
X69798551Y-40947988D01*
X69544841Y-40923000D01*
X69375159Y-40923000D01*
X69121449Y-40947988D01*
X68795908Y-41046740D01*
X68495888Y-41207104D01*
X68232918Y-41422918D01*
X68017104Y-41685888D01*
X67856740Y-41985908D01*
X67757988Y-42311449D01*
X67724644Y-42650000D01*
X67757988Y-42988551D01*
X67856740Y-43314092D01*
X68017104Y-43614112D01*
X68232918Y-43877082D01*
X68495888Y-44092896D01*
X68795908Y-44253260D01*
X69121449Y-44352012D01*
X69375159Y-44377000D01*
X69544841Y-44377000D01*
X69798551Y-44352012D01*
X70124092Y-44253260D01*
X70424112Y-44092896D01*
X70548482Y-43990828D01*
X70549102Y-43991448D01*
X70831959Y-44180447D01*
X71146253Y-44310632D01*
X71479905Y-44377000D01*
X71820095Y-44377000D01*
X72153747Y-44310632D01*
X72468041Y-44180447D01*
X72750898Y-43991448D01*
X72865346Y-43877000D01*
X73871761Y-43877000D01*
X75648318Y-45653558D01*
X75435888Y-45767104D01*
X75172918Y-45982918D01*
X75130000Y-46035214D01*
X75087082Y-45982918D01*
X74824112Y-45767104D01*
X74524092Y-45606740D01*
X74198551Y-45507988D01*
X73944841Y-45483000D01*
X73775159Y-45483000D01*
X73521449Y-45507988D01*
X73195908Y-45606740D01*
X72895888Y-45767104D01*
X72632918Y-45982918D01*
X72590000Y-46035214D01*
X72547082Y-45982918D01*
X72284112Y-45767104D01*
X71984092Y-45606740D01*
X71658551Y-45507988D01*
X71404841Y-45483000D01*
X71235159Y-45483000D01*
X70981449Y-45507988D01*
X70655908Y-45606740D01*
X70355888Y-45767104D01*
X70092918Y-45982918D01*
X70050000Y-46035214D01*
X70007082Y-45982918D01*
X69744112Y-45767104D01*
X69444092Y-45606740D01*
X69118551Y-45507988D01*
X68864841Y-45483000D01*
X68695159Y-45483000D01*
X68441449Y-45507988D01*
X68115908Y-45606740D01*
X67815888Y-45767104D01*
X67552918Y-45982918D01*
X67510000Y-46035214D01*
X67467082Y-45982918D01*
X67204112Y-45767104D01*
X66904092Y-45606740D01*
X66578551Y-45507988D01*
X66324841Y-45483000D01*
X66155159Y-45483000D01*
X65901449Y-45507988D01*
X65575908Y-45606740D01*
X65275888Y-45767104D01*
X65012918Y-45982918D01*
X64970000Y-46035214D01*
X64927082Y-45982918D01*
X64664112Y-45767104D01*
X64364092Y-45606740D01*
X64038551Y-45507988D01*
X63784841Y-45483000D01*
X63615159Y-45483000D01*
X63361449Y-45507988D01*
X63035908Y-45606740D01*
X62735888Y-45767104D01*
X62472918Y-45982918D01*
X62430000Y-46035214D01*
X62387082Y-45982918D01*
X62124112Y-45767104D01*
X61911682Y-45653558D01*
X71488240Y-36077000D01*
X72235103Y-36077000D01*
X72317631Y-36231398D01*
X72464564Y-36410436D01*
X72643602Y-36557369D01*
X72847865Y-36666550D01*
X73069504Y-36733783D01*
X73300000Y-36756485D01*
X74500000Y-36756485D01*
X74730496Y-36733783D01*
X74952135Y-36666550D01*
X75156398Y-36557369D01*
X75335436Y-36410436D01*
X75340486Y-36404283D01*
X75407976Y-36459670D01*
X75716682Y-36624677D01*
X76051648Y-36726288D01*
X76400000Y-36760598D01*
X76748353Y-36726288D01*
X77083319Y-36624677D01*
X77392025Y-36459670D01*
X77662608Y-36237608D01*
X77845361Y-36014923D01*
X78028807Y-36177496D01*
X78280142Y-36324352D01*
X78543110Y-36416476D01*
X78773000Y-36295155D01*
X78773000Y-34977000D01*
X79027000Y-34977000D01*
X79027000Y-36295155D01*
X79256890Y-36416476D01*
X79519858Y-36324352D01*
X79771193Y-36177496D01*
X79989049Y-35984429D01*
X80165053Y-35752570D01*
X80292442Y-35490830D01*
X80366320Y-35209267D01*
X80226165Y-34977000D01*
X79027000Y-34977000D01*
X78773000Y-34977000D01*
X78753000Y-34977000D01*
X78753000Y-34723000D01*
X78773000Y-34723000D01*
X78773000Y-33404845D01*
X79027000Y-33404845D01*
X79027000Y-34723000D01*
X80226165Y-34723000D01*
X80366320Y-34490733D01*
X80292442Y-34209170D01*
X80165053Y-33947430D01*
X79989049Y-33715571D01*
X79771193Y-33522504D01*
X79519858Y-33375648D01*
X79256890Y-33283524D01*
X79027000Y-33404845D01*
X78773000Y-33404845D01*
X78543110Y-33283524D01*
X78280142Y-33375648D01*
X78028807Y-33522504D01*
X77845361Y-33685077D01*
X77662608Y-33462392D01*
X77392024Y-33240330D01*
X77083318Y-33075323D01*
X76748352Y-32973712D01*
X76400000Y-32939402D01*
X76354157Y-32943917D01*
X75810229Y-32399990D01*
X75771807Y-32353173D01*
X75584973Y-32199841D01*
X75371814Y-32085906D01*
X75140524Y-32015745D01*
X74960258Y-31997990D01*
X74960250Y-31997990D01*
X74899990Y-31992055D01*
X74839730Y-31997990D01*
X64410269Y-31997990D01*
X64350009Y-31992055D01*
X64289749Y-31997990D01*
X64289742Y-31997990D01*
X64133250Y-32013403D01*
X64109475Y-32015745D01*
X64043957Y-32035620D01*
X63878186Y-32085906D01*
X63665027Y-32199841D01*
X63478193Y-32353173D01*
X63439775Y-32399985D01*
X62895843Y-32943917D01*
X62850000Y-32939402D01*
X62501647Y-32973712D01*
X62166681Y-33075323D01*
X61857975Y-33240330D01*
X61642792Y-33416927D01*
X61554494Y-33344463D01*
X61444180Y-33285498D01*
X61324482Y-33249188D01*
X61200000Y-33236928D01*
X60635750Y-33240000D01*
X60477000Y-33398750D01*
X60477000Y-34723000D01*
X60497000Y-34723000D01*
X60497000Y-34977000D01*
X60477000Y-34977000D01*
X60477000Y-36301250D01*
X60635750Y-36460000D01*
X61200000Y-36463072D01*
X61324482Y-36450812D01*
X61444180Y-36414502D01*
X61554494Y-36355537D01*
X61642792Y-36283073D01*
X61857976Y-36459670D01*
X62035306Y-36554455D01*
X58916770Y-39672991D01*
X57370268Y-39672991D01*
X57310008Y-39667056D01*
X57249748Y-39672991D01*
X57249741Y-39672991D01*
X57069475Y-39690746D01*
X56838185Y-39760907D01*
X56625026Y-39874842D01*
X56438192Y-40028174D01*
X56399774Y-40074986D01*
X50991761Y-45483000D01*
X50915159Y-45483000D01*
X50661449Y-45507988D01*
X50335908Y-45606740D01*
X50035888Y-45767104D01*
X49772918Y-45982918D01*
X49557104Y-46245888D01*
X49396740Y-46545908D01*
X49297988Y-46871449D01*
X49264644Y-47210000D01*
X49297988Y-47548551D01*
X49396740Y-47874092D01*
X49557104Y-48174112D01*
X49772918Y-48437082D01*
X50035888Y-48652896D01*
X50335908Y-48813260D01*
X50661449Y-48912012D01*
X50915159Y-48937000D01*
X51084841Y-48937000D01*
X51338551Y-48912012D01*
X51664092Y-48813260D01*
X51964112Y-48652896D01*
X52227082Y-48437082D01*
X52442896Y-48174112D01*
X52459045Y-48143900D01*
X52576586Y-48273519D01*
X52802580Y-48441037D01*
X53056913Y-48561246D01*
X53190961Y-48601904D01*
X53413000Y-48479915D01*
X53413000Y-47337000D01*
X53393000Y-47337000D01*
X53393000Y-47083000D01*
X53413000Y-47083000D01*
X53413000Y-47063000D01*
X53667000Y-47063000D01*
X53667000Y-47083000D01*
X53687000Y-47083000D01*
X53687000Y-47337000D01*
X53667000Y-47337000D01*
X53667000Y-48479915D01*
X53889039Y-48601904D01*
X54023087Y-48561246D01*
X54277420Y-48441037D01*
X54503414Y-48273519D01*
X54620955Y-48143900D01*
X54637104Y-48174112D01*
X54852918Y-48437082D01*
X55115888Y-48652896D01*
X55415908Y-48813260D01*
X55741449Y-48912012D01*
X55995159Y-48937000D01*
X56164841Y-48937000D01*
X56418551Y-48912012D01*
X56744092Y-48813260D01*
X57044112Y-48652896D01*
X57307082Y-48437082D01*
X57350000Y-48384786D01*
X57392918Y-48437082D01*
X57655888Y-48652896D01*
X57955908Y-48813260D01*
X58281449Y-48912012D01*
X58535159Y-48937000D01*
X58704841Y-48937000D01*
X58958551Y-48912012D01*
X59284092Y-48813260D01*
X59584112Y-48652896D01*
X59847082Y-48437082D01*
X59890000Y-48384786D01*
X59932918Y-48437082D01*
X60195888Y-48652896D01*
X60495908Y-48813260D01*
X60821449Y-48912012D01*
X61075159Y-48937000D01*
X61244841Y-48937000D01*
X61498551Y-48912012D01*
X61824092Y-48813260D01*
X62124112Y-48652896D01*
X62387082Y-48437082D01*
X62430000Y-48384786D01*
X62472918Y-48437082D01*
X62735888Y-48652896D01*
X62994398Y-48791072D01*
X57662471Y-54123001D01*
X51285590Y-54123001D01*
X51285000Y-53985750D01*
X51126250Y-53827000D01*
X49777000Y-53827000D01*
X49777000Y-53847000D01*
X49523000Y-53847000D01*
X49523000Y-53827000D01*
X48173750Y-53827000D01*
X48015000Y-53985750D01*
X48014410Y-54123001D01*
X46307810Y-54123001D01*
X46249998Y-54117307D01*
X46094340Y-54132638D01*
X46019267Y-54140032D01*
X45797402Y-54207334D01*
X45592929Y-54316627D01*
X45413708Y-54463710D01*
X45376855Y-54508616D01*
X38809286Y-61076186D01*
X38807401Y-60948393D01*
X38926192Y-58793303D01*
X39195021Y-56651779D01*
X39612586Y-54534194D01*
X39889934Y-53510207D01*
X40123000Y-53510207D01*
X40123000Y-53889793D01*
X40197053Y-54262085D01*
X40342315Y-54612777D01*
X40553201Y-54928391D01*
X40821609Y-55196799D01*
X41137223Y-55407685D01*
X41487915Y-55552947D01*
X41860207Y-55627000D01*
X42239793Y-55627000D01*
X42612085Y-55552947D01*
X42962777Y-55407685D01*
X43278391Y-55196799D01*
X43546799Y-54928391D01*
X43757685Y-54612777D01*
X43902947Y-54262085D01*
X43977000Y-53889793D01*
X43977000Y-53510207D01*
X43902947Y-53137915D01*
X43757685Y-52787223D01*
X43699405Y-52700000D01*
X48011928Y-52700000D01*
X48015000Y-53414250D01*
X48173750Y-53573000D01*
X49523000Y-53573000D01*
X49523000Y-52223750D01*
X49777000Y-52223750D01*
X49777000Y-53573000D01*
X51126250Y-53573000D01*
X51285000Y-53414250D01*
X51288072Y-52700000D01*
X51275812Y-52575518D01*
X51239502Y-52455820D01*
X51180537Y-52345506D01*
X51101185Y-52248815D01*
X51004494Y-52169463D01*
X50894180Y-52110498D01*
X50774482Y-52074188D01*
X50650000Y-52061928D01*
X49935750Y-52065000D01*
X49777000Y-52223750D01*
X49523000Y-52223750D01*
X49364250Y-52065000D01*
X48650000Y-52061928D01*
X48525518Y-52074188D01*
X48405820Y-52110498D01*
X48295506Y-52169463D01*
X48198815Y-52248815D01*
X48119463Y-52345506D01*
X48060498Y-52455820D01*
X48024188Y-52575518D01*
X48011928Y-52700000D01*
X43699405Y-52700000D01*
X43546799Y-52471609D01*
X43278391Y-52203201D01*
X42962777Y-51992315D01*
X42612085Y-51847053D01*
X42239793Y-51773000D01*
X41860207Y-51773000D01*
X41487915Y-51847053D01*
X41137223Y-51992315D01*
X40821609Y-52203201D01*
X40553201Y-52471609D01*
X40342315Y-52787223D01*
X40197053Y-53137915D01*
X40123000Y-53510207D01*
X39889934Y-53510207D01*
X40176846Y-52450910D01*
X40885049Y-50412074D01*
X41733760Y-48427581D01*
X42718828Y-46507138D01*
X43835461Y-44660086D01*
X45078210Y-42895436D01*
X46441035Y-41221764D01*
X47198782Y-40413575D01*
X47166268Y-40492070D01*
X47073000Y-40960961D01*
X47073000Y-41439039D01*
X47166268Y-41907930D01*
X47349221Y-42349615D01*
X47614826Y-42747122D01*
X47952878Y-43085174D01*
X48350385Y-43350779D01*
X48792070Y-43533732D01*
X49260961Y-43627000D01*
X49739039Y-43627000D01*
X50207930Y-43533732D01*
X50649615Y-43350779D01*
X51047122Y-43085174D01*
X51385174Y-42747122D01*
X51650779Y-42349615D01*
X51833732Y-41907930D01*
X51927000Y-41439039D01*
X51927000Y-40960961D01*
X51833732Y-40492070D01*
X51650779Y-40050385D01*
X51385174Y-39652878D01*
X51047122Y-39314826D01*
X50649615Y-39049221D01*
X50207930Y-38866268D01*
X49739039Y-38773000D01*
X49260961Y-38773000D01*
X48792070Y-38866268D01*
X48732908Y-38890774D01*
X49499791Y-38179513D01*
X51180808Y-36825767D01*
X52618313Y-35825000D01*
X58861928Y-35825000D01*
X58874188Y-35949482D01*
X58910498Y-36069180D01*
X58969463Y-36179494D01*
X59048815Y-36276185D01*
X59145506Y-36355537D01*
X59255820Y-36414502D01*
X59375518Y-36450812D01*
X59500000Y-36463072D01*
X60064250Y-36460000D01*
X60223000Y-36301250D01*
X60223000Y-34977000D01*
X59023750Y-34977000D01*
X58865000Y-35135750D01*
X58861928Y-35825000D01*
X52618313Y-35825000D01*
X52952175Y-35592571D01*
X54805236Y-34485951D01*
X56012357Y-33875000D01*
X58861928Y-33875000D01*
X58865000Y-34564250D01*
X59023750Y-34723000D01*
X60223000Y-34723000D01*
X60223000Y-33398750D01*
X60064250Y-33240000D01*
X59500000Y-33236928D01*
X59375518Y-33249188D01*
X59255820Y-33285498D01*
X59145506Y-33344463D01*
X59048815Y-33423815D01*
X58969463Y-33520506D01*
X58910498Y-33630820D01*
X58874188Y-33750518D01*
X58861928Y-33875000D01*
X56012357Y-33875000D01*
X56730974Y-33511292D01*
X58720040Y-32673327D01*
X60762688Y-31976164D01*
X62848978Y-31423189D01*
X64968796Y-31017087D01*
X67111738Y-30759850D01*
X69267448Y-30652721D01*
X71425344Y-30696228D01*
G36*
X58747000Y-62323000D02*
G01*
X58767000Y-62323000D01*
X58767000Y-62577000D01*
X58747000Y-62577000D01*
X58747000Y-63719915D01*
X58969039Y-63841904D01*
X59103087Y-63801246D01*
X59357420Y-63681037D01*
X59583414Y-63513519D01*
X59700955Y-63383900D01*
X59717104Y-63414112D01*
X59932918Y-63677082D01*
X60195888Y-63892896D01*
X60495908Y-64053260D01*
X60821449Y-64152012D01*
X61075159Y-64177000D01*
X61244841Y-64177000D01*
X61498551Y-64152012D01*
X61824092Y-64053260D01*
X62124112Y-63892896D01*
X62387082Y-63677082D01*
X62430000Y-63624786D01*
X62472918Y-63677082D01*
X62735888Y-63892896D01*
X63035908Y-64053260D01*
X63361449Y-64152012D01*
X63615159Y-64177000D01*
X63784841Y-64177000D01*
X64038551Y-64152012D01*
X64364092Y-64053260D01*
X64664112Y-63892896D01*
X64927082Y-63677082D01*
X64970000Y-63624786D01*
X65012918Y-63677082D01*
X65013001Y-63677150D01*
X65013000Y-66379740D01*
X65007065Y-66440000D01*
X65013000Y-66500260D01*
X65013000Y-66500267D01*
X65030755Y-66680533D01*
X65100916Y-66911823D01*
X65214851Y-67124982D01*
X65368183Y-67311817D01*
X65415000Y-67350239D01*
X66316348Y-68251587D01*
X66239959Y-68283228D01*
X65963325Y-68468068D01*
X65728068Y-68703325D01*
X65543228Y-68979959D01*
X65415908Y-69287337D01*
X65351000Y-69613648D01*
X65351000Y-69946352D01*
X65415908Y-70272663D01*
X65513997Y-70509470D01*
X59276370Y-70509470D01*
X59223461Y-70504259D01*
X59170552Y-70509470D01*
X59012332Y-70525053D01*
X58809317Y-70586637D01*
X58622217Y-70686644D01*
X58458222Y-70821231D01*
X58323635Y-70985226D01*
X58223628Y-71172326D01*
X58162044Y-71375341D01*
X58141250Y-71586470D01*
X58146462Y-71639389D01*
X58146461Y-90228405D01*
X57564185Y-90003081D01*
X55610515Y-89085628D01*
X53725629Y-88034141D01*
X51918671Y-86853727D01*
X50198454Y-85550138D01*
X48573368Y-84129736D01*
X48426899Y-83982472D01*
X48792070Y-84133732D01*
X49260961Y-84227000D01*
X49739039Y-84227000D01*
X50207930Y-84133732D01*
X50649615Y-83950779D01*
X51047122Y-83685174D01*
X51385174Y-83347122D01*
X51650779Y-82949615D01*
X51833732Y-82507930D01*
X51927000Y-82039039D01*
X51927000Y-81560961D01*
X51833732Y-81092070D01*
X51650779Y-80650385D01*
X51385174Y-80252878D01*
X51047122Y-79914826D01*
X50649615Y-79649221D01*
X50207930Y-79466268D01*
X49739039Y-79373000D01*
X49260961Y-79373000D01*
X48792070Y-79466268D01*
X48350385Y-79649221D01*
X47952878Y-79914826D01*
X47614826Y-80252878D01*
X47349221Y-80650385D01*
X47166268Y-81092070D01*
X47073000Y-81560961D01*
X47073000Y-82039039D01*
X47166268Y-82507930D01*
X47313255Y-82862786D01*
X47051317Y-82599426D01*
X45639723Y-80966672D01*
X44345464Y-79239429D01*
X43174850Y-77426121D01*
X42133568Y-75535553D01*
X41226713Y-73576979D01*
X40458680Y-71559890D01*
X40172406Y-70614388D01*
X43098244Y-73540227D01*
X43135095Y-73585130D01*
X43179998Y-73621981D01*
X43180000Y-73621983D01*
X43254673Y-73683265D01*
X43314316Y-73732213D01*
X43518789Y-73841506D01*
X43587590Y-73862377D01*
X43649577Y-74104235D01*
X43800962Y-74419845D01*
X44011011Y-74699856D01*
X44271651Y-74933509D01*
X44346777Y-74977982D01*
X44342722Y-74984832D01*
X44265885Y-75203327D01*
X44233151Y-75432613D01*
X44245777Y-75663880D01*
X44303278Y-75888241D01*
X44713702Y-77015872D01*
X44813869Y-77224703D01*
X44952853Y-77409980D01*
X45125311Y-77564582D01*
X45324618Y-77682569D01*
X45543113Y-77759406D01*
X45772399Y-77792140D01*
X46003666Y-77779514D01*
X46228027Y-77722013D01*
X47590581Y-77226084D01*
X47799412Y-77125917D01*
X47984689Y-76986933D01*
X48139291Y-76814475D01*
X48257278Y-76615168D01*
X48334115Y-76396673D01*
X48366849Y-76167387D01*
X48354223Y-75936120D01*
X48296722Y-75711759D01*
X47886298Y-74584128D01*
X47786131Y-74375297D01*
X47647147Y-74190020D01*
X47474689Y-74035418D01*
X47275382Y-73917431D01*
X47267872Y-73914790D01*
X47296838Y-73832422D01*
X47346310Y-73485898D01*
X47327227Y-73136380D01*
X47240323Y-72797301D01*
X47088938Y-72481691D01*
X46878889Y-72201680D01*
X46618249Y-71968027D01*
X46331072Y-71798024D01*
X46441787Y-71483191D01*
X46491259Y-71136667D01*
X46472176Y-70787149D01*
X46385272Y-70448070D01*
X46233887Y-70132460D01*
X46023838Y-69852449D01*
X45763198Y-69618796D01*
X45476022Y-69448793D01*
X45586737Y-69133959D01*
X45636209Y-68787435D01*
X45625790Y-68596603D01*
X49838201Y-64384193D01*
X49885012Y-64345776D01*
X50033316Y-64165068D01*
X50200000Y-64181485D01*
X51800000Y-64181485D01*
X51981724Y-64163587D01*
X52156464Y-64110580D01*
X52317505Y-64024501D01*
X52458659Y-63908659D01*
X52513568Y-63841752D01*
X52575888Y-63892896D01*
X52875908Y-64053260D01*
X53201449Y-64152012D01*
X53455159Y-64177000D01*
X53624841Y-64177000D01*
X53878551Y-64152012D01*
X54204092Y-64053260D01*
X54504112Y-63892896D01*
X54767082Y-63677082D01*
X54810000Y-63624786D01*
X54852918Y-63677082D01*
X55115888Y-63892896D01*
X55415908Y-64053260D01*
X55741449Y-64152012D01*
X55995159Y-64177000D01*
X56164841Y-64177000D01*
X56418551Y-64152012D01*
X56744092Y-64053260D01*
X57044112Y-63892896D01*
X57307082Y-63677082D01*
X57522896Y-63414112D01*
X57539045Y-63383900D01*
X57656586Y-63513519D01*
X57882580Y-63681037D01*
X58136913Y-63801246D01*
X58270961Y-63841904D01*
X58493000Y-63719915D01*
X58493000Y-62577000D01*
X58473000Y-62577000D01*
X58473000Y-62323000D01*
X58493000Y-62323000D01*
X58493000Y-62303000D01*
X58747000Y-62303000D01*
X58747000Y-62323000D01*
X58747000Y-62323000D01*
G37*
X58747000Y-62323000D02*
X58767000Y-62323000D01*
X58767000Y-62577000D01*
X58747000Y-62577000D01*
X58747000Y-63719915D01*
X58969039Y-63841904D01*
X59103087Y-63801246D01*
X59357420Y-63681037D01*
X59583414Y-63513519D01*
X59700955Y-63383900D01*
X59717104Y-63414112D01*
X59932918Y-63677082D01*
X60195888Y-63892896D01*
X60495908Y-64053260D01*
X60821449Y-64152012D01*
X61075159Y-64177000D01*
X61244841Y-64177000D01*
X61498551Y-64152012D01*
X61824092Y-64053260D01*
X62124112Y-63892896D01*
X62387082Y-63677082D01*
X62430000Y-63624786D01*
X62472918Y-63677082D01*
X62735888Y-63892896D01*
X63035908Y-64053260D01*
X63361449Y-64152012D01*
X63615159Y-64177000D01*
X63784841Y-64177000D01*
X64038551Y-64152012D01*
X64364092Y-64053260D01*
X64664112Y-63892896D01*
X64927082Y-63677082D01*
X64970000Y-63624786D01*
X65012918Y-63677082D01*
X65013001Y-63677150D01*
X65013000Y-66379740D01*
X65007065Y-66440000D01*
X65013000Y-66500260D01*
X65013000Y-66500267D01*
X65030755Y-66680533D01*
X65100916Y-66911823D01*
X65214851Y-67124982D01*
X65368183Y-67311817D01*
X65415000Y-67350239D01*
X66316348Y-68251587D01*
X66239959Y-68283228D01*
X65963325Y-68468068D01*
X65728068Y-68703325D01*
X65543228Y-68979959D01*
X65415908Y-69287337D01*
X65351000Y-69613648D01*
X65351000Y-69946352D01*
X65415908Y-70272663D01*
X65513997Y-70509470D01*
X59276370Y-70509470D01*
X59223461Y-70504259D01*
X59170552Y-70509470D01*
X59012332Y-70525053D01*
X58809317Y-70586637D01*
X58622217Y-70686644D01*
X58458222Y-70821231D01*
X58323635Y-70985226D01*
X58223628Y-71172326D01*
X58162044Y-71375341D01*
X58141250Y-71586470D01*
X58146462Y-71639389D01*
X58146461Y-90228405D01*
X57564185Y-90003081D01*
X55610515Y-89085628D01*
X53725629Y-88034141D01*
X51918671Y-86853727D01*
X50198454Y-85550138D01*
X48573368Y-84129736D01*
X48426899Y-83982472D01*
X48792070Y-84133732D01*
X49260961Y-84227000D01*
X49739039Y-84227000D01*
X50207930Y-84133732D01*
X50649615Y-83950779D01*
X51047122Y-83685174D01*
X51385174Y-83347122D01*
X51650779Y-82949615D01*
X51833732Y-82507930D01*
X51927000Y-82039039D01*
X51927000Y-81560961D01*
X51833732Y-81092070D01*
X51650779Y-80650385D01*
X51385174Y-80252878D01*
X51047122Y-79914826D01*
X50649615Y-79649221D01*
X50207930Y-79466268D01*
X49739039Y-79373000D01*
X49260961Y-79373000D01*
X48792070Y-79466268D01*
X48350385Y-79649221D01*
X47952878Y-79914826D01*
X47614826Y-80252878D01*
X47349221Y-80650385D01*
X47166268Y-81092070D01*
X47073000Y-81560961D01*
X47073000Y-82039039D01*
X47166268Y-82507930D01*
X47313255Y-82862786D01*
X47051317Y-82599426D01*
X45639723Y-80966672D01*
X44345464Y-79239429D01*
X43174850Y-77426121D01*
X42133568Y-75535553D01*
X41226713Y-73576979D01*
X40458680Y-71559890D01*
X40172406Y-70614388D01*
X43098244Y-73540227D01*
X43135095Y-73585130D01*
X43179998Y-73621981D01*
X43180000Y-73621983D01*
X43254673Y-73683265D01*
X43314316Y-73732213D01*
X43518789Y-73841506D01*
X43587590Y-73862377D01*
X43649577Y-74104235D01*
X43800962Y-74419845D01*
X44011011Y-74699856D01*
X44271651Y-74933509D01*
X44346777Y-74977982D01*
X44342722Y-74984832D01*
X44265885Y-75203327D01*
X44233151Y-75432613D01*
X44245777Y-75663880D01*
X44303278Y-75888241D01*
X44713702Y-77015872D01*
X44813869Y-77224703D01*
X44952853Y-77409980D01*
X45125311Y-77564582D01*
X45324618Y-77682569D01*
X45543113Y-77759406D01*
X45772399Y-77792140D01*
X46003666Y-77779514D01*
X46228027Y-77722013D01*
X47590581Y-77226084D01*
X47799412Y-77125917D01*
X47984689Y-76986933D01*
X48139291Y-76814475D01*
X48257278Y-76615168D01*
X48334115Y-76396673D01*
X48366849Y-76167387D01*
X48354223Y-75936120D01*
X48296722Y-75711759D01*
X47886298Y-74584128D01*
X47786131Y-74375297D01*
X47647147Y-74190020D01*
X47474689Y-74035418D01*
X47275382Y-73917431D01*
X47267872Y-73914790D01*
X47296838Y-73832422D01*
X47346310Y-73485898D01*
X47327227Y-73136380D01*
X47240323Y-72797301D01*
X47088938Y-72481691D01*
X46878889Y-72201680D01*
X46618249Y-71968027D01*
X46331072Y-71798024D01*
X46441787Y-71483191D01*
X46491259Y-71136667D01*
X46472176Y-70787149D01*
X46385272Y-70448070D01*
X46233887Y-70132460D01*
X46023838Y-69852449D01*
X45763198Y-69618796D01*
X45476022Y-69448793D01*
X45586737Y-69133959D01*
X45636209Y-68787435D01*
X45625790Y-68596603D01*
X49838201Y-64384193D01*
X49885012Y-64345776D01*
X50033316Y-64165068D01*
X50200000Y-64181485D01*
X51800000Y-64181485D01*
X51981724Y-64163587D01*
X52156464Y-64110580D01*
X52317505Y-64024501D01*
X52458659Y-63908659D01*
X52513568Y-63841752D01*
X52575888Y-63892896D01*
X52875908Y-64053260D01*
X53201449Y-64152012D01*
X53455159Y-64177000D01*
X53624841Y-64177000D01*
X53878551Y-64152012D01*
X54204092Y-64053260D01*
X54504112Y-63892896D01*
X54767082Y-63677082D01*
X54810000Y-63624786D01*
X54852918Y-63677082D01*
X55115888Y-63892896D01*
X55415908Y-64053260D01*
X55741449Y-64152012D01*
X55995159Y-64177000D01*
X56164841Y-64177000D01*
X56418551Y-64152012D01*
X56744092Y-64053260D01*
X57044112Y-63892896D01*
X57307082Y-63677082D01*
X57522896Y-63414112D01*
X57539045Y-63383900D01*
X57656586Y-63513519D01*
X57882580Y-63681037D01*
X58136913Y-63801246D01*
X58270961Y-63841904D01*
X58493000Y-63719915D01*
X58493000Y-62577000D01*
X58473000Y-62577000D01*
X58473000Y-62323000D01*
X58493000Y-62323000D01*
X58493000Y-62303000D01*
X58747000Y-62303000D01*
X58747000Y-62323000D01*
M02*
