M48
; DRILL file {KiCad (5.1.2)-2} date 20/10/2019 14:28:19
; FORMAT={-:-/ absolute / metric / decimal}
; #@! TF.CreationDate,2019-10-20T14:28:19-03:00
; #@! TF.GenerationSoftware,Kicad,Pcbnew,(5.1.2)-2
FMAT,2
METRIC
T1C0.400
T2C0.800
T3C0.950
T4C1.000
T5C3.000
%
G90
G05
T1
X65.1Y-64.8
X68.0Y-64.8
X68.05Y-66.2
X71.6Y-57.0
X75.55Y-67.05
X76.6Y-57.0
X90.45Y-62.85
T2
X59.3Y-42.65
X69.46Y-42.65
X67.04Y-69.78
X69.58Y-69.78
X72.12Y-69.78
X74.66Y-69.78
X51.0Y-47.21
X51.0Y-62.45
X53.54Y-47.21
X53.54Y-62.45
X56.08Y-47.21
X56.08Y-62.45
X58.62Y-47.21
X58.62Y-62.45
X61.16Y-47.21
X61.16Y-62.45
X63.7Y-47.21
X63.7Y-62.45
X66.24Y-47.21
X66.24Y-62.45
X68.78Y-47.21
X68.78Y-62.45
X71.32Y-47.21
X71.32Y-62.45
X73.86Y-47.21
X73.86Y-62.45
X76.4Y-47.21
X76.4Y-62.45
X78.94Y-47.21
X78.94Y-62.45
X81.48Y-47.21
X81.48Y-62.45
X84.02Y-47.21
X84.02Y-62.45
X86.56Y-47.21
X86.56Y-62.45
X71.65Y-42.65
X81.81Y-42.65
T3
X60.35Y-34.85
X62.85Y-34.85
X65.35Y-34.85
X67.85Y-34.85
X92.34Y-74.798
X93.195Y-72.449
X94.05Y-70.1
X94.905Y-67.751
X95.76Y-65.402
X96.615Y-63.052
X42.025Y-64.054
X42.88Y-66.403
X43.735Y-68.752
X44.59Y-71.102
X45.445Y-73.451
X46.3Y-75.8
X73.9Y-34.85
X76.4Y-34.85
X78.9Y-34.85
T4
X42.05Y-53.7
X49.65Y-53.7
T5
X90.1Y-41.2
X49.5Y-41.2
X49.5Y-81.8
X90.1Y-81.8
T0
M30
