G04 #@! TF.GenerationSoftware,KiCad,Pcbnew,(5.1.2)-2*
G04 #@! TF.CreationDate,2019-10-20T14:27:08-03:00*
G04 #@! TF.ProjectId,placa_potencia,706c6163-615f-4706-9f74-656e6369612e,rev?*
G04 #@! TF.SameCoordinates,Original*
G04 #@! TF.FileFunction,Legend,Bot*
G04 #@! TF.FilePolarity,Positive*
%FSLAX46Y46*%
G04 Gerber Fmt 4.6, Leading zero omitted, Abs format (unit mm)*
G04 Created by KiCad (PCBNEW (5.1.2)-2) date 2019-10-20 14:27:08*
%MOMM*%
%LPD*%
G04 APERTURE LIST*
%ADD10C,0.500000*%
%ADD11C,0.250000*%
%ADD12C,0.010000*%
%ADD13C,0.150000*%
%ADD14C,3.000000*%
%ADD15C,2.000000*%
%ADD16C,2.500000*%
%ADD17C,2.100000*%
G04 APERTURE END LIST*
D10*
X95218303Y-43000000D02*
X93789732Y-43000000D01*
X95611160Y-43857142D02*
X94236160Y-40857142D01*
X93611160Y-43857142D01*
X92611160Y-43857142D02*
X92361160Y-41857142D01*
X92432589Y-42428571D02*
X92254017Y-42142857D01*
X92093303Y-42000000D01*
X91789732Y-41857142D01*
X91504017Y-41857142D01*
X89468303Y-43857142D02*
X89271875Y-42285714D01*
X89379017Y-42000000D01*
X89646875Y-41857142D01*
X90218303Y-41857142D01*
X90521875Y-42000000D01*
X89450446Y-43714285D02*
X89754017Y-43857142D01*
X90468303Y-43857142D01*
X90736160Y-43714285D01*
X90843303Y-43428571D01*
X90807589Y-43142857D01*
X90629017Y-42857142D01*
X90325446Y-42714285D01*
X89611160Y-42714285D01*
X89307589Y-42571428D01*
X87789732Y-41857142D02*
X88164732Y-44857142D01*
X87807589Y-42000000D02*
X87504017Y-41857142D01*
X86932589Y-41857142D01*
X86664732Y-42000000D01*
X86539732Y-42142857D01*
X86432589Y-42428571D01*
X86539732Y-43285714D01*
X86718303Y-43571428D01*
X86879017Y-43714285D01*
X87182589Y-43857142D01*
X87754017Y-43857142D01*
X88021875Y-43714285D01*
X85361160Y-41857142D02*
X84896875Y-43857142D01*
X83932589Y-41857142D02*
X84896875Y-43857142D01*
X85271875Y-44571428D01*
X85432589Y-44714285D01*
X85736160Y-44857142D01*
X83093303Y-40857142D02*
X81379017Y-40857142D01*
X82611160Y-43857142D02*
X82236160Y-40857142D01*
X79593303Y-43714285D02*
X79896875Y-43857142D01*
X80468303Y-43857142D01*
X80736160Y-43714285D01*
X80843303Y-43428571D01*
X80700446Y-42285714D01*
X80521875Y-42000000D01*
X80218303Y-41857142D01*
X79646875Y-41857142D01*
X79379017Y-42000000D01*
X79271875Y-42285714D01*
X79307589Y-42571428D01*
X80771875Y-42857142D01*
X76879017Y-43714285D02*
X77182589Y-43857142D01*
X77754017Y-43857142D01*
X78021875Y-43714285D01*
X78146875Y-43571428D01*
X78254017Y-43285714D01*
X78146875Y-42428571D01*
X77968303Y-42142857D01*
X77807589Y-42000000D01*
X77504017Y-41857142D01*
X76932589Y-41857142D01*
X76664732Y-42000000D01*
X75611160Y-43857142D02*
X75236160Y-40857142D01*
X74325446Y-43857142D02*
X74129017Y-42285714D01*
X74236160Y-42000000D01*
X74504017Y-41857142D01*
X74932589Y-41857142D01*
X75236160Y-42000000D01*
X75396875Y-42142857D01*
D11*
X92938095Y-47228571D02*
X92938095Y-45728571D01*
X92700000Y-45728571D01*
X92557142Y-45800000D01*
X92461904Y-45942857D01*
X92414285Y-46085714D01*
X92366666Y-46371428D01*
X92366666Y-46585714D01*
X92414285Y-46871428D01*
X92461904Y-47014285D01*
X92557142Y-47157142D01*
X92700000Y-47228571D01*
X92938095Y-47228571D01*
X91938095Y-47228571D02*
X91938095Y-46228571D01*
X91938095Y-45728571D02*
X91985714Y-45800000D01*
X91938095Y-45871428D01*
X91890476Y-45800000D01*
X91938095Y-45728571D01*
X91938095Y-45871428D01*
X91509523Y-47157142D02*
X91414285Y-47228571D01*
X91223809Y-47228571D01*
X91128571Y-47157142D01*
X91080952Y-47014285D01*
X91080952Y-46942857D01*
X91128571Y-46800000D01*
X91223809Y-46728571D01*
X91366666Y-46728571D01*
X91461904Y-46657142D01*
X91509523Y-46514285D01*
X91509523Y-46442857D01*
X91461904Y-46300000D01*
X91366666Y-46228571D01*
X91223809Y-46228571D01*
X91128571Y-46300000D01*
X90271428Y-47157142D02*
X90366666Y-47228571D01*
X90557142Y-47228571D01*
X90652380Y-47157142D01*
X90700000Y-47014285D01*
X90700000Y-46442857D01*
X90652380Y-46300000D01*
X90557142Y-46228571D01*
X90366666Y-46228571D01*
X90271428Y-46300000D01*
X90223809Y-46442857D01*
X90223809Y-46585714D01*
X90700000Y-46728571D01*
X89795238Y-46228571D02*
X89795238Y-47228571D01*
X89795238Y-46371428D02*
X89747619Y-46300000D01*
X89652380Y-46228571D01*
X89509523Y-46228571D01*
X89414285Y-46300000D01*
X89366666Y-46442857D01*
X89366666Y-47228571D01*
X89842857Y-45871428D02*
X89795238Y-45800000D01*
X89700000Y-45728571D01*
X89509523Y-45871428D01*
X89414285Y-45800000D01*
X89366666Y-45728571D01*
X88461904Y-47228571D02*
X88461904Y-46442857D01*
X88509523Y-46300000D01*
X88604761Y-46228571D01*
X88795238Y-46228571D01*
X88890476Y-46300000D01*
X88461904Y-47157142D02*
X88557142Y-47228571D01*
X88795238Y-47228571D01*
X88890476Y-47157142D01*
X88938095Y-47014285D01*
X88938095Y-46871428D01*
X88890476Y-46728571D01*
X88795238Y-46657142D01*
X88557142Y-46657142D01*
X88461904Y-46585714D01*
X87557142Y-47228571D02*
X87557142Y-45728571D01*
X87557142Y-47157142D02*
X87652380Y-47228571D01*
X87842857Y-47228571D01*
X87938095Y-47157142D01*
X87985714Y-47085714D01*
X88033333Y-46942857D01*
X88033333Y-46514285D01*
X87985714Y-46371428D01*
X87938095Y-46300000D01*
X87842857Y-46228571D01*
X87652380Y-46228571D01*
X87557142Y-46300000D01*
X86938095Y-47228571D02*
X87033333Y-47157142D01*
X87080952Y-47085714D01*
X87128571Y-46942857D01*
X87128571Y-46514285D01*
X87080952Y-46371428D01*
X87033333Y-46300000D01*
X86938095Y-46228571D01*
X86795238Y-46228571D01*
X86700000Y-46300000D01*
X86652380Y-46371428D01*
X86604761Y-46514285D01*
X86604761Y-46942857D01*
X86652380Y-47085714D01*
X86700000Y-47157142D01*
X86795238Y-47228571D01*
X86938095Y-47228571D01*
X85033333Y-47157142D02*
X85128571Y-47228571D01*
X85319047Y-47228571D01*
X85414285Y-47157142D01*
X85461904Y-47014285D01*
X85461904Y-46442857D01*
X85414285Y-46300000D01*
X85319047Y-46228571D01*
X85128571Y-46228571D01*
X85033333Y-46300000D01*
X84985714Y-46442857D01*
X84985714Y-46585714D01*
X85461904Y-46728571D01*
X84557142Y-46228571D02*
X84557142Y-47228571D01*
X84557142Y-46371428D02*
X84509523Y-46300000D01*
X84414285Y-46228571D01*
X84271428Y-46228571D01*
X84176190Y-46300000D01*
X84128571Y-46442857D01*
X84128571Y-47228571D01*
X82890476Y-47228571D02*
X82890476Y-45728571D01*
X82509523Y-45728571D01*
X82414285Y-45800000D01*
X82366666Y-45871428D01*
X82319047Y-46014285D01*
X82319047Y-46228571D01*
X82366666Y-46371428D01*
X82414285Y-46442857D01*
X82509523Y-46514285D01*
X82890476Y-46514285D01*
X81461904Y-47228571D02*
X81461904Y-46442857D01*
X81509523Y-46300000D01*
X81604761Y-46228571D01*
X81795238Y-46228571D01*
X81890476Y-46300000D01*
X81461904Y-47157142D02*
X81557142Y-47228571D01*
X81795238Y-47228571D01*
X81890476Y-47157142D01*
X81938095Y-47014285D01*
X81938095Y-46871428D01*
X81890476Y-46728571D01*
X81795238Y-46657142D01*
X81557142Y-46657142D01*
X81461904Y-46585714D01*
X80985714Y-47228571D02*
X80985714Y-46228571D01*
X80985714Y-46514285D02*
X80938095Y-46371428D01*
X80890476Y-46300000D01*
X80795238Y-46228571D01*
X80700000Y-46228571D01*
X79938095Y-47228571D02*
X79938095Y-46442857D01*
X79985714Y-46300000D01*
X80080952Y-46228571D01*
X80271428Y-46228571D01*
X80366666Y-46300000D01*
X79938095Y-47157142D02*
X80033333Y-47228571D01*
X80271428Y-47228571D01*
X80366666Y-47157142D01*
X80414285Y-47014285D01*
X80414285Y-46871428D01*
X80366666Y-46728571D01*
X80271428Y-46657142D01*
X80033333Y-46657142D01*
X79938095Y-46585714D01*
X79033333Y-46228571D02*
X79033333Y-47442857D01*
X79080952Y-47585714D01*
X79128571Y-47657142D01*
X79223809Y-47728571D01*
X79366666Y-47728571D01*
X79461904Y-47657142D01*
X79033333Y-47157142D02*
X79128571Y-47228571D01*
X79319047Y-47228571D01*
X79414285Y-47157142D01*
X79461904Y-47085714D01*
X79509523Y-46942857D01*
X79509523Y-46514285D01*
X79461904Y-46371428D01*
X79414285Y-46300000D01*
X79319047Y-46228571D01*
X79128571Y-46228571D01*
X79033333Y-46300000D01*
X78128571Y-46228571D02*
X78128571Y-47228571D01*
X78557142Y-46228571D02*
X78557142Y-47014285D01*
X78509523Y-47157142D01*
X78414285Y-47228571D01*
X78271428Y-47228571D01*
X78176190Y-47157142D01*
X78128571Y-47085714D01*
X77223809Y-47228571D02*
X77223809Y-46442857D01*
X77271428Y-46300000D01*
X77366666Y-46228571D01*
X77557142Y-46228571D01*
X77652380Y-46300000D01*
X77223809Y-47157142D02*
X77319047Y-47228571D01*
X77557142Y-47228571D01*
X77652380Y-47157142D01*
X77700000Y-47014285D01*
X77700000Y-46871428D01*
X77652380Y-46728571D01*
X77557142Y-46657142D01*
X77319047Y-46657142D01*
X77223809Y-46585714D01*
X76842857Y-46228571D02*
X76604761Y-47228571D01*
X76366666Y-46228571D02*
X76604761Y-47228571D01*
X76700000Y-47585714D01*
X76747619Y-47657142D01*
X76842857Y-47728571D01*
D12*
G36*
X107273043Y-79476571D02*
G01*
X107176768Y-79500809D01*
X107090184Y-79543641D01*
X107015373Y-79603419D01*
X106954418Y-79678494D01*
X106909399Y-79767220D01*
X106883136Y-79863530D01*
X106877286Y-79960795D01*
X106892140Y-80054654D01*
X106925840Y-80142511D01*
X106976528Y-80221770D01*
X107042345Y-80289836D01*
X107121434Y-80344112D01*
X107211934Y-80382002D01*
X107263200Y-80394426D01*
X107307698Y-80401947D01*
X107341999Y-80404919D01*
X107374960Y-80403094D01*
X107415434Y-80396225D01*
X107448531Y-80389250D01*
X107541947Y-80357741D01*
X107625619Y-80306617D01*
X107697665Y-80237429D01*
X107756200Y-80151728D01*
X107770148Y-80124489D01*
X107786586Y-80088122D01*
X107796894Y-80057582D01*
X107802460Y-80025450D01*
X107804669Y-79984307D01*
X107804948Y-79938222D01*
X107800861Y-79853865D01*
X107787446Y-79784586D01*
X107762256Y-79723961D01*
X107722846Y-79665567D01*
X107684298Y-79621302D01*
X107612406Y-79555484D01*
X107537313Y-79510053D01*
X107454562Y-79482850D01*
X107376928Y-79472576D01*
X107273043Y-79476571D01*
X107273043Y-79476571D01*
G37*
X107273043Y-79476571D02*
X107176768Y-79500809D01*
X107090184Y-79543641D01*
X107015373Y-79603419D01*
X106954418Y-79678494D01*
X106909399Y-79767220D01*
X106883136Y-79863530D01*
X106877286Y-79960795D01*
X106892140Y-80054654D01*
X106925840Y-80142511D01*
X106976528Y-80221770D01*
X107042345Y-80289836D01*
X107121434Y-80344112D01*
X107211934Y-80382002D01*
X107263200Y-80394426D01*
X107307698Y-80401947D01*
X107341999Y-80404919D01*
X107374960Y-80403094D01*
X107415434Y-80396225D01*
X107448531Y-80389250D01*
X107541947Y-80357741D01*
X107625619Y-80306617D01*
X107697665Y-80237429D01*
X107756200Y-80151728D01*
X107770148Y-80124489D01*
X107786586Y-80088122D01*
X107796894Y-80057582D01*
X107802460Y-80025450D01*
X107804669Y-79984307D01*
X107804948Y-79938222D01*
X107800861Y-79853865D01*
X107787446Y-79784586D01*
X107762256Y-79723961D01*
X107722846Y-79665567D01*
X107684298Y-79621302D01*
X107612406Y-79555484D01*
X107537313Y-79510053D01*
X107454562Y-79482850D01*
X107376928Y-79472576D01*
X107273043Y-79476571D01*
G36*
X98813493Y-81922245D02*
G01*
X98813474Y-82156662D01*
X98813448Y-82369603D01*
X98813375Y-82562168D01*
X98813218Y-82735459D01*
X98812936Y-82890576D01*
X98812491Y-83028620D01*
X98811844Y-83150692D01*
X98810955Y-83257894D01*
X98809787Y-83351326D01*
X98808299Y-83432090D01*
X98806454Y-83501286D01*
X98804211Y-83560015D01*
X98801531Y-83609379D01*
X98798377Y-83650478D01*
X98794708Y-83684413D01*
X98790487Y-83712286D01*
X98785673Y-83735198D01*
X98780227Y-83754249D01*
X98774112Y-83770540D01*
X98767288Y-83785173D01*
X98759715Y-83799249D01*
X98751355Y-83813868D01*
X98746161Y-83822974D01*
X98711896Y-83883689D01*
X99570045Y-83883689D01*
X99570045Y-83787733D01*
X99570776Y-83744370D01*
X99572728Y-83711205D01*
X99575537Y-83693424D01*
X99576779Y-83691778D01*
X99588201Y-83698662D01*
X99610916Y-83716505D01*
X99633615Y-83735879D01*
X99688200Y-83776614D01*
X99757679Y-83817617D01*
X99834730Y-83855123D01*
X99912035Y-83885364D01*
X99942887Y-83895012D01*
X100011384Y-83909578D01*
X100094236Y-83919539D01*
X100183629Y-83924583D01*
X100271752Y-83924396D01*
X100350793Y-83918666D01*
X100388489Y-83912858D01*
X100526586Y-83874797D01*
X100653887Y-83817073D01*
X100769708Y-83740211D01*
X100873363Y-83644739D01*
X100964167Y-83531179D01*
X101030969Y-83420381D01*
X101085836Y-83303625D01*
X101127837Y-83184276D01*
X101157833Y-83058283D01*
X101176689Y-82921594D01*
X101185268Y-82770158D01*
X101185994Y-82692711D01*
X101183900Y-82635934D01*
X100354783Y-82635934D01*
X100354576Y-82729002D01*
X100351663Y-82816692D01*
X100346000Y-82893772D01*
X100337545Y-82955009D01*
X100334962Y-82967350D01*
X100303160Y-83074633D01*
X100261502Y-83161658D01*
X100209637Y-83228642D01*
X100147219Y-83275805D01*
X100073900Y-83303365D01*
X99989331Y-83311541D01*
X99893165Y-83300551D01*
X99829689Y-83284829D01*
X99780546Y-83266639D01*
X99726417Y-83240791D01*
X99685756Y-83217089D01*
X99615200Y-83170721D01*
X99615200Y-82020530D01*
X99682608Y-81976962D01*
X99761133Y-81936040D01*
X99845319Y-81909389D01*
X99930443Y-81897465D01*
X100011784Y-81900722D01*
X100084620Y-81919615D01*
X100116574Y-81935184D01*
X100174499Y-81978181D01*
X100223456Y-82034953D01*
X100264610Y-82107575D01*
X100299126Y-82198121D01*
X100328167Y-82308666D01*
X100329448Y-82314533D01*
X100339619Y-82376788D01*
X100347261Y-82454594D01*
X100352330Y-82542720D01*
X100354783Y-82635934D01*
X101183900Y-82635934D01*
X101178143Y-82479895D01*
X101156198Y-82284059D01*
X101120214Y-82105332D01*
X101070241Y-81943845D01*
X101006332Y-81799726D01*
X100928538Y-81673106D01*
X100836911Y-81564115D01*
X100731503Y-81472883D01*
X100686338Y-81441932D01*
X100585389Y-81385785D01*
X100482099Y-81346174D01*
X100372011Y-81322014D01*
X100250670Y-81312219D01*
X100158164Y-81313265D01*
X100028510Y-81324231D01*
X99915916Y-81346046D01*
X99817125Y-81379714D01*
X99728879Y-81426236D01*
X99680014Y-81460448D01*
X99650647Y-81482362D01*
X99628957Y-81497333D01*
X99620747Y-81501733D01*
X99619132Y-81490904D01*
X99617841Y-81460251D01*
X99616862Y-81412526D01*
X99616183Y-81350479D01*
X99615790Y-81276862D01*
X99615670Y-81194427D01*
X99615812Y-81105925D01*
X99616203Y-81014107D01*
X99616829Y-80921724D01*
X99617680Y-80831528D01*
X99618740Y-80746271D01*
X99619999Y-80668703D01*
X99621444Y-80601576D01*
X99623062Y-80547641D01*
X99624839Y-80509650D01*
X99625331Y-80502667D01*
X99632908Y-80432251D01*
X99644469Y-80377102D01*
X99662208Y-80329981D01*
X99688318Y-80283647D01*
X99694585Y-80274067D01*
X99719017Y-80237378D01*
X98813689Y-80237378D01*
X98813493Y-81922245D01*
X98813493Y-81922245D01*
G37*
X98813493Y-81922245D02*
X98813474Y-82156662D01*
X98813448Y-82369603D01*
X98813375Y-82562168D01*
X98813218Y-82735459D01*
X98812936Y-82890576D01*
X98812491Y-83028620D01*
X98811844Y-83150692D01*
X98810955Y-83257894D01*
X98809787Y-83351326D01*
X98808299Y-83432090D01*
X98806454Y-83501286D01*
X98804211Y-83560015D01*
X98801531Y-83609379D01*
X98798377Y-83650478D01*
X98794708Y-83684413D01*
X98790487Y-83712286D01*
X98785673Y-83735198D01*
X98780227Y-83754249D01*
X98774112Y-83770540D01*
X98767288Y-83785173D01*
X98759715Y-83799249D01*
X98751355Y-83813868D01*
X98746161Y-83822974D01*
X98711896Y-83883689D01*
X99570045Y-83883689D01*
X99570045Y-83787733D01*
X99570776Y-83744370D01*
X99572728Y-83711205D01*
X99575537Y-83693424D01*
X99576779Y-83691778D01*
X99588201Y-83698662D01*
X99610916Y-83716505D01*
X99633615Y-83735879D01*
X99688200Y-83776614D01*
X99757679Y-83817617D01*
X99834730Y-83855123D01*
X99912035Y-83885364D01*
X99942887Y-83895012D01*
X100011384Y-83909578D01*
X100094236Y-83919539D01*
X100183629Y-83924583D01*
X100271752Y-83924396D01*
X100350793Y-83918666D01*
X100388489Y-83912858D01*
X100526586Y-83874797D01*
X100653887Y-83817073D01*
X100769708Y-83740211D01*
X100873363Y-83644739D01*
X100964167Y-83531179D01*
X101030969Y-83420381D01*
X101085836Y-83303625D01*
X101127837Y-83184276D01*
X101157833Y-83058283D01*
X101176689Y-82921594D01*
X101185268Y-82770158D01*
X101185994Y-82692711D01*
X101183900Y-82635934D01*
X100354783Y-82635934D01*
X100354576Y-82729002D01*
X100351663Y-82816692D01*
X100346000Y-82893772D01*
X100337545Y-82955009D01*
X100334962Y-82967350D01*
X100303160Y-83074633D01*
X100261502Y-83161658D01*
X100209637Y-83228642D01*
X100147219Y-83275805D01*
X100073900Y-83303365D01*
X99989331Y-83311541D01*
X99893165Y-83300551D01*
X99829689Y-83284829D01*
X99780546Y-83266639D01*
X99726417Y-83240791D01*
X99685756Y-83217089D01*
X99615200Y-83170721D01*
X99615200Y-82020530D01*
X99682608Y-81976962D01*
X99761133Y-81936040D01*
X99845319Y-81909389D01*
X99930443Y-81897465D01*
X100011784Y-81900722D01*
X100084620Y-81919615D01*
X100116574Y-81935184D01*
X100174499Y-81978181D01*
X100223456Y-82034953D01*
X100264610Y-82107575D01*
X100299126Y-82198121D01*
X100328167Y-82308666D01*
X100329448Y-82314533D01*
X100339619Y-82376788D01*
X100347261Y-82454594D01*
X100352330Y-82542720D01*
X100354783Y-82635934D01*
X101183900Y-82635934D01*
X101178143Y-82479895D01*
X101156198Y-82284059D01*
X101120214Y-82105332D01*
X101070241Y-81943845D01*
X101006332Y-81799726D01*
X100928538Y-81673106D01*
X100836911Y-81564115D01*
X100731503Y-81472883D01*
X100686338Y-81441932D01*
X100585389Y-81385785D01*
X100482099Y-81346174D01*
X100372011Y-81322014D01*
X100250670Y-81312219D01*
X100158164Y-81313265D01*
X100028510Y-81324231D01*
X99915916Y-81346046D01*
X99817125Y-81379714D01*
X99728879Y-81426236D01*
X99680014Y-81460448D01*
X99650647Y-81482362D01*
X99628957Y-81497333D01*
X99620747Y-81501733D01*
X99619132Y-81490904D01*
X99617841Y-81460251D01*
X99616862Y-81412526D01*
X99616183Y-81350479D01*
X99615790Y-81276862D01*
X99615670Y-81194427D01*
X99615812Y-81105925D01*
X99616203Y-81014107D01*
X99616829Y-80921724D01*
X99617680Y-80831528D01*
X99618740Y-80746271D01*
X99619999Y-80668703D01*
X99621444Y-80601576D01*
X99623062Y-80547641D01*
X99624839Y-80509650D01*
X99625331Y-80502667D01*
X99632908Y-80432251D01*
X99644469Y-80377102D01*
X99662208Y-80329981D01*
X99688318Y-80283647D01*
X99694585Y-80274067D01*
X99719017Y-80237378D01*
X98813689Y-80237378D01*
X98813493Y-81922245D01*
G36*
X102326426Y-81316552D02*
G01*
X102174508Y-81336567D01*
X102039244Y-81370202D01*
X101919761Y-81417725D01*
X101815185Y-81479405D01*
X101737576Y-81542965D01*
X101668735Y-81617099D01*
X101614994Y-81696871D01*
X101572090Y-81789091D01*
X101556616Y-81832161D01*
X101543756Y-81871142D01*
X101532554Y-81907289D01*
X101522880Y-81942434D01*
X101514604Y-81978410D01*
X101507597Y-82017050D01*
X101501728Y-82060185D01*
X101496869Y-82109649D01*
X101492890Y-82167273D01*
X101489660Y-82234891D01*
X101487051Y-82314334D01*
X101484933Y-82407436D01*
X101483176Y-82516027D01*
X101481651Y-82641942D01*
X101480228Y-82787012D01*
X101478975Y-82929778D01*
X101477649Y-83085968D01*
X101476444Y-83221239D01*
X101475234Y-83337246D01*
X101473894Y-83435645D01*
X101472300Y-83518093D01*
X101470325Y-83586246D01*
X101467844Y-83641760D01*
X101464731Y-83686292D01*
X101460862Y-83721498D01*
X101456111Y-83749034D01*
X101450352Y-83770556D01*
X101443461Y-83787722D01*
X101435311Y-83802186D01*
X101425777Y-83815606D01*
X101414734Y-83829638D01*
X101410434Y-83835071D01*
X101394614Y-83857910D01*
X101387578Y-83873463D01*
X101387556Y-83873922D01*
X101398433Y-83876121D01*
X101429418Y-83878147D01*
X101478043Y-83879942D01*
X101541837Y-83881451D01*
X101618331Y-83882616D01*
X101705056Y-83883380D01*
X101799543Y-83883686D01*
X101810450Y-83883689D01*
X102233343Y-83883689D01*
X102236605Y-83787622D01*
X102239867Y-83691556D01*
X102301956Y-83742543D01*
X102399286Y-83810057D01*
X102509187Y-83864749D01*
X102595651Y-83894978D01*
X102664722Y-83909666D01*
X102748075Y-83919659D01*
X102837841Y-83924646D01*
X102926155Y-83924313D01*
X103005149Y-83918351D01*
X103041378Y-83912638D01*
X103181397Y-83874776D01*
X103307822Y-83819932D01*
X103419740Y-83748924D01*
X103516238Y-83662568D01*
X103596400Y-83561679D01*
X103659313Y-83447076D01*
X103703688Y-83320984D01*
X103716022Y-83264401D01*
X103723632Y-83202202D01*
X103727261Y-83127363D01*
X103727755Y-83093467D01*
X103727690Y-83090282D01*
X102967752Y-83090282D01*
X102958459Y-83165333D01*
X102930272Y-83229160D01*
X102881803Y-83284798D01*
X102876746Y-83289211D01*
X102828452Y-83324037D01*
X102776743Y-83346620D01*
X102716011Y-83358540D01*
X102640648Y-83361383D01*
X102622541Y-83360978D01*
X102568722Y-83358325D01*
X102528692Y-83352909D01*
X102493676Y-83342745D01*
X102454897Y-83325850D01*
X102444255Y-83320672D01*
X102383604Y-83284844D01*
X102336785Y-83242212D01*
X102324048Y-83226973D01*
X102279378Y-83170462D01*
X102279378Y-82974586D01*
X102279914Y-82895939D01*
X102281604Y-82837988D01*
X102284572Y-82798875D01*
X102288943Y-82776741D01*
X102293028Y-82770274D01*
X102308953Y-82767111D01*
X102342736Y-82764488D01*
X102389660Y-82762655D01*
X102445007Y-82761857D01*
X102453894Y-82761842D01*
X102574670Y-82767096D01*
X102677340Y-82783263D01*
X102763894Y-82810961D01*
X102836319Y-82850808D01*
X102891249Y-82897758D01*
X102935796Y-82955645D01*
X102960520Y-83018693D01*
X102967752Y-83090282D01*
X103727690Y-83090282D01*
X103725822Y-82999712D01*
X103717478Y-82920812D01*
X103701232Y-82849590D01*
X103675595Y-82778864D01*
X103651599Y-82726493D01*
X103592980Y-82631196D01*
X103514883Y-82543170D01*
X103419685Y-82464017D01*
X103309762Y-82395340D01*
X103187490Y-82338741D01*
X103055245Y-82295821D01*
X102990578Y-82280882D01*
X102854396Y-82258777D01*
X102705951Y-82244194D01*
X102554495Y-82237813D01*
X102427936Y-82239445D01*
X102266050Y-82246224D01*
X102273470Y-82187245D01*
X102292762Y-82088092D01*
X102323896Y-82007372D01*
X102367731Y-81944466D01*
X102425129Y-81898756D01*
X102496952Y-81869622D01*
X102584059Y-81856447D01*
X102687314Y-81858611D01*
X102725289Y-81862612D01*
X102866480Y-81887780D01*
X103003293Y-81928814D01*
X103097822Y-81966815D01*
X103142982Y-81986190D01*
X103181415Y-82001760D01*
X103207766Y-82011405D01*
X103215454Y-82013452D01*
X103225198Y-82004374D01*
X103241917Y-81975405D01*
X103265768Y-81926217D01*
X103296907Y-81856484D01*
X103335493Y-81765879D01*
X103342090Y-81750089D01*
X103372147Y-81677772D01*
X103399126Y-81612425D01*
X103421864Y-81556906D01*
X103439194Y-81514072D01*
X103449952Y-81486781D01*
X103453059Y-81477942D01*
X103443060Y-81473187D01*
X103416783Y-81467910D01*
X103388511Y-81464231D01*
X103358354Y-81459474D01*
X103310567Y-81450028D01*
X103249388Y-81436820D01*
X103179054Y-81420776D01*
X103103806Y-81402820D01*
X103075245Y-81395797D01*
X102970184Y-81370209D01*
X102882520Y-81350147D01*
X102807932Y-81334969D01*
X102742097Y-81324035D01*
X102680693Y-81316704D01*
X102619398Y-81312335D01*
X102553890Y-81310287D01*
X102495872Y-81309889D01*
X102326426Y-81316552D01*
X102326426Y-81316552D01*
G37*
X102326426Y-81316552D02*
X102174508Y-81336567D01*
X102039244Y-81370202D01*
X101919761Y-81417725D01*
X101815185Y-81479405D01*
X101737576Y-81542965D01*
X101668735Y-81617099D01*
X101614994Y-81696871D01*
X101572090Y-81789091D01*
X101556616Y-81832161D01*
X101543756Y-81871142D01*
X101532554Y-81907289D01*
X101522880Y-81942434D01*
X101514604Y-81978410D01*
X101507597Y-82017050D01*
X101501728Y-82060185D01*
X101496869Y-82109649D01*
X101492890Y-82167273D01*
X101489660Y-82234891D01*
X101487051Y-82314334D01*
X101484933Y-82407436D01*
X101483176Y-82516027D01*
X101481651Y-82641942D01*
X101480228Y-82787012D01*
X101478975Y-82929778D01*
X101477649Y-83085968D01*
X101476444Y-83221239D01*
X101475234Y-83337246D01*
X101473894Y-83435645D01*
X101472300Y-83518093D01*
X101470325Y-83586246D01*
X101467844Y-83641760D01*
X101464731Y-83686292D01*
X101460862Y-83721498D01*
X101456111Y-83749034D01*
X101450352Y-83770556D01*
X101443461Y-83787722D01*
X101435311Y-83802186D01*
X101425777Y-83815606D01*
X101414734Y-83829638D01*
X101410434Y-83835071D01*
X101394614Y-83857910D01*
X101387578Y-83873463D01*
X101387556Y-83873922D01*
X101398433Y-83876121D01*
X101429418Y-83878147D01*
X101478043Y-83879942D01*
X101541837Y-83881451D01*
X101618331Y-83882616D01*
X101705056Y-83883380D01*
X101799543Y-83883686D01*
X101810450Y-83883689D01*
X102233343Y-83883689D01*
X102236605Y-83787622D01*
X102239867Y-83691556D01*
X102301956Y-83742543D01*
X102399286Y-83810057D01*
X102509187Y-83864749D01*
X102595651Y-83894978D01*
X102664722Y-83909666D01*
X102748075Y-83919659D01*
X102837841Y-83924646D01*
X102926155Y-83924313D01*
X103005149Y-83918351D01*
X103041378Y-83912638D01*
X103181397Y-83874776D01*
X103307822Y-83819932D01*
X103419740Y-83748924D01*
X103516238Y-83662568D01*
X103596400Y-83561679D01*
X103659313Y-83447076D01*
X103703688Y-83320984D01*
X103716022Y-83264401D01*
X103723632Y-83202202D01*
X103727261Y-83127363D01*
X103727755Y-83093467D01*
X103727690Y-83090282D01*
X102967752Y-83090282D01*
X102958459Y-83165333D01*
X102930272Y-83229160D01*
X102881803Y-83284798D01*
X102876746Y-83289211D01*
X102828452Y-83324037D01*
X102776743Y-83346620D01*
X102716011Y-83358540D01*
X102640648Y-83361383D01*
X102622541Y-83360978D01*
X102568722Y-83358325D01*
X102528692Y-83352909D01*
X102493676Y-83342745D01*
X102454897Y-83325850D01*
X102444255Y-83320672D01*
X102383604Y-83284844D01*
X102336785Y-83242212D01*
X102324048Y-83226973D01*
X102279378Y-83170462D01*
X102279378Y-82974586D01*
X102279914Y-82895939D01*
X102281604Y-82837988D01*
X102284572Y-82798875D01*
X102288943Y-82776741D01*
X102293028Y-82770274D01*
X102308953Y-82767111D01*
X102342736Y-82764488D01*
X102389660Y-82762655D01*
X102445007Y-82761857D01*
X102453894Y-82761842D01*
X102574670Y-82767096D01*
X102677340Y-82783263D01*
X102763894Y-82810961D01*
X102836319Y-82850808D01*
X102891249Y-82897758D01*
X102935796Y-82955645D01*
X102960520Y-83018693D01*
X102967752Y-83090282D01*
X103727690Y-83090282D01*
X103725822Y-82999712D01*
X103717478Y-82920812D01*
X103701232Y-82849590D01*
X103675595Y-82778864D01*
X103651599Y-82726493D01*
X103592980Y-82631196D01*
X103514883Y-82543170D01*
X103419685Y-82464017D01*
X103309762Y-82395340D01*
X103187490Y-82338741D01*
X103055245Y-82295821D01*
X102990578Y-82280882D01*
X102854396Y-82258777D01*
X102705951Y-82244194D01*
X102554495Y-82237813D01*
X102427936Y-82239445D01*
X102266050Y-82246224D01*
X102273470Y-82187245D01*
X102292762Y-82088092D01*
X102323896Y-82007372D01*
X102367731Y-81944466D01*
X102425129Y-81898756D01*
X102496952Y-81869622D01*
X102584059Y-81856447D01*
X102687314Y-81858611D01*
X102725289Y-81862612D01*
X102866480Y-81887780D01*
X103003293Y-81928814D01*
X103097822Y-81966815D01*
X103142982Y-81986190D01*
X103181415Y-82001760D01*
X103207766Y-82011405D01*
X103215454Y-82013452D01*
X103225198Y-82004374D01*
X103241917Y-81975405D01*
X103265768Y-81926217D01*
X103296907Y-81856484D01*
X103335493Y-81765879D01*
X103342090Y-81750089D01*
X103372147Y-81677772D01*
X103399126Y-81612425D01*
X103421864Y-81556906D01*
X103439194Y-81514072D01*
X103449952Y-81486781D01*
X103453059Y-81477942D01*
X103443060Y-81473187D01*
X103416783Y-81467910D01*
X103388511Y-81464231D01*
X103358354Y-81459474D01*
X103310567Y-81450028D01*
X103249388Y-81436820D01*
X103179054Y-81420776D01*
X103103806Y-81402820D01*
X103075245Y-81395797D01*
X102970184Y-81370209D01*
X102882520Y-81350147D01*
X102807932Y-81334969D01*
X102742097Y-81324035D01*
X102680693Y-81316704D01*
X102619398Y-81312335D01*
X102553890Y-81310287D01*
X102495872Y-81309889D01*
X102326426Y-81316552D01*
G36*
X104671571Y-80399071D02*
G01*
X104511430Y-80420245D01*
X104347490Y-80460385D01*
X104177687Y-80519889D01*
X103999957Y-80599154D01*
X103988690Y-80604699D01*
X103930995Y-80632725D01*
X103879448Y-80656802D01*
X103837809Y-80675249D01*
X103809838Y-80686386D01*
X103800267Y-80688933D01*
X103781050Y-80693941D01*
X103776439Y-80698147D01*
X103781542Y-80708580D01*
X103797582Y-80734868D01*
X103822712Y-80774257D01*
X103855086Y-80823991D01*
X103892857Y-80881315D01*
X103934178Y-80943476D01*
X103977202Y-81007718D01*
X104020083Y-81071285D01*
X104060974Y-81131425D01*
X104098029Y-81185380D01*
X104129400Y-81230397D01*
X104153241Y-81263721D01*
X104167706Y-81282597D01*
X104169691Y-81284787D01*
X104179809Y-81280138D01*
X104202150Y-81262962D01*
X104232720Y-81236440D01*
X104248464Y-81221964D01*
X104344953Y-81146682D01*
X104451664Y-81091241D01*
X104567168Y-81056141D01*
X104690038Y-81041880D01*
X104759439Y-81043051D01*
X104880577Y-81060212D01*
X104989795Y-81096094D01*
X105087418Y-81150959D01*
X105173772Y-81225070D01*
X105249185Y-81318688D01*
X105313982Y-81432076D01*
X105351399Y-81518667D01*
X105395252Y-81654366D01*
X105427572Y-81801850D01*
X105448443Y-81957314D01*
X105457949Y-82116956D01*
X105456173Y-82276973D01*
X105443197Y-82433561D01*
X105419106Y-82582918D01*
X105383982Y-82721240D01*
X105337908Y-82844724D01*
X105321627Y-82878978D01*
X105253380Y-82993064D01*
X105172921Y-83089557D01*
X105081430Y-83167670D01*
X104980089Y-83226617D01*
X104870080Y-83265612D01*
X104752585Y-83283868D01*
X104711117Y-83285211D01*
X104589559Y-83274290D01*
X104469122Y-83241474D01*
X104351334Y-83187439D01*
X104237723Y-83112865D01*
X104146315Y-83034539D01*
X104099785Y-82990008D01*
X103918517Y-83287271D01*
X103873420Y-83361433D01*
X103832181Y-83429646D01*
X103796265Y-83489459D01*
X103767134Y-83538420D01*
X103746250Y-83574079D01*
X103735076Y-83593984D01*
X103733625Y-83597079D01*
X103741854Y-83606718D01*
X103767433Y-83623999D01*
X103807127Y-83647283D01*
X103857703Y-83674934D01*
X103915926Y-83705315D01*
X103978563Y-83736790D01*
X104042379Y-83767722D01*
X104104140Y-83796473D01*
X104160612Y-83821408D01*
X104208562Y-83840889D01*
X104232014Y-83849318D01*
X104365779Y-83887133D01*
X104503673Y-83912136D01*
X104651378Y-83925140D01*
X104778167Y-83927468D01*
X104846122Y-83926373D01*
X104911723Y-83924275D01*
X104969153Y-83921434D01*
X105012597Y-83918106D01*
X105026702Y-83916422D01*
X105165716Y-83887587D01*
X105307243Y-83842468D01*
X105444725Y-83783750D01*
X105571606Y-83714120D01*
X105649111Y-83661441D01*
X105776519Y-83553239D01*
X105894822Y-83426671D01*
X106001828Y-83284866D01*
X106095348Y-83130951D01*
X106173190Y-82968053D01*
X106217044Y-82850756D01*
X106267292Y-82667128D01*
X106300791Y-82472581D01*
X106317551Y-82271325D01*
X106317584Y-82067568D01*
X106300899Y-81865521D01*
X106267507Y-81669392D01*
X106217420Y-81483391D01*
X106213603Y-81471803D01*
X106150719Y-81309750D01*
X106073972Y-81161832D01*
X105980758Y-81023865D01*
X105868473Y-80891661D01*
X105824608Y-80846399D01*
X105688466Y-80722457D01*
X105548509Y-80619915D01*
X105402589Y-80537656D01*
X105248558Y-80474564D01*
X105084268Y-80429523D01*
X104988711Y-80412033D01*
X104829977Y-80396466D01*
X104671571Y-80399071D01*
X104671571Y-80399071D01*
G37*
X104671571Y-80399071D02*
X104511430Y-80420245D01*
X104347490Y-80460385D01*
X104177687Y-80519889D01*
X103999957Y-80599154D01*
X103988690Y-80604699D01*
X103930995Y-80632725D01*
X103879448Y-80656802D01*
X103837809Y-80675249D01*
X103809838Y-80686386D01*
X103800267Y-80688933D01*
X103781050Y-80693941D01*
X103776439Y-80698147D01*
X103781542Y-80708580D01*
X103797582Y-80734868D01*
X103822712Y-80774257D01*
X103855086Y-80823991D01*
X103892857Y-80881315D01*
X103934178Y-80943476D01*
X103977202Y-81007718D01*
X104020083Y-81071285D01*
X104060974Y-81131425D01*
X104098029Y-81185380D01*
X104129400Y-81230397D01*
X104153241Y-81263721D01*
X104167706Y-81282597D01*
X104169691Y-81284787D01*
X104179809Y-81280138D01*
X104202150Y-81262962D01*
X104232720Y-81236440D01*
X104248464Y-81221964D01*
X104344953Y-81146682D01*
X104451664Y-81091241D01*
X104567168Y-81056141D01*
X104690038Y-81041880D01*
X104759439Y-81043051D01*
X104880577Y-81060212D01*
X104989795Y-81096094D01*
X105087418Y-81150959D01*
X105173772Y-81225070D01*
X105249185Y-81318688D01*
X105313982Y-81432076D01*
X105351399Y-81518667D01*
X105395252Y-81654366D01*
X105427572Y-81801850D01*
X105448443Y-81957314D01*
X105457949Y-82116956D01*
X105456173Y-82276973D01*
X105443197Y-82433561D01*
X105419106Y-82582918D01*
X105383982Y-82721240D01*
X105337908Y-82844724D01*
X105321627Y-82878978D01*
X105253380Y-82993064D01*
X105172921Y-83089557D01*
X105081430Y-83167670D01*
X104980089Y-83226617D01*
X104870080Y-83265612D01*
X104752585Y-83283868D01*
X104711117Y-83285211D01*
X104589559Y-83274290D01*
X104469122Y-83241474D01*
X104351334Y-83187439D01*
X104237723Y-83112865D01*
X104146315Y-83034539D01*
X104099785Y-82990008D01*
X103918517Y-83287271D01*
X103873420Y-83361433D01*
X103832181Y-83429646D01*
X103796265Y-83489459D01*
X103767134Y-83538420D01*
X103746250Y-83574079D01*
X103735076Y-83593984D01*
X103733625Y-83597079D01*
X103741854Y-83606718D01*
X103767433Y-83623999D01*
X103807127Y-83647283D01*
X103857703Y-83674934D01*
X103915926Y-83705315D01*
X103978563Y-83736790D01*
X104042379Y-83767722D01*
X104104140Y-83796473D01*
X104160612Y-83821408D01*
X104208562Y-83840889D01*
X104232014Y-83849318D01*
X104365779Y-83887133D01*
X104503673Y-83912136D01*
X104651378Y-83925140D01*
X104778167Y-83927468D01*
X104846122Y-83926373D01*
X104911723Y-83924275D01*
X104969153Y-83921434D01*
X105012597Y-83918106D01*
X105026702Y-83916422D01*
X105165716Y-83887587D01*
X105307243Y-83842468D01*
X105444725Y-83783750D01*
X105571606Y-83714120D01*
X105649111Y-83661441D01*
X105776519Y-83553239D01*
X105894822Y-83426671D01*
X106001828Y-83284866D01*
X106095348Y-83130951D01*
X106173190Y-82968053D01*
X106217044Y-82850756D01*
X106267292Y-82667128D01*
X106300791Y-82472581D01*
X106317551Y-82271325D01*
X106317584Y-82067568D01*
X106300899Y-81865521D01*
X106267507Y-81669392D01*
X106217420Y-81483391D01*
X106213603Y-81471803D01*
X106150719Y-81309750D01*
X106073972Y-81161832D01*
X105980758Y-81023865D01*
X105868473Y-80891661D01*
X105824608Y-80846399D01*
X105688466Y-80722457D01*
X105548509Y-80619915D01*
X105402589Y-80537656D01*
X105248558Y-80474564D01*
X105084268Y-80429523D01*
X104988711Y-80412033D01*
X104829977Y-80396466D01*
X104671571Y-80399071D01*
G36*
X107946400Y-79939054D02*
G01*
X107935535Y-80052993D01*
X107903918Y-80160616D01*
X107853015Y-80259615D01*
X107784293Y-80347684D01*
X107699219Y-80422516D01*
X107602232Y-80480384D01*
X107495964Y-80520005D01*
X107388950Y-80538573D01*
X107283300Y-80537434D01*
X107181125Y-80517930D01*
X107084534Y-80481406D01*
X106995638Y-80429205D01*
X106916546Y-80362673D01*
X106849369Y-80283152D01*
X106796217Y-80191987D01*
X106759199Y-80090523D01*
X106740427Y-79980102D01*
X106738489Y-79930206D01*
X106738489Y-79842267D01*
X106686560Y-79842267D01*
X106650253Y-79845111D01*
X106623355Y-79856911D01*
X106596249Y-79880649D01*
X106557867Y-79919031D01*
X106557867Y-82110602D01*
X106557876Y-82372739D01*
X106557908Y-82613241D01*
X106557972Y-82833048D01*
X106558076Y-83033101D01*
X106558227Y-83214344D01*
X106558434Y-83377716D01*
X106558706Y-83524160D01*
X106559050Y-83654617D01*
X106559474Y-83770029D01*
X106559987Y-83871338D01*
X106560597Y-83959484D01*
X106561312Y-84035410D01*
X106562140Y-84100057D01*
X106563089Y-84154367D01*
X106564167Y-84199280D01*
X106565383Y-84235740D01*
X106566745Y-84264687D01*
X106568261Y-84287063D01*
X106569938Y-84303809D01*
X106571786Y-84315868D01*
X106573813Y-84324180D01*
X106576025Y-84329687D01*
X106577108Y-84331537D01*
X106581271Y-84338549D01*
X106584805Y-84344996D01*
X106588635Y-84350900D01*
X106593682Y-84356286D01*
X106600871Y-84361178D01*
X106611123Y-84365598D01*
X106625364Y-84369572D01*
X106644514Y-84373121D01*
X106669499Y-84376270D01*
X106701240Y-84379042D01*
X106740662Y-84381461D01*
X106788686Y-84383551D01*
X106846237Y-84385335D01*
X106914237Y-84386837D01*
X106993610Y-84388080D01*
X107085279Y-84389089D01*
X107190166Y-84389885D01*
X107309196Y-84390494D01*
X107443290Y-84390939D01*
X107593373Y-84391243D01*
X107760367Y-84391430D01*
X107945196Y-84391524D01*
X108148783Y-84391548D01*
X108372050Y-84391525D01*
X108615922Y-84391480D01*
X108881321Y-84391437D01*
X108919704Y-84391432D01*
X109186682Y-84391389D01*
X109432002Y-84391318D01*
X109656583Y-84391213D01*
X109861345Y-84391066D01*
X110047206Y-84390869D01*
X110215088Y-84390616D01*
X110365908Y-84390300D01*
X110500587Y-84389913D01*
X110620044Y-84389447D01*
X110725199Y-84388897D01*
X110816971Y-84388253D01*
X110896279Y-84387511D01*
X110964043Y-84386661D01*
X111021182Y-84385697D01*
X111068617Y-84384611D01*
X111107266Y-84383397D01*
X111138049Y-84382047D01*
X111161885Y-84380555D01*
X111179694Y-84378911D01*
X111192395Y-84377111D01*
X111200908Y-84375145D01*
X111205266Y-84373477D01*
X111213728Y-84369906D01*
X111221497Y-84367270D01*
X111228602Y-84364634D01*
X111235073Y-84361062D01*
X111240939Y-84355621D01*
X111246229Y-84347375D01*
X111250974Y-84335390D01*
X111255202Y-84318731D01*
X111258943Y-84296463D01*
X111262227Y-84267652D01*
X111265083Y-84231363D01*
X111267540Y-84186661D01*
X111269629Y-84132611D01*
X111271378Y-84068279D01*
X111272817Y-83992730D01*
X111273976Y-83905030D01*
X111274883Y-83804243D01*
X111275569Y-83689434D01*
X111276063Y-83559670D01*
X111276395Y-83414015D01*
X111276593Y-83251535D01*
X111276687Y-83071295D01*
X111276708Y-82872360D01*
X111276685Y-82653796D01*
X111276646Y-82414668D01*
X111276622Y-82154040D01*
X111276622Y-82111889D01*
X111276636Y-81848992D01*
X111276661Y-81607732D01*
X111276671Y-81387165D01*
X111276642Y-81186352D01*
X111276548Y-81004349D01*
X111276362Y-80840216D01*
X111276059Y-80693011D01*
X111275614Y-80561792D01*
X111275034Y-80451867D01*
X110972197Y-80451867D01*
X110932407Y-80509711D01*
X110921236Y-80525479D01*
X110911166Y-80539441D01*
X110902138Y-80552784D01*
X110894097Y-80566693D01*
X110886986Y-80582356D01*
X110880747Y-80600958D01*
X110875325Y-80623686D01*
X110870662Y-80651727D01*
X110866701Y-80686267D01*
X110863385Y-80728492D01*
X110860659Y-80779589D01*
X110858464Y-80840744D01*
X110856745Y-80913144D01*
X110855444Y-80997975D01*
X110854505Y-81096422D01*
X110853870Y-81209674D01*
X110853484Y-81338916D01*
X110853288Y-81485334D01*
X110853227Y-81650116D01*
X110853243Y-81834447D01*
X110853280Y-82039513D01*
X110853289Y-82162133D01*
X110853265Y-82379082D01*
X110853231Y-82574642D01*
X110853243Y-82749999D01*
X110853358Y-82906341D01*
X110853630Y-83044857D01*
X110854118Y-83166734D01*
X110854876Y-83273160D01*
X110855962Y-83365322D01*
X110857431Y-83444409D01*
X110859340Y-83511608D01*
X110861744Y-83568107D01*
X110864701Y-83615093D01*
X110868266Y-83653755D01*
X110872495Y-83685280D01*
X110877446Y-83710855D01*
X110883173Y-83731670D01*
X110889733Y-83748911D01*
X110897183Y-83763765D01*
X110905579Y-83777422D01*
X110914976Y-83791069D01*
X110925432Y-83805893D01*
X110931523Y-83814783D01*
X110970296Y-83872400D01*
X110438732Y-83872400D01*
X110315483Y-83872365D01*
X110212987Y-83872215D01*
X110129420Y-83871878D01*
X110062956Y-83871286D01*
X110011771Y-83870367D01*
X109974041Y-83869051D01*
X109947940Y-83867269D01*
X109931644Y-83864951D01*
X109923328Y-83862026D01*
X109921168Y-83858424D01*
X109923339Y-83854075D01*
X109924535Y-83852645D01*
X109949685Y-83815573D01*
X109975583Y-83762772D01*
X109999192Y-83700770D01*
X110007461Y-83674357D01*
X110012078Y-83656416D01*
X110015979Y-83635355D01*
X110019248Y-83609089D01*
X110021966Y-83575532D01*
X110024215Y-83532599D01*
X110026077Y-83478204D01*
X110027636Y-83410262D01*
X110028972Y-83326688D01*
X110030169Y-83225395D01*
X110031308Y-83104300D01*
X110031685Y-83059600D01*
X110032702Y-82934449D01*
X110033460Y-82830082D01*
X110033903Y-82744707D01*
X110033970Y-82676533D01*
X110033605Y-82623765D01*
X110032748Y-82584614D01*
X110031341Y-82557285D01*
X110029325Y-82539986D01*
X110026643Y-82530926D01*
X110023236Y-82528312D01*
X110019044Y-82530351D01*
X110014571Y-82534667D01*
X110004216Y-82547602D01*
X109982158Y-82576676D01*
X109949957Y-82619759D01*
X109909174Y-82674718D01*
X109861370Y-82739423D01*
X109808105Y-82811742D01*
X109750940Y-82889544D01*
X109691437Y-82970698D01*
X109631155Y-83053072D01*
X109571655Y-83134536D01*
X109514498Y-83212957D01*
X109461245Y-83286204D01*
X109413457Y-83352147D01*
X109372693Y-83408654D01*
X109340516Y-83453593D01*
X109318485Y-83484834D01*
X109313917Y-83491466D01*
X109290996Y-83528369D01*
X109264188Y-83576359D01*
X109238789Y-83625897D01*
X109235568Y-83632577D01*
X109213890Y-83680772D01*
X109201304Y-83718334D01*
X109195574Y-83754160D01*
X109194456Y-83796200D01*
X109195090Y-83872400D01*
X108040651Y-83872400D01*
X108131815Y-83778669D01*
X108178612Y-83728775D01*
X108228899Y-83672295D01*
X108274944Y-83618026D01*
X108295369Y-83592673D01*
X108325807Y-83553128D01*
X108365862Y-83499916D01*
X108414361Y-83434667D01*
X108470135Y-83359011D01*
X108532011Y-83274577D01*
X108598819Y-83182994D01*
X108669387Y-83085892D01*
X108742545Y-82984901D01*
X108817121Y-82881650D01*
X108891944Y-82777768D01*
X108965843Y-82674885D01*
X109037646Y-82574631D01*
X109106184Y-82478636D01*
X109170284Y-82388527D01*
X109228775Y-82305936D01*
X109280486Y-82232492D01*
X109324247Y-82169824D01*
X109358885Y-82119561D01*
X109383230Y-82083334D01*
X109396111Y-82062771D01*
X109397869Y-82058668D01*
X109389910Y-82047342D01*
X109369115Y-82020162D01*
X109336847Y-81978829D01*
X109294470Y-81925044D01*
X109243347Y-81860506D01*
X109184841Y-81786918D01*
X109120314Y-81705978D01*
X109051131Y-81619388D01*
X108978653Y-81528848D01*
X108904246Y-81436060D01*
X108844517Y-81361702D01*
X107833511Y-81361702D01*
X107827602Y-81374659D01*
X107813272Y-81396908D01*
X107812225Y-81398391D01*
X107793438Y-81428544D01*
X107773791Y-81465375D01*
X107769892Y-81473511D01*
X107766356Y-81481940D01*
X107763230Y-81492059D01*
X107760486Y-81505260D01*
X107758092Y-81522938D01*
X107756019Y-81546484D01*
X107754235Y-81577293D01*
X107752712Y-81616757D01*
X107751419Y-81666269D01*
X107750326Y-81727223D01*
X107749403Y-81801011D01*
X107748619Y-81889028D01*
X107747945Y-81992665D01*
X107747350Y-82113316D01*
X107746805Y-82252374D01*
X107746279Y-82411232D01*
X107745745Y-82590089D01*
X107745206Y-82775207D01*
X107744772Y-82939145D01*
X107744509Y-83083303D01*
X107744484Y-83209079D01*
X107744765Y-83317871D01*
X107745419Y-83411077D01*
X107746514Y-83490097D01*
X107748118Y-83556328D01*
X107750297Y-83611170D01*
X107753119Y-83656021D01*
X107756651Y-83692278D01*
X107760961Y-83721341D01*
X107766117Y-83744609D01*
X107772185Y-83763479D01*
X107779233Y-83779351D01*
X107787329Y-83793622D01*
X107796540Y-83807691D01*
X107805040Y-83820158D01*
X107822176Y-83846452D01*
X107832322Y-83864037D01*
X107833511Y-83867257D01*
X107822604Y-83868334D01*
X107791411Y-83869335D01*
X107742223Y-83870235D01*
X107677333Y-83871010D01*
X107599030Y-83871637D01*
X107509607Y-83872091D01*
X107411356Y-83872349D01*
X107342445Y-83872400D01*
X107237452Y-83872180D01*
X107140610Y-83871548D01*
X107054107Y-83870549D01*
X106980132Y-83869227D01*
X106920874Y-83867626D01*
X106878520Y-83865791D01*
X106855260Y-83863765D01*
X106851378Y-83862493D01*
X106859076Y-83847591D01*
X106867074Y-83839560D01*
X106880246Y-83822434D01*
X106897485Y-83792183D01*
X106909407Y-83767622D01*
X106936045Y-83708711D01*
X106939120Y-82531845D01*
X106942195Y-81354978D01*
X107387853Y-81354978D01*
X107485670Y-81355142D01*
X107576064Y-81355611D01*
X107656630Y-81356347D01*
X107724962Y-81357316D01*
X107778656Y-81358480D01*
X107815305Y-81359803D01*
X107832504Y-81361249D01*
X107833511Y-81361702D01*
X108844517Y-81361702D01*
X108829270Y-81342722D01*
X108755090Y-81250537D01*
X108683069Y-81161204D01*
X108614569Y-81076424D01*
X108550955Y-80997898D01*
X108493588Y-80927326D01*
X108443833Y-80866409D01*
X108403052Y-80816847D01*
X108385888Y-80796178D01*
X108299596Y-80695516D01*
X108222997Y-80612259D01*
X108154183Y-80544438D01*
X108091248Y-80490089D01*
X108081867Y-80482722D01*
X108042356Y-80452117D01*
X109174116Y-80451867D01*
X109168827Y-80499844D01*
X109172130Y-80557188D01*
X109193661Y-80625463D01*
X109233635Y-80705212D01*
X109278943Y-80777495D01*
X109295161Y-80800140D01*
X109323214Y-80837696D01*
X109361430Y-80888021D01*
X109408137Y-80948973D01*
X109461661Y-81018411D01*
X109520331Y-81094194D01*
X109582475Y-81174180D01*
X109646421Y-81256228D01*
X109710495Y-81338196D01*
X109773027Y-81417943D01*
X109832343Y-81493327D01*
X109886771Y-81562207D01*
X109934639Y-81622442D01*
X109974275Y-81671889D01*
X110004006Y-81708408D01*
X110022161Y-81729858D01*
X110025220Y-81733156D01*
X110028079Y-81725149D01*
X110030293Y-81694855D01*
X110031857Y-81642556D01*
X110032767Y-81568531D01*
X110033020Y-81473063D01*
X110032613Y-81356434D01*
X110031704Y-81236445D01*
X110030382Y-81104333D01*
X110028857Y-80992594D01*
X110026881Y-80899025D01*
X110024206Y-80821419D01*
X110020582Y-80757574D01*
X110015761Y-80705283D01*
X110009494Y-80662344D01*
X110001532Y-80626551D01*
X109991627Y-80595700D01*
X109979531Y-80567586D01*
X109964993Y-80540005D01*
X109950311Y-80514966D01*
X109912314Y-80451867D01*
X110972197Y-80451867D01*
X111275034Y-80451867D01*
X111275001Y-80445617D01*
X111274195Y-80343544D01*
X111273170Y-80254633D01*
X111271900Y-80177941D01*
X111270360Y-80112527D01*
X111268524Y-80057449D01*
X111266367Y-80011765D01*
X111263863Y-79974534D01*
X111260987Y-79944813D01*
X111257713Y-79921662D01*
X111254015Y-79904139D01*
X111249869Y-79891301D01*
X111245247Y-79882208D01*
X111240126Y-79875918D01*
X111234478Y-79871488D01*
X111228279Y-79867978D01*
X111221504Y-79864445D01*
X111215508Y-79860876D01*
X111210275Y-79858300D01*
X111202099Y-79855972D01*
X111189886Y-79853878D01*
X111172541Y-79852007D01*
X111148969Y-79850347D01*
X111118077Y-79848884D01*
X111078768Y-79847608D01*
X111029950Y-79846504D01*
X110970527Y-79845561D01*
X110899404Y-79844767D01*
X110815488Y-79844109D01*
X110717683Y-79843575D01*
X110604894Y-79843153D01*
X110476029Y-79842829D01*
X110329991Y-79842592D01*
X110165686Y-79842430D01*
X109982020Y-79842330D01*
X109777897Y-79842280D01*
X109566753Y-79842267D01*
X107946400Y-79842267D01*
X107946400Y-79939054D01*
X107946400Y-79939054D01*
G37*
X107946400Y-79939054D02*
X107935535Y-80052993D01*
X107903918Y-80160616D01*
X107853015Y-80259615D01*
X107784293Y-80347684D01*
X107699219Y-80422516D01*
X107602232Y-80480384D01*
X107495964Y-80520005D01*
X107388950Y-80538573D01*
X107283300Y-80537434D01*
X107181125Y-80517930D01*
X107084534Y-80481406D01*
X106995638Y-80429205D01*
X106916546Y-80362673D01*
X106849369Y-80283152D01*
X106796217Y-80191987D01*
X106759199Y-80090523D01*
X106740427Y-79980102D01*
X106738489Y-79930206D01*
X106738489Y-79842267D01*
X106686560Y-79842267D01*
X106650253Y-79845111D01*
X106623355Y-79856911D01*
X106596249Y-79880649D01*
X106557867Y-79919031D01*
X106557867Y-82110602D01*
X106557876Y-82372739D01*
X106557908Y-82613241D01*
X106557972Y-82833048D01*
X106558076Y-83033101D01*
X106558227Y-83214344D01*
X106558434Y-83377716D01*
X106558706Y-83524160D01*
X106559050Y-83654617D01*
X106559474Y-83770029D01*
X106559987Y-83871338D01*
X106560597Y-83959484D01*
X106561312Y-84035410D01*
X106562140Y-84100057D01*
X106563089Y-84154367D01*
X106564167Y-84199280D01*
X106565383Y-84235740D01*
X106566745Y-84264687D01*
X106568261Y-84287063D01*
X106569938Y-84303809D01*
X106571786Y-84315868D01*
X106573813Y-84324180D01*
X106576025Y-84329687D01*
X106577108Y-84331537D01*
X106581271Y-84338549D01*
X106584805Y-84344996D01*
X106588635Y-84350900D01*
X106593682Y-84356286D01*
X106600871Y-84361178D01*
X106611123Y-84365598D01*
X106625364Y-84369572D01*
X106644514Y-84373121D01*
X106669499Y-84376270D01*
X106701240Y-84379042D01*
X106740662Y-84381461D01*
X106788686Y-84383551D01*
X106846237Y-84385335D01*
X106914237Y-84386837D01*
X106993610Y-84388080D01*
X107085279Y-84389089D01*
X107190166Y-84389885D01*
X107309196Y-84390494D01*
X107443290Y-84390939D01*
X107593373Y-84391243D01*
X107760367Y-84391430D01*
X107945196Y-84391524D01*
X108148783Y-84391548D01*
X108372050Y-84391525D01*
X108615922Y-84391480D01*
X108881321Y-84391437D01*
X108919704Y-84391432D01*
X109186682Y-84391389D01*
X109432002Y-84391318D01*
X109656583Y-84391213D01*
X109861345Y-84391066D01*
X110047206Y-84390869D01*
X110215088Y-84390616D01*
X110365908Y-84390300D01*
X110500587Y-84389913D01*
X110620044Y-84389447D01*
X110725199Y-84388897D01*
X110816971Y-84388253D01*
X110896279Y-84387511D01*
X110964043Y-84386661D01*
X111021182Y-84385697D01*
X111068617Y-84384611D01*
X111107266Y-84383397D01*
X111138049Y-84382047D01*
X111161885Y-84380555D01*
X111179694Y-84378911D01*
X111192395Y-84377111D01*
X111200908Y-84375145D01*
X111205266Y-84373477D01*
X111213728Y-84369906D01*
X111221497Y-84367270D01*
X111228602Y-84364634D01*
X111235073Y-84361062D01*
X111240939Y-84355621D01*
X111246229Y-84347375D01*
X111250974Y-84335390D01*
X111255202Y-84318731D01*
X111258943Y-84296463D01*
X111262227Y-84267652D01*
X111265083Y-84231363D01*
X111267540Y-84186661D01*
X111269629Y-84132611D01*
X111271378Y-84068279D01*
X111272817Y-83992730D01*
X111273976Y-83905030D01*
X111274883Y-83804243D01*
X111275569Y-83689434D01*
X111276063Y-83559670D01*
X111276395Y-83414015D01*
X111276593Y-83251535D01*
X111276687Y-83071295D01*
X111276708Y-82872360D01*
X111276685Y-82653796D01*
X111276646Y-82414668D01*
X111276622Y-82154040D01*
X111276622Y-82111889D01*
X111276636Y-81848992D01*
X111276661Y-81607732D01*
X111276671Y-81387165D01*
X111276642Y-81186352D01*
X111276548Y-81004349D01*
X111276362Y-80840216D01*
X111276059Y-80693011D01*
X111275614Y-80561792D01*
X111275034Y-80451867D01*
X110972197Y-80451867D01*
X110932407Y-80509711D01*
X110921236Y-80525479D01*
X110911166Y-80539441D01*
X110902138Y-80552784D01*
X110894097Y-80566693D01*
X110886986Y-80582356D01*
X110880747Y-80600958D01*
X110875325Y-80623686D01*
X110870662Y-80651727D01*
X110866701Y-80686267D01*
X110863385Y-80728492D01*
X110860659Y-80779589D01*
X110858464Y-80840744D01*
X110856745Y-80913144D01*
X110855444Y-80997975D01*
X110854505Y-81096422D01*
X110853870Y-81209674D01*
X110853484Y-81338916D01*
X110853288Y-81485334D01*
X110853227Y-81650116D01*
X110853243Y-81834447D01*
X110853280Y-82039513D01*
X110853289Y-82162133D01*
X110853265Y-82379082D01*
X110853231Y-82574642D01*
X110853243Y-82749999D01*
X110853358Y-82906341D01*
X110853630Y-83044857D01*
X110854118Y-83166734D01*
X110854876Y-83273160D01*
X110855962Y-83365322D01*
X110857431Y-83444409D01*
X110859340Y-83511608D01*
X110861744Y-83568107D01*
X110864701Y-83615093D01*
X110868266Y-83653755D01*
X110872495Y-83685280D01*
X110877446Y-83710855D01*
X110883173Y-83731670D01*
X110889733Y-83748911D01*
X110897183Y-83763765D01*
X110905579Y-83777422D01*
X110914976Y-83791069D01*
X110925432Y-83805893D01*
X110931523Y-83814783D01*
X110970296Y-83872400D01*
X110438732Y-83872400D01*
X110315483Y-83872365D01*
X110212987Y-83872215D01*
X110129420Y-83871878D01*
X110062956Y-83871286D01*
X110011771Y-83870367D01*
X109974041Y-83869051D01*
X109947940Y-83867269D01*
X109931644Y-83864951D01*
X109923328Y-83862026D01*
X109921168Y-83858424D01*
X109923339Y-83854075D01*
X109924535Y-83852645D01*
X109949685Y-83815573D01*
X109975583Y-83762772D01*
X109999192Y-83700770D01*
X110007461Y-83674357D01*
X110012078Y-83656416D01*
X110015979Y-83635355D01*
X110019248Y-83609089D01*
X110021966Y-83575532D01*
X110024215Y-83532599D01*
X110026077Y-83478204D01*
X110027636Y-83410262D01*
X110028972Y-83326688D01*
X110030169Y-83225395D01*
X110031308Y-83104300D01*
X110031685Y-83059600D01*
X110032702Y-82934449D01*
X110033460Y-82830082D01*
X110033903Y-82744707D01*
X110033970Y-82676533D01*
X110033605Y-82623765D01*
X110032748Y-82584614D01*
X110031341Y-82557285D01*
X110029325Y-82539986D01*
X110026643Y-82530926D01*
X110023236Y-82528312D01*
X110019044Y-82530351D01*
X110014571Y-82534667D01*
X110004216Y-82547602D01*
X109982158Y-82576676D01*
X109949957Y-82619759D01*
X109909174Y-82674718D01*
X109861370Y-82739423D01*
X109808105Y-82811742D01*
X109750940Y-82889544D01*
X109691437Y-82970698D01*
X109631155Y-83053072D01*
X109571655Y-83134536D01*
X109514498Y-83212957D01*
X109461245Y-83286204D01*
X109413457Y-83352147D01*
X109372693Y-83408654D01*
X109340516Y-83453593D01*
X109318485Y-83484834D01*
X109313917Y-83491466D01*
X109290996Y-83528369D01*
X109264188Y-83576359D01*
X109238789Y-83625897D01*
X109235568Y-83632577D01*
X109213890Y-83680772D01*
X109201304Y-83718334D01*
X109195574Y-83754160D01*
X109194456Y-83796200D01*
X109195090Y-83872400D01*
X108040651Y-83872400D01*
X108131815Y-83778669D01*
X108178612Y-83728775D01*
X108228899Y-83672295D01*
X108274944Y-83618026D01*
X108295369Y-83592673D01*
X108325807Y-83553128D01*
X108365862Y-83499916D01*
X108414361Y-83434667D01*
X108470135Y-83359011D01*
X108532011Y-83274577D01*
X108598819Y-83182994D01*
X108669387Y-83085892D01*
X108742545Y-82984901D01*
X108817121Y-82881650D01*
X108891944Y-82777768D01*
X108965843Y-82674885D01*
X109037646Y-82574631D01*
X109106184Y-82478636D01*
X109170284Y-82388527D01*
X109228775Y-82305936D01*
X109280486Y-82232492D01*
X109324247Y-82169824D01*
X109358885Y-82119561D01*
X109383230Y-82083334D01*
X109396111Y-82062771D01*
X109397869Y-82058668D01*
X109389910Y-82047342D01*
X109369115Y-82020162D01*
X109336847Y-81978829D01*
X109294470Y-81925044D01*
X109243347Y-81860506D01*
X109184841Y-81786918D01*
X109120314Y-81705978D01*
X109051131Y-81619388D01*
X108978653Y-81528848D01*
X108904246Y-81436060D01*
X108844517Y-81361702D01*
X107833511Y-81361702D01*
X107827602Y-81374659D01*
X107813272Y-81396908D01*
X107812225Y-81398391D01*
X107793438Y-81428544D01*
X107773791Y-81465375D01*
X107769892Y-81473511D01*
X107766356Y-81481940D01*
X107763230Y-81492059D01*
X107760486Y-81505260D01*
X107758092Y-81522938D01*
X107756019Y-81546484D01*
X107754235Y-81577293D01*
X107752712Y-81616757D01*
X107751419Y-81666269D01*
X107750326Y-81727223D01*
X107749403Y-81801011D01*
X107748619Y-81889028D01*
X107747945Y-81992665D01*
X107747350Y-82113316D01*
X107746805Y-82252374D01*
X107746279Y-82411232D01*
X107745745Y-82590089D01*
X107745206Y-82775207D01*
X107744772Y-82939145D01*
X107744509Y-83083303D01*
X107744484Y-83209079D01*
X107744765Y-83317871D01*
X107745419Y-83411077D01*
X107746514Y-83490097D01*
X107748118Y-83556328D01*
X107750297Y-83611170D01*
X107753119Y-83656021D01*
X107756651Y-83692278D01*
X107760961Y-83721341D01*
X107766117Y-83744609D01*
X107772185Y-83763479D01*
X107779233Y-83779351D01*
X107787329Y-83793622D01*
X107796540Y-83807691D01*
X107805040Y-83820158D01*
X107822176Y-83846452D01*
X107832322Y-83864037D01*
X107833511Y-83867257D01*
X107822604Y-83868334D01*
X107791411Y-83869335D01*
X107742223Y-83870235D01*
X107677333Y-83871010D01*
X107599030Y-83871637D01*
X107509607Y-83872091D01*
X107411356Y-83872349D01*
X107342445Y-83872400D01*
X107237452Y-83872180D01*
X107140610Y-83871548D01*
X107054107Y-83870549D01*
X106980132Y-83869227D01*
X106920874Y-83867626D01*
X106878520Y-83865791D01*
X106855260Y-83863765D01*
X106851378Y-83862493D01*
X106859076Y-83847591D01*
X106867074Y-83839560D01*
X106880246Y-83822434D01*
X106897485Y-83792183D01*
X106909407Y-83767622D01*
X106936045Y-83708711D01*
X106939120Y-82531845D01*
X106942195Y-81354978D01*
X107387853Y-81354978D01*
X107485670Y-81355142D01*
X107576064Y-81355611D01*
X107656630Y-81356347D01*
X107724962Y-81357316D01*
X107778656Y-81358480D01*
X107815305Y-81359803D01*
X107832504Y-81361249D01*
X107833511Y-81361702D01*
X108844517Y-81361702D01*
X108829270Y-81342722D01*
X108755090Y-81250537D01*
X108683069Y-81161204D01*
X108614569Y-81076424D01*
X108550955Y-80997898D01*
X108493588Y-80927326D01*
X108443833Y-80866409D01*
X108403052Y-80816847D01*
X108385888Y-80796178D01*
X108299596Y-80695516D01*
X108222997Y-80612259D01*
X108154183Y-80544438D01*
X108091248Y-80490089D01*
X108081867Y-80482722D01*
X108042356Y-80452117D01*
X109174116Y-80451867D01*
X109168827Y-80499844D01*
X109172130Y-80557188D01*
X109193661Y-80625463D01*
X109233635Y-80705212D01*
X109278943Y-80777495D01*
X109295161Y-80800140D01*
X109323214Y-80837696D01*
X109361430Y-80888021D01*
X109408137Y-80948973D01*
X109461661Y-81018411D01*
X109520331Y-81094194D01*
X109582475Y-81174180D01*
X109646421Y-81256228D01*
X109710495Y-81338196D01*
X109773027Y-81417943D01*
X109832343Y-81493327D01*
X109886771Y-81562207D01*
X109934639Y-81622442D01*
X109974275Y-81671889D01*
X110004006Y-81708408D01*
X110022161Y-81729858D01*
X110025220Y-81733156D01*
X110028079Y-81725149D01*
X110030293Y-81694855D01*
X110031857Y-81642556D01*
X110032767Y-81568531D01*
X110033020Y-81473063D01*
X110032613Y-81356434D01*
X110031704Y-81236445D01*
X110030382Y-81104333D01*
X110028857Y-80992594D01*
X110026881Y-80899025D01*
X110024206Y-80821419D01*
X110020582Y-80757574D01*
X110015761Y-80705283D01*
X110009494Y-80662344D01*
X110001532Y-80626551D01*
X109991627Y-80595700D01*
X109979531Y-80567586D01*
X109964993Y-80540005D01*
X109950311Y-80514966D01*
X109912314Y-80451867D01*
X110972197Y-80451867D01*
X111275034Y-80451867D01*
X111275001Y-80445617D01*
X111274195Y-80343544D01*
X111273170Y-80254633D01*
X111271900Y-80177941D01*
X111270360Y-80112527D01*
X111268524Y-80057449D01*
X111266367Y-80011765D01*
X111263863Y-79974534D01*
X111260987Y-79944813D01*
X111257713Y-79921662D01*
X111254015Y-79904139D01*
X111249869Y-79891301D01*
X111245247Y-79882208D01*
X111240126Y-79875918D01*
X111234478Y-79871488D01*
X111228279Y-79867978D01*
X111221504Y-79864445D01*
X111215508Y-79860876D01*
X111210275Y-79858300D01*
X111202099Y-79855972D01*
X111189886Y-79853878D01*
X111172541Y-79852007D01*
X111148969Y-79850347D01*
X111118077Y-79848884D01*
X111078768Y-79847608D01*
X111029950Y-79846504D01*
X110970527Y-79845561D01*
X110899404Y-79844767D01*
X110815488Y-79844109D01*
X110717683Y-79843575D01*
X110604894Y-79843153D01*
X110476029Y-79842829D01*
X110329991Y-79842592D01*
X110165686Y-79842430D01*
X109982020Y-79842330D01*
X109777897Y-79842280D01*
X109566753Y-79842267D01*
X107946400Y-79842267D01*
X107946400Y-79939054D01*
G36*
X60144186Y-80668931D02*
G01*
X60060365Y-81113555D01*
X59751080Y-81241053D01*
X59441794Y-81368551D01*
X59070754Y-81116246D01*
X58966843Y-81045996D01*
X58872913Y-80983272D01*
X58793348Y-80930938D01*
X58732530Y-80891857D01*
X58694843Y-80868893D01*
X58684579Y-80863942D01*
X58666090Y-80876676D01*
X58626580Y-80911882D01*
X58570478Y-80965062D01*
X58502213Y-81031718D01*
X58426214Y-81107354D01*
X58346908Y-81187472D01*
X58268725Y-81267574D01*
X58196093Y-81343164D01*
X58133441Y-81409745D01*
X58085197Y-81462818D01*
X58055790Y-81497887D01*
X58048759Y-81509623D01*
X58058877Y-81531260D01*
X58087241Y-81578662D01*
X58130871Y-81647193D01*
X58186782Y-81732215D01*
X58251994Y-81829093D01*
X58289781Y-81884350D01*
X58358657Y-81985248D01*
X58419860Y-82076299D01*
X58470422Y-82152970D01*
X58507372Y-82210728D01*
X58527742Y-82245043D01*
X58530803Y-82252254D01*
X58523864Y-82272748D01*
X58504949Y-82320513D01*
X58476913Y-82388832D01*
X58442609Y-82470989D01*
X58404891Y-82560270D01*
X58366613Y-82649958D01*
X58330630Y-82733338D01*
X58299794Y-82803694D01*
X58276961Y-82854310D01*
X58264983Y-82878471D01*
X58264276Y-82879422D01*
X58245469Y-82884036D01*
X58195382Y-82894328D01*
X58119207Y-82909287D01*
X58022135Y-82927901D01*
X57909357Y-82949159D01*
X57843558Y-82961418D01*
X57723050Y-82984362D01*
X57614203Y-83006195D01*
X57522524Y-83025722D01*
X57453519Y-83041748D01*
X57412696Y-83053079D01*
X57404489Y-83056674D01*
X57396452Y-83081006D01*
X57389967Y-83135959D01*
X57385030Y-83215108D01*
X57381636Y-83312026D01*
X57379782Y-83420287D01*
X57379462Y-83533465D01*
X57380673Y-83645135D01*
X57383410Y-83748868D01*
X57387669Y-83838241D01*
X57393445Y-83906826D01*
X57400733Y-83948197D01*
X57405105Y-83956810D01*
X57431236Y-83967133D01*
X57486607Y-83981892D01*
X57563893Y-83999352D01*
X57655770Y-84017780D01*
X57687842Y-84023741D01*
X57842476Y-84052066D01*
X57964625Y-84074876D01*
X58058327Y-84093080D01*
X58127616Y-84107583D01*
X58176529Y-84119292D01*
X58209103Y-84129115D01*
X58229372Y-84137956D01*
X58241374Y-84146724D01*
X58243053Y-84148457D01*
X58259816Y-84176371D01*
X58285386Y-84230695D01*
X58317212Y-84304777D01*
X58352740Y-84391965D01*
X58389417Y-84485608D01*
X58424689Y-84579052D01*
X58456004Y-84665647D01*
X58480807Y-84738740D01*
X58496546Y-84791678D01*
X58500668Y-84817811D01*
X58500324Y-84818726D01*
X58486359Y-84840086D01*
X58454678Y-84887084D01*
X58408609Y-84954827D01*
X58351482Y-85038423D01*
X58286627Y-85132982D01*
X58268157Y-85159854D01*
X58202301Y-85257275D01*
X58144350Y-85346163D01*
X58097462Y-85421412D01*
X58064793Y-85477920D01*
X58049500Y-85510581D01*
X58048759Y-85514593D01*
X58061608Y-85535684D01*
X58097112Y-85577464D01*
X58150707Y-85635445D01*
X58217829Y-85705135D01*
X58293913Y-85782045D01*
X58374396Y-85861683D01*
X58454713Y-85939561D01*
X58530301Y-86011186D01*
X58596595Y-86072070D01*
X58649031Y-86117721D01*
X58683045Y-86143650D01*
X58692455Y-86147883D01*
X58714357Y-86137912D01*
X58759200Y-86111020D01*
X58819679Y-86071736D01*
X58866211Y-86040117D01*
X58950525Y-85982098D01*
X59050374Y-85913784D01*
X59150527Y-85845579D01*
X59204373Y-85809075D01*
X59386629Y-85685800D01*
X59539619Y-85768520D01*
X59609318Y-85804759D01*
X59668586Y-85832926D01*
X59708689Y-85848991D01*
X59718897Y-85851226D01*
X59731171Y-85834722D01*
X59755387Y-85788082D01*
X59789737Y-85715609D01*
X59832412Y-85621606D01*
X59881606Y-85510374D01*
X59935510Y-85386215D01*
X59992316Y-85253432D01*
X60050218Y-85116327D01*
X60107407Y-84979202D01*
X60162076Y-84846358D01*
X60212416Y-84722098D01*
X60256620Y-84610725D01*
X60292881Y-84516539D01*
X60319391Y-84443844D01*
X60334342Y-84396941D01*
X60336746Y-84380833D01*
X60317689Y-84360286D01*
X60275964Y-84326933D01*
X60220294Y-84287702D01*
X60215622Y-84284599D01*
X60071736Y-84169423D01*
X59955717Y-84035053D01*
X59868570Y-83885784D01*
X59811301Y-83725913D01*
X59784914Y-83559737D01*
X59790415Y-83391552D01*
X59828810Y-83225655D01*
X59901105Y-83066342D01*
X59922374Y-83031487D01*
X60033004Y-82890737D01*
X60163698Y-82777714D01*
X60309936Y-82693003D01*
X60467192Y-82637194D01*
X60630943Y-82610874D01*
X60796667Y-82614630D01*
X60959838Y-82649050D01*
X61115935Y-82714723D01*
X61260433Y-82812235D01*
X61305131Y-82851813D01*
X61418888Y-82975703D01*
X61501782Y-83106124D01*
X61558644Y-83252315D01*
X61590313Y-83397088D01*
X61598131Y-83559860D01*
X61572062Y-83723440D01*
X61514755Y-83882298D01*
X61428856Y-84030906D01*
X61317014Y-84163735D01*
X61181877Y-84275256D01*
X61164117Y-84287011D01*
X61107850Y-84325508D01*
X61065077Y-84358863D01*
X61044628Y-84380160D01*
X61044331Y-84380833D01*
X61048721Y-84403871D01*
X61066124Y-84456157D01*
X61094732Y-84533390D01*
X61132735Y-84631268D01*
X61178326Y-84745491D01*
X61229697Y-84871758D01*
X61285038Y-85005767D01*
X61342542Y-85143218D01*
X61400399Y-85279808D01*
X61456802Y-85411237D01*
X61509942Y-85533205D01*
X61558010Y-85641409D01*
X61599199Y-85731549D01*
X61631699Y-85799323D01*
X61653703Y-85840430D01*
X61662564Y-85851226D01*
X61689640Y-85842819D01*
X61740303Y-85820272D01*
X61805817Y-85787613D01*
X61841841Y-85768520D01*
X61994832Y-85685800D01*
X62177088Y-85809075D01*
X62270125Y-85872228D01*
X62371985Y-85941727D01*
X62467438Y-86007165D01*
X62515250Y-86040117D01*
X62582495Y-86085273D01*
X62639436Y-86121057D01*
X62678646Y-86142938D01*
X62691381Y-86147563D01*
X62709917Y-86135085D01*
X62750941Y-86100252D01*
X62810475Y-86046678D01*
X62884542Y-85977983D01*
X62969165Y-85897781D01*
X63022685Y-85846286D01*
X63116319Y-85754286D01*
X63197241Y-85671999D01*
X63262177Y-85602945D01*
X63307858Y-85550644D01*
X63331011Y-85518616D01*
X63333232Y-85512116D01*
X63322924Y-85487394D01*
X63294439Y-85437405D01*
X63250937Y-85367212D01*
X63195577Y-85281875D01*
X63131520Y-85186456D01*
X63113303Y-85159854D01*
X63046927Y-85063167D01*
X62987378Y-84976117D01*
X62937984Y-84903595D01*
X62902075Y-84850493D01*
X62882981Y-84821703D01*
X62881136Y-84818726D01*
X62883895Y-84795782D01*
X62898538Y-84745336D01*
X62922513Y-84674041D01*
X62953266Y-84588547D01*
X62988244Y-84495507D01*
X63024893Y-84401574D01*
X63060661Y-84313399D01*
X63092994Y-84237634D01*
X63119338Y-84180931D01*
X63137142Y-84149943D01*
X63138407Y-84148457D01*
X63149294Y-84139601D01*
X63167682Y-84130843D01*
X63197606Y-84121277D01*
X63243103Y-84109996D01*
X63308209Y-84096093D01*
X63396961Y-84078663D01*
X63513393Y-84056798D01*
X63661542Y-84029591D01*
X63693618Y-84023741D01*
X63788686Y-84005374D01*
X63871565Y-83987405D01*
X63934930Y-83971569D01*
X63971458Y-83959600D01*
X63976356Y-83956810D01*
X63984427Y-83932072D01*
X63990987Y-83876790D01*
X63996033Y-83797389D01*
X63999559Y-83700296D01*
X64001561Y-83591938D01*
X64002036Y-83478740D01*
X64000977Y-83367128D01*
X63998382Y-83263529D01*
X63994246Y-83174368D01*
X63988563Y-83106072D01*
X63981331Y-83065066D01*
X63976971Y-83056674D01*
X63952698Y-83048208D01*
X63897426Y-83034435D01*
X63816662Y-83016550D01*
X63715912Y-82995748D01*
X63600683Y-82973223D01*
X63537902Y-82961418D01*
X63418787Y-82939151D01*
X63312565Y-82918979D01*
X63224427Y-82901915D01*
X63159566Y-82888969D01*
X63123174Y-82881155D01*
X63117184Y-82879422D01*
X63107061Y-82859890D01*
X63085662Y-82812843D01*
X63055839Y-82745003D01*
X63020445Y-82663091D01*
X62982332Y-82573828D01*
X62944353Y-82483935D01*
X62909360Y-82400135D01*
X62880206Y-82329147D01*
X62859743Y-82277694D01*
X62850823Y-82252497D01*
X62850657Y-82251396D01*
X62860769Y-82231519D01*
X62889117Y-82185777D01*
X62932723Y-82118717D01*
X62988606Y-82034884D01*
X63053787Y-81938826D01*
X63091679Y-81883650D01*
X63160725Y-81782481D01*
X63222050Y-81690630D01*
X63272663Y-81612744D01*
X63309571Y-81553469D01*
X63329782Y-81517451D01*
X63332701Y-81509377D01*
X63320153Y-81490584D01*
X63285463Y-81450457D01*
X63233063Y-81393493D01*
X63167384Y-81324185D01*
X63092856Y-81247031D01*
X63013913Y-81166525D01*
X62934983Y-81087163D01*
X62860500Y-81013440D01*
X62794894Y-80949852D01*
X62742596Y-80900894D01*
X62708039Y-80871061D01*
X62696478Y-80863942D01*
X62677654Y-80873953D01*
X62632631Y-80902078D01*
X62565787Y-80945454D01*
X62481499Y-81001218D01*
X62384144Y-81066506D01*
X62310707Y-81116246D01*
X61939667Y-81368551D01*
X61321095Y-81113555D01*
X61237275Y-80668931D01*
X61153454Y-80224307D01*
X60228006Y-80224307D01*
X60144186Y-80668931D01*
X60144186Y-80668931D01*
G37*
X60144186Y-80668931D02*
X60060365Y-81113555D01*
X59751080Y-81241053D01*
X59441794Y-81368551D01*
X59070754Y-81116246D01*
X58966843Y-81045996D01*
X58872913Y-80983272D01*
X58793348Y-80930938D01*
X58732530Y-80891857D01*
X58694843Y-80868893D01*
X58684579Y-80863942D01*
X58666090Y-80876676D01*
X58626580Y-80911882D01*
X58570478Y-80965062D01*
X58502213Y-81031718D01*
X58426214Y-81107354D01*
X58346908Y-81187472D01*
X58268725Y-81267574D01*
X58196093Y-81343164D01*
X58133441Y-81409745D01*
X58085197Y-81462818D01*
X58055790Y-81497887D01*
X58048759Y-81509623D01*
X58058877Y-81531260D01*
X58087241Y-81578662D01*
X58130871Y-81647193D01*
X58186782Y-81732215D01*
X58251994Y-81829093D01*
X58289781Y-81884350D01*
X58358657Y-81985248D01*
X58419860Y-82076299D01*
X58470422Y-82152970D01*
X58507372Y-82210728D01*
X58527742Y-82245043D01*
X58530803Y-82252254D01*
X58523864Y-82272748D01*
X58504949Y-82320513D01*
X58476913Y-82388832D01*
X58442609Y-82470989D01*
X58404891Y-82560270D01*
X58366613Y-82649958D01*
X58330630Y-82733338D01*
X58299794Y-82803694D01*
X58276961Y-82854310D01*
X58264983Y-82878471D01*
X58264276Y-82879422D01*
X58245469Y-82884036D01*
X58195382Y-82894328D01*
X58119207Y-82909287D01*
X58022135Y-82927901D01*
X57909357Y-82949159D01*
X57843558Y-82961418D01*
X57723050Y-82984362D01*
X57614203Y-83006195D01*
X57522524Y-83025722D01*
X57453519Y-83041748D01*
X57412696Y-83053079D01*
X57404489Y-83056674D01*
X57396452Y-83081006D01*
X57389967Y-83135959D01*
X57385030Y-83215108D01*
X57381636Y-83312026D01*
X57379782Y-83420287D01*
X57379462Y-83533465D01*
X57380673Y-83645135D01*
X57383410Y-83748868D01*
X57387669Y-83838241D01*
X57393445Y-83906826D01*
X57400733Y-83948197D01*
X57405105Y-83956810D01*
X57431236Y-83967133D01*
X57486607Y-83981892D01*
X57563893Y-83999352D01*
X57655770Y-84017780D01*
X57687842Y-84023741D01*
X57842476Y-84052066D01*
X57964625Y-84074876D01*
X58058327Y-84093080D01*
X58127616Y-84107583D01*
X58176529Y-84119292D01*
X58209103Y-84129115D01*
X58229372Y-84137956D01*
X58241374Y-84146724D01*
X58243053Y-84148457D01*
X58259816Y-84176371D01*
X58285386Y-84230695D01*
X58317212Y-84304777D01*
X58352740Y-84391965D01*
X58389417Y-84485608D01*
X58424689Y-84579052D01*
X58456004Y-84665647D01*
X58480807Y-84738740D01*
X58496546Y-84791678D01*
X58500668Y-84817811D01*
X58500324Y-84818726D01*
X58486359Y-84840086D01*
X58454678Y-84887084D01*
X58408609Y-84954827D01*
X58351482Y-85038423D01*
X58286627Y-85132982D01*
X58268157Y-85159854D01*
X58202301Y-85257275D01*
X58144350Y-85346163D01*
X58097462Y-85421412D01*
X58064793Y-85477920D01*
X58049500Y-85510581D01*
X58048759Y-85514593D01*
X58061608Y-85535684D01*
X58097112Y-85577464D01*
X58150707Y-85635445D01*
X58217829Y-85705135D01*
X58293913Y-85782045D01*
X58374396Y-85861683D01*
X58454713Y-85939561D01*
X58530301Y-86011186D01*
X58596595Y-86072070D01*
X58649031Y-86117721D01*
X58683045Y-86143650D01*
X58692455Y-86147883D01*
X58714357Y-86137912D01*
X58759200Y-86111020D01*
X58819679Y-86071736D01*
X58866211Y-86040117D01*
X58950525Y-85982098D01*
X59050374Y-85913784D01*
X59150527Y-85845579D01*
X59204373Y-85809075D01*
X59386629Y-85685800D01*
X59539619Y-85768520D01*
X59609318Y-85804759D01*
X59668586Y-85832926D01*
X59708689Y-85848991D01*
X59718897Y-85851226D01*
X59731171Y-85834722D01*
X59755387Y-85788082D01*
X59789737Y-85715609D01*
X59832412Y-85621606D01*
X59881606Y-85510374D01*
X59935510Y-85386215D01*
X59992316Y-85253432D01*
X60050218Y-85116327D01*
X60107407Y-84979202D01*
X60162076Y-84846358D01*
X60212416Y-84722098D01*
X60256620Y-84610725D01*
X60292881Y-84516539D01*
X60319391Y-84443844D01*
X60334342Y-84396941D01*
X60336746Y-84380833D01*
X60317689Y-84360286D01*
X60275964Y-84326933D01*
X60220294Y-84287702D01*
X60215622Y-84284599D01*
X60071736Y-84169423D01*
X59955717Y-84035053D01*
X59868570Y-83885784D01*
X59811301Y-83725913D01*
X59784914Y-83559737D01*
X59790415Y-83391552D01*
X59828810Y-83225655D01*
X59901105Y-83066342D01*
X59922374Y-83031487D01*
X60033004Y-82890737D01*
X60163698Y-82777714D01*
X60309936Y-82693003D01*
X60467192Y-82637194D01*
X60630943Y-82610874D01*
X60796667Y-82614630D01*
X60959838Y-82649050D01*
X61115935Y-82714723D01*
X61260433Y-82812235D01*
X61305131Y-82851813D01*
X61418888Y-82975703D01*
X61501782Y-83106124D01*
X61558644Y-83252315D01*
X61590313Y-83397088D01*
X61598131Y-83559860D01*
X61572062Y-83723440D01*
X61514755Y-83882298D01*
X61428856Y-84030906D01*
X61317014Y-84163735D01*
X61181877Y-84275256D01*
X61164117Y-84287011D01*
X61107850Y-84325508D01*
X61065077Y-84358863D01*
X61044628Y-84380160D01*
X61044331Y-84380833D01*
X61048721Y-84403871D01*
X61066124Y-84456157D01*
X61094732Y-84533390D01*
X61132735Y-84631268D01*
X61178326Y-84745491D01*
X61229697Y-84871758D01*
X61285038Y-85005767D01*
X61342542Y-85143218D01*
X61400399Y-85279808D01*
X61456802Y-85411237D01*
X61509942Y-85533205D01*
X61558010Y-85641409D01*
X61599199Y-85731549D01*
X61631699Y-85799323D01*
X61653703Y-85840430D01*
X61662564Y-85851226D01*
X61689640Y-85842819D01*
X61740303Y-85820272D01*
X61805817Y-85787613D01*
X61841841Y-85768520D01*
X61994832Y-85685800D01*
X62177088Y-85809075D01*
X62270125Y-85872228D01*
X62371985Y-85941727D01*
X62467438Y-86007165D01*
X62515250Y-86040117D01*
X62582495Y-86085273D01*
X62639436Y-86121057D01*
X62678646Y-86142938D01*
X62691381Y-86147563D01*
X62709917Y-86135085D01*
X62750941Y-86100252D01*
X62810475Y-86046678D01*
X62884542Y-85977983D01*
X62969165Y-85897781D01*
X63022685Y-85846286D01*
X63116319Y-85754286D01*
X63197241Y-85671999D01*
X63262177Y-85602945D01*
X63307858Y-85550644D01*
X63331011Y-85518616D01*
X63333232Y-85512116D01*
X63322924Y-85487394D01*
X63294439Y-85437405D01*
X63250937Y-85367212D01*
X63195577Y-85281875D01*
X63131520Y-85186456D01*
X63113303Y-85159854D01*
X63046927Y-85063167D01*
X62987378Y-84976117D01*
X62937984Y-84903595D01*
X62902075Y-84850493D01*
X62882981Y-84821703D01*
X62881136Y-84818726D01*
X62883895Y-84795782D01*
X62898538Y-84745336D01*
X62922513Y-84674041D01*
X62953266Y-84588547D01*
X62988244Y-84495507D01*
X63024893Y-84401574D01*
X63060661Y-84313399D01*
X63092994Y-84237634D01*
X63119338Y-84180931D01*
X63137142Y-84149943D01*
X63138407Y-84148457D01*
X63149294Y-84139601D01*
X63167682Y-84130843D01*
X63197606Y-84121277D01*
X63243103Y-84109996D01*
X63308209Y-84096093D01*
X63396961Y-84078663D01*
X63513393Y-84056798D01*
X63661542Y-84029591D01*
X63693618Y-84023741D01*
X63788686Y-84005374D01*
X63871565Y-83987405D01*
X63934930Y-83971569D01*
X63971458Y-83959600D01*
X63976356Y-83956810D01*
X63984427Y-83932072D01*
X63990987Y-83876790D01*
X63996033Y-83797389D01*
X63999559Y-83700296D01*
X64001561Y-83591938D01*
X64002036Y-83478740D01*
X64000977Y-83367128D01*
X63998382Y-83263529D01*
X63994246Y-83174368D01*
X63988563Y-83106072D01*
X63981331Y-83065066D01*
X63976971Y-83056674D01*
X63952698Y-83048208D01*
X63897426Y-83034435D01*
X63816662Y-83016550D01*
X63715912Y-82995748D01*
X63600683Y-82973223D01*
X63537902Y-82961418D01*
X63418787Y-82939151D01*
X63312565Y-82918979D01*
X63224427Y-82901915D01*
X63159566Y-82888969D01*
X63123174Y-82881155D01*
X63117184Y-82879422D01*
X63107061Y-82859890D01*
X63085662Y-82812843D01*
X63055839Y-82745003D01*
X63020445Y-82663091D01*
X62982332Y-82573828D01*
X62944353Y-82483935D01*
X62909360Y-82400135D01*
X62880206Y-82329147D01*
X62859743Y-82277694D01*
X62850823Y-82252497D01*
X62850657Y-82251396D01*
X62860769Y-82231519D01*
X62889117Y-82185777D01*
X62932723Y-82118717D01*
X62988606Y-82034884D01*
X63053787Y-81938826D01*
X63091679Y-81883650D01*
X63160725Y-81782481D01*
X63222050Y-81690630D01*
X63272663Y-81612744D01*
X63309571Y-81553469D01*
X63329782Y-81517451D01*
X63332701Y-81509377D01*
X63320153Y-81490584D01*
X63285463Y-81450457D01*
X63233063Y-81393493D01*
X63167384Y-81324185D01*
X63092856Y-81247031D01*
X63013913Y-81166525D01*
X62934983Y-81087163D01*
X62860500Y-81013440D01*
X62794894Y-80949852D01*
X62742596Y-80900894D01*
X62708039Y-80871061D01*
X62696478Y-80863942D01*
X62677654Y-80873953D01*
X62632631Y-80902078D01*
X62565787Y-80945454D01*
X62481499Y-81001218D01*
X62384144Y-81066506D01*
X62310707Y-81116246D01*
X61939667Y-81368551D01*
X61321095Y-81113555D01*
X61237275Y-80668931D01*
X61153454Y-80224307D01*
X60228006Y-80224307D01*
X60144186Y-80668931D01*
D13*
X110050000Y-78150000D02*
X110050000Y-54850000D01*
X110050000Y-54850000D02*
X61050000Y-54850000D01*
X61050000Y-54850000D02*
X61050000Y-78150000D01*
X61050000Y-78150000D02*
X110050000Y-78150000D01*
X91309523Y-72028571D02*
X90976190Y-72028571D01*
X90833333Y-72552380D02*
X91309523Y-72552380D01*
X91309523Y-71552380D01*
X90833333Y-71552380D01*
X90261904Y-72552380D02*
X90357142Y-72504761D01*
X90404761Y-72409523D01*
X90404761Y-71552380D01*
X89500000Y-72504761D02*
X89595238Y-72552380D01*
X89785714Y-72552380D01*
X89880952Y-72504761D01*
X89928571Y-72409523D01*
X89928571Y-72028571D01*
X89880952Y-71933333D01*
X89785714Y-71885714D01*
X89595238Y-71885714D01*
X89500000Y-71933333D01*
X89452380Y-72028571D01*
X89452380Y-72123809D01*
X89928571Y-72219047D01*
X89119047Y-71885714D02*
X88880952Y-72552380D01*
X88642857Y-71885714D01*
X87833333Y-72552380D02*
X87833333Y-72028571D01*
X87880952Y-71933333D01*
X87976190Y-71885714D01*
X88166666Y-71885714D01*
X88261904Y-71933333D01*
X87833333Y-72504761D02*
X87928571Y-72552380D01*
X88166666Y-72552380D01*
X88261904Y-72504761D01*
X88309523Y-72409523D01*
X88309523Y-72314285D01*
X88261904Y-72219047D01*
X88166666Y-72171428D01*
X87928571Y-72171428D01*
X87833333Y-72123809D01*
X86928571Y-72552380D02*
X86928571Y-71552380D01*
X86928571Y-72504761D02*
X87023809Y-72552380D01*
X87214285Y-72552380D01*
X87309523Y-72504761D01*
X87357142Y-72457142D01*
X87404761Y-72361904D01*
X87404761Y-72076190D01*
X87357142Y-71980952D01*
X87309523Y-71933333D01*
X87214285Y-71885714D01*
X87023809Y-71885714D01*
X86928571Y-71933333D01*
X86309523Y-72552380D02*
X86404761Y-72504761D01*
X86452380Y-72457142D01*
X86500000Y-72361904D01*
X86500000Y-72076190D01*
X86452380Y-71980952D01*
X86404761Y-71933333D01*
X86309523Y-71885714D01*
X86166666Y-71885714D01*
X86071428Y-71933333D01*
X86023809Y-71980952D01*
X85976190Y-72076190D01*
X85976190Y-72361904D01*
X86023809Y-72457142D01*
X86071428Y-72504761D01*
X86166666Y-72552380D01*
X86309523Y-72552380D01*
X85547619Y-72552380D02*
X85547619Y-71885714D01*
X85547619Y-72076190D02*
X85500000Y-71980952D01*
X85452380Y-71933333D01*
X85357142Y-71885714D01*
X85261904Y-71885714D01*
X83833333Y-72028571D02*
X83690476Y-72076190D01*
X83642857Y-72123809D01*
X83595238Y-72219047D01*
X83595238Y-72361904D01*
X83642857Y-72457142D01*
X83690476Y-72504761D01*
X83785714Y-72552380D01*
X84166666Y-72552380D01*
X84166666Y-71552380D01*
X83833333Y-71552380D01*
X83738095Y-71600000D01*
X83690476Y-71647619D01*
X83642857Y-71742857D01*
X83642857Y-71838095D01*
X83690476Y-71933333D01*
X83738095Y-71980952D01*
X83833333Y-72028571D01*
X84166666Y-72028571D01*
X83023809Y-72552380D02*
X83119047Y-72504761D01*
X83166666Y-72457142D01*
X83214285Y-72361904D01*
X83214285Y-72076190D01*
X83166666Y-71980952D01*
X83119047Y-71933333D01*
X83023809Y-71885714D01*
X82880952Y-71885714D01*
X82785714Y-71933333D01*
X82738095Y-71980952D01*
X82690476Y-72076190D01*
X82690476Y-72361904D01*
X82738095Y-72457142D01*
X82785714Y-72504761D01*
X82880952Y-72552380D01*
X83023809Y-72552380D01*
X82119047Y-72552380D02*
X82214285Y-72504761D01*
X82261904Y-72457142D01*
X82309523Y-72361904D01*
X82309523Y-72076190D01*
X82261904Y-71980952D01*
X82214285Y-71933333D01*
X82119047Y-71885714D01*
X81976190Y-71885714D01*
X81880952Y-71933333D01*
X81833333Y-71980952D01*
X81785714Y-72076190D01*
X81785714Y-72361904D01*
X81833333Y-72457142D01*
X81880952Y-72504761D01*
X81976190Y-72552380D01*
X82119047Y-72552380D01*
X81404761Y-72504761D02*
X81309523Y-72552380D01*
X81119047Y-72552380D01*
X81023809Y-72504761D01*
X80976190Y-72409523D01*
X80976190Y-72361904D01*
X81023809Y-72266666D01*
X81119047Y-72219047D01*
X81261904Y-72219047D01*
X81357142Y-72171428D01*
X81404761Y-72076190D01*
X81404761Y-72028571D01*
X81357142Y-71933333D01*
X81261904Y-71885714D01*
X81119047Y-71885714D01*
X81023809Y-71933333D01*
X80690476Y-71885714D02*
X80309523Y-71885714D01*
X80547619Y-71552380D02*
X80547619Y-72409523D01*
X80500000Y-72504761D01*
X80404761Y-72552380D01*
X80309523Y-72552380D01*
X106669047Y-75602380D02*
X106478571Y-75602380D01*
X106383333Y-75650000D01*
X106288095Y-75745238D01*
X106240476Y-75935714D01*
X106240476Y-76269047D01*
X106288095Y-76459523D01*
X106383333Y-76554761D01*
X106478571Y-76602380D01*
X106669047Y-76602380D01*
X106764285Y-76554761D01*
X106859523Y-76459523D01*
X106907142Y-76269047D01*
X106907142Y-75935714D01*
X106859523Y-75745238D01*
X106764285Y-75650000D01*
X106669047Y-75602380D01*
X105811904Y-75602380D02*
X105811904Y-76411904D01*
X105764285Y-76507142D01*
X105716666Y-76554761D01*
X105621428Y-76602380D01*
X105430952Y-76602380D01*
X105335714Y-76554761D01*
X105288095Y-76507142D01*
X105240476Y-76411904D01*
X105240476Y-75602380D01*
X104907142Y-75602380D02*
X104335714Y-75602380D01*
X104621428Y-76602380D02*
X104621428Y-75602380D01*
X104002380Y-76221428D02*
X103240476Y-76221428D01*
X103621428Y-76602380D02*
X103621428Y-75840476D01*
X106669047Y-56602380D02*
X106478571Y-56602380D01*
X106383333Y-56650000D01*
X106288095Y-56745238D01*
X106240476Y-56935714D01*
X106240476Y-57269047D01*
X106288095Y-57459523D01*
X106383333Y-57554761D01*
X106478571Y-57602380D01*
X106669047Y-57602380D01*
X106764285Y-57554761D01*
X106859523Y-57459523D01*
X106907142Y-57269047D01*
X106907142Y-56935714D01*
X106859523Y-56745238D01*
X106764285Y-56650000D01*
X106669047Y-56602380D01*
X105811904Y-56602380D02*
X105811904Y-57411904D01*
X105764285Y-57507142D01*
X105716666Y-57554761D01*
X105621428Y-57602380D01*
X105430952Y-57602380D01*
X105335714Y-57554761D01*
X105288095Y-57507142D01*
X105240476Y-57411904D01*
X105240476Y-56602380D01*
X104907142Y-56602380D02*
X104335714Y-56602380D01*
X104621428Y-57602380D02*
X104621428Y-56602380D01*
X104002380Y-57221428D02*
X103240476Y-57221428D01*
X67292857Y-57202380D02*
X67292857Y-56202380D01*
X66816666Y-57202380D02*
X66816666Y-56202380D01*
X66245238Y-57202380D01*
X66245238Y-56202380D01*
X65769047Y-56821428D02*
X65007142Y-56821428D01*
X66292857Y-77202380D02*
X66292857Y-76202380D01*
X65816666Y-77202380D02*
X65816666Y-76202380D01*
X65245238Y-77202380D01*
X65245238Y-76202380D01*
X64769047Y-76821428D02*
X64007142Y-76821428D01*
X64388095Y-77202380D02*
X64388095Y-76440476D01*
%LPC*%
D14*
X64300000Y-49000000D03*
X104900000Y-49000000D03*
X64200000Y-89700000D03*
X105000000Y-89700000D03*
D15*
X91550000Y-53350000D03*
X89010000Y-53350000D03*
X86470000Y-53350000D03*
X83930000Y-53350000D03*
X81390000Y-53350000D03*
X78850000Y-53350000D03*
X68100000Y-83200000D03*
X69896051Y-84996051D03*
D16*
X62574000Y-76626000D03*
D17*
X62574000Y-56306000D03*
D16*
X108802000Y-76626000D03*
X108802000Y-56306000D03*
X87070000Y-64410000D03*
X87070000Y-68220000D03*
X111200000Y-64410000D03*
X111200000Y-68220000D03*
M02*
