G04 #@! TF.GenerationSoftware,KiCad,Pcbnew,(5.1.2)-2*
G04 #@! TF.CreationDate,2019-10-20T14:27:07-03:00*
G04 #@! TF.ProjectId,placa_potencia,706c6163-615f-4706-9f74-656e6369612e,rev?*
G04 #@! TF.SameCoordinates,Original*
G04 #@! TF.FileFunction,Copper,L1,Top*
G04 #@! TF.FilePolarity,Positive*
%FSLAX46Y46*%
G04 Gerber Fmt 4.6, Leading zero omitted, Abs format (unit mm)*
G04 Created by KiCad (PCBNEW (5.1.2)-2) date 2019-10-20 14:27:07*
%MOMM*%
%LPD*%
G04 APERTURE LIST*
%ADD10R,2.800000X2.800000*%
%ADD11C,2.000000*%
%ADD12C,3.000000*%
%ADD13C,2.500000*%
%ADD14C,2.100000*%
%ADD15C,1.000000*%
%ADD16C,0.800000*%
%ADD17C,0.500000*%
%ADD18C,0.600000*%
%ADD19C,0.300000*%
G04 APERTURE END LIST*
D10*
X80600000Y-70300000D03*
X80600000Y-62700000D03*
X80600000Y-73700000D03*
X80600000Y-59200000D03*
D11*
X57700000Y-73400000D03*
X57700000Y-59200000D03*
D12*
X64300000Y-49000000D03*
X104900000Y-49000000D03*
X64200000Y-89700000D03*
X105000000Y-89700000D03*
D11*
X91550000Y-53350000D03*
X89010000Y-53350000D03*
X86470000Y-53350000D03*
X83930000Y-53350000D03*
X81390000Y-53350000D03*
X78850000Y-53350000D03*
X68100000Y-83200000D03*
X69896051Y-84996051D03*
D13*
X62574000Y-76626000D03*
D14*
X62574000Y-56306000D03*
D13*
X108802000Y-76626000D03*
X108802000Y-56306000D03*
X87070000Y-64410000D03*
X87070000Y-68220000D03*
X111200000Y-64410000D03*
X111200000Y-68220000D03*
D15*
X87070000Y-69430000D02*
X87070000Y-68220000D01*
X82800000Y-73700000D02*
X87070000Y-69430000D01*
X80600000Y-73700000D02*
X82800000Y-73700000D01*
X94506000Y-56306000D02*
X108802000Y-56306000D01*
X91550000Y-53350000D02*
X94506000Y-56306000D01*
X113800000Y-61304000D02*
X108802000Y-56306000D01*
X111200000Y-68220000D02*
X113800000Y-65620000D01*
X113800000Y-65620000D02*
X113800000Y-61304000D01*
X89010000Y-55278351D02*
X89010000Y-53350000D01*
X94631649Y-60900000D02*
X89010000Y-55278351D01*
X111200000Y-64410000D02*
X107690000Y-60900000D01*
X107690000Y-60900000D02*
X94631649Y-60900000D01*
D16*
X88837766Y-64410000D02*
X88847766Y-64400000D01*
D15*
X87070000Y-64410000D02*
X88837766Y-64410000D01*
X96576000Y-64400000D02*
X108802000Y-76626000D01*
X88847766Y-64400000D02*
X96576000Y-64400000D01*
X87070000Y-64410000D02*
X87070000Y-57070000D01*
X86470000Y-56470000D02*
X86470000Y-53350000D01*
X87070000Y-57070000D02*
X86470000Y-56470000D01*
X78400000Y-62700000D02*
X80600000Y-62700000D01*
X68100000Y-73000000D02*
X78400000Y-62700000D01*
X68100000Y-83200000D02*
X68100000Y-73000000D01*
D17*
X82800000Y-62700000D02*
X83880000Y-61620000D01*
X83880000Y-54814213D02*
X83880000Y-61620000D01*
X80600000Y-62700000D02*
X82800000Y-62700000D01*
D18*
X83930000Y-53350000D02*
X83930000Y-54764213D01*
D15*
X80600000Y-70300000D02*
X81260002Y-70300000D01*
X70896050Y-83996052D02*
X70896050Y-83953950D01*
X69896051Y-84996051D02*
X70896050Y-83996052D01*
X70896050Y-83953950D02*
X71600000Y-83250000D01*
X71600000Y-83250000D02*
X71600000Y-74700000D01*
X76000000Y-70300000D02*
X80600000Y-70300000D01*
X71600000Y-74700000D02*
X76000000Y-70300000D01*
X62574000Y-75026000D02*
X62574000Y-76626000D01*
X78400000Y-59200000D02*
X62574000Y-75026000D01*
X80600000Y-59200000D02*
X78400000Y-59200000D01*
D19*
G36*
X86283155Y-39067411D02*
G01*
X88396386Y-39258057D01*
X90491167Y-39595649D01*
X92557332Y-40078553D01*
X94584745Y-40704399D01*
X96563572Y-41470148D01*
X98484163Y-42372067D01*
X100337158Y-43405765D01*
X102113531Y-44566199D01*
X103804639Y-45847728D01*
X104142358Y-46142911D01*
X104039517Y-46163367D01*
X103502651Y-46385744D01*
X103019484Y-46708585D01*
X102608585Y-47119484D01*
X102285744Y-47602651D01*
X102063367Y-48139517D01*
X101950000Y-48709450D01*
X101950000Y-49290550D01*
X102063367Y-49860483D01*
X102285744Y-50397349D01*
X102608585Y-50880516D01*
X103019484Y-51291415D01*
X103502651Y-51614256D01*
X104039517Y-51836633D01*
X104609450Y-51950000D01*
X105190550Y-51950000D01*
X105760483Y-51836633D01*
X106297349Y-51614256D01*
X106780516Y-51291415D01*
X107191415Y-50880516D01*
X107514256Y-50397349D01*
X107736633Y-49860483D01*
X107759684Y-49744597D01*
X108286207Y-50353613D01*
X109558560Y-52051618D01*
X110709376Y-53834259D01*
X111733033Y-55692826D01*
X112624541Y-57618253D01*
X113379575Y-59601203D01*
X113994444Y-61631986D01*
X114466153Y-63700700D01*
X114792409Y-65797296D01*
X114971619Y-67911534D01*
X115002910Y-70033122D01*
X114886130Y-72151724D01*
X114621848Y-74257030D01*
X114211351Y-76338770D01*
X113656644Y-78386784D01*
X112960420Y-80391132D01*
X112126077Y-82342031D01*
X111157680Y-84229973D01*
X110059949Y-86045759D01*
X108838211Y-87780574D01*
X107863983Y-88977012D01*
X107836633Y-88839517D01*
X107614256Y-88302651D01*
X107291415Y-87819484D01*
X106880516Y-87408585D01*
X106397349Y-87085744D01*
X105860483Y-86863367D01*
X105290550Y-86750000D01*
X104709450Y-86750000D01*
X104139517Y-86863367D01*
X103602651Y-87085744D01*
X103119484Y-87408585D01*
X102708585Y-87819484D01*
X102385744Y-88302651D01*
X102163367Y-88839517D01*
X102050000Y-89409450D01*
X102050000Y-89990550D01*
X102163367Y-90560483D01*
X102385744Y-91097349D01*
X102708585Y-91580516D01*
X103119484Y-91991415D01*
X103602651Y-92314256D01*
X104139517Y-92536633D01*
X104302298Y-92569012D01*
X102838909Y-93747500D01*
X101097522Y-94959826D01*
X99275814Y-96047721D01*
X97382670Y-97005884D01*
X96710062Y-97289244D01*
X96710062Y-79513733D01*
X96717803Y-79435136D01*
X96706726Y-79322663D01*
X96686911Y-79121481D01*
X96595421Y-78819880D01*
X96446850Y-78541923D01*
X96246907Y-78298291D01*
X96217972Y-78274545D01*
X96003275Y-78098348D01*
X95725318Y-77949777D01*
X95423717Y-77858287D01*
X95188659Y-77835136D01*
X95188658Y-77835136D01*
X95110062Y-77827395D01*
X95031465Y-77835136D01*
X74188659Y-77835136D01*
X74110062Y-77827395D01*
X74031466Y-77835136D01*
X74031465Y-77835136D01*
X73796407Y-77858287D01*
X73550000Y-77933034D01*
X73550000Y-75507715D01*
X73957715Y-75100000D01*
X78044436Y-75100000D01*
X78066640Y-75325439D01*
X78132398Y-75542215D01*
X78239184Y-75741997D01*
X78382893Y-75917107D01*
X78558003Y-76060816D01*
X78757785Y-76167602D01*
X78974561Y-76233360D01*
X79200000Y-76255564D01*
X79962500Y-76250000D01*
X80250000Y-75962500D01*
X80250000Y-74050000D01*
X80950000Y-74050000D01*
X80950000Y-75962500D01*
X81237500Y-76250000D01*
X82000000Y-76255564D01*
X82225439Y-76233360D01*
X82442215Y-76167602D01*
X82641997Y-76060816D01*
X82817107Y-75917107D01*
X82960816Y-75741997D01*
X83067602Y-75542215D01*
X83133360Y-75325439D01*
X83155564Y-75100000D01*
X83150000Y-74337500D01*
X82862500Y-74050000D01*
X80950000Y-74050000D01*
X80250000Y-74050000D01*
X78337500Y-74050000D01*
X78050000Y-74337500D01*
X78044436Y-75100000D01*
X73957715Y-75100000D01*
X76807716Y-72250000D01*
X77851596Y-72250000D01*
X77853894Y-72257576D01*
X77988536Y-72509474D01*
X78046480Y-72580078D01*
X78050000Y-73062500D01*
X78337500Y-73350000D01*
X80250000Y-73350000D01*
X80250000Y-73330000D01*
X80950000Y-73330000D01*
X80950000Y-73350000D01*
X82862500Y-73350000D01*
X83150000Y-73062500D01*
X83153520Y-72580078D01*
X83211464Y-72509474D01*
X83346106Y-72257576D01*
X83429019Y-71984250D01*
X83457015Y-71700000D01*
X83457015Y-69948932D01*
X85836043Y-69948932D01*
X85950654Y-70356104D01*
X86388895Y-70533433D01*
X86853310Y-70621858D01*
X87326053Y-70617981D01*
X87788955Y-70521951D01*
X88189346Y-70356104D01*
X88303957Y-69948932D01*
X87070000Y-68714975D01*
X85836043Y-69948932D01*
X83457015Y-69948932D01*
X83457015Y-68900000D01*
X83429019Y-68615750D01*
X83346106Y-68342424D01*
X83211464Y-68090526D01*
X83030265Y-67869735D01*
X82809474Y-67688536D01*
X82557576Y-67553894D01*
X82284250Y-67470981D01*
X82000000Y-67442985D01*
X79200000Y-67442985D01*
X78915750Y-67470981D01*
X78642424Y-67553894D01*
X78390526Y-67688536D01*
X78169735Y-67869735D01*
X77988536Y-68090526D01*
X77853894Y-68342424D01*
X77851596Y-68350000D01*
X76095795Y-68350000D01*
X76000000Y-68340565D01*
X75904205Y-68350000D01*
X75617733Y-68378215D01*
X75419309Y-68438406D01*
X78492008Y-65365707D01*
X78642424Y-65446106D01*
X78915750Y-65529019D01*
X79200000Y-65557015D01*
X82000000Y-65557015D01*
X82284250Y-65529019D01*
X82557576Y-65446106D01*
X82809474Y-65311464D01*
X83030265Y-65130265D01*
X83211464Y-64909474D01*
X83346106Y-64657576D01*
X83429019Y-64384250D01*
X83439026Y-64282648D01*
X83453709Y-64278194D01*
X83749039Y-64120337D01*
X83794599Y-64082947D01*
X83943031Y-63961132D01*
X83943035Y-63961128D01*
X84007897Y-63907897D01*
X84061129Y-63843034D01*
X84609550Y-63294613D01*
X84473760Y-63622439D01*
X84370000Y-64144073D01*
X84370000Y-64675927D01*
X84473760Y-65197561D01*
X84677291Y-65688930D01*
X84972773Y-66131150D01*
X85348850Y-66507227D01*
X85363485Y-66517006D01*
X85117757Y-66762734D01*
X85341066Y-66986043D01*
X84933896Y-67100654D01*
X84756567Y-67538895D01*
X84668142Y-68003310D01*
X84672019Y-68476053D01*
X84768049Y-68938955D01*
X84933896Y-69339346D01*
X85341068Y-69453957D01*
X86575025Y-68220000D01*
X86560883Y-68205858D01*
X87055858Y-67710883D01*
X87070000Y-67725025D01*
X87084142Y-67710883D01*
X87579117Y-68205858D01*
X87564975Y-68220000D01*
X88798932Y-69453957D01*
X89206104Y-69339346D01*
X89383433Y-68901105D01*
X89471858Y-68436690D01*
X89467981Y-67963947D01*
X89371951Y-67501045D01*
X89206104Y-67100654D01*
X88798934Y-66986043D01*
X89022243Y-66762734D01*
X88776515Y-66517006D01*
X88791150Y-66507227D01*
X88938903Y-66359474D01*
X89035093Y-66350000D01*
X95768285Y-66350000D01*
X106102000Y-76683716D01*
X106102000Y-76891927D01*
X106205760Y-77413561D01*
X106409291Y-77904930D01*
X106704773Y-78347150D01*
X107080850Y-78723227D01*
X107523070Y-79018709D01*
X108014439Y-79222240D01*
X108536073Y-79326000D01*
X109067927Y-79326000D01*
X109589561Y-79222240D01*
X110080930Y-79018709D01*
X110523150Y-78723227D01*
X110899227Y-78347150D01*
X111194709Y-77904930D01*
X111398240Y-77413561D01*
X111502000Y-76891927D01*
X111502000Y-76360073D01*
X111398240Y-75838439D01*
X111194709Y-75347070D01*
X110899227Y-74904850D01*
X110523150Y-74528773D01*
X110080930Y-74233291D01*
X109589561Y-74029760D01*
X109067927Y-73926000D01*
X108859716Y-73926000D01*
X104882648Y-69948932D01*
X109966043Y-69948932D01*
X110080654Y-70356104D01*
X110518895Y-70533433D01*
X110983310Y-70621858D01*
X111456053Y-70617981D01*
X111918955Y-70521951D01*
X112319346Y-70356104D01*
X112433957Y-69948932D01*
X111200000Y-68714975D01*
X109966043Y-69948932D01*
X104882648Y-69948932D01*
X98022605Y-63088890D01*
X97961530Y-63014470D01*
X97761123Y-62850000D01*
X106882285Y-62850000D01*
X108500000Y-64467716D01*
X108500000Y-64675927D01*
X108603760Y-65197561D01*
X108807291Y-65688930D01*
X109102773Y-66131150D01*
X109478850Y-66507227D01*
X109493485Y-66517006D01*
X109247757Y-66762734D01*
X109471066Y-66986043D01*
X109063896Y-67100654D01*
X108886567Y-67538895D01*
X108798142Y-68003310D01*
X108802019Y-68476053D01*
X108898049Y-68938955D01*
X109063896Y-69339346D01*
X109471068Y-69453957D01*
X110705025Y-68220000D01*
X110690883Y-68205858D01*
X111185858Y-67710883D01*
X111200000Y-67725025D01*
X111214142Y-67710883D01*
X111709117Y-68205858D01*
X111694975Y-68220000D01*
X112928932Y-69453957D01*
X113336104Y-69339346D01*
X113513433Y-68901105D01*
X113601858Y-68436690D01*
X113597981Y-67963947D01*
X113501951Y-67501045D01*
X113336104Y-67100654D01*
X112928934Y-66986043D01*
X113152243Y-66762734D01*
X112906515Y-66517006D01*
X112921150Y-66507227D01*
X113297227Y-66131150D01*
X113592709Y-65688930D01*
X113796240Y-65197561D01*
X113900000Y-64675927D01*
X113900000Y-64144073D01*
X113796240Y-63622439D01*
X113592709Y-63131070D01*
X113297227Y-62688850D01*
X112921150Y-62312773D01*
X112478930Y-62017291D01*
X111987561Y-61813760D01*
X111465927Y-61710000D01*
X111257716Y-61710000D01*
X109136605Y-59588890D01*
X109075530Y-59514470D01*
X108778604Y-59270789D01*
X108439843Y-59089718D01*
X108072267Y-58978215D01*
X107785795Y-58950000D01*
X107690000Y-58940565D01*
X107594205Y-58950000D01*
X95439366Y-58950000D01*
X94524298Y-58034932D01*
X107568043Y-58034932D01*
X107682654Y-58442104D01*
X108120895Y-58619433D01*
X108585310Y-58707858D01*
X109058053Y-58703981D01*
X109520955Y-58607951D01*
X109921346Y-58442104D01*
X110035957Y-58034932D01*
X108802000Y-56800975D01*
X107568043Y-58034932D01*
X94524298Y-58034932D01*
X92578676Y-56089310D01*
X106400142Y-56089310D01*
X106404019Y-56562053D01*
X106500049Y-57024955D01*
X106665896Y-57425346D01*
X107073068Y-57539957D01*
X108307025Y-56306000D01*
X109296975Y-56306000D01*
X110530932Y-57539957D01*
X110938104Y-57425346D01*
X111115433Y-56987105D01*
X111203858Y-56522690D01*
X111199981Y-56049947D01*
X111103951Y-55587045D01*
X110938104Y-55186654D01*
X110530932Y-55072043D01*
X109296975Y-56306000D01*
X108307025Y-56306000D01*
X107073068Y-55072043D01*
X106665896Y-55186654D01*
X106488567Y-55624895D01*
X106400142Y-56089310D01*
X92578676Y-56089310D01*
X91952561Y-55463196D01*
X92229188Y-55400864D01*
X92519921Y-55280438D01*
X92603525Y-54898500D01*
X92282093Y-54577068D01*
X107568043Y-54577068D01*
X108802000Y-55811025D01*
X110035957Y-54577068D01*
X109921346Y-54169896D01*
X109483105Y-53992567D01*
X109018690Y-53904142D01*
X108545947Y-53908019D01*
X108083045Y-54004049D01*
X107682654Y-54169896D01*
X107568043Y-54577068D01*
X92282093Y-54577068D01*
X91550000Y-53844975D01*
X91535858Y-53859117D01*
X91428153Y-53751412D01*
X91460000Y-53591304D01*
X91460000Y-53350000D01*
X92044975Y-53350000D01*
X93098500Y-54403525D01*
X93480438Y-54319921D01*
X93632567Y-53924675D01*
X93704665Y-53507344D01*
X93693960Y-53083966D01*
X93600864Y-52670812D01*
X93480438Y-52380079D01*
X93098500Y-52296475D01*
X92044975Y-53350000D01*
X91460000Y-53350000D01*
X91460000Y-53108696D01*
X91428153Y-52948588D01*
X91535858Y-52840883D01*
X91550000Y-52855025D01*
X92603525Y-51801500D01*
X92519921Y-51419562D01*
X92124675Y-51267433D01*
X91707344Y-51195335D01*
X91283966Y-51206040D01*
X90870812Y-51299136D01*
X90580079Y-51419562D01*
X90573669Y-51448845D01*
X90571784Y-51446960D01*
X90170510Y-51178838D01*
X89724639Y-50994152D01*
X89251304Y-50900000D01*
X88768696Y-50900000D01*
X88295361Y-50994152D01*
X87849490Y-51178838D01*
X87740000Y-51251997D01*
X87630510Y-51178838D01*
X87184639Y-50994152D01*
X86711304Y-50900000D01*
X86228696Y-50900000D01*
X85755361Y-50994152D01*
X85309490Y-51178838D01*
X85200000Y-51251997D01*
X85090510Y-51178838D01*
X84644639Y-50994152D01*
X84171304Y-50900000D01*
X83688696Y-50900000D01*
X83215361Y-50994152D01*
X82769490Y-51178838D01*
X82660000Y-51251997D01*
X82550510Y-51178838D01*
X82104639Y-50994152D01*
X81631304Y-50900000D01*
X81148696Y-50900000D01*
X80675361Y-50994152D01*
X80229490Y-51178838D01*
X80120000Y-51251997D01*
X80010510Y-51178838D01*
X79564639Y-50994152D01*
X79091304Y-50900000D01*
X78608696Y-50900000D01*
X78135361Y-50994152D01*
X77689490Y-51178838D01*
X77288216Y-51446960D01*
X76946960Y-51788216D01*
X76678838Y-52189490D01*
X76494152Y-52635361D01*
X76400000Y-53108696D01*
X76400000Y-53591304D01*
X76494152Y-54064639D01*
X76678838Y-54510510D01*
X76946960Y-54911784D01*
X77288216Y-55253040D01*
X77689490Y-55521162D01*
X78135361Y-55705848D01*
X78608696Y-55800000D01*
X79091304Y-55800000D01*
X79564639Y-55705848D01*
X80010510Y-55521162D01*
X80120000Y-55448003D01*
X80229490Y-55521162D01*
X80675361Y-55705848D01*
X81148696Y-55800000D01*
X81631304Y-55800000D01*
X82104639Y-55705848D01*
X82180000Y-55674632D01*
X82180000Y-56360713D01*
X82000000Y-56342985D01*
X79200000Y-56342985D01*
X78915750Y-56370981D01*
X78642424Y-56453894D01*
X78390526Y-56588536D01*
X78169735Y-56769735D01*
X77988536Y-56990526D01*
X77853894Y-57242424D01*
X77825332Y-57336579D01*
X77650157Y-57389718D01*
X77311396Y-57570789D01*
X77014470Y-57814470D01*
X76953400Y-57888884D01*
X61262890Y-73579395D01*
X61188470Y-73640470D01*
X60944789Y-73937396D01*
X60763718Y-74276158D01*
X60701338Y-74481797D01*
X60652215Y-74643734D01*
X60642855Y-74738768D01*
X60476773Y-74904850D01*
X60181291Y-75347070D01*
X59977760Y-75838439D01*
X59874000Y-76360073D01*
X59874000Y-76891927D01*
X59977760Y-77413561D01*
X60181291Y-77904930D01*
X60476773Y-78347150D01*
X60852850Y-78723227D01*
X61295070Y-79018709D01*
X61786439Y-79222240D01*
X62308073Y-79326000D01*
X62839927Y-79326000D01*
X63361561Y-79222240D01*
X63852930Y-79018709D01*
X64295150Y-78723227D01*
X64671227Y-78347150D01*
X64966709Y-77904930D01*
X65170240Y-77413561D01*
X65274000Y-76891927D01*
X65274000Y-76360073D01*
X65170240Y-75838439D01*
X64979578Y-75378138D01*
X66150001Y-74207714D01*
X66150000Y-81708497D01*
X65928838Y-82039490D01*
X65744152Y-82485361D01*
X65650000Y-82958696D01*
X65650000Y-83441304D01*
X65744152Y-83914639D01*
X65928838Y-84360510D01*
X66196960Y-84761784D01*
X66538216Y-85103040D01*
X66939490Y-85371162D01*
X67385361Y-85555848D01*
X67514513Y-85581538D01*
X67540203Y-85710690D01*
X67724889Y-86156561D01*
X67993011Y-86557835D01*
X68334267Y-86899091D01*
X68735541Y-87167213D01*
X69181412Y-87351899D01*
X69654747Y-87446051D01*
X70137355Y-87446051D01*
X70610690Y-87351899D01*
X71056561Y-87167213D01*
X71457835Y-86899091D01*
X71799091Y-86557835D01*
X72067213Y-86156561D01*
X72251899Y-85710690D01*
X72328810Y-85324032D01*
X72510063Y-85103175D01*
X72510062Y-97301777D01*
X70735961Y-96468650D01*
X68882976Y-95434960D01*
X67106593Y-94274519D01*
X65415485Y-92992990D01*
X64924347Y-92563712D01*
X65060483Y-92536633D01*
X65597349Y-92314256D01*
X66080516Y-91991415D01*
X66491415Y-91580516D01*
X66814256Y-91097349D01*
X67036633Y-90560483D01*
X67150000Y-89990550D01*
X67150000Y-89409450D01*
X67036633Y-88839517D01*
X66814256Y-88302651D01*
X66491415Y-87819484D01*
X66080516Y-87408585D01*
X65597349Y-87085744D01*
X65060483Y-86863367D01*
X64490550Y-86750000D01*
X63909450Y-86750000D01*
X63339517Y-86863367D01*
X62802651Y-87085744D01*
X62319484Y-87408585D01*
X61908585Y-87819484D01*
X61585744Y-88302651D01*
X61363367Y-88839517D01*
X61340029Y-88956845D01*
X60933917Y-88487105D01*
X59661560Y-86789093D01*
X58510745Y-85006453D01*
X57487091Y-83147892D01*
X56595578Y-81222453D01*
X55840551Y-79239519D01*
X55225680Y-77208732D01*
X54753970Y-75140016D01*
X54445654Y-73158696D01*
X55250000Y-73158696D01*
X55250000Y-73641304D01*
X55344152Y-74114639D01*
X55528838Y-74560510D01*
X55796960Y-74961784D01*
X56138216Y-75303040D01*
X56539490Y-75571162D01*
X56985361Y-75755848D01*
X57458696Y-75850000D01*
X57941304Y-75850000D01*
X58414639Y-75755848D01*
X58860510Y-75571162D01*
X59261784Y-75303040D01*
X59603040Y-74961784D01*
X59871162Y-74560510D01*
X60055848Y-74114639D01*
X60150000Y-73641304D01*
X60150000Y-73158696D01*
X60055848Y-72685361D01*
X59871162Y-72239490D01*
X59603040Y-71838216D01*
X59261784Y-71496960D01*
X58860510Y-71228838D01*
X58414639Y-71044152D01*
X57941304Y-70950000D01*
X57458696Y-70950000D01*
X56985361Y-71044152D01*
X56539490Y-71228838D01*
X56138216Y-71496960D01*
X55796960Y-71838216D01*
X55528838Y-72239490D01*
X55344152Y-72685361D01*
X55250000Y-73158696D01*
X54445654Y-73158696D01*
X54427715Y-73043422D01*
X54248505Y-70929184D01*
X54217214Y-68807596D01*
X54333994Y-66688995D01*
X54598274Y-64583701D01*
X55008773Y-62501948D01*
X55563480Y-60453934D01*
X55572983Y-60426578D01*
X55796960Y-60761784D01*
X56138216Y-61103040D01*
X56539490Y-61371162D01*
X56985361Y-61555848D01*
X57458696Y-61650000D01*
X57941304Y-61650000D01*
X58414639Y-61555848D01*
X58860510Y-61371162D01*
X59261784Y-61103040D01*
X59603040Y-60761784D01*
X59871162Y-60360510D01*
X60055848Y-59914639D01*
X60150000Y-59441304D01*
X60150000Y-58958696D01*
X60055848Y-58485361D01*
X59871162Y-58039490D01*
X59771708Y-57890646D01*
X61484329Y-57890646D01*
X61574160Y-58277617D01*
X61978015Y-58434792D01*
X62404773Y-58510159D01*
X62838034Y-58500821D01*
X63261149Y-58407137D01*
X63573840Y-58277617D01*
X63663671Y-57890646D01*
X62574000Y-56800975D01*
X61484329Y-57890646D01*
X59771708Y-57890646D01*
X59603040Y-57638216D01*
X59261784Y-57296960D01*
X58860510Y-57028838D01*
X58414639Y-56844152D01*
X57941304Y-56750000D01*
X57458696Y-56750000D01*
X56985361Y-56844152D01*
X56937893Y-56863814D01*
X57094047Y-56498687D01*
X57279686Y-56136773D01*
X60369841Y-56136773D01*
X60379179Y-56570034D01*
X60472863Y-56993149D01*
X60602383Y-57305840D01*
X60989354Y-57395671D01*
X62079025Y-56306000D01*
X63068975Y-56306000D01*
X64158646Y-57395671D01*
X64545617Y-57305840D01*
X64702792Y-56901985D01*
X64778159Y-56475227D01*
X64768821Y-56041966D01*
X64675137Y-55618851D01*
X64545617Y-55306160D01*
X64158646Y-55216329D01*
X63068975Y-56306000D01*
X62079025Y-56306000D01*
X60989354Y-55216329D01*
X60602383Y-55306160D01*
X60445208Y-55710015D01*
X60369841Y-56136773D01*
X57279686Y-56136773D01*
X58005708Y-54721354D01*
X61484329Y-54721354D01*
X62574000Y-55811025D01*
X63663671Y-54721354D01*
X63573840Y-54334383D01*
X63169985Y-54177208D01*
X62743227Y-54101841D01*
X62309966Y-54111179D01*
X61886851Y-54204863D01*
X61574160Y-54334383D01*
X61484329Y-54721354D01*
X58005708Y-54721354D01*
X58062447Y-54610739D01*
X59160175Y-52794959D01*
X60381908Y-51060151D01*
X61442831Y-49757243D01*
X61463367Y-49860483D01*
X61685744Y-50397349D01*
X62008585Y-50880516D01*
X62419484Y-51291415D01*
X62902651Y-51614256D01*
X63439517Y-51836633D01*
X64009450Y-51950000D01*
X64590550Y-51950000D01*
X65160483Y-51836633D01*
X65697349Y-51614256D01*
X66180516Y-51291415D01*
X66591415Y-50880516D01*
X66914256Y-50397349D01*
X67136633Y-49860483D01*
X67250000Y-49290550D01*
X67250000Y-48709450D01*
X67136633Y-48139517D01*
X66914256Y-47602651D01*
X66591415Y-47119484D01*
X66180516Y-46708585D01*
X65697349Y-46385744D01*
X65160483Y-46163367D01*
X65073773Y-46146119D01*
X66381224Y-45093210D01*
X68122596Y-43880896D01*
X69944315Y-42792994D01*
X71837465Y-41834829D01*
X73792844Y-41011056D01*
X75800934Y-40325687D01*
X77851926Y-39782068D01*
X79935851Y-39382842D01*
X82042558Y-39129954D01*
X84161758Y-39024640D01*
X86283155Y-39067411D01*
X86283155Y-39067411D01*
G37*
X86283155Y-39067411D02*
X88396386Y-39258057D01*
X90491167Y-39595649D01*
X92557332Y-40078553D01*
X94584745Y-40704399D01*
X96563572Y-41470148D01*
X98484163Y-42372067D01*
X100337158Y-43405765D01*
X102113531Y-44566199D01*
X103804639Y-45847728D01*
X104142358Y-46142911D01*
X104039517Y-46163367D01*
X103502651Y-46385744D01*
X103019484Y-46708585D01*
X102608585Y-47119484D01*
X102285744Y-47602651D01*
X102063367Y-48139517D01*
X101950000Y-48709450D01*
X101950000Y-49290550D01*
X102063367Y-49860483D01*
X102285744Y-50397349D01*
X102608585Y-50880516D01*
X103019484Y-51291415D01*
X103502651Y-51614256D01*
X104039517Y-51836633D01*
X104609450Y-51950000D01*
X105190550Y-51950000D01*
X105760483Y-51836633D01*
X106297349Y-51614256D01*
X106780516Y-51291415D01*
X107191415Y-50880516D01*
X107514256Y-50397349D01*
X107736633Y-49860483D01*
X107759684Y-49744597D01*
X108286207Y-50353613D01*
X109558560Y-52051618D01*
X110709376Y-53834259D01*
X111733033Y-55692826D01*
X112624541Y-57618253D01*
X113379575Y-59601203D01*
X113994444Y-61631986D01*
X114466153Y-63700700D01*
X114792409Y-65797296D01*
X114971619Y-67911534D01*
X115002910Y-70033122D01*
X114886130Y-72151724D01*
X114621848Y-74257030D01*
X114211351Y-76338770D01*
X113656644Y-78386784D01*
X112960420Y-80391132D01*
X112126077Y-82342031D01*
X111157680Y-84229973D01*
X110059949Y-86045759D01*
X108838211Y-87780574D01*
X107863983Y-88977012D01*
X107836633Y-88839517D01*
X107614256Y-88302651D01*
X107291415Y-87819484D01*
X106880516Y-87408585D01*
X106397349Y-87085744D01*
X105860483Y-86863367D01*
X105290550Y-86750000D01*
X104709450Y-86750000D01*
X104139517Y-86863367D01*
X103602651Y-87085744D01*
X103119484Y-87408585D01*
X102708585Y-87819484D01*
X102385744Y-88302651D01*
X102163367Y-88839517D01*
X102050000Y-89409450D01*
X102050000Y-89990550D01*
X102163367Y-90560483D01*
X102385744Y-91097349D01*
X102708585Y-91580516D01*
X103119484Y-91991415D01*
X103602651Y-92314256D01*
X104139517Y-92536633D01*
X104302298Y-92569012D01*
X102838909Y-93747500D01*
X101097522Y-94959826D01*
X99275814Y-96047721D01*
X97382670Y-97005884D01*
X96710062Y-97289244D01*
X96710062Y-79513733D01*
X96717803Y-79435136D01*
X96706726Y-79322663D01*
X96686911Y-79121481D01*
X96595421Y-78819880D01*
X96446850Y-78541923D01*
X96246907Y-78298291D01*
X96217972Y-78274545D01*
X96003275Y-78098348D01*
X95725318Y-77949777D01*
X95423717Y-77858287D01*
X95188659Y-77835136D01*
X95188658Y-77835136D01*
X95110062Y-77827395D01*
X95031465Y-77835136D01*
X74188659Y-77835136D01*
X74110062Y-77827395D01*
X74031466Y-77835136D01*
X74031465Y-77835136D01*
X73796407Y-77858287D01*
X73550000Y-77933034D01*
X73550000Y-75507715D01*
X73957715Y-75100000D01*
X78044436Y-75100000D01*
X78066640Y-75325439D01*
X78132398Y-75542215D01*
X78239184Y-75741997D01*
X78382893Y-75917107D01*
X78558003Y-76060816D01*
X78757785Y-76167602D01*
X78974561Y-76233360D01*
X79200000Y-76255564D01*
X79962500Y-76250000D01*
X80250000Y-75962500D01*
X80250000Y-74050000D01*
X80950000Y-74050000D01*
X80950000Y-75962500D01*
X81237500Y-76250000D01*
X82000000Y-76255564D01*
X82225439Y-76233360D01*
X82442215Y-76167602D01*
X82641997Y-76060816D01*
X82817107Y-75917107D01*
X82960816Y-75741997D01*
X83067602Y-75542215D01*
X83133360Y-75325439D01*
X83155564Y-75100000D01*
X83150000Y-74337500D01*
X82862500Y-74050000D01*
X80950000Y-74050000D01*
X80250000Y-74050000D01*
X78337500Y-74050000D01*
X78050000Y-74337500D01*
X78044436Y-75100000D01*
X73957715Y-75100000D01*
X76807716Y-72250000D01*
X77851596Y-72250000D01*
X77853894Y-72257576D01*
X77988536Y-72509474D01*
X78046480Y-72580078D01*
X78050000Y-73062500D01*
X78337500Y-73350000D01*
X80250000Y-73350000D01*
X80250000Y-73330000D01*
X80950000Y-73330000D01*
X80950000Y-73350000D01*
X82862500Y-73350000D01*
X83150000Y-73062500D01*
X83153520Y-72580078D01*
X83211464Y-72509474D01*
X83346106Y-72257576D01*
X83429019Y-71984250D01*
X83457015Y-71700000D01*
X83457015Y-69948932D01*
X85836043Y-69948932D01*
X85950654Y-70356104D01*
X86388895Y-70533433D01*
X86853310Y-70621858D01*
X87326053Y-70617981D01*
X87788955Y-70521951D01*
X88189346Y-70356104D01*
X88303957Y-69948932D01*
X87070000Y-68714975D01*
X85836043Y-69948932D01*
X83457015Y-69948932D01*
X83457015Y-68900000D01*
X83429019Y-68615750D01*
X83346106Y-68342424D01*
X83211464Y-68090526D01*
X83030265Y-67869735D01*
X82809474Y-67688536D01*
X82557576Y-67553894D01*
X82284250Y-67470981D01*
X82000000Y-67442985D01*
X79200000Y-67442985D01*
X78915750Y-67470981D01*
X78642424Y-67553894D01*
X78390526Y-67688536D01*
X78169735Y-67869735D01*
X77988536Y-68090526D01*
X77853894Y-68342424D01*
X77851596Y-68350000D01*
X76095795Y-68350000D01*
X76000000Y-68340565D01*
X75904205Y-68350000D01*
X75617733Y-68378215D01*
X75419309Y-68438406D01*
X78492008Y-65365707D01*
X78642424Y-65446106D01*
X78915750Y-65529019D01*
X79200000Y-65557015D01*
X82000000Y-65557015D01*
X82284250Y-65529019D01*
X82557576Y-65446106D01*
X82809474Y-65311464D01*
X83030265Y-65130265D01*
X83211464Y-64909474D01*
X83346106Y-64657576D01*
X83429019Y-64384250D01*
X83439026Y-64282648D01*
X83453709Y-64278194D01*
X83749039Y-64120337D01*
X83794599Y-64082947D01*
X83943031Y-63961132D01*
X83943035Y-63961128D01*
X84007897Y-63907897D01*
X84061129Y-63843034D01*
X84609550Y-63294613D01*
X84473760Y-63622439D01*
X84370000Y-64144073D01*
X84370000Y-64675927D01*
X84473760Y-65197561D01*
X84677291Y-65688930D01*
X84972773Y-66131150D01*
X85348850Y-66507227D01*
X85363485Y-66517006D01*
X85117757Y-66762734D01*
X85341066Y-66986043D01*
X84933896Y-67100654D01*
X84756567Y-67538895D01*
X84668142Y-68003310D01*
X84672019Y-68476053D01*
X84768049Y-68938955D01*
X84933896Y-69339346D01*
X85341068Y-69453957D01*
X86575025Y-68220000D01*
X86560883Y-68205858D01*
X87055858Y-67710883D01*
X87070000Y-67725025D01*
X87084142Y-67710883D01*
X87579117Y-68205858D01*
X87564975Y-68220000D01*
X88798932Y-69453957D01*
X89206104Y-69339346D01*
X89383433Y-68901105D01*
X89471858Y-68436690D01*
X89467981Y-67963947D01*
X89371951Y-67501045D01*
X89206104Y-67100654D01*
X88798934Y-66986043D01*
X89022243Y-66762734D01*
X88776515Y-66517006D01*
X88791150Y-66507227D01*
X88938903Y-66359474D01*
X89035093Y-66350000D01*
X95768285Y-66350000D01*
X106102000Y-76683716D01*
X106102000Y-76891927D01*
X106205760Y-77413561D01*
X106409291Y-77904930D01*
X106704773Y-78347150D01*
X107080850Y-78723227D01*
X107523070Y-79018709D01*
X108014439Y-79222240D01*
X108536073Y-79326000D01*
X109067927Y-79326000D01*
X109589561Y-79222240D01*
X110080930Y-79018709D01*
X110523150Y-78723227D01*
X110899227Y-78347150D01*
X111194709Y-77904930D01*
X111398240Y-77413561D01*
X111502000Y-76891927D01*
X111502000Y-76360073D01*
X111398240Y-75838439D01*
X111194709Y-75347070D01*
X110899227Y-74904850D01*
X110523150Y-74528773D01*
X110080930Y-74233291D01*
X109589561Y-74029760D01*
X109067927Y-73926000D01*
X108859716Y-73926000D01*
X104882648Y-69948932D01*
X109966043Y-69948932D01*
X110080654Y-70356104D01*
X110518895Y-70533433D01*
X110983310Y-70621858D01*
X111456053Y-70617981D01*
X111918955Y-70521951D01*
X112319346Y-70356104D01*
X112433957Y-69948932D01*
X111200000Y-68714975D01*
X109966043Y-69948932D01*
X104882648Y-69948932D01*
X98022605Y-63088890D01*
X97961530Y-63014470D01*
X97761123Y-62850000D01*
X106882285Y-62850000D01*
X108500000Y-64467716D01*
X108500000Y-64675927D01*
X108603760Y-65197561D01*
X108807291Y-65688930D01*
X109102773Y-66131150D01*
X109478850Y-66507227D01*
X109493485Y-66517006D01*
X109247757Y-66762734D01*
X109471066Y-66986043D01*
X109063896Y-67100654D01*
X108886567Y-67538895D01*
X108798142Y-68003310D01*
X108802019Y-68476053D01*
X108898049Y-68938955D01*
X109063896Y-69339346D01*
X109471068Y-69453957D01*
X110705025Y-68220000D01*
X110690883Y-68205858D01*
X111185858Y-67710883D01*
X111200000Y-67725025D01*
X111214142Y-67710883D01*
X111709117Y-68205858D01*
X111694975Y-68220000D01*
X112928932Y-69453957D01*
X113336104Y-69339346D01*
X113513433Y-68901105D01*
X113601858Y-68436690D01*
X113597981Y-67963947D01*
X113501951Y-67501045D01*
X113336104Y-67100654D01*
X112928934Y-66986043D01*
X113152243Y-66762734D01*
X112906515Y-66517006D01*
X112921150Y-66507227D01*
X113297227Y-66131150D01*
X113592709Y-65688930D01*
X113796240Y-65197561D01*
X113900000Y-64675927D01*
X113900000Y-64144073D01*
X113796240Y-63622439D01*
X113592709Y-63131070D01*
X113297227Y-62688850D01*
X112921150Y-62312773D01*
X112478930Y-62017291D01*
X111987561Y-61813760D01*
X111465927Y-61710000D01*
X111257716Y-61710000D01*
X109136605Y-59588890D01*
X109075530Y-59514470D01*
X108778604Y-59270789D01*
X108439843Y-59089718D01*
X108072267Y-58978215D01*
X107785795Y-58950000D01*
X107690000Y-58940565D01*
X107594205Y-58950000D01*
X95439366Y-58950000D01*
X94524298Y-58034932D01*
X107568043Y-58034932D01*
X107682654Y-58442104D01*
X108120895Y-58619433D01*
X108585310Y-58707858D01*
X109058053Y-58703981D01*
X109520955Y-58607951D01*
X109921346Y-58442104D01*
X110035957Y-58034932D01*
X108802000Y-56800975D01*
X107568043Y-58034932D01*
X94524298Y-58034932D01*
X92578676Y-56089310D01*
X106400142Y-56089310D01*
X106404019Y-56562053D01*
X106500049Y-57024955D01*
X106665896Y-57425346D01*
X107073068Y-57539957D01*
X108307025Y-56306000D01*
X109296975Y-56306000D01*
X110530932Y-57539957D01*
X110938104Y-57425346D01*
X111115433Y-56987105D01*
X111203858Y-56522690D01*
X111199981Y-56049947D01*
X111103951Y-55587045D01*
X110938104Y-55186654D01*
X110530932Y-55072043D01*
X109296975Y-56306000D01*
X108307025Y-56306000D01*
X107073068Y-55072043D01*
X106665896Y-55186654D01*
X106488567Y-55624895D01*
X106400142Y-56089310D01*
X92578676Y-56089310D01*
X91952561Y-55463196D01*
X92229188Y-55400864D01*
X92519921Y-55280438D01*
X92603525Y-54898500D01*
X92282093Y-54577068D01*
X107568043Y-54577068D01*
X108802000Y-55811025D01*
X110035957Y-54577068D01*
X109921346Y-54169896D01*
X109483105Y-53992567D01*
X109018690Y-53904142D01*
X108545947Y-53908019D01*
X108083045Y-54004049D01*
X107682654Y-54169896D01*
X107568043Y-54577068D01*
X92282093Y-54577068D01*
X91550000Y-53844975D01*
X91535858Y-53859117D01*
X91428153Y-53751412D01*
X91460000Y-53591304D01*
X91460000Y-53350000D01*
X92044975Y-53350000D01*
X93098500Y-54403525D01*
X93480438Y-54319921D01*
X93632567Y-53924675D01*
X93704665Y-53507344D01*
X93693960Y-53083966D01*
X93600864Y-52670812D01*
X93480438Y-52380079D01*
X93098500Y-52296475D01*
X92044975Y-53350000D01*
X91460000Y-53350000D01*
X91460000Y-53108696D01*
X91428153Y-52948588D01*
X91535858Y-52840883D01*
X91550000Y-52855025D01*
X92603525Y-51801500D01*
X92519921Y-51419562D01*
X92124675Y-51267433D01*
X91707344Y-51195335D01*
X91283966Y-51206040D01*
X90870812Y-51299136D01*
X90580079Y-51419562D01*
X90573669Y-51448845D01*
X90571784Y-51446960D01*
X90170510Y-51178838D01*
X89724639Y-50994152D01*
X89251304Y-50900000D01*
X88768696Y-50900000D01*
X88295361Y-50994152D01*
X87849490Y-51178838D01*
X87740000Y-51251997D01*
X87630510Y-51178838D01*
X87184639Y-50994152D01*
X86711304Y-50900000D01*
X86228696Y-50900000D01*
X85755361Y-50994152D01*
X85309490Y-51178838D01*
X85200000Y-51251997D01*
X85090510Y-51178838D01*
X84644639Y-50994152D01*
X84171304Y-50900000D01*
X83688696Y-50900000D01*
X83215361Y-50994152D01*
X82769490Y-51178838D01*
X82660000Y-51251997D01*
X82550510Y-51178838D01*
X82104639Y-50994152D01*
X81631304Y-50900000D01*
X81148696Y-50900000D01*
X80675361Y-50994152D01*
X80229490Y-51178838D01*
X80120000Y-51251997D01*
X80010510Y-51178838D01*
X79564639Y-50994152D01*
X79091304Y-50900000D01*
X78608696Y-50900000D01*
X78135361Y-50994152D01*
X77689490Y-51178838D01*
X77288216Y-51446960D01*
X76946960Y-51788216D01*
X76678838Y-52189490D01*
X76494152Y-52635361D01*
X76400000Y-53108696D01*
X76400000Y-53591304D01*
X76494152Y-54064639D01*
X76678838Y-54510510D01*
X76946960Y-54911784D01*
X77288216Y-55253040D01*
X77689490Y-55521162D01*
X78135361Y-55705848D01*
X78608696Y-55800000D01*
X79091304Y-55800000D01*
X79564639Y-55705848D01*
X80010510Y-55521162D01*
X80120000Y-55448003D01*
X80229490Y-55521162D01*
X80675361Y-55705848D01*
X81148696Y-55800000D01*
X81631304Y-55800000D01*
X82104639Y-55705848D01*
X82180000Y-55674632D01*
X82180000Y-56360713D01*
X82000000Y-56342985D01*
X79200000Y-56342985D01*
X78915750Y-56370981D01*
X78642424Y-56453894D01*
X78390526Y-56588536D01*
X78169735Y-56769735D01*
X77988536Y-56990526D01*
X77853894Y-57242424D01*
X77825332Y-57336579D01*
X77650157Y-57389718D01*
X77311396Y-57570789D01*
X77014470Y-57814470D01*
X76953400Y-57888884D01*
X61262890Y-73579395D01*
X61188470Y-73640470D01*
X60944789Y-73937396D01*
X60763718Y-74276158D01*
X60701338Y-74481797D01*
X60652215Y-74643734D01*
X60642855Y-74738768D01*
X60476773Y-74904850D01*
X60181291Y-75347070D01*
X59977760Y-75838439D01*
X59874000Y-76360073D01*
X59874000Y-76891927D01*
X59977760Y-77413561D01*
X60181291Y-77904930D01*
X60476773Y-78347150D01*
X60852850Y-78723227D01*
X61295070Y-79018709D01*
X61786439Y-79222240D01*
X62308073Y-79326000D01*
X62839927Y-79326000D01*
X63361561Y-79222240D01*
X63852930Y-79018709D01*
X64295150Y-78723227D01*
X64671227Y-78347150D01*
X64966709Y-77904930D01*
X65170240Y-77413561D01*
X65274000Y-76891927D01*
X65274000Y-76360073D01*
X65170240Y-75838439D01*
X64979578Y-75378138D01*
X66150001Y-74207714D01*
X66150000Y-81708497D01*
X65928838Y-82039490D01*
X65744152Y-82485361D01*
X65650000Y-82958696D01*
X65650000Y-83441304D01*
X65744152Y-83914639D01*
X65928838Y-84360510D01*
X66196960Y-84761784D01*
X66538216Y-85103040D01*
X66939490Y-85371162D01*
X67385361Y-85555848D01*
X67514513Y-85581538D01*
X67540203Y-85710690D01*
X67724889Y-86156561D01*
X67993011Y-86557835D01*
X68334267Y-86899091D01*
X68735541Y-87167213D01*
X69181412Y-87351899D01*
X69654747Y-87446051D01*
X70137355Y-87446051D01*
X70610690Y-87351899D01*
X71056561Y-87167213D01*
X71457835Y-86899091D01*
X71799091Y-86557835D01*
X72067213Y-86156561D01*
X72251899Y-85710690D01*
X72328810Y-85324032D01*
X72510063Y-85103175D01*
X72510062Y-97301777D01*
X70735961Y-96468650D01*
X68882976Y-95434960D01*
X67106593Y-94274519D01*
X65415485Y-92992990D01*
X64924347Y-92563712D01*
X65060483Y-92536633D01*
X65597349Y-92314256D01*
X66080516Y-91991415D01*
X66491415Y-91580516D01*
X66814256Y-91097349D01*
X67036633Y-90560483D01*
X67150000Y-89990550D01*
X67150000Y-89409450D01*
X67036633Y-88839517D01*
X66814256Y-88302651D01*
X66491415Y-87819484D01*
X66080516Y-87408585D01*
X65597349Y-87085744D01*
X65060483Y-86863367D01*
X64490550Y-86750000D01*
X63909450Y-86750000D01*
X63339517Y-86863367D01*
X62802651Y-87085744D01*
X62319484Y-87408585D01*
X61908585Y-87819484D01*
X61585744Y-88302651D01*
X61363367Y-88839517D01*
X61340029Y-88956845D01*
X60933917Y-88487105D01*
X59661560Y-86789093D01*
X58510745Y-85006453D01*
X57487091Y-83147892D01*
X56595578Y-81222453D01*
X55840551Y-79239519D01*
X55225680Y-77208732D01*
X54753970Y-75140016D01*
X54445654Y-73158696D01*
X55250000Y-73158696D01*
X55250000Y-73641304D01*
X55344152Y-74114639D01*
X55528838Y-74560510D01*
X55796960Y-74961784D01*
X56138216Y-75303040D01*
X56539490Y-75571162D01*
X56985361Y-75755848D01*
X57458696Y-75850000D01*
X57941304Y-75850000D01*
X58414639Y-75755848D01*
X58860510Y-75571162D01*
X59261784Y-75303040D01*
X59603040Y-74961784D01*
X59871162Y-74560510D01*
X60055848Y-74114639D01*
X60150000Y-73641304D01*
X60150000Y-73158696D01*
X60055848Y-72685361D01*
X59871162Y-72239490D01*
X59603040Y-71838216D01*
X59261784Y-71496960D01*
X58860510Y-71228838D01*
X58414639Y-71044152D01*
X57941304Y-70950000D01*
X57458696Y-70950000D01*
X56985361Y-71044152D01*
X56539490Y-71228838D01*
X56138216Y-71496960D01*
X55796960Y-71838216D01*
X55528838Y-72239490D01*
X55344152Y-72685361D01*
X55250000Y-73158696D01*
X54445654Y-73158696D01*
X54427715Y-73043422D01*
X54248505Y-70929184D01*
X54217214Y-68807596D01*
X54333994Y-66688995D01*
X54598274Y-64583701D01*
X55008773Y-62501948D01*
X55563480Y-60453934D01*
X55572983Y-60426578D01*
X55796960Y-60761784D01*
X56138216Y-61103040D01*
X56539490Y-61371162D01*
X56985361Y-61555848D01*
X57458696Y-61650000D01*
X57941304Y-61650000D01*
X58414639Y-61555848D01*
X58860510Y-61371162D01*
X59261784Y-61103040D01*
X59603040Y-60761784D01*
X59871162Y-60360510D01*
X60055848Y-59914639D01*
X60150000Y-59441304D01*
X60150000Y-58958696D01*
X60055848Y-58485361D01*
X59871162Y-58039490D01*
X59771708Y-57890646D01*
X61484329Y-57890646D01*
X61574160Y-58277617D01*
X61978015Y-58434792D01*
X62404773Y-58510159D01*
X62838034Y-58500821D01*
X63261149Y-58407137D01*
X63573840Y-58277617D01*
X63663671Y-57890646D01*
X62574000Y-56800975D01*
X61484329Y-57890646D01*
X59771708Y-57890646D01*
X59603040Y-57638216D01*
X59261784Y-57296960D01*
X58860510Y-57028838D01*
X58414639Y-56844152D01*
X57941304Y-56750000D01*
X57458696Y-56750000D01*
X56985361Y-56844152D01*
X56937893Y-56863814D01*
X57094047Y-56498687D01*
X57279686Y-56136773D01*
X60369841Y-56136773D01*
X60379179Y-56570034D01*
X60472863Y-56993149D01*
X60602383Y-57305840D01*
X60989354Y-57395671D01*
X62079025Y-56306000D01*
X63068975Y-56306000D01*
X64158646Y-57395671D01*
X64545617Y-57305840D01*
X64702792Y-56901985D01*
X64778159Y-56475227D01*
X64768821Y-56041966D01*
X64675137Y-55618851D01*
X64545617Y-55306160D01*
X64158646Y-55216329D01*
X63068975Y-56306000D01*
X62079025Y-56306000D01*
X60989354Y-55216329D01*
X60602383Y-55306160D01*
X60445208Y-55710015D01*
X60369841Y-56136773D01*
X57279686Y-56136773D01*
X58005708Y-54721354D01*
X61484329Y-54721354D01*
X62574000Y-55811025D01*
X63663671Y-54721354D01*
X63573840Y-54334383D01*
X63169985Y-54177208D01*
X62743227Y-54101841D01*
X62309966Y-54111179D01*
X61886851Y-54204863D01*
X61574160Y-54334383D01*
X61484329Y-54721354D01*
X58005708Y-54721354D01*
X58062447Y-54610739D01*
X59160175Y-52794959D01*
X60381908Y-51060151D01*
X61442831Y-49757243D01*
X61463367Y-49860483D01*
X61685744Y-50397349D01*
X62008585Y-50880516D01*
X62419484Y-51291415D01*
X62902651Y-51614256D01*
X63439517Y-51836633D01*
X64009450Y-51950000D01*
X64590550Y-51950000D01*
X65160483Y-51836633D01*
X65697349Y-51614256D01*
X66180516Y-51291415D01*
X66591415Y-50880516D01*
X66914256Y-50397349D01*
X67136633Y-49860483D01*
X67250000Y-49290550D01*
X67250000Y-48709450D01*
X67136633Y-48139517D01*
X66914256Y-47602651D01*
X66591415Y-47119484D01*
X66180516Y-46708585D01*
X65697349Y-46385744D01*
X65160483Y-46163367D01*
X65073773Y-46146119D01*
X66381224Y-45093210D01*
X68122596Y-43880896D01*
X69944315Y-42792994D01*
X71837465Y-41834829D01*
X73792844Y-41011056D01*
X75800934Y-40325687D01*
X77851926Y-39782068D01*
X79935851Y-39382842D01*
X82042558Y-39129954D01*
X84161758Y-39024640D01*
X86283155Y-39067411D01*
M02*
