M48
; DRILL file {KiCad (5.1.2)-2} date 20/10/2019 14:27:13
; FORMAT={-:-/ absolute / metric / decimal}
; #@! TF.CreationDate,2019-10-20T14:27:13-03:00
; #@! TF.GenerationSoftware,Kicad,Pcbnew,(5.1.2)-2
FMAT,2
METRIC
T1C0.800
T2C3.000
%
G90
G05
T1
X80.6Y-70.3
X69.896Y-84.996
X87.07Y-64.41
X87.07Y-68.22
X111.2Y-64.41
X111.2Y-68.22
X80.6Y-59.2
X80.6Y-62.7
X80.6Y-73.7
X78.85Y-53.35
X81.39Y-53.35
X83.93Y-53.35
X86.47Y-53.35
X89.01Y-53.35
X91.55Y-53.35
X68.1Y-83.2
X62.574Y-56.306
X62.574Y-76.626
X108.802Y-56.306
X108.802Y-76.626
T2
X64.3Y-49.0
X64.2Y-89.7
X105.0Y-89.7
X104.9Y-49.0
T0
M30
